<svg xmlns="http://www.w3.org/2000/svg" xmlns:xlink="http://www.w3.org/1999/xlink" id="Layer_1" x="0px" y="0px" viewBox="0 0 95 95" style="enable-background:new 0 0 95 95;" xml:space="preserve"><style type="text/css">	.st0{fill-rule:evenodd;clip-rule:evenodd;fill:#BBBBBB;}	.st1{fill:#BBBBBB;}</style><g>	<path class="st0" d="M7.73,58.08h3.74V28.89c7.4,0,14.81,0,22.14,0c3.24,0,7.76-0.42,10.65,0.42c13.04,3.74,12.27,21.58-0.92,24.54  c-2.68,0.63-7.9,0.35-10.93,0.35V38.4H28.6v19.67c12.55-0.14,19.88,2.04,27.15-9.66c0.99-1.62,13.04-21.79,13.47-23.41h-4.16  c-0.42,1.06-7.26,12.06-7.97,12.76c-2.96-9.02-7.69-12.76-18.33-12.76c-10.29,0-20.73,0.21-31.02,0V58.08z"></path>	<path class="st0" d="M12.74,42.28l14.38,0.07V38.4h-8.53c-1.83,0-2.4,1.06-1.97-4.16c2.61-0.49,10.72-0.14,13.96-0.14  c3.31,0,11.07-0.49,13.54,0.78c5.92,3.03,5.22,10.29,0.28,13.04c-2.04,1.13-3.95,0.85-6.56,0.78V38.4l-4.02,0.07l0.07,14.03h7.47  c11.28,0,14.74-15.02,5.78-20.45c-4.3-2.61-10.86-1.76-16.36-1.76c-2.96,0-16.29-0.14-18.05,0.07V42.28z"></path>	<path class="st0" d="M51.87,58.01l4.79,0.07c0.85,0,2.89-4.23,3.38-5.08c1.06-1.83,1.97-3.6,3.03-5.43  c1.41-2.26,5.15-9.31,6.28-10.86c0.35,0.28,6.84,10.65,7.4,12.06L64,48.7l-0.07,3.81h19.81c-0.35-1.2-9.17-15.16-10.65-17.7  l-3.17-5.08c-0.28-0.35,0.07,0.07-0.21-0.28c-0.14-0.21-0.21-0.21-0.35-0.35c-0.78,0.99-1.55,2.33-2.19,3.45l-11,18.19  C54.76,53.14,53.14,55.61,51.87,58.01L51.87,58.01z"></path>	<path class="st0" d="M86.56,54.13c0.42-0.49,1.97-2.89,2.19-3.53c0.35-0.99-0.85-2.4-1.76-3.81c-1.41-2.4-2.89-4.94-4.44-7.33  l-8.95-14.38l-4.02-0.07c0.42,1.27,7.69,13.33,8.46,14.52l6.35,10.79C85.01,51.45,86.14,52.93,86.56,54.13L86.56,54.13z"></path>	<path class="st0" d="M12.74,58.01l3.81,0.07V47.85h10.44c0.21-1.13,0.28-2.68-0.07-3.74H12.88L12.74,58.01z"></path>	<path class="st0" d="M86.56,54.13L64,54.2l-0.07,3.88h0.28H84.3C84.94,56.74,85.86,55.54,86.56,54.13L86.56,54.13z"></path>	<path class="st1" d="M1.53,68.09V61.6h3.1v1.13H2.45v1.55h1.9v1.06h-1.9v2.75H1.53z M5.2,65.69c0-0.42,0.07-0.78,0.21-1.2  c0.14-0.35,0.35-0.63,0.56-0.85c0.28-0.21,0.56-0.35,0.92-0.35c0.49,0,0.92,0.28,1.2,0.71c0.35,0.49,0.49,1.06,0.49,1.76  s-0.14,1.27-0.49,1.76c-0.28,0.49-0.71,0.71-1.2,0.71c-0.28,0-0.56-0.07-0.85-0.28c-0.28-0.21-0.49-0.49-0.63-0.85  C5.27,66.68,5.2,66.25,5.2,65.69L5.2,65.69z M6.11,65.76c0,0.49,0.07,0.85,0.21,1.06c0.14,0.28,0.35,0.42,0.56,0.42  s0.42-0.14,0.56-0.42c0.14-0.21,0.21-0.56,0.21-1.06s-0.07-0.85-0.21-1.06c-0.14-0.28-0.35-0.35-0.56-0.35s-0.42,0.07-0.56,0.35  C6.18,64.92,6.11,65.34,6.11,65.76L6.11,65.76z M9.07,65.69c0-0.42,0.07-0.78,0.21-1.2c0.14-0.35,0.35-0.63,0.56-0.85  c0.28-0.21,0.56-0.35,0.92-0.35c0.49,0,0.85,0.28,1.2,0.71c0.28,0.49,0.49,1.06,0.49,1.76s-0.21,1.27-0.49,1.76  c-0.35,0.49-0.71,0.71-1.2,0.71c-0.35,0-0.63-0.07-0.92-0.28c-0.21-0.21-0.42-0.49-0.56-0.85C9.14,66.68,9.07,66.25,9.07,65.69  L9.07,65.69z M9.92,65.76c0,0.49,0.07,0.85,0.28,1.06c0.14,0.28,0.28,0.42,0.56,0.42c0.21,0,0.42-0.14,0.56-0.42  c0.14-0.21,0.21-0.56,0.21-1.06s-0.07-0.85-0.21-1.06c-0.14-0.28-0.35-0.35-0.56-0.35c-0.28,0-0.42,0.07-0.56,0.35  C9.99,64.92,9.92,65.34,9.92,65.76L9.92,65.76z M16.12,68.09h-0.78v-0.63c-0.14,0.21-0.35,0.42-0.49,0.56  c-0.21,0.14-0.35,0.21-0.56,0.21c-0.35,0-0.71-0.21-0.99-0.63c-0.28-0.42-0.42-1.06-0.42-1.83s0.14-1.41,0.42-1.83  c0.28-0.42,0.56-0.63,0.99-0.63c0.35,0,0.71,0.21,0.99,0.71v-2.4h0.85V68.09z M13.8,65.69c0,0.49,0.07,0.85,0.14,1.06  c0.14,0.35,0.35,0.49,0.56,0.49c0.21,0,0.42-0.14,0.56-0.35c0.14-0.28,0.21-0.63,0.21-1.13s-0.07-0.92-0.21-1.13  c-0.14-0.28-0.35-0.35-0.56-0.35c-0.21,0-0.35,0.07-0.49,0.35C13.87,64.84,13.8,65.2,13.8,65.69L13.8,65.69z M18.52,66.04  l0.85-0.14c0.07,0.42,0.21,0.71,0.35,0.92c0.14,0.21,0.35,0.28,0.63,0.28s0.56-0.07,0.71-0.21c0.14-0.21,0.21-0.42,0.21-0.63  c0-0.21-0.07-0.28-0.14-0.42c0-0.07-0.14-0.21-0.28-0.28c-0.14-0.07-0.35-0.14-0.78-0.28s-0.78-0.35-0.99-0.63  c-0.28-0.35-0.42-0.78-0.42-1.27c0-0.35,0.07-0.71,0.21-0.99c0.14-0.28,0.28-0.49,0.56-0.63c0.21-0.14,0.49-0.21,0.85-0.21  c0.56,0,0.99,0.14,1.27,0.49c0.35,0.42,0.49,0.85,0.49,1.48l-0.92,0.07c-0.07-0.35-0.14-0.63-0.28-0.78  c-0.07-0.14-0.28-0.21-0.56-0.21s-0.42,0.07-0.63,0.28c-0.07,0.07-0.14,0.21-0.14,0.35c0,0.14,0.07,0.28,0.14,0.42  c0.14,0.14,0.42,0.28,0.85,0.42s0.78,0.28,0.99,0.49c0.21,0.14,0.42,0.35,0.49,0.63c0.14,0.28,0.21,0.63,0.21,1.06  c0,0.35-0.07,0.71-0.21,0.99c-0.14,0.35-0.35,0.56-0.63,0.78c-0.28,0.14-0.56,0.21-0.99,0.21c-0.56,0-0.99-0.21-1.34-0.56  C18.73,67.31,18.52,66.75,18.52,66.04L18.52,66.04z M23.6,64.84l-0.78-0.21c0.07-0.42,0.21-0.78,0.42-0.99  c0.21-0.21,0.56-0.35,0.99-0.35c0.35,0,0.63,0.07,0.85,0.21c0.21,0.14,0.35,0.28,0.42,0.49c0.07,0.21,0.07,0.56,0.07,1.13v1.41  c0,0.42,0,0.78,0.07,0.92c0,0.21,0.07,0.42,0.14,0.63h-0.85c0-0.07-0.07-0.21-0.07-0.35c-0.07-0.07-0.07-0.14-0.07-0.14  c-0.14,0.21-0.28,0.35-0.42,0.49c-0.21,0.07-0.35,0.14-0.56,0.14c-0.35,0-0.63-0.14-0.78-0.42c-0.21-0.21-0.35-0.56-0.35-0.99  c0-0.21,0.07-0.49,0.14-0.71c0.14-0.21,0.21-0.35,0.42-0.49c0.14-0.07,0.35-0.14,0.63-0.28c0.42-0.07,0.71-0.21,0.85-0.28v-0.14  c0-0.21,0-0.42-0.07-0.49c-0.14-0.07-0.28-0.14-0.49-0.14c-0.14,0-0.28,0-0.35,0.14C23.74,64.49,23.67,64.63,23.6,64.84L23.6,64.84  z M24.73,65.83c-0.07,0.07-0.28,0.14-0.49,0.21c-0.28,0.07-0.42,0.14-0.49,0.21c-0.07,0.14-0.14,0.28-0.14,0.42  c0,0.21,0,0.35,0.14,0.49c0.07,0.14,0.21,0.21,0.35,0.21c0.14,0,0.28-0.14,0.42-0.28c0.07-0.07,0.14-0.21,0.21-0.35  c0-0.14,0-0.35,0-0.63V65.83z M26.07,63.43h0.49v-0.35c0-0.42,0-0.71,0.07-0.92c0.07-0.21,0.21-0.35,0.35-0.49  c0.14-0.07,0.35-0.14,0.56-0.14c0.28,0,0.49,0.07,0.78,0.14l-0.14,0.85c-0.14,0-0.28-0.07-0.42-0.07c-0.07,0-0.21,0.07-0.28,0.14  c0,0.07-0.07,0.28-0.07,0.49v0.35h0.71v0.99h-0.71v3.67h-0.85v-3.67h-0.49V63.43z M30.44,66.61l0.92,0.21  c-0.14,0.49-0.28,0.85-0.56,1.06c-0.21,0.21-0.56,0.35-0.92,0.35c-0.56,0-0.99-0.28-1.27-0.78c-0.21-0.42-0.28-0.99-0.28-1.62  c0-0.78,0.14-1.41,0.42-1.83c0.28-0.49,0.63-0.71,1.06-0.71c0.49,0,0.85,0.28,1.13,0.71c0.28,0.49,0.42,1.2,0.42,2.12h-2.19  c0.07,0.35,0.14,0.63,0.21,0.85c0.14,0.21,0.35,0.35,0.56,0.35c0.07,0,0.21-0.07,0.28-0.21C30.37,67.03,30.44,66.89,30.44,66.61  L30.44,66.61z M30.51,65.34c0-0.35-0.07-0.63-0.21-0.78c-0.07-0.21-0.28-0.28-0.42-0.28c-0.21,0-0.35,0.07-0.49,0.28  c-0.07,0.21-0.14,0.49-0.14,0.78H30.51z M33.61,63.43v0.99h-0.63v1.9c0,0.35,0,0.56,0,0.63c0,0.07,0.07,0.14,0.07,0.14  c0.07,0.07,0.14,0.07,0.21,0.07s0.14,0,0.28-0.07l0.14,0.92c-0.21,0.14-0.49,0.21-0.71,0.21c-0.14,0-0.28-0.07-0.42-0.14  c-0.14-0.07-0.21-0.14-0.28-0.28c-0.07-0.14-0.07-0.28-0.14-0.49c0-0.14,0-0.42,0-0.85v-2.04h-0.42v-0.99h0.42v-0.92l0.85-0.78  v1.69H33.61z M33.75,63.43h0.92l0.78,3.31l0.78-3.31h0.92l-1.13,4.51l-0.21,0.78c-0.07,0.28-0.14,0.49-0.21,0.63  c-0.07,0.14-0.21,0.28-0.28,0.35s-0.21,0.14-0.28,0.21c-0.14,0.07-0.28,0.07-0.49,0.07c-0.14,0-0.28,0-0.49-0.07l-0.07-0.99  C34.1,69,34.24,69,34.32,69c0.21,0,0.35-0.07,0.49-0.21c0.07-0.21,0.14-0.42,0.21-0.71L33.75,63.43z M39.46,68.09V61.6h1.34  l0.85,4.44l0.78-4.44h1.41v6.49h-0.85v-5.08l-0.92,5.08h-0.92l-0.85-5.08v5.08H39.46z M44.54,65.69c0-0.42,0.07-0.78,0.21-1.2  c0.14-0.35,0.35-0.63,0.56-0.85c0.28-0.21,0.56-0.35,0.92-0.35c0.49,0,0.85,0.28,1.2,0.71c0.28,0.49,0.49,1.06,0.49,1.76  s-0.21,1.27-0.49,1.76c-0.35,0.49-0.71,0.71-1.2,0.71c-0.35,0-0.63-0.07-0.85-0.28c-0.28-0.21-0.49-0.49-0.63-0.85  C44.61,66.68,44.54,66.25,44.54,65.69L44.54,65.69z M45.38,65.76c0,0.49,0.07,0.85,0.28,1.06c0.14,0.28,0.28,0.42,0.56,0.42  c0.21,0,0.42-0.14,0.56-0.42c0.14-0.21,0.21-0.56,0.21-1.06s-0.07-0.85-0.21-1.06c-0.14-0.28-0.35-0.35-0.56-0.35  c-0.28,0-0.42,0.07-0.56,0.35C45.46,64.92,45.38,65.34,45.38,65.76L45.38,65.76z M51.59,68.09h-0.78v-0.63  c-0.14,0.21-0.35,0.42-0.49,0.56c-0.21,0.14-0.35,0.21-0.56,0.21c-0.35,0-0.71-0.21-0.99-0.63c-0.28-0.42-0.35-1.06-0.35-1.83  s0.07-1.41,0.35-1.83c0.28-0.42,0.63-0.63,0.99-0.63c0.35,0,0.71,0.21,0.99,0.71v-2.4h0.85V68.09z M49.26,65.69  c0,0.49,0.07,0.85,0.14,1.06c0.14,0.35,0.35,0.49,0.63,0.49c0.14,0,0.35-0.14,0.49-0.35c0.14-0.28,0.21-0.63,0.21-1.13  s-0.07-0.92-0.21-1.13c-0.14-0.28-0.35-0.35-0.56-0.35c-0.14,0-0.35,0.07-0.49,0.35C49.33,64.84,49.26,65.2,49.26,65.69  L49.26,65.69z M54.34,66.61l0.85,0.21c-0.07,0.49-0.28,0.85-0.49,1.06c-0.28,0.21-0.56,0.35-0.92,0.35c-0.56,0-0.99-0.28-1.27-0.78  c-0.21-0.42-0.35-0.99-0.35-1.62c0-0.78,0.14-1.41,0.49-1.83c0.28-0.49,0.63-0.71,1.06-0.71c0.49,0,0.85,0.28,1.13,0.71  c0.28,0.49,0.42,1.2,0.42,2.12h-2.19c0,0.35,0.07,0.63,0.21,0.85c0.14,0.21,0.28,0.35,0.49,0.35c0.14,0,0.28-0.07,0.35-0.21  C54.2,67.03,54.27,66.89,54.34,66.61L54.34,66.61z M54.41,65.34c0-0.35-0.07-0.63-0.21-0.78c-0.14-0.21-0.28-0.28-0.42-0.28  c-0.21,0-0.35,0.07-0.49,0.28c-0.14,0.21-0.21,0.49-0.21,0.78H54.41z M56.81,68.09h-0.92v-4.65h0.85v0.63  c0.14-0.28,0.21-0.49,0.35-0.63c0.14-0.07,0.21-0.14,0.35-0.14c0.21,0,0.42,0.07,0.56,0.28l-0.21,1.06  c-0.14-0.14-0.28-0.21-0.42-0.21s-0.21,0.07-0.28,0.14c-0.14,0.07-0.21,0.28-0.21,0.49c-0.07,0.28-0.07,0.78-0.07,1.62V68.09z   M61.39,68.09h-0.85v-2.4c0-0.49,0-0.78-0.07-0.99c0-0.14-0.07-0.21-0.21-0.28c-0.07-0.14-0.14-0.14-0.28-0.14  c-0.14,0-0.28,0.07-0.42,0.14c-0.07,0.14-0.21,0.28-0.21,0.49c-0.07,0.21-0.07,0.56-0.07,1.06v2.12h-0.85v-4.65h0.78v0.71  c0.28-0.56,0.63-0.85,1.06-0.85c0.21,0,0.42,0.07,0.56,0.14c0.14,0.14,0.28,0.28,0.35,0.42s0.14,0.28,0.14,0.49  c0.07,0.21,0.07,0.49,0.07,0.85V68.09z M62.31,62.8v-1.2h0.85v1.2H62.31z M62.31,68.09v-4.65h0.85v4.65H62.31z M63.65,68.09V67.1  l1.27-1.97c0.21-0.35,0.35-0.56,0.42-0.71c-0.07,0-0.21,0-0.35,0h-1.2v-0.99h2.75v0.85l-1.27,2.04l-0.42,0.71c0.21,0,0.35,0,0.42,0  h1.34v1.06H63.65z M67.81,64.84l-0.78-0.21c0.14-0.42,0.28-0.78,0.49-0.99c0.21-0.21,0.49-0.35,0.92-0.35  c0.42,0,0.71,0.07,0.92,0.21c0.14,0.14,0.28,0.28,0.35,0.49c0.07,0.21,0.14,0.56,0.14,1.13v1.41c0,0.42,0,0.78,0,0.92  c0.07,0.21,0.14,0.42,0.21,0.63h-0.92c0-0.07,0-0.21-0.07-0.35c0-0.07,0-0.14,0-0.14c-0.14,0.21-0.35,0.35-0.49,0.49  c-0.14,0.07-0.35,0.14-0.56,0.14c-0.28,0-0.56-0.14-0.78-0.42c-0.21-0.21-0.28-0.56-0.28-0.99c0-0.21,0.07-0.49,0.14-0.71  c0.07-0.21,0.21-0.35,0.35-0.49c0.14-0.07,0.42-0.14,0.71-0.28c0.42-0.07,0.71-0.21,0.85-0.28v-0.14c0-0.21-0.07-0.42-0.14-0.49  c-0.07-0.07-0.21-0.14-0.42-0.14c-0.21,0-0.28,0-0.42,0.14C67.95,64.49,67.88,64.63,67.81,64.84L67.81,64.84z M69,65.83  c-0.14,0.07-0.28,0.14-0.56,0.21c-0.21,0.07-0.35,0.14-0.42,0.21c-0.14,0.14-0.21,0.28-0.21,0.42c0,0.21,0.07,0.35,0.14,0.49  c0.14,0.14,0.21,0.21,0.35,0.21s0.28-0.14,0.49-0.28c0.07-0.07,0.14-0.21,0.14-0.35C69,66.61,69,66.4,69,66.11V65.83z M72.18,63.43  v0.99h-0.56v1.9c0,0.35,0,0.56,0,0.63c0,0.07,0.07,0.14,0.07,0.14c0.07,0.07,0.14,0.07,0.14,0.07c0.14,0,0.21,0,0.35-0.07  l0.07,0.92c-0.14,0.14-0.42,0.21-0.63,0.21s-0.35-0.07-0.42-0.14c-0.14-0.07-0.21-0.14-0.28-0.28c-0.07-0.14-0.14-0.28-0.14-0.49  c0-0.14,0-0.42,0-0.85v-2.04h-0.42v-0.99h0.42v-0.92l0.85-0.78v1.69H72.18z M72.81,62.8v-1.2h0.85v1.2H72.81z M72.81,68.09v-4.65  h0.85v4.65H72.81z M74.36,65.69c0-0.42,0.07-0.78,0.21-1.2c0.14-0.35,0.35-0.63,0.63-0.85c0.21-0.21,0.49-0.35,0.85-0.35  c0.49,0,0.92,0.28,1.2,0.71c0.35,0.49,0.49,1.06,0.49,1.76s-0.14,1.27-0.49,1.76c-0.28,0.49-0.71,0.71-1.2,0.71  c-0.28,0-0.56-0.07-0.85-0.28c-0.28-0.21-0.49-0.49-0.63-0.85C74.43,66.68,74.36,66.25,74.36,65.69L74.36,65.69z M75.28,65.76  c0,0.49,0.07,0.85,0.21,1.06c0.14,0.28,0.35,0.42,0.56,0.42c0.21,0,0.42-0.14,0.56-0.42c0.14-0.21,0.21-0.56,0.21-1.06  s-0.07-0.85-0.21-1.06c-0.14-0.28-0.35-0.35-0.56-0.35c-0.21,0-0.42,0.07-0.56,0.35C75.35,64.92,75.28,65.34,75.28,65.76  L75.28,65.76z M81.41,68.09h-0.85v-2.4c0-0.49-0.07-0.78-0.07-0.99c-0.07-0.14-0.14-0.21-0.21-0.28c-0.07-0.14-0.14-0.14-0.28-0.14  c-0.14,0-0.28,0.07-0.42,0.14c-0.07,0.14-0.21,0.28-0.21,0.49c-0.07,0.21-0.07,0.56-0.07,1.06v2.12h-0.92v-4.65h0.85v0.71  c0.28-0.56,0.63-0.85,1.06-0.85c0.21,0,0.35,0.07,0.56,0.14c0.14,0.14,0.28,0.28,0.35,0.42c0.07,0.14,0.14,0.28,0.14,0.49  c0.07,0.21,0.07,0.49,0.07,0.85V68.09z M87.9,68.09h-0.99l-0.42-1.48h-1.76l-0.42,1.48h-0.92l1.69-6.49h0.99L87.9,68.09z   M86.21,65.55l-0.63-2.4l-0.56,2.4H86.21z M91.21,64.77l-0.85,0.28c0-0.28-0.07-0.42-0.21-0.56c-0.07-0.14-0.21-0.21-0.35-0.21  c-0.21,0-0.42,0.14-0.56,0.35c-0.07,0.21-0.14,0.56-0.14,1.06c0,0.56,0.07,0.92,0.14,1.2c0.14,0.21,0.35,0.35,0.56,0.35  c0.14,0,0.28-0.07,0.42-0.21c0.07-0.14,0.14-0.35,0.21-0.71l0.85,0.21c-0.07,0.56-0.28,0.99-0.49,1.27  c-0.28,0.28-0.63,0.42-1.06,0.42s-0.85-0.21-1.13-0.63c-0.28-0.42-0.42-1.06-0.42-1.83s0.14-1.34,0.42-1.76  c0.28-0.49,0.71-0.71,1.2-0.71c0.35,0,0.71,0.14,0.92,0.42C90.93,63.93,91.14,64.28,91.21,64.77L91.21,64.77z M93.4,63.43v0.99  h-0.63v1.9c0,0.35,0,0.56,0.07,0.63c0,0.07,0,0.14,0.07,0.14c0,0.07,0.07,0.07,0.14,0.07s0.21,0,0.35-0.07l0.07,0.92  c-0.21,0.14-0.42,0.21-0.71,0.21c-0.14,0-0.28-0.07-0.42-0.14c-0.14-0.07-0.21-0.14-0.28-0.28c-0.07-0.14-0.07-0.28-0.14-0.49  c0-0.14,0-0.42,0-0.85v-2.04H91.5v-0.99h0.42v-0.92l0.85-0.78v1.69H93.4z"></path></g></svg>