<svg xmlns="http://www.w3.org/2000/svg" xmlns:xlink="http://www.w3.org/1999/xlink" id="Layer_1" x="0px" y="0px" viewBox="0 0 91 91" style="enable-background:new 0 0 91 91;" xml:space="preserve"><style type="text/css">	.st0{fill:#BAB8B9;}	.st1{fill:#FFFFFF;}	.st2{fill-rule:evenodd;clip-rule:evenodd;fill:#BAB8B9;}	.st3{clip-path:url(#SVGID_2_);fill-rule:evenodd;clip-rule:evenodd;fill:#FFFFFF;}</style><g>	<path class="st0" d="M45.5,36.58c-12.9,0-23.38,10.49-23.38,23.4c0,12.9,10.49,23.39,23.38,23.39c12.9,0,23.39-10.49,23.39-23.39  C68.89,47.07,58.4,36.58,45.5,36.58L45.5,36.58z M45.5,89.06c-3.92,0-7.73-0.77-11.31-2.29c-3.46-1.47-6.58-3.56-9.25-6.23  s-4.76-5.78-6.23-9.25c-1.51-3.59-2.28-7.4-2.28-11.32c0-3.93,0.77-7.74,2.28-11.32c1.47-3.47,3.56-6.58,6.23-9.25  c2.67-2.67,5.78-4.77,9.25-6.23c3.58-1.52,7.39-2.29,11.31-2.29c3.93,0,7.74,0.77,11.32,2.29c3.46,1.46,6.57,3.56,9.25,6.23  c2.67,2.67,4.76,5.78,6.23,9.25c1.51,3.58,2.28,7.39,2.28,11.32c0,3.92-0.77,7.73-2.28,11.32c-1.47,3.46-3.56,6.58-6.23,9.25  c-2.68,2.67-5.78,4.76-9.25,6.23C53.24,88.29,49.43,89.06,45.5,89.06L45.5,89.06z"></path>	<path class="st1" d="M20.77,69.91l0.41,0.91l0.29-0.13l-0.25-0.57l0.83-0.38c0.08,0.07,0.19,0.21,0.29,0.45  c0.29,0.65,0.07,1.26-0.63,1.58c-0.7,0.32-1.32,0.07-1.63-0.61c-0.13-0.28-0.16-0.49-0.16-0.67l-0.33,0.05  c0,0.15,0.05,0.43,0.19,0.75c0.43,0.93,1.29,1.23,2.12,0.85c0.43-0.2,0.74-0.51,0.86-0.86c0.13-0.39,0.09-0.79-0.11-1.21  c-0.17-0.37-0.41-0.65-0.54-0.78L20.77,69.91z"></path>	<polygon class="st1" points="19.03,69.32 21.91,68.33 21.79,67.95 18.9,68.95  "></polygon>	<polygon class="st1" points="21.31,66.36 21.21,65.97 18.58,66.64 18.34,65.74 18.02,65.82 18.58,68.01 18.91,67.92 18.67,67.02    "></polygon>	<path class="st1" d="M20.18,62.53c0.1,0.15,0.19,0.38,0.22,0.62c0.11,0.73-0.31,1.23-1.05,1.33c-0.8,0.11-1.31-0.29-1.42-1  c-0.03-0.25-0.01-0.47,0.04-0.63l-0.33-0.05c-0.03,0.11-0.08,0.35-0.03,0.73c0.13,0.94,0.86,1.49,1.81,1.35  c0.99-0.14,1.44-0.86,1.32-1.71c-0.05-0.37-0.17-0.65-0.26-0.78L20.18,62.53z"></path>	<polygon class="st1" points="17.46,61.64 20.52,61.59 20.51,61.2 19.08,61.22 19.05,59.75 20.49,59.72 20.48,59.32 17.42,59.37   17.43,59.77 18.71,59.75 18.74,61.23 17.46,61.25  "></polygon>	<polygon class="st1" points="17.52,58.03 20.56,58.27 20.59,57.88 17.54,57.64  "></polygon>	<path class="st1" d="M20.01,55.1l1.01-0.15l0.07-0.42l-3.18,0.51l-0.09,0.47l2.84,1.55l0.07-0.4l-0.89-0.48L20.01,55.1z   M19.53,56.03l-0.82-0.45c-0.17-0.09-0.35-0.17-0.51-0.25v-0.01c0.18-0.01,0.37-0.03,0.57-0.06l0.92-0.15L19.53,56.03z"></path>	<polygon class="st1" points="18.81,51.42 21.7,52.38 21.83,52.01 18.93,51.05  "></polygon>	<path class="st1" d="M22.31,50.66l-1.19-0.52c-0.47-0.21-0.8-0.35-1.17-0.48l0.01-0.02c0.36-0.01,0.76-0.05,1.16-0.11l1.81-0.26  l0.16-0.37l-2.8-1.23l-0.15,0.34l1.17,0.51c0.43,0.19,0.78,0.33,1.17,0.47v0.01c-0.35,0.01-0.71,0.03-1.13,0.1l-1.81,0.27  l-0.17,0.39l2.8,1.23L22.31,50.66z"></path>	<path class="st1" d="M23.37,48.07c0.17-0.09,0.41-0.32,0.56-0.57c0.37-0.62,0.19-1.13-0.21-1.37c-0.39-0.23-0.73-0.13-1.17,0.22  c-0.35,0.28-0.57,0.37-0.81,0.22c-0.18-0.11-0.32-0.37-0.11-0.73c0.14-0.24,0.33-0.37,0.42-0.43l-0.22-0.25  c-0.13,0.08-0.31,0.23-0.47,0.5c-0.3,0.51-0.19,1.03,0.21,1.27c0.37,0.22,0.75,0.09,1.15-0.25c0.35-0.27,0.57-0.33,0.82-0.19  c0.26,0.15,0.33,0.47,0.12,0.81c-0.14,0.23-0.35,0.41-0.53,0.51L23.37,48.07z"></path>	<polygon class="st1" points="25.28,45.34 25.51,45.02 23.33,43.41 23.88,42.65 23.62,42.45 22.27,44.28 22.53,44.48 23.09,43.73    "></polygon>	<polygon class="st1" points="24.26,41.71 26.56,43.73 26.82,43.43 24.52,41.41  "></polygon>	<polygon class="st1" points="27.96,42.23 28.25,41.95 26.36,39.99 27.04,39.35 26.8,39.11 25.18,40.67 25.41,40.91 26.08,40.27    "></polygon>	<path class="st1" d="M27.58,38.44l1.09,1.43c0.57,0.75,1.16,0.75,1.66,0.37c0.52-0.4,0.69-1,0.12-1.75l-1.08-1.42l-0.32,0.24  l1.09,1.44c0.41,0.54,0.36,0.95,0,1.23c-0.33,0.25-0.74,0.2-1.15-0.35L27.9,38.2L27.58,38.44z"></path>	<polygon class="st1" points="32.57,38.67 32.91,38.47 31.53,36.12 32.34,35.65 32.17,35.36 30.22,36.51 30.39,36.8 31.19,36.32    "></polygon>	<polygon class="st1" points="35.05,35.42 33.97,35.92 33.57,35.04 34.71,34.52 34.57,34.22 33.07,34.91 34.34,37.68 35.9,36.96   35.77,36.66 34.56,37.22 34.11,36.22 35.18,35.72  "></polygon>	<path class="st1" d="M38.42,32.87c-0.79,0.21-1.21,0.97-0.97,1.91c0.23,0.89,0.93,1.36,1.71,1.15c0.76-0.19,1.23-0.89,0.97-1.91  C39.91,33.15,39.23,32.67,38.42,32.87L38.42,32.87z M38.49,33.2c0.63-0.17,1.1,0.37,1.25,0.95c0.17,0.67-0.03,1.31-0.63,1.47  c-0.61,0.15-1.09-0.32-1.25-0.95C37.69,34.02,37.86,33.36,38.49,33.2L38.49,33.2z"></path>	<polygon class="st1" points="41.36,35.41 41.75,35.36 41.57,33.99 42.71,33.84 42.67,33.52 41.53,33.67 41.39,32.66 42.63,32.49   42.59,32.17 40.95,32.39  "></polygon>	<path class="st1" d="M47.67,33.56l-1.01-0.04l-0.01,0.32l0.62,0.02l-0.03,0.91c-0.09,0.04-0.27,0.07-0.53,0.06  c-0.71-0.03-1.15-0.51-1.13-1.28c0.03-0.76,0.53-1.21,1.28-1.17c0.31,0.01,0.51,0.08,0.67,0.15l0.11-0.31  c-0.13-0.07-0.4-0.16-0.75-0.17c-1.02-0.04-1.67,0.6-1.71,1.51c-0.02,0.48,0.13,0.89,0.38,1.15c0.29,0.3,0.66,0.43,1.12,0.45  c0.41,0.01,0.77-0.07,0.95-0.13L47.67,33.56z"></path>	<polygon class="st1" points="48.53,35.28 50.21,35.54 50.27,35.21 48.97,35.01 49.39,32.32 49.01,32.26  "></polygon>	<path class="st1" d="M52.81,32.98c-0.78-0.21-1.53,0.24-1.79,1.17c-0.24,0.89,0.14,1.65,0.92,1.85c0.75,0.21,1.51-0.16,1.79-1.17  C53.97,33.96,53.61,33.2,52.81,32.98L52.81,32.98z M52.71,33.29c0.63,0.17,0.77,0.87,0.61,1.45c-0.18,0.67-0.67,1.13-1.27,0.97  c-0.6-0.17-0.79-0.82-0.62-1.45C51.61,33.61,52.08,33.12,52.71,33.29L52.71,33.29z"></path>	<path class="st1" d="M54.1,36.62c0.11,0.07,0.3,0.17,0.55,0.27c0.46,0.19,0.81,0.24,1.09,0.14c0.2-0.08,0.37-0.23,0.47-0.47  c0.17-0.42-0.05-0.77-0.29-0.95V35.6c0.35,0.02,0.62-0.15,0.73-0.42c0.09-0.23,0.07-0.43-0.03-0.59c-0.12-0.21-0.33-0.37-0.69-0.53  c-0.25-0.11-0.52-0.18-0.69-0.21L54.1,36.62z M55.5,34.24c0.06,0.01,0.17,0.04,0.33,0.11c0.37,0.15,0.57,0.38,0.43,0.71  c-0.11,0.27-0.43,0.38-0.81,0.22l-0.33-0.13L55.5,34.24z M55.02,35.43l0.3,0.13c0.4,0.16,0.67,0.46,0.51,0.84  c-0.17,0.41-0.57,0.41-0.95,0.25c-0.13-0.05-0.23-0.1-0.3-0.14L55.02,35.43z"></path>	<path class="st1" d="M58.49,37.66l-0.18,1l0.37,0.2l0.57-3.18l-0.41-0.23l-2.39,2.16l0.36,0.2l0.74-0.69L58.49,37.66z M57.76,36.91  l0.69-0.63c0.14-0.13,0.27-0.27,0.4-0.41h0.01c-0.05,0.17-0.1,0.36-0.13,0.57l-0.17,0.91L57.76,36.91z"></path>	<polygon class="st1" points="59.33,39.31 60.71,40.3 60.91,40.03 59.84,39.27 61.42,37.06 61.1,36.82  "></polygon>	<path class="st1" d="M64.12,42.87c-0.17-0.06-0.37-0.19-0.55-0.37c-0.52-0.53-0.49-1.17,0.04-1.69c0.57-0.57,1.23-0.55,1.73-0.05  c0.18,0.17,0.29,0.37,0.35,0.52l0.29-0.16c-0.03-0.11-0.15-0.34-0.41-0.61c-0.67-0.67-1.59-0.67-2.26,0.01  c-0.71,0.71-0.63,1.55-0.03,2.16c0.26,0.26,0.52,0.41,0.67,0.47L64.12,42.87z"></path>	<polygon class="st1" points="66.78,44 66.04,43.07 66.8,42.47 67.58,43.45 67.84,43.24 66.81,41.95 64.43,43.86 65.5,45.2   65.76,45 64.93,43.96 65.79,43.28 66.53,44.2  "></polygon>	<path class="st1" d="M65.99,45.9l0.21,0.33l1.11-0.71l0.2,0.31c0.18,0.31,0.13,0.53-0.17,0.83c-0.27,0.27-0.46,0.47-0.51,0.56  l0.22,0.35c0.07-0.12,0.27-0.34,0.58-0.65c0.23-0.23,0.34-0.47,0.28-0.71l0.01-0.01c0.27,0.21,0.63,0.29,0.97,0.07  c0.19-0.12,0.33-0.31,0.36-0.51c0.04-0.25-0.04-0.53-0.27-0.88c-0.15-0.23-0.31-0.46-0.45-0.61L65.99,45.9z M68.51,44.77  c0.05,0.05,0.14,0.15,0.24,0.31c0.22,0.36,0.23,0.69-0.11,0.9c-0.29,0.19-0.63,0.09-0.85-0.27l-0.22-0.34L68.51,44.77z"></path>	<polygon class="st1" points="67.71,48.85 67.88,49.2 70.32,48 70.73,48.84 71.03,48.69 70.04,46.66 69.73,46.8 70.15,47.64  "></polygon>	<polygon class="st1" points="71.4,49.6 68.56,50.72 68.7,51.09 71.54,49.97  "></polygon>	<polygon class="st1" points="69.09,52.11 69.2,52.49 70.52,52.09 70.85,53.2 71.17,53.1 70.83,51.99 71.8,51.69 72.17,52.89   72.48,52.8 72.01,51.22  "></polygon>	<polygon class="st1" points="72.75,53.98 69.77,54.62 69.85,55 72.84,54.36  "></polygon>	<path class="st1" d="M70.72,58.04c-0.09-0.15-0.17-0.39-0.2-0.63c-0.09-0.73,0.33-1.22,1.07-1.31c0.8-0.09,1.31,0.32,1.39,1.03  c0.03,0.25,0.01,0.47-0.05,0.63l0.33,0.05c0.04-0.11,0.09-0.35,0.05-0.73c-0.11-0.94-0.83-1.51-1.78-1.39  c-0.99,0.12-1.46,0.83-1.35,1.68c0.05,0.37,0.15,0.65,0.24,0.79L70.72,58.04z"></path>	<path class="st1" d="M71.32,60.57l-0.96,0.33v0.42l3.06-1.04v-0.47l-3.05-1.04v0.41l0.96,0.32L71.32,60.57z M71.63,59.57l0.88,0.3  c0.19,0.06,0.37,0.11,0.55,0.16v0.01c-0.17,0.05-0.36,0.09-0.56,0.15l-0.87,0.3V59.57z"></path>	<polygon class="st1" points="70.25,62.35 70.21,62.75 72.91,63.03 72.82,63.96 73.15,64 73.39,61.74 73.05,61.71 72.95,62.63  "></polygon>	<polygon class="st1" points="72.97,64.96 69.97,64.4 69.9,64.79 72.9,65.35  "></polygon>	<path class="st1" d="M72.34,67.88c0.23-0.78-0.21-1.53-1.14-1.81c-0.89-0.26-1.65,0.11-1.87,0.89c-0.22,0.75,0.14,1.51,1.15,1.81  C71.34,69.02,72.11,68.68,72.34,67.88L72.34,67.88z M72.03,67.77c-0.18,0.63-0.88,0.76-1.46,0.59c-0.67-0.19-1.12-0.7-0.95-1.29  c0.17-0.6,0.83-0.77,1.46-0.59C71.73,66.66,72.22,67.14,72.03,67.77L72.03,67.77z"></path>	<path class="st1" d="M68.53,69.43l1.19,0.53c0.47,0.21,0.81,0.35,1.17,0.49l-0.01,0.01c-0.36,0.01-0.76,0.05-1.16,0.11l-1.81,0.26  l-0.16,0.37l2.79,1.23l0.15-0.34l-1.17-0.51c-0.44-0.19-0.78-0.34-1.17-0.47v-0.01c0.35-0.01,0.71-0.03,1.13-0.1l1.81-0.27  l0.17-0.39l-2.79-1.24L68.53,69.43z"></path>	<path class="st0" d="M54.08,41.81c-7.63,3.54-9.29,12.51-9.29,12.51h-0.77l-3.44-7.91c0,0,0.93-0.16,1.19-0.2  c0.84-0.09,2.64,2.37,2.64,2.37s1.92-5.12,8.38-6.96L54.08,41.81z"></path>	<path class="st2" d="M45.57,50.61L45.57,50.61h-0.01h-0.01c-0.89,0-1.68,0.89-2.11,2.23l0,0c0.35,0.87,0.58,1.48,0.58,1.48l0,0  h0.77c0,0,0.29-1.56,1.18-3.64C45.84,50.63,45.7,50.61,45.57,50.61L45.57,50.61z"></path>	<path class="st0" d="M53.49,41.72c-7.63,3.54-9.47,12.59-9.47,12.59c-2.75-5.08-5.58-7.06-5.58-7.06s0.53-0.58,2.48-0.91  c0.67,0.01,2.56,2.15,2.56,2.15s2.85-5.04,9.31-6.88L53.49,41.72z"></path>	<g>		<defs>			<path id="SVGID_1_" d="M43.57,48.78c0,0-1.91-2.3-2.65-2.2l0,0c-1.85,0.26-2.17,0.8-2.17,0.8l0,0c0,0,2.58,1.67,5.19,6.56    c0,0,1.37-8.37,9.31-12.17l-0.46-0.09C46.33,43.57,43.57,48.78,43.57,48.78L43.57,48.78z"></path>		</defs>		<clipPath id="SVGID_2_">			<use xlink:href="#SVGID_1_" style="overflow:visible;"></use>		</clipPath>		<polygon class="st3" points="53.15,41.43 53.16,41.48 38.36,46.13 38.34,46.08   "></polygon>		<polygon class="st3" points="53.15,41.45 53.17,41.53 38.38,46.18 38.35,46.11   "></polygon>		<polygon class="st3" points="53.17,41.5 53.19,41.57 38.39,46.22 38.36,46.16   "></polygon>		<polygon class="st3" points="53.18,41.55 53.21,41.62 38.4,46.28 38.38,46.2   "></polygon>		<polygon class="st3" points="53.2,41.59 53.22,41.67 38.42,46.32 38.4,46.25   "></polygon>		<polygon class="st3" points="53.21,41.65 53.23,41.71 38.43,46.37 38.41,46.3   "></polygon>		<polygon class="st3" points="53.23,41.69 53.25,41.76 38.45,46.42 38.42,46.34   "></polygon>		<polygon class="st3" points="53.24,41.74 53.27,41.81 38.46,46.46 38.44,46.39   "></polygon>		<polygon class="st3" points="53.25,41.79 53.28,41.85 38.48,46.51 38.46,46.44   "></polygon>		<polygon class="st3" points="53.27,41.83 53.29,41.9 38.49,46.56 38.47,46.48   "></polygon>		<polygon class="st3" points="53.29,41.88 53.31,41.95 38.51,46.6 38.48,46.53   "></polygon>		<polygon class="st3" points="53.3,41.93 53.32,42 38.52,46.65 38.5,46.58   "></polygon>		<polygon class="st3" points="53.31,41.97 53.34,42.05 38.54,46.7 38.52,46.63   "></polygon>		<polygon class="st3" points="53.33,42.02 53.35,42.09 38.55,46.74 38.53,46.68   "></polygon>		<polygon class="st3" points="53.35,42.07 53.37,42.14 38.56,46.79 38.54,46.72   "></polygon>		<polygon class="st3" points="53.36,42.11 53.38,42.19 38.58,46.84 38.56,46.77   "></polygon>		<polygon class="st3" points="53.37,42.16 53.4,42.23 38.6,46.88 38.58,46.82   "></polygon>		<polygon class="st3" points="53.39,42.21 53.41,42.28 38.61,46.93 38.59,46.86   "></polygon>		<polygon class="st3" points="53.41,42.25 53.43,42.33 38.63,46.98 38.61,46.91   "></polygon>		<polygon class="st3" points="53.42,42.3 53.44,42.37 38.65,47.03 38.62,46.96   "></polygon>		<polygon class="st3" points="53.43,42.35 53.45,42.42 38.66,47.08 38.63,47   "></polygon>		<polygon class="st3" points="53.45,42.4 53.47,42.47 38.67,47.12 38.65,47.05   "></polygon>		<polygon class="st3" points="53.47,42.45 53.49,42.51 38.69,47.17 38.67,47.1   "></polygon>		<polygon class="st3" points="53.48,42.49 53.5,42.56 38.7,47.22 38.68,47.14   "></polygon>		<polygon class="st3" points="53.49,42.54 53.51,42.61 38.72,47.26 38.69,47.19   "></polygon>		<polygon class="st3" points="53.51,42.59 53.53,42.65 38.73,47.31 38.71,47.24   "></polygon>		<polygon class="st3" points="53.52,42.63 53.55,42.7 38.75,47.36 38.73,47.28   "></polygon>		<polygon class="st3" points="53.54,42.68 53.56,42.75 38.76,47.4 38.74,47.34   "></polygon>		<polygon class="st3" points="53.55,42.73 53.57,42.8 38.78,47.45 38.75,47.38   "></polygon>		<polygon class="st3" points="53.57,42.77 53.59,42.85 38.79,47.5 38.77,47.43   "></polygon>		<polygon class="st3" points="53.58,42.82 53.61,42.89 38.81,47.54 38.79,47.48   "></polygon>		<polygon class="st3" points="53.6,42.87 53.62,42.94 38.82,47.59 38.8,47.52   "></polygon>		<polygon class="st3" points="53.61,42.91 53.63,42.99 38.83,47.64 38.81,47.57   "></polygon>		<polygon class="st3" points="53.63,42.96 53.65,43.04 38.85,47.69 38.83,47.62   "></polygon>		<polygon class="st3" points="53.64,43.01 53.67,43.08 38.87,47.74 38.85,47.66   "></polygon>		<polygon class="st3" points="53.65,43.06 53.68,43.13 38.88,47.78 38.86,47.71   "></polygon>		<polygon class="st3" points="53.67,43.11 53.69,43.18 38.89,47.83 38.87,47.76   "></polygon>		<polygon class="st3" points="53.69,43.16 53.71,43.22 38.91,47.88 38.89,47.8   "></polygon>		<polygon class="st3" points="53.7,43.2 53.72,43.27 38.93,47.92 38.9,47.85   "></polygon>		<polygon class="st3" points="53.72,43.25 53.74,43.32 38.94,47.97 38.92,47.9   "></polygon>		<polygon class="st3" points="53.74,43.3 53.76,43.36 38.95,48.02 38.93,47.94   "></polygon>		<polygon class="st3" points="53.75,43.34 53.77,43.41 38.97,48.07 38.95,47.99   "></polygon>		<polygon class="st3" points="53.76,43.39 53.78,43.46 38.99,48.11 38.96,48.05   "></polygon>		<polygon class="st3" points="53.78,43.44 53.8,43.51 39,48.16 38.98,48.09   "></polygon>		<polygon class="st3" points="53.79,43.48 53.82,43.56 39.01,48.21 38.99,48.14   "></polygon>		<polygon class="st3" points="53.81,43.53 53.83,43.6 39.03,48.25 39.01,48.19   "></polygon>		<polygon class="st3" points="53.82,43.58 53.84,43.65 39.05,48.3 39.02,48.23   "></polygon>		<polygon class="st3" points="53.84,43.62 53.86,43.7 39.06,48.35 39.03,48.28   "></polygon>		<polygon class="st3" points="53.85,43.67 53.88,43.74 39.07,48.39 39.05,48.33   "></polygon>		<polygon class="st3" points="53.87,43.72 53.89,43.79 39.09,48.45 39.07,48.37   "></polygon>		<polygon class="st3" points="53.88,43.76 53.9,43.84 39.1,48.49 39.08,48.42   "></polygon>		<polygon class="st3" points="53.9,43.82 53.92,43.88 39.12,48.54 39.09,48.47   "></polygon>		<polygon class="st3" points="53.91,43.86 53.94,43.93 39.13,48.59 39.11,48.51   "></polygon>		<polygon class="st3" points="53.92,43.91 53.95,43.98 39.15,48.63 39.13,48.56   "></polygon>		<polygon class="st3" points="53.94,43.96 53.96,44.02 39.16,48.68 39.14,48.61   "></polygon>		<polygon class="st3" points="53.96,44 53.98,44.07 39.18,48.73 39.15,48.65   "></polygon>		<polygon class="st3" points="53.97,44.05 53.99,44.12 39.19,48.77 39.17,48.7   "></polygon>		<polygon class="st3" points="53.98,44.1 54.01,44.17 39.21,48.82 39.19,48.75   "></polygon>		<polygon class="st3" points="54,44.14 54.02,44.22 39.22,48.87 39.2,48.8   "></polygon>		<polygon class="st3" points="54.02,44.19 54.04,44.26 39.23,48.91 39.21,48.85   "></polygon>		<polygon class="st3" points="54.03,44.24 54.05,44.31 39.25,48.96 39.23,48.89   "></polygon>		<polygon class="st3" points="54.04,44.28 54.07,44.36 39.27,49.01 39.25,48.94   "></polygon>		<polygon class="st3" points="54.06,44.33 54.08,44.4 39.28,49.05 39.26,48.99   "></polygon>		<polygon class="st3" points="54.08,44.38 54.1,44.45 39.29,49.1 39.27,49.03   "></polygon>		<polygon class="st3" points="54.09,44.42 54.11,44.5 39.31,49.15 39.29,49.08   "></polygon>		<polygon class="st3" points="54.1,44.47 54.12,44.54 39.33,49.2 39.3,49.13   "></polygon>		<polygon class="st3" points="54.12,44.52 54.14,44.59 39.34,49.25 39.32,49.17   "></polygon>		<polygon class="st3" points="54.14,44.57 54.16,44.64 39.35,49.29 39.33,49.22   "></polygon>		<polygon class="st3" points="54.15,44.62 54.17,44.68 39.37,49.34 39.35,49.27   "></polygon>		<polygon class="st3" points="54.16,44.66 54.18,44.73 39.39,49.39 39.36,49.31   "></polygon>		<polygon class="st3" points="54.18,44.71 54.2,44.78 39.4,49.43 39.38,49.36   "></polygon>		<polygon class="st3" points="54.19,44.76 54.22,44.82 39.41,49.48 39.39,49.41   "></polygon>		<polygon class="st3" points="54.21,44.8 54.23,44.88 39.43,49.53 39.41,49.45   "></polygon>		<polygon class="st3" points="54.22,44.85 54.24,44.92 39.45,49.57 39.42,49.51   "></polygon>		<polygon class="st3" points="54.24,44.9 54.26,44.97 39.46,49.62 39.43,49.55   "></polygon>		<polygon class="st3" points="54.25,44.94 54.28,45.02 39.47,49.67 39.45,49.6   "></polygon>		<polygon class="st3" points="54.27,44.99 54.29,45.06 39.49,49.71 39.47,49.65   "></polygon>		<polygon class="st3" points="54.28,45.04 54.3,45.11 39.5,49.76 39.48,49.69   "></polygon>		<polygon class="st3" points="54.3,45.08 54.32,45.16 39.52,49.81 39.49,49.74   "></polygon>		<polygon class="st3" points="54.31,45.13 54.34,45.2 39.53,49.86 39.51,49.79   "></polygon>		<polygon class="st3" points="54.32,45.18 54.35,45.25 39.55,49.91 39.53,49.83   "></polygon>		<polygon class="st3" points="54.34,45.23 54.36,45.3 39.56,49.95 39.54,49.88   "></polygon>		<polygon class="st3" points="54.36,45.28 54.38,45.34 39.58,50 39.55,49.93   "></polygon>		<polygon class="st3" points="54.37,45.32 54.39,45.39 39.59,50.05 39.57,49.97   "></polygon>		<polygon class="st3" points="54.38,45.37 54.41,45.44 39.61,50.09 39.59,50.02   "></polygon>		<polygon class="st3" points="54.4,45.42 54.42,45.48 39.62,50.14 39.6,50.07   "></polygon>		<polygon class="st3" points="54.42,45.46 54.44,45.53 39.63,50.19 39.61,50.11   "></polygon>		<polygon class="st3" points="54.43,45.51 54.45,45.58 39.65,50.23 39.63,50.16   "></polygon>		<polygon class="st3" points="54.44,45.56 54.47,45.63 39.67,50.28 39.65,50.21   "></polygon>		<polygon class="st3" points="54.46,45.6 54.48,45.68 39.68,50.33 39.66,50.26   "></polygon>		<polygon class="st3" points="54.48,45.65 54.5,45.72 39.69,50.37 39.67,50.31   "></polygon>		<polygon class="st3" points="54.49,45.7 54.51,45.77 39.71,50.42 39.69,50.35   "></polygon>		<polygon class="st3" points="54.5,45.74 54.52,45.82 39.73,50.47 39.7,50.4   "></polygon>		<polygon class="st3" points="54.52,45.79 54.54,45.86 39.74,50.51 39.72,50.45   "></polygon>		<polygon class="st3" points="54.54,45.84 54.56,45.91 39.75,50.57 39.73,50.49   "></polygon>		<polygon class="st3" points="54.55,45.88 54.57,45.96 39.77,50.61 39.75,50.54   "></polygon>		<polygon class="st3" points="54.56,45.94 54.58,46 39.79,50.66 39.76,50.59   "></polygon>		<polygon class="st3" points="54.58,45.98 54.6,46.05 39.8,50.71 39.78,50.63   "></polygon>		<polygon class="st3" points="54.59,46.03 54.62,46.1 39.81,50.75 39.79,50.68   "></polygon>		<polygon class="st3" points="54.61,46.08 54.63,46.14 39.83,50.8 39.81,50.73   "></polygon>		<polygon class="st3" points="54.62,46.12 54.64,46.19 39.85,50.85 39.82,50.77   "></polygon>		<polygon class="st3" points="54.64,46.17 54.66,46.24 39.86,50.89 39.83,50.82   "></polygon>		<polygon class="st3" points="54.65,46.22 54.68,46.29 39.87,50.94 39.85,50.87   "></polygon>		<polygon class="st3" points="54.67,46.26 54.69,46.34 39.89,50.99 39.87,50.92   "></polygon>		<polygon class="st3" points="54.68,46.31 54.7,46.38 39.9,51.03 39.88,50.97   "></polygon>		<polygon class="st3" points="54.7,46.36 54.72,46.43 39.92,51.08 39.89,51.01   "></polygon>		<polygon class="st3" points="54.71,46.4 54.74,46.48 39.93,51.13 39.91,51.06   "></polygon>		<polygon class="st3" points="54.72,46.45 54.75,46.52 39.95,51.17 39.93,51.11   "></polygon>		<polygon class="st3" points="54.74,46.5 54.76,46.57 39.96,51.22 39.94,51.15   "></polygon>		<polygon class="st3" points="54.76,46.54 54.78,46.62 39.98,51.27 39.95,51.2   "></polygon>		<polygon class="st3" points="54.77,46.59 54.79,46.66 39.99,51.32 39.97,51.25   "></polygon>		<polygon class="st3" points="54.78,46.64 54.81,46.71 40.01,51.37 39.99,51.29   "></polygon>		<polygon class="st3" points="54.8,46.69 54.82,46.76 40.02,51.41 40,51.34   "></polygon>		<polygon class="st3" points="54.82,46.74 54.84,46.8 40.03,51.46 40.01,51.39   "></polygon>		<polygon class="st3" points="54.83,46.78 54.85,46.85 40.05,51.51 40.03,51.43   "></polygon>		<polygon class="st3" points="54.84,46.83 54.87,46.9 40.07,51.55 40.05,51.48   "></polygon>		<polygon class="st3" points="54.86,46.88 54.88,46.94 40.08,51.6 40.06,51.53   "></polygon>		<polygon class="st3" points="54.88,46.92 54.9,46.99 40.09,51.65 40.07,51.57   "></polygon>		<polygon class="st3" points="54.89,46.97 54.91,47.04 40.11,51.69 40.09,51.63   "></polygon>		<polygon class="st3" points="54.9,47.02 54.92,47.09 40.13,51.74 40.1,51.67   "></polygon>		<polygon class="st3" points="54.92,47.06 54.94,47.14 40.14,51.79 40.12,51.72   "></polygon>		<polygon class="st3" points="54.94,47.11 54.96,47.18 40.15,51.83 40.13,51.77   "></polygon>		<polygon class="st3" points="54.95,47.16 54.97,47.23 40.17,51.88 40.15,51.81   "></polygon>		<polygon class="st3" points="54.96,47.2 54.98,47.28 40.19,51.93 40.16,51.86   "></polygon>		<polygon class="st3" points="54.98,47.25 55,47.32 40.2,51.98 40.18,51.91   "></polygon>		<polygon class="st3" points="54.99,47.3 55.02,47.37 40.21,52.03 40.19,51.95   "></polygon>		<polygon class="st3" points="55.01,47.34 55.03,47.42 40.23,52.07 40.21,52   "></polygon>		<polygon class="st3" points="55.02,47.4 55.04,47.46 40.24,52.12 40.22,52.05   "></polygon>		<polygon class="st3" points="55.04,47.44 55.06,47.51 40.26,52.17 40.23,52.09   "></polygon>		<polygon class="st3" points="55.05,47.49 55.08,47.56 40.27,52.21 40.25,52.14   "></polygon>		<polygon class="st3" points="55.06,47.54 55.09,47.6 40.29,52.26 40.27,52.19   "></polygon>		<polygon class="st3" points="55.08,47.58 55.1,47.65 40.3,52.31 40.28,52.23   "></polygon>		<polygon class="st3" points="55.1,47.63 55.12,47.7 40.32,52.35 40.29,52.28   "></polygon>		<polygon class="st3" points="55.11,47.68 55.13,47.75 40.33,52.4 40.31,52.33   "></polygon>		<polygon class="st3" points="55.12,47.72 55.15,47.8 40.35,52.45 40.33,52.38   "></polygon>		<polygon class="st3" points="55.14,47.77 55.16,47.84 40.36,52.49 40.34,52.43   "></polygon>		<polygon class="st3" points="55.16,47.82 55.18,47.89 40.37,52.54 40.35,52.47   "></polygon>		<polygon class="st3" points="55.17,47.86 55.19,47.94 40.39,52.59 40.37,52.52   "></polygon>		<polygon class="st3" points="55.18,47.91 55.21,47.98 40.41,52.63 40.39,52.57   "></polygon>		<polygon class="st3" points="55.2,47.96 55.22,48.03 40.42,52.68 40.4,52.61   "></polygon>		<polygon class="st3" points="55.22,48 55.24,48.08 40.43,52.73 40.41,52.66   "></polygon>		<polygon class="st3" points="55.23,48.05 55.25,48.13 40.45,52.78 40.43,52.71   "></polygon>		<polygon class="st3" points="55.24,48.11 55.26,48.17 40.47,52.83 40.44,52.75   "></polygon>		<polygon class="st3" points="55.26,48.15 55.28,48.22 40.48,52.87 40.46,52.8   "></polygon>		<polygon class="st3" points="55.28,48.2 55.3,48.27 40.49,52.92 40.47,52.85   "></polygon>		<polygon class="st3" points="55.29,48.25 55.31,48.31 40.51,52.97 40.49,52.89   "></polygon>		<polygon class="st3" points="55.3,48.29 55.32,48.36 40.53,53.01 40.5,52.94   "></polygon>		<polygon class="st3" points="55.32,48.34 55.34,48.41 40.54,53.06 40.52,52.99   "></polygon>		<polygon class="st3" points="55.33,48.39 55.36,48.46 40.55,53.11 40.53,53.03   "></polygon>		<polygon class="st3" points="55.35,48.43 55.37,48.51 40.57,53.16 40.55,53.09   "></polygon>		<polygon class="st3" points="55.36,48.48 55.38,48.55 40.59,53.2 40.56,53.14   "></polygon>		<polygon class="st3" points="55.38,48.53 55.4,48.6 40.6,53.25 40.57,53.18   "></polygon>		<polygon class="st3" points="55.39,48.57 55.42,48.65 40.61,53.3 40.59,53.23   "></polygon>		<polygon class="st3" points="55.41,48.62 55.43,48.69 40.63,53.34 40.61,53.28   "></polygon>		<polygon class="st3" points="55.42,48.67 55.44,48.74 40.64,53.39 40.62,53.32   "></polygon>		<polygon class="st3" points="55.44,48.71 55.46,48.79 40.66,53.44 40.63,53.37   "></polygon>		<polygon class="st3" points="55.45,48.76 55.48,48.83 40.67,53.49 40.65,53.42   "></polygon>		<polygon class="st3" points="55.46,48.81 55.49,48.88 40.69,53.54 40.67,53.46   "></polygon>		<polygon class="st3" points="55.48,48.86 55.5,48.93 40.7,53.58 40.68,53.51   "></polygon>		<polygon class="st3" points="55.5,48.91 55.52,48.97 40.72,53.63 40.69,53.56   "></polygon>		<polygon class="st3" points="55.51,48.95 55.53,49.02 40.73,53.68 40.71,53.6   "></polygon>		<polygon class="st3" points="55.52,49 55.55,49.07 40.75,53.72 40.73,53.65   "></polygon>		<polygon class="st3" points="55.54,49.05 55.56,49.11 40.76,53.77 40.74,53.7   "></polygon>		<polygon class="st3" points="55.56,49.09 55.58,49.17 40.77,53.82 40.75,53.74   "></polygon>		<polygon class="st3" points="55.57,49.14 55.59,49.21 40.79,53.86 40.77,53.8   "></polygon>		<polygon class="st3" points="55.58,49.19 55.61,49.26 40.81,53.91 40.79,53.84   "></polygon>		<polygon class="st3" points="55.6,49.23 55.62,49.31 40.82,53.96 40.8,53.89   "></polygon>		<polygon class="st3" points="55.62,49.28 55.64,49.35 40.83,54 40.81,53.94   "></polygon>		<polygon class="st3" points="55.63,49.33 55.65,49.4 40.85,54.05 40.83,53.98   "></polygon>		<polygon class="st3" points="55.64,49.37 55.66,49.45 40.87,54.1 40.84,54.03   "></polygon>		<polygon class="st3" points="55.66,49.42 55.68,49.49 40.88,54.15 40.86,54.08   "></polygon>		<polygon class="st3" points="55.68,49.47 55.7,49.54 40.89,54.2 40.87,54.12   "></polygon>		<polygon class="st3" points="55.69,49.52 55.71,49.59 40.91,54.24 40.89,54.17   "></polygon>		<polygon class="st3" points="55.7,49.57 55.72,49.63 40.93,54.29 40.9,54.22   "></polygon>		<polygon class="st3" points="55.72,49.61 55.74,49.68 40.94,54.34 40.92,54.26   "></polygon>		<polygon class="st3" points="55.73,49.66 55.76,49.73 40.95,54.38 40.93,54.31   "></polygon>		<polygon class="st3" points="55.75,49.71 55.77,49.77 40.97,54.43 40.95,54.36   "></polygon>		<polygon class="st3" points="55.76,49.75 55.78,49.82 40.99,54.48 40.96,54.4   "></polygon>		<polygon class="st3" points="55.78,49.8 55.8,49.87 41,54.52 40.97,54.45   "></polygon>		<polygon class="st3" points="55.79,49.85 55.82,49.92 41.01,54.57 40.99,54.5   "></polygon>		<polygon class="st3" points="55.81,49.89 55.83,49.97 41.03,54.62 41.01,54.55   "></polygon>		<polygon class="st3" points="55.82,49.94 55.84,50.01 41.04,54.66 41.02,54.6   "></polygon>		<polygon class="st3" points="55.84,49.99 55.86,50.06 41.06,54.71 41.03,54.64   "></polygon>		<polygon class="st3" points="55.85,50.03 55.88,50.11 41.07,54.76 41.05,54.69   "></polygon>		<polygon class="st3" points="55.86,50.08 55.89,50.15 41.09,54.8 41.07,54.74   "></polygon>		<polygon class="st3" points="55.88,50.13 55.9,50.2 41.1,54.86 41.08,54.78   "></polygon>		<polygon class="st3" points="55.9,50.17 55.92,50.25 41.12,54.9 41.09,54.83   "></polygon>		<polygon class="st3" points="55.91,50.23 55.9,50.18 41.1,54.84 41.11,54.88   "></polygon>	</g>	<path class="st0" d="M33.5,76.48c-0.22-0.06-0.5-0.23-0.73-0.43c-0.72-0.63-0.73-1.47-0.09-2.19c0.69-0.78,1.54-0.81,2.23-0.2  c0.25,0.22,0.41,0.45,0.49,0.65l0.37-0.23c-0.05-0.14-0.22-0.43-0.59-0.75c-0.92-0.81-2.1-0.74-2.92,0.19  c-0.86,0.97-0.7,2.05,0.13,2.8c0.36,0.32,0.71,0.5,0.91,0.55L33.5,76.48z"></path>	<polygon class="st0" points="37.64,76.99 36.31,76.24 36.92,75.15 38.34,75.95 38.55,75.58 36.69,74.52 34.74,77.96 36.67,79.06   36.88,78.69 35.4,77.84 36.1,76.6 37.44,77.36  "></polygon>	<path class="st0" d="M38.35,79.79l0.49,0.16l0.53-1.63l0.46,0.15c0.43,0.15,0.57,0.42,0.51,0.97c-0.05,0.5-0.07,0.85-0.04,0.98  l0.5,0.16c-0.03-0.17,0-0.56,0.05-1.13c0.04-0.41-0.05-0.74-0.31-0.93l0.01-0.02c0.44-0.01,0.86-0.23,1.02-0.73  c0.09-0.29,0.07-0.58-0.06-0.81c-0.17-0.29-0.47-0.49-0.99-0.66c-0.33-0.11-0.7-0.19-0.96-0.23L38.35,79.79z M39.93,76.58  c0.09,0.01,0.26,0.03,0.49,0.11c0.51,0.17,0.79,0.5,0.64,0.98c-0.14,0.43-0.57,0.61-1.08,0.44l-0.5-0.16L39.93,76.58z"></path>	<polygon class="st0" points="43.32,81.01 43.83,81.07 44.23,77.57 45.43,77.7 45.48,77.27 42.57,76.94 42.51,77.38 43.72,77.51    "></polygon>			<rect x="46.44" y="77.2" transform="matrix(0.9992 -0.0404 0.0404 0.9992 -3.1637 1.9529)" class="st0" width="0.51" height="3.96"></rect>	<polygon class="st0" points="48.95,80.98 49.45,80.89 49.11,79.13 50.58,78.85 50.5,78.43 49.03,78.71 48.78,77.42 50.37,77.11   50.29,76.69 48.19,77.1  "></polygon>	<polygon class="st0" points="51.39,76.32 52.72,80.05 53.2,79.87 51.87,76.15  "></polygon>	<polygon class="st0" points="55.7,76.16 54.36,76.89 53.76,75.8 55.19,75.02 54.98,74.64 53.11,75.66 54.99,79.14 56.94,78.08   56.74,77.7 55.24,78.52 54.56,77.26 55.9,76.53  "></polygon>	<path class="st0" d="M58.52,76.99c0.21-0.15,0.45-0.33,0.73-0.57c0.59-0.5,0.92-1.05,0.96-1.57c0.05-0.52-0.15-1.05-0.57-1.54  c-0.41-0.49-0.87-0.7-1.35-0.72c-0.47-0.02-0.98,0.19-1.53,0.67c-0.31,0.27-0.57,0.53-0.77,0.77L58.52,76.99z M56.62,73.98  c0.08-0.11,0.22-0.25,0.42-0.43c0.82-0.7,1.61-0.59,2.21,0.12c0.69,0.81,0.64,1.66-0.19,2.37c-0.15,0.13-0.29,0.25-0.41,0.31  L56.62,73.98z"></path>	<path class="st0" d="M45.31,30.29c15.94,0,28.59,12.38,29.67,28.06V1.94H16.31l-0.17,55.35C17.72,42.12,29.73,30.29,45.31,30.29  L45.31,30.29z"></path>	<path class="st1" d="M21.72,15.96h0.55l-0.27-4.33h-0.71l-0.77,2.09c-0.19,0.55-0.35,1.02-0.46,1.45h-0.01  c-0.11-0.45-0.26-0.92-0.44-1.45l-0.74-2.09h-0.71l-0.31,4.33h0.53l0.12-1.85c0.03-0.65,0.07-1.37,0.08-1.91h0.01  c0.12,0.51,0.29,1.07,0.5,1.68l0.7,2.06h0.42l0.77-2.1c0.22-0.59,0.4-1.13,0.55-1.64h0.02c-0.01,0.54,0.03,1.26,0.06,1.87  L21.72,15.96z M25.38,15.96c-0.03-0.21-0.05-0.47-0.05-0.75v-1.16c0-0.62-0.23-1.27-1.18-1.27c-0.39,0-0.77,0.11-1.03,0.28  l0.13,0.37c0.21-0.15,0.52-0.23,0.81-0.23c0.63,0,0.71,0.46,0.71,0.72v0.06c-1.2-0.01-1.87,0.41-1.87,1.16  c0,0.45,0.32,0.89,0.95,0.89c0.45,0,0.78-0.22,0.95-0.47h0.02l0.04,0.39H25.38z M24.78,14.91c0,0.06-0.01,0.12-0.03,0.18  c-0.09,0.26-0.35,0.52-0.75,0.52c-0.29,0-0.53-0.17-0.53-0.54c0-0.6,0.7-0.71,1.32-0.7V14.91z M26.24,15.96h0.57v-1.87  c0-0.1,0.01-0.19,0.04-0.27c0.09-0.31,0.38-0.57,0.75-0.57c0.53,0,0.72,0.41,0.72,0.91v1.79h0.57V14.1c0-1.07-0.67-1.33-1.1-1.33  c-0.51,0-0.87,0.29-1.03,0.59h-0.01l-0.03-0.51h-0.51c0.02,0.25,0.03,0.52,0.03,0.84V15.96z M32.03,15.96  c-0.03-0.21-0.05-0.47-0.05-0.75v-1.16c0-0.62-0.23-1.27-1.18-1.27c-0.39,0-0.77,0.11-1.03,0.28l0.13,0.37  c0.21-0.15,0.52-0.23,0.81-0.23c0.63,0,0.71,0.46,0.71,0.72v0.06c-1.2-0.01-1.87,0.41-1.87,1.16c0,0.45,0.32,0.89,0.95,0.89  c0.45,0,0.78-0.22,0.95-0.47h0.02l0.04,0.39H32.03z M31.44,14.91c0,0.06-0.01,0.12-0.03,0.18c-0.09,0.26-0.35,0.52-0.75,0.52  c-0.29,0-0.53-0.17-0.53-0.54c0-0.6,0.69-0.71,1.31-0.7V14.91z M35.08,12.85l-0.02,0.47h-0.01c-0.13-0.25-0.43-0.54-0.97-0.54  c-0.71,0-1.4,0.6-1.4,1.65c0,0.86,0.55,1.51,1.33,1.51c0.48,0,0.81-0.23,0.99-0.52H35v0.35c0,0.78-0.43,1.09-1,1.09  c-0.39,0-0.71-0.12-0.91-0.25l-0.14,0.43c0.25,0.17,0.66,0.25,1.03,0.25c0.39,0,0.83-0.09,1.13-0.37c0.31-0.27,0.45-0.71,0.45-1.42  v-1.8c0-0.38,0.01-0.63,0.03-0.85H35.08z M34.99,14.63c0,0.1-0.01,0.21-0.05,0.31c-0.12,0.36-0.43,0.58-0.78,0.58  c-0.61,0-0.92-0.51-0.92-1.12c0-0.72,0.39-1.17,0.93-1.17c0.41,0,0.69,0.27,0.79,0.59c0.03,0.08,0.03,0.16,0.03,0.26V14.63z   M38.99,14.5c0.01-0.05,0.01-0.15,0.01-0.26c0-0.57-0.27-1.47-1.28-1.47c-0.91,0-1.45,0.74-1.45,1.67c0,0.94,0.57,1.57,1.53,1.57  c0.49,0,0.83-0.1,1.03-0.19l-0.1-0.41c-0.21,0.09-0.45,0.16-0.86,0.16c-0.56,0-1.05-0.31-1.07-1.08H38.99z M36.8,14.1  c0.05-0.39,0.3-0.92,0.87-0.92c0.64,0,0.79,0.56,0.79,0.92H36.8z M39.7,15.96h0.55v-1.87c0-0.1,0.01-0.19,0.05-0.28  c0.09-0.28,0.35-0.56,0.7-0.56c0.43,0,0.65,0.35,0.65,0.85v1.86h0.55v-1.92c0-0.1,0.02-0.21,0.05-0.28  c0.09-0.28,0.34-0.51,0.67-0.51c0.45,0,0.67,0.35,0.67,0.95v1.76h0.55v-1.83c0-1.08-0.61-1.35-1.02-1.35  c-0.29,0-0.5,0.08-0.69,0.22c-0.13,0.1-0.25,0.23-0.35,0.41h-0.01c-0.13-0.37-0.45-0.63-0.87-0.63c-0.51,0-0.81,0.28-0.98,0.57  h-0.02l-0.02-0.5h-0.5c0.02,0.25,0.03,0.52,0.03,0.84V15.96z M47.56,14.5c0-0.05,0.01-0.15,0.01-0.26c0-0.57-0.27-1.47-1.28-1.47  c-0.91,0-1.46,0.74-1.46,1.67c0,0.94,0.57,1.57,1.53,1.57c0.49,0,0.84-0.1,1.04-0.19l-0.1-0.41c-0.21,0.09-0.45,0.16-0.86,0.16  c-0.57,0-1.05-0.31-1.07-1.08H47.56z M45.38,14.1c0.05-0.39,0.29-0.92,0.87-0.92c0.63,0,0.79,0.56,0.79,0.92H45.38z M48.27,15.96  h0.57v-1.87c0-0.1,0.01-0.19,0.04-0.27c0.09-0.31,0.38-0.57,0.75-0.57c0.53,0,0.72,0.41,0.72,0.91v1.79h0.57V14.1  c0-1.07-0.67-1.33-1.1-1.33c-0.51,0-0.87,0.29-1.03,0.59h-0.01l-0.03-0.51h-0.51c0.02,0.25,0.03,0.52,0.03,0.84V15.96z M51.94,12.1  v0.75h-0.48v0.43h0.48v1.7c0,0.36,0.05,0.64,0.22,0.81c0.13,0.15,0.35,0.23,0.61,0.23c0.22,0,0.39-0.03,0.5-0.07l-0.03-0.43  c-0.07,0.02-0.18,0.04-0.33,0.04c-0.31,0-0.43-0.22-0.43-0.6v-1.68h0.81v-0.43h-0.81v-0.89L51.94,12.1z M55.1,15.74  c0.23,0.15,0.69,0.27,1.11,0.27c1.02,0,1.51-0.57,1.51-1.24c0-0.63-0.37-0.99-1.1-1.27c-0.6-0.23-0.86-0.43-0.86-0.83  c0-0.29,0.22-0.65,0.81-0.65c0.39,0,0.68,0.13,0.82,0.2l0.15-0.45c-0.19-0.11-0.51-0.21-0.95-0.21c-0.84,0-1.4,0.51-1.4,1.18  c0,0.61,0.43,0.97,1.14,1.22c0.59,0.23,0.82,0.46,0.82,0.87c0,0.43-0.34,0.73-0.91,0.73c-0.39,0-0.75-0.13-1-0.28L55.1,15.74z   M58,12.85l1.15,2.86c0.03,0.07,0.03,0.12,0.03,0.15c0,0.03-0.01,0.08-0.04,0.14c-0.13,0.29-0.32,0.51-0.47,0.63  c-0.17,0.14-0.35,0.23-0.49,0.28l0.14,0.47c0.14-0.03,0.41-0.13,0.69-0.37c0.38-0.33,0.66-0.88,1.06-1.95l0.85-2.21h-0.59  l-0.62,1.82c-0.07,0.23-0.14,0.47-0.19,0.65H59.5c-0.05-0.19-0.13-0.43-0.2-0.64l-0.68-1.83H58z M61.22,15.81  c0.22,0.13,0.53,0.21,0.87,0.21c0.73,0,1.16-0.38,1.16-0.93c0-0.46-0.27-0.73-0.81-0.94c-0.41-0.15-0.59-0.27-0.59-0.53  c0-0.23,0.19-0.42,0.52-0.42c0.29,0,0.51,0.1,0.63,0.18l0.15-0.41c-0.17-0.1-0.45-0.19-0.77-0.19c-0.67,0-1.07,0.41-1.07,0.91  c0,0.37,0.27,0.68,0.83,0.88c0.41,0.15,0.57,0.3,0.57,0.57c0,0.25-0.19,0.46-0.6,0.46c-0.29,0-0.58-0.12-0.75-0.23L61.22,15.81z   M64.11,12.1v0.75h-0.48v0.43h0.48v1.7c0,0.36,0.06,0.64,0.22,0.81c0.13,0.15,0.35,0.23,0.61,0.23c0.22,0,0.39-0.03,0.5-0.07  l-0.03-0.43c-0.07,0.02-0.18,0.04-0.33,0.04c-0.31,0-0.42-0.22-0.42-0.6v-1.68h0.81v-0.43h-0.81v-0.89L64.11,12.1z M68.56,14.5  c0.01-0.05,0.02-0.15,0.02-0.26c0-0.57-0.27-1.47-1.29-1.47c-0.9,0-1.45,0.74-1.45,1.67c0,0.94,0.57,1.57,1.53,1.57  c0.49,0,0.83-0.1,1.03-0.19l-0.09-0.41c-0.21,0.09-0.46,0.16-0.86,0.16c-0.57,0-1.05-0.31-1.07-1.08H68.56z M66.39,14.1  c0.05-0.39,0.29-0.92,0.87-0.92c0.63,0,0.79,0.56,0.78,0.92H66.39z M69.29,15.96h0.55v-1.87c0-0.1,0.01-0.19,0.04-0.28  c0.09-0.28,0.35-0.56,0.7-0.56c0.43,0,0.65,0.35,0.65,0.85v1.86h0.55v-1.92c0-0.1,0.02-0.21,0.05-0.28  c0.09-0.28,0.35-0.51,0.67-0.51c0.45,0,0.67,0.35,0.67,0.95v1.76h0.55v-1.83c0-1.08-0.61-1.35-1.02-1.35  c-0.29,0-0.5,0.08-0.69,0.22c-0.13,0.1-0.25,0.23-0.35,0.41h-0.01c-0.13-0.37-0.45-0.63-0.88-0.63c-0.51,0-0.8,0.28-0.97,0.57  h-0.02l-0.03-0.5h-0.49c0.02,0.25,0.03,0.52,0.03,0.84V15.96z"></path>	<path class="st1" d="M36.54,21.17h-1.68v-1.37h1.78v-0.47H34.3v4.33h2.43V23.2h-1.87v-1.56h1.68V21.17z M37.44,23.66H38v-1.87  c0-0.1,0.01-0.19,0.04-0.26c0.09-0.32,0.38-0.58,0.75-0.58c0.53,0,0.72,0.42,0.72,0.92v1.79h0.57v-1.85c0-1.07-0.67-1.32-1.1-1.32  c-0.51,0-0.87,0.29-1.03,0.58h-0.01l-0.03-0.51h-0.5c0.02,0.26,0.03,0.52,0.03,0.84V23.66z M43.12,19.11v1.85h-0.01  c-0.14-0.25-0.46-0.47-0.93-0.47c-0.76,0-1.4,0.63-1.39,1.67c0,0.95,0.57,1.58,1.33,1.58c0.51,0,0.89-0.27,1.06-0.61h0.01  l0.03,0.54h0.51c-0.02-0.21-0.03-0.53-0.03-0.8v-3.76H43.12z M43.12,22.36c0,0.09-0.01,0.17-0.03,0.24  c-0.1,0.43-0.45,0.67-0.83,0.67c-0.61,0-0.92-0.51-0.92-1.15c0-0.69,0.35-1.2,0.93-1.2c0.42,0,0.73,0.29,0.81,0.65  c0.02,0.07,0.03,0.17,0.03,0.24V22.36z M45.94,20.49c-0.86,0-1.54,0.61-1.54,1.65c0,0.98,0.65,1.6,1.49,1.6  c0.75,0,1.55-0.5,1.55-1.65C47.44,21.13,46.83,20.49,45.94,20.49L45.94,20.49z M45.93,20.91c0.67,0,0.93,0.67,0.93,1.19  c0,0.7-0.4,1.21-0.94,1.21c-0.55,0-0.95-0.51-0.95-1.19C44.97,21.53,45.26,20.91,45.93,20.91L45.93,20.91z M48.15,23.66h0.55v-1.65  c0-0.1,0.02-0.19,0.03-0.27c0.07-0.42,0.35-0.72,0.75-0.72c0.08,0,0.13,0,0.19,0.01V20.5c-0.05-0.01-0.09-0.01-0.16-0.01  c-0.38,0-0.72,0.26-0.86,0.68h-0.03l-0.02-0.61h-0.49c0.02,0.29,0.03,0.61,0.03,0.97V23.66z M50.03,23.52  c0.22,0.13,0.53,0.21,0.87,0.21c0.74,0,1.16-0.39,1.16-0.93c0-0.46-0.27-0.73-0.81-0.93c-0.41-0.15-0.59-0.27-0.59-0.53  c0-0.23,0.19-0.43,0.52-0.43c0.29,0,0.51,0.11,0.63,0.18l0.15-0.41c-0.17-0.11-0.45-0.19-0.77-0.19c-0.67,0-1.07,0.41-1.07,0.91  c0,0.37,0.27,0.68,0.83,0.88c0.41,0.15,0.57,0.31,0.57,0.57c0,0.25-0.19,0.46-0.6,0.46c-0.29,0-0.58-0.11-0.75-0.23L50.03,23.52z   M55.29,22.21c0.01-0.06,0.02-0.15,0.02-0.27c0-0.57-0.27-1.46-1.28-1.46c-0.91,0-1.46,0.73-1.46,1.67s0.57,1.57,1.53,1.57  c0.49,0,0.83-0.11,1.03-0.19l-0.09-0.41c-0.21,0.09-0.46,0.16-0.86,0.16c-0.57,0-1.05-0.31-1.07-1.07H55.29z M53.11,21.81  c0.05-0.39,0.29-0.92,0.87-0.92c0.63,0,0.79,0.56,0.78,0.92H53.11z M58.13,19.11v1.85h-0.01c-0.14-0.25-0.47-0.47-0.94-0.47  c-0.75,0-1.39,0.63-1.39,1.67c0,0.95,0.58,1.58,1.33,1.58c0.51,0,0.89-0.27,1.06-0.61h0.01l0.03,0.54h0.51  c-0.02-0.21-0.03-0.53-0.03-0.8v-3.76H58.13z M58.13,22.36c0,0.09-0.01,0.17-0.03,0.24c-0.11,0.43-0.45,0.67-0.83,0.67  c-0.61,0-0.92-0.51-0.92-1.15c0-0.69,0.35-1.2,0.93-1.2c0.42,0,0.73,0.29,0.81,0.65c0.02,0.07,0.03,0.17,0.03,0.24V22.36z"></path>	<path class="st0" d="M34.11,59.81h-1.22v0.39h0.75v1.1c-0.11,0.05-0.33,0.1-0.64,0.1c-0.86,0-1.42-0.55-1.42-1.49  c0-0.93,0.58-1.49,1.48-1.49c0.37,0,0.62,0.07,0.82,0.16L34,58.19c-0.16-0.08-0.49-0.17-0.92-0.17c-1.24,0-1.99,0.81-2,1.91  c0,0.58,0.19,1.07,0.51,1.38c0.36,0.35,0.82,0.49,1.38,0.49c0.5,0,0.92-0.13,1.14-0.2V59.81z M34.84,61.75h2.05v-0.4h-1.58v-3.3  h-0.47V61.75z M37.22,58.06v2.18c0,1.14,0.57,1.57,1.32,1.57c0.8,0,1.4-0.46,1.4-1.6v-2.15h-0.48v2.19c0,0.82-0.35,1.18-0.9,1.18  c-0.49,0-0.86-0.35-0.86-1.18v-2.19H37.22z M41.47,61.75h0.49v-3.29h1.13v-0.41h-2.74v0.41h1.12V61.75z M45.42,59.63h-1.44v-1.17  h1.52v-0.4H43.5v3.7h2.07v-0.4h-1.6v-1.33h1.44V59.63z M46.65,61.75v-1.58c0-0.61-0.01-1.05-0.04-1.52l0.01-0.01  c0.19,0.4,0.43,0.82,0.69,1.23l1.17,1.87h0.48v-3.7h-0.45v1.55c0,0.57,0.01,1.03,0.05,1.52l-0.01,0.01  c-0.18-0.38-0.39-0.77-0.67-1.21l-1.19-1.87H46.2v3.7H46.65z M49.56,60.09v0.36h1.35v-0.36H49.56z M51.49,61.75h0.47v-1.67h1.4  v-0.4h-1.4v-1.23h1.51v-0.4h-1.99V61.75z M54.16,61.75h0.48v-1.6h0.45c0.43,0.02,0.63,0.21,0.74,0.72  c0.11,0.46,0.19,0.78,0.25,0.88h0.49c-0.07-0.14-0.17-0.49-0.29-1.01c-0.09-0.38-0.25-0.65-0.54-0.75v-0.01  c0.39-0.13,0.69-0.45,0.69-0.95c0-0.28-0.1-0.53-0.29-0.7c-0.23-0.21-0.56-0.3-1.07-0.3c-0.33,0-0.67,0.03-0.91,0.07V61.75z   M54.64,58.45c0.07-0.03,0.24-0.05,0.47-0.05c0.51,0.01,0.85,0.21,0.85,0.69c0,0.42-0.33,0.7-0.83,0.7h-0.49V58.45z M59.03,59.63  h-1.43v-1.17h1.52v-0.4h-2v3.7h2.08v-0.4h-1.6v-1.33h1.43V59.63z M61.73,59.63h-1.43v-1.17h1.51v-0.4h-1.99v3.7h2.08v-0.4h-1.6  v-1.33h1.43V59.63z"></path></g></svg>