<svg xmlns="http://www.w3.org/2000/svg" xmlns:xlink="http://www.w3.org/1999/xlink" id="Layer_1" x="0px" y="0px" viewBox="0 0 91 91" style="enable-background:new 0 0 91 91;" xml:space="preserve"><style type="text/css">	.st0{fill-rule:evenodd;clip-rule:evenodd;fill:#BBBBBB;}	.st1{fill-rule:evenodd;clip-rule:evenodd;fill:#FFFFFF;}	.st2{fill-rule:evenodd;clip-rule:evenodd;fill:#8B8B8B;}	.st3{fill-rule:evenodd;clip-rule:evenodd;fill:#818181;}</style><g>	<path class="st0" d="M48.8,71c0.2-0.4,1.4-1.3,2.2-1c0.4,0.2,0.6,0.5,0.7,1c0.1,0.5,0.2,1,0.2,1.4l0.4-0.1c0.1,0.6,0.4,0.6-0.7,0.9  c-0.6,0.2-0.4,0-0.7-0.2c-0.3,0.2-0.7,0.5-1.2,0.5c-0.9,0-1.4-1-0.4-1.7c0.3-0.2,0.8-0.3,1.2-0.4c0-0.4-0.2-0.6-0.7-0.5  c-0.3,0.1-0.5,0.4-0.7,0.5C49.1,71.2,49,71.1,48.8,71L48.8,71z M46.8,71.3c0.2-0.2,0.3-1,1-1c0.2,0,0.4,0,0.6,0.1  c0,0.2,0,0.4-0.1,0.6c0,0.1,0,0.2-0.1,0.3l-0.1,0.2l0,0c-0.2,0-0.5-0.1-0.6,0c-0.5,0.3-0.5,1.1-0.5,1.6h0.6v0.6l-2.2,0.1l0-0.6  l0.3,0l-0.1-1.9h-0.4v-0.6c0.2,0,1.3-0.2,1.5-0.2C46.8,70.6,46.7,71.1,46.8,71.3L46.8,71.3z M41,70l1.5,0.1c0,0.5-0.2,1.2-0.2,1.6  c0,0.3-0.1,0.6,0,0.8s0.5,0.1,0.7,0l0.2-1.7l-0.3-0.1l0.1-0.6l1.6,0.2c0,0.2-0.1,1-0.2,1.3c0,0.3-0.2,1.1-0.1,1.3  c0.2,0.1,0.4-0.1,0.4,0.1c0,0.2,0,0.4-0.1,0.5c-0.2,0.1-0.7,0.1-1,0c-0.4,0-0.3-0.2-0.5-0.4c-0.4,0.1-0.6,0.3-1.1,0.2  c-0.4-0.1-0.6-0.3-0.7-0.6c-0.4-0.6,0-1.5,0-2.2l-0.3-0.1L41,70z M37.8,71.8c0.1,0.1,0.5,0.3,0.8,0.2c0.1-0.1,0.2-0.2,0.2-0.3  c-0.1-0.3-1.3-0.5-1.2-1.4c0-0.6,0.6-0.9,1.2-0.9c0.5,0,1.2,0.2,1.6,0.4l-0.2,1c-0.1,0.1-0.2,0-0.3,0c-0.1,0-0.2,0-0.3-0.1  c0-0.2,0.1-0.7-0.5-0.7c-0.2,0-0.3,0.1-0.3,0.2c-0.1,0.4,1.3,0.6,1.2,1.5c-0.1,0.6-0.6,1-1.3,1c-0.7,0-1.1-0.3-1.7-0.5l0.2-1  l0.6,0.1V71.8z M53.9,69.6c0.3-0.1,0.9-1.5,1.9-0.7c0.3,0.2,0.4,0.5,0.5,0.9c0.1,0.3,0.3,0.7,0.4,1.1l0.4-0.1l0.2,0.6L55.5,72  l-0.2-0.6l0.3-0.1c0-0.2-0.3-0.8-0.3-1c-0.1-0.3-0.2-0.8-0.7-0.6c-0.1,0.1-0.3,0.3-0.3,0.3c-0.1,0.2,0.4,1.4,0.5,1.6l0.3-0.1  l0.2,0.6l-1.8,0.6l-0.2-0.6l0.3-0.2L53,70.3l-0.4,0.1c-0.1-0.1-0.2-0.4-0.2-0.6l1.4-0.7C53.8,69.2,53.9,69.5,53.9,69.6L53.9,69.6z   M34.5,69.9c0,0.3-0.1,0.5,0.1,0.7c0.6,0.5,1,0.1,0.6-0.3c-0.3-0.3-1.1-0.8-0.8-1.5c0.5-1.1,2.2-0.5,2.8,0.1l-0.3,1l-0.7-0.2  c0-0.3,0.1-0.5-0.1-0.6c-0.2-0.1-0.4-0.2-0.6,0c-0.2,0.3,0.3,0.5,0.7,0.8c0.7,0.6,0.2,1.7-0.8,1.7c-0.5,0-1.6-0.5-1.8-0.8l0.3-1  L34.5,69.9z M28.9,67.2c0.4,0.2,0.2,0.3,0.6,0l3.4-2.5c0.2,0.1,0.7,0.4,0.9,0.5c0,0.3-0.7,2.7-0.8,3.2c-0.1,0.2-0.2,0.9-0.3,1.1  c0.1,0.1,0.2,0.2,0.3,0.2l-0.3,0.5l-1.7-1.2l0.3-0.5l0.4,0.2l0.1-0.5c-0.1-0.1-1-0.7-1.2-0.8l-0.4,0.3l0.3,0.2  c0,0.2-0.2,0.4-0.3,0.5c-0.1-0.1-1.4-0.9-1.5-1C28.6,67.7,28.8,67.3,28.9,67.2L28.9,67.2z M66.6,68.9c-1-0.1-2.1,0-3.2,0  c-0.5,0-1.1,0-1.6,0c-0.2,0-1.4-0.1-1.5,0c0.1,0.2,0.2,0.2,0.3,0.4c-0.3,0.4-0.8,1-1.4,1.1c-1.9,0.5-2.8-2.1-0.9-3.3  c0.3-0.2,0.5-0.2,0.9-0.3c0.1-0.1,0.3-0.1,0.5-0.1c0.2,0,0.3,0,0.5,0c0.1-0.5,0.3-0.9,0.6-1.1c0.2-0.1,0.3-0.3,0.5-0.3  c0.3-0.1,0.4-0.1,0.7-0.2c0-0.1,0.1-0.1,0.2-0.1c1.2,0,7.9-0.1,8.2,0c0.2-0.1,1.1-1.4,1.2-1.5c0.7-0.9,1.6-2.3,2.1-3.4  c0.2-0.3,0.3-0.6,0.5-0.9l0.5-0.9l-56.9,0c0.2,0.6,1.3,2.6,1.6,3.1c0.6,1,2.1,3.1,2.9,4.1l0.6,0.6c0.2,0.2,0.4,0.5,0.5,0.6  c0.4,0.4,0.7,0.8,1.2,1.2c1.3,1.3,2.4,2.1,3.9,3.2c1.7,1.2,4.2,2.5,6.1,3.3c3.6,1.5,7.7,2.3,11.8,2.3c4.1,0,8-0.8,11.7-2.3  c1.4-0.6,3.3-1.6,4.7-2.4c1.1-0.7,2.5-1.7,3.4-2.5C66.1,69.4,66.5,69,66.6,68.9L66.6,68.9z"></path>	<path class="st0" d="M56,23.9c-0.3,0.9,0.7,1,1.4,1.2l-0.1,0.6c-0.9,0-2.1-0.3-2.4-1.3c-0.5-1.3,1.2-3,2.8-2  c0.9,0.6,0.5,1.8,0.3,1.9c-0.1,0-0.2,0.1-0.3,0.1C57.2,24.6,56.4,23.9,56,23.9L56,23.9z M60.6,24.3c0.3,0.2,0.6,0.4,0.9,0.6  c-0.1,0.2-0.3,0.4-0.4,0.6c-0.3-0.1-0.6-0.5-0.9-0.6L59.4,26c-0.5,0.7,0.4,0.7,0.7,1l-0.2,0.6c-0.4-0.1-0.8-0.3-1.2-0.5  c-1.2-0.7-0.7-1.2-0.2-1.9l0.6-0.9l-0.4-0.3l0.4-0.5l0.5,0.2c0.1-0.1,0.3-0.4,0.4-0.5c0.4,0,0.9,0.2,1.2,0.3  C61,23.7,60.8,24,60.6,24.3L60.6,24.3z M17.5,32.5l56.9,0c-0.1-0.3-0.5-1.2-0.7-1.5c-0.8-1.5-1.4-2.4-2.3-3.8  c-0.1-0.1-0.1-0.1-0.1-0.2c-0.1-0.1-0.1-0.1-0.1-0.1h-7.5c0.2,0.2,1,0.9,1.1,1c-0.1,0.1-0.3,0.4-0.4,0.5c-0.3-0.2-0.1-0.2-0.6,0.1  l-2.1,1c-0.5,0.2-1,0.4-1.6,0.5c-0.3,0.1-0.6,0.2-0.8-0.1c-0.1-0.1-0.3-0.8-0.1-0.9c0.1,0,0.7,0.1,1.2,0c0.4-0.1,0.3-0.1,0.6-0.9  l0.8-2.1c-0.1-0.1-0.1-0.1-0.2-0.2c0.1-0.1,0.3-0.4,0.4-0.5c0,0-0.1-0.1,0.2-0.1c1,0,2.7,0,3.7,0c0.7,0,3.6,0,4,0L68.8,24  c-0.4-0.4-1.8-1.8-2.2-2.1c-0.1-0.1-0.1-0.1-0.2-0.2c-0.5-0.5-1.6-1.3-2.2-1.7c-0.1-0.1-0.3-0.2-0.5-0.3c-0.1-0.1-0.1-0.1-0.2-0.2  c-0.1-0.1-0.1-0.1-0.3-0.1c0,0,0,0-0.1,0l-8.1,0.1c0.3,0.1,0.7,0.2,0.9,0.5c-0.1,0.2-0.4,0.5-0.6,0.6c-0.2-0.1-0.4-0.4-0.8-0.4  c-0.2,0.2-0.3,0.7-0.4,1l0.9,0.3L55,22.1l-0.9-0.3c-0.1,0.2-0.6,1.6-0.6,1.8l0.6,0.2l-0.2,0.6l-2.1-0.7l0.2-0.6l0.4,0.1l0.6-1.8  l-0.5-0.1c0-0.2,0.1-0.5,0.2-0.6l0.5,0.1c0.1-0.3,0.2-0.6,0.3-0.8l-3.1,0v0c0.3,0,0.5,0.1,0.7,0.3c0.8,0.7,0.2,1.6,0.2,2.6l0.4,0.1  c0,0.1-0.1,0.5-0.1,0.6c-0.3,0.1-0.7,0-1,0c-0.5-0.1-0.2-0.2-0.5-0.4c-0.4,0.1-0.9,0.3-1.3,0.1c-0.8-0.3-1-1.4,0.2-1.7  c0.6-0.2,1.1,0,1.4-0.1c0.1-0.9-0.9-0.6-1.3-0.4L48.9,21c-0.3,0.1-1-0.1-1.3,0c0,0.2,0.2,0.6-0.1,1.2c-0.5,1.1-2.3,1-3.2,0.8l0-0.4  l-2,0c0,0.2,0.1,0.4,0.1,0.6c-0.2,0.1-0.5,0.2-0.8,0.3c-0.6,0.2-0.4,0.1-0.8-0.1c-0.3,0.2-0.6,0.5-1,0.6c-0.4,0.1-0.8-0.1-1-0.3  l-0.1-0.1c-0.1,0,0.1,0.1-0.1,0h-0.6c-0.1,0-0.1-0.1-0.1,0c0,0.1,0.3,0.4,0.3,0.5c-0.1,0.2-0.8,0.7-1.1,0.9  c-0.2,0.1-0.5,0.2-0.7,0.2c-0.2,0-0.3,0-0.5,0c-0.2,0-0.3-0.1-0.4-0.1c0,0.1-0.2,0.1-0.4,0.1c-0.2,0-0.3,0-0.5,0  c0.1-0.1,0,0,0.1,0.1c0,0.1,0,0,0.1,0.1c0.1,0.1,0.1,0.1,0.1,0.1c0.1,0.1,0.1,0.1,0.2,0.2c-0.3,0.5-1.1,1.3-1.8,1.4  c-0.7,0.1-1.3-0.2-1.6-0.8c-0.1-0.2-0.1-0.4-0.2-0.6c0,0,0,0,0,0s0,0-0.1-0.1h-1.2c0,0.1,0.2,0.2,0.2,0.3l0.7,0.8c0,0,0,0,0,0  l0,0.1l0,0c-0.1,0.2-0.3,0.3-0.5,0.5c-0.3-0.2-0.2-0.6-1,0.2c0.1,0.2,0.7,0.9,0.9,0.9c0.2-0.2,0.4-0.3,0.6-0.5  c0.1,0.1,0.3,0.3,0.4,0.5L30,29.8c-0.1,0.1-0.1,0.1-0.2,0.2c-0.1-0.1-0.3-0.3-0.4-0.5c0.1-0.2,0.2-0.1,0.2-0.3  c-0.1-0.1-0.2-0.2-0.3-0.3l-2.1-2.3c-0.1,0-0.3,0.2-0.3,0.3c-0.1-0.1-0.3-0.3-0.4-0.5l2.4-2.2l0,0c0-0.1,0,0,0.1-0.1  c0-0.1-0.1-0.1,0.3-0.1c0.6,0,2.2,0,2.5,0c0.1-0.1,0.3-0.3,0.6-0.4c0.2-0.1,0.5-0.2,0.8-0.2c0,0,0-0.1,0.1-0.1c0.3,0,1.3,0.1,1.5,0  c0.1-0.5,0.2-0.8,0.5-1.1c0.3-0.3,0.7-0.5,1.2-0.5c0-0.2,0-0.1,0.5-0.1h1.6c0.1-0.1,0.1-0.5,0.6-0.8c0.5-0.3,0.6-0.2,1.1-0.3  c0-0.2-0.2-0.8-0.3-1.1l-0.6,0.1l-0.1-0.6l1.7-0.6c0.1-0.1,0,0,0.1-0.1h2.2c0.4,0,2.1-0.1,2.4,0c0.2,0,0.4-0.1,0.6-0.1  c0.2,0,0.5,0,0.6,0c0.5-0.1,1.2-0.1,1.8-0.1c3,0,6.1,0,9.1,0c1.2,0,2.4,0.1,3.5,0c-0.1-0.1-2.3-1.2-2.7-1.4  c-2.9-1.3-6.6-2.2-9.9-2.5c-9.2-0.8-18,2.7-24.2,8.6c-0.3,0.3-1.4,1.4-1.8,1.8l-0.7,0.8c-0.2,0.2-0.3,0.4-0.5,0.6  c-0.6,0.8-1.2,1.6-1.7,2.4c-0.3,0.4-0.5,0.9-0.8,1.3C18.7,30.2,17.7,32,17.5,32.5L17.5,32.5z"></path>	<path class="st0" d="M10.1,33.8c0.2-0.1,0.5-0.2,0.7-0.3c1.5-0.6,2.9-0.9,4.5-1c0.2,0,2.1,0.1,2.2-0.1h-1.4  c1.1-2.6,2.9-5.6,4.7-7.7c0.1-0.2,0.2-0.3,0.3-0.4l0.7-0.8c0.2-0.2,0.2-0.2,0.4-0.4l1.2-1.2c2.5-2.4,4.4-3.8,7.7-5.5  c1.2-0.7,3-1.4,4.3-1.8c7.1-2.4,14.1-2.4,21.2,0c1.6,0.5,2.9,1.2,4.3,1.8c1.7,0.8,4.1,2.5,5.6,3.7l2.4,2.2c0.1,0.1,0.3,0.3,0.4,0.4  l0.8,0.8c0.3,0.4,0.7,0.9,1.1,1.3c0.2,0.3,0.5,0.5,0.7,0.8c0.1,0.2,0.2,0.3,0.3,0.4c0.1,0.2,0.2,0.3,0.3,0.5  c0.6,0.9,1.3,1.9,1.8,2.8c0.1,0.2,0.2,0.3,0.3,0.5l0.8,1.6c0.2,0.3,0.3,0.7,0.5,1.1c1.2,0,2.2,0.1,3.3,0.3c0.5,0.1,0.9,0.3,1.4,0.4  c0.5,0.2,0.9,0.4,1.3,0.5c-1.4-4-2.7-6.8-5.2-10.3c-0.5-0.7-1.2-1.6-1.7-2.2l-1.4-1.6c-0.8-0.9-1.8-1.8-2.7-2.6l-3-2.4  c-1.2-0.8-2.2-1.5-3.5-2.2c-13.3-7.5-30-6-41.6,3.1c-0.6,0.5-1.8,1.5-2.4,2l-1.7,1.7c-0.2,0.2-0.3,0.3-0.5,0.5l-0.5,0.5  c-0.1,0.1-0.3,0.3-0.5,0.5c-2,2.3-3.7,4.8-5.1,7.6c-0.7,1.4-1.2,2.6-1.8,4C10.4,32.7,10.1,33.4,10.1,33.8L10.1,33.8z"></path>	<path class="st0" d="M74.5,58.4c0.3,0.1,1.1,0,1.4,0c-0.4,1-1.1,2.2-1.6,3.2c-0.8,1.3-2,3.2-3,4.3l-1.1,1.3  c-0.3,0.4-1.4,1.5-1.8,1.8c-0.5,0.4-0.7,0.7-1.3,1.2c-0.1,0.1-0.2,0.2-0.3,0.3L65,71.8c-1.3,0.9-3.1,2-4.6,2.7  c-1.8,0.9-3.3,1.5-5.2,2.1c-2,0.6-4,0.9-6.2,1.2c-0.7,0.1-1.5,0.1-2.3,0.1c-1.4,0.1-3.2-0.1-4.6-0.2c-3.8-0.4-7.9-1.6-11.2-3.4  c-1.7-0.9-3-1.7-4.5-2.8l-1-0.8c-0.1-0.1-0.2-0.2-0.3-0.2c-0.3-0.1-5.4,0-6.5,0c-0.2,0-0.8-0.1-0.9,0.1c0,0.1,0.1,0.1,0.2,0.2  l2.6,2.6c1,0.9,2,1.7,3.1,2.5c0.3,0.2,0.6,0.5,0.9,0.7c1.2,0.8,2.8,1.8,4,2.4c1.7,0.8,2.6,1.3,4.5,2c7,2.5,14.7,3,22.3,1.1  c3.8-0.9,8.1-2.8,11.2-4.9c2-1.3,3.7-2.6,5.4-4.3c0.3-0.3,0.5-0.5,0.8-0.8c0.3-0.3,0.5-0.5,0.8-0.8c0.2-0.2,0.5-0.5,0.8-0.8  c0.2-0.3,0.5-0.6,0.8-0.9c0.1-0.2,0.2-0.3,0.3-0.5c0.8-1,1.7-2.3,2.4-3.3c1.3-2,2.4-4.1,3.3-6.3c0.1-0.3,0.9-2.2,0.8-2.4  c-0.2,0-0.6,0.2-0.8,0.3c-1.4,0.6-3,0.9-4.5,0.9C76.3,58.3,74.7,58.3,74.5,58.4L74.5,58.4z"></path>	<path class="st0" d="M29.3,40.2l1.3,0.1l-0.1,10.4c-0.2,0.1-0.9,0.1-1.2,0.1c-0.1,0.2-0.1,1.6,0,1.9h5.1c0-0.3,0.1-1.7,0-1.9  l-1.5-0.1l0.1-7.8c0.3-0.1,0.2,0.1,0.3,0.4l2.8,7.5c0.1,0.3,0.3,0.8,0.5,1.2l2-0.1l0.9-2.1c0.6-1.5,1.2-2.9,1.7-4.4l0.7-2  c0.1-0.2,0-0.2,0.2-0.2c0,0.1,0.1,7.3,0.1,7.6c-0.2,0.1-1,0.1-1.3,0.1c-0.1,0.2-0.1,1.6,0,1.9c0.6,0,5.8,0,5.9,0  c0.1-0.2,0.1-1.6,0-1.8l-1.2-0.1c-0.1-0.3,0-2.1,0-2.6c0-0.9,0-1.8,0-2.7c0-0.6-0.1-5.1,0-5.2c0.1-0.1,0.4-0.1,0.5-0.1  c0.2,0,0.4,0,0.6-0.1c0.1-0.2,0.1-1.7,0.1-2h-5.2c-0.1,0.4-0.6,1.7-0.8,2.3L39.1,45c-0.1,0.3-0.7,2.1-0.8,2.2  c-0.3,0-0.2-0.1-0.3-0.5l-2.8-8.1c-0.1-0.2-0.1-0.5-0.3-0.6h-5.5L29.3,40.2z"></path>	<path class="st0" d="M21,46.9v0.8l0.3,0l1.4,0c0,0.6,0,1.2,0,1.7c0,0.3,0,0.5,0,0.8c0,0.3,0.1,0.6-0.2,0.7c-0.4,0.2-1.2,0-1.5-0.1  c-1.3-0.4-2.1-1.5-2.5-2.7c-0.8-2.4-0.3-6.5,2.1-7.7c0.8-0.4,2-0.5,2.8,0c0.3,0.2,0.2,0.2,0.3,0.5c0.1,0.2,0.1,0.5,0.1,0.7  c0.1,0.3,0.2,1.3,0.3,1.4l2.4-0.2c0.1-0.4-0.1-1.7-0.1-2.2c0-0.7-0.1-1.5-0.1-2.2c-1-0.5-3.3-0.6-4.6-0.5c-2.8,0.3-5,1.4-6.5,3.7  c-2.2,3.5-1.4,8.7,2.6,10.4c1.9,0.8,4.6,1,6.7,0.6c0.5-0.1,1.7-0.4,2-0.6l0.1-4.4c0.2-0.1,0.7-0.1,1-0.1c0.1-0.3,0.1-1.5,0.1-2H21  L21,46.9z"></path>	<path class="st0" d="M54.2,40c0.9-0.1,1.5,0.2,2,0.8c1.1,1.4,0.8,3.7-0.1,4.5c-0.5,0.3-1,0.5-1.7,0.5c-0.5-0.1-0.5-0.2-0.5-0.6  c0-0.4,0-0.8,0-1.1l0-3.3C53.9,39.9,53.8,40,54.2,40L54.2,40z M49,51.6L49,52.7l1.2,0l5.3,0c0.1,0,0.2,0,0.3,0c0.1-0.2,0-1.5,0-1.8  l-2-0.1l0-3.1c2.3,0.1,4.4-0.2,5.8-2c0.1-0.2,0.2-0.3,0.3-0.5c0.2-0.4,0.4-0.7,0.5-1.3c0.2-1,0.1-2.1-0.3-3  c-1.4-3.1-4.7-2.8-7.8-2.7c-0.6,0-3.1,0-3.5,0.1c-0.1,0.2-0.1,1.7,0,1.9l1.2,0.1c0.1,0.9,0,10.5,0,10.6c-0.1,0.1-0.8,0-1.1,0.1  V51.6z"></path>	<path class="st1" d="M25.2,70.4c0.1,0,0.2,0.2,0.3,0.2l1,0.8c1.5,1.1,2.8,1.9,4.5,2.8c3.3,1.8,7.4,3,11.2,3.4  c1.4,0.2,3.1,0.3,4.6,0.2c0.8-0.1,1.6-0.1,2.3-0.1c2.2-0.2,4.1-0.6,6.2-1.2c1.9-0.6,3.5-1.2,5.2-2.1c1.4-0.7,3.3-1.8,4.6-2.7  l1.7-1.3c0.1-0.1,0.2-0.2,0.3-0.3c0.6-0.5,0.8-0.7,1.3-1.2c0.4-0.4,1.5-1.5,1.8-1.8l1.1-1.3c1-1.2,2.2-3,3-4.3  c0.6-1,1.2-2.2,1.6-3.2c-0.3,0-1.1,0.1-1.4,0L74,59.3c-0.2,0.3-0.3,0.6-0.5,0.9c-0.5,1-1.4,2.4-2.1,3.4c-0.1,0.1-1,1.4-1.2,1.5  c-0.1,0.1,0,0.1-0.1,0.2l-0.3,0.4c-0.2,0.2-0.3,0.3-0.4,0.5l-1.8,1.9c-0.2,0.2-0.3,0.3-0.5,0.4l-0.5,0.5c0,0.1-0.5,0.5-0.6,0.5  c-0.9,0.8-2.4,1.8-3.4,2.5c-1.3,0.8-3.2,1.8-4.7,2.4c-3.7,1.5-7.6,2.3-11.7,2.3c-4.1,0-8.2-0.8-11.8-2.3c-1.9-0.7-4.4-2.1-6.1-3.3  c-1.4-1.1-2.5-1.9-3.9-3.2c-0.4-0.4-0.7-0.8-1.2-1.2c-0.2-0.2-0.4-0.4-0.5-0.6l-0.6-0.6c-0.9-1-2.3-3.1-2.9-4.1  c-0.3-0.5-1.4-2.5-1.6-3.1h-1.4c0.3,0.6,0.5,1.2,0.8,1.8c1.3,2.5,3,4.9,4.8,7l0.6,0.7c0.5,0.5,0.9,0.9,1.3,1.3  C24,69.4,25,70.2,25.2,70.4L25.2,70.4z"></path>	<path class="st1" d="M17.5,32.4L17.5,32.4c0.1-0.4,1.1-2.2,1.4-2.7c0.3-0.4,0.5-0.9,0.8-1.3c0.6-0.8,1.1-1.6,1.7-2.4  c0.2-0.2,0.3-0.4,0.5-0.6l0.7-0.8c0.3-0.4,1.4-1.5,1.8-1.8c6.2-5.9,15-9.4,24.2-8.6c3.3,0.3,7,1.1,9.9,2.5c0.4,0.2,2.6,1.2,2.7,1.4  c0.3,0.1,2,1.1,2.1,1.3c0.1,0,0.1,0,0.3,0.1c0.1,0.1,0.1,0.1,0.2,0.2c0.2,0.1,0.3,0.2,0.5,0.3c0.6,0.4,1.7,1.3,2.2,1.7  c0.1,0.1,0.1,0.1,0.2,0.2c0.4,0.3,1.8,1.7,2.2,2.1l1.1,1.2c0.2,0.3,0.5,0.5,0.7,0.8c0.1,0.1,0.2,0.2,0.3,0.4  c0.1,0.1,0.2,0.3,0.3,0.4c0.1,0,0,0,0.1,0.1c0,0.1,0.1,0.1,0.1,0.2c1,1.4,1.5,2.3,2.3,3.8c0.2,0.3,0.6,1.2,0.7,1.5l1.4,0  c-0.2-0.3-0.3-0.7-0.5-1.1l-0.8-1.6c-0.1-0.2-0.2-0.3-0.3-0.5c-0.5-0.9-1.2-2-1.8-2.8c-0.1-0.2-0.2-0.3-0.3-0.5  c-0.1-0.2-0.2-0.3-0.3-0.4c-0.2-0.3-0.4-0.6-0.7-0.8c-0.3-0.4-0.8-0.9-1.1-1.3l-0.8-0.8c-0.1-0.1-0.2-0.3-0.4-0.4l-2.4-2.2  c-1.5-1.2-3.9-2.8-5.6-3.7c-1.4-0.7-2.8-1.3-4.3-1.8c-7.1-2.3-14.1-2.4-21.2,0c-1.4,0.5-3.1,1.2-4.3,1.8c-3.2,1.7-5.1,3.1-7.7,5.5  l-1.2,1.2c-0.2,0.2-0.2,0.2-0.4,0.4l-0.7,0.8c-0.1,0.1-0.2,0.2-0.3,0.4c-1.7,2.1-3.6,5.1-4.7,7.7H17.5z"></path>	<path class="st0" d="M47.1,84.1c0.2-0.1,1.6-0.1,1.9-0.1c0.6-0.1,1.2-0.1,1.8-0.2c1.2-0.1,2.3-0.3,3.4-0.6c2.1-0.5,4.2-1.1,6.1-1.8  c4.7-1.9,8.5-4.4,12.2-7.7l2-2c0.5-0.5,1-1,1.4-1.6c0.9-1.1,1.3-1.7,2.1-2.8c1.6-2.3,3.1-5.1,4.1-7.8c0.3-0.9,0.7-2,1-2.9  c-0.1,0-1.1,0.6-1.2,0.6c0.1,0.2-0.7,2.1-0.8,2.4c-0.9,2.2-2,4.4-3.3,6.3c-0.6,1-1.6,2.3-2.4,3.3c-0.1,0.2-0.2,0.3-0.3,0.5  c-0.3,0.3-0.5,0.6-0.8,0.9c-0.3,0.3-0.5,0.6-0.8,0.8c-0.3,0.3-0.5,0.6-0.8,0.8c-0.3,0.3-0.5,0.5-0.8,0.8c-1.7,1.7-3.5,2.9-5.4,4.3  c-3.1,2.1-7.4,3.9-11.2,4.9c-7.6,1.9-15.3,1.4-22.3-1.1c-1.9-0.7-2.8-1.2-4.5-2c-1.3-0.6-2.9-1.7-4-2.4c-0.3-0.2-0.6-0.5-0.9-0.7  c-1.2-0.8-2.1-1.7-3.1-2.5l-2.6-2.6c-0.1-0.1-0.1-0.1-0.2-0.2c-0.2-0.1-0.5-0.5-0.6-0.7c-1.5-1.8-2.6-3.3-3.8-5.4  c-0.6-1.1-1.3-2.3-1.8-3.5c-0.4-1-0.7-1.8-1.1-2.8c-0.1-0.3-0.3-0.7-0.3-1L9,56.4c0.1,0.4,0.3,1.1,0.5,1.5c0.9,2.5,1.7,4.5,3.1,6.8  c1.2,2.1,2.2,3.4,3.7,5.3c0.1,0.1,0.2,0.2,0.2,0.3l1.2,1.3c0.2,0.2,0.3,0.3,0.5,0.5c0.5,0.6,1.4,1.4,2,2c2.1,1.8,3.7,3.1,6.3,4.6  c0.8,0.5,1.7,0.9,2.6,1.4c0.9,0.5,1.8,0.8,2.8,1.2c3.4,1.4,7.5,2.3,11.3,2.6c0.3,0,1.7,0.1,1.9,0.1H47.1z"></path>	<path class="st0" d="M10.1,33.8c0.1-0.4,0.3-1.1,0.5-1.5c0.6-1.4,1.1-2.7,1.8-4c1.4-2.8,3.1-5.2,5.1-7.6c0.1-0.2,0.3-0.4,0.5-0.5  l0.5-0.5c0.2-0.2,0.3-0.3,0.5-0.5l1.7-1.7c0.5-0.5,1.7-1.5,2.4-2c11.6-9.1,28.3-10.6,41.6-3.1c1.3,0.7,2.4,1.4,3.5,2.2l3,2.4  c0.9,0.9,1.9,1.7,2.7,2.6l1.4,1.6c0.5,0.6,1.2,1.5,1.7,2.2c2.5,3.5,3.8,6.3,5.2,10.3l1.2,0.6c-0.1-0.5-0.8-2.4-1-3  c-0.3-0.9-0.8-1.9-1.2-2.8c-1.3-2.8-2.8-5-4.6-7.3c-0.3-0.4-0.6-0.7-0.9-1.1l-0.7-0.8c-0.4-0.5-2.1-2.2-2.7-2.7  C66.3,11.6,58.7,7.9,50.8,7c-0.6-0.1-1.2-0.1-1.8-0.2c-0.3,0-1.7,0-1.9-0.1h-2.3c-0.2,0.1-1.5,0.1-1.8,0.1  c-1.7,0.1-3.6,0.4-5.2,0.8c-6.2,1.4-11.5,4-16.1,7.7c-0.2,0.2-0.4,0.3-0.5,0.5c-0.1,0.1-0.2,0.1-0.3,0.2l-1.3,1.2  c-0.1,0.1-0.2,0.2-0.2,0.2l-1.5,1.5c-0.6,0.6-1.1,1.2-1.6,1.8c-1.7,2.1-2.2,2.9-3.7,5.3c-1.3,2.1-2.3,4.5-3.1,6.8  C9.3,33.3,9,34,8.9,34.4L10.1,33.8z"></path>	<path class="st0" d="M17.8,70.4c0-0.1,0.6-0.1,0.9-0.1c1.1,0,6.3-0.1,6.5,0l0,0c-0.1-0.2-1.2-1-1.4-1.2c-0.4-0.5-0.8-0.8-1.3-1.3  l-0.6-0.7c-1.8-2.1-3.5-4.5-4.8-7c-0.3-0.6-0.6-1.2-0.8-1.8c-1.2,0-2.2-0.1-3.4-0.3c-1-0.2-1.8-0.6-2.7-1c0.1,0.3,0.2,0.7,0.3,1  c0.4,1,0.7,1.8,1.1,2.8c0.5,1.2,1.2,2.4,1.8,3.5c1.2,2.1,2.3,3.6,3.8,5.4C17.3,69.9,17.6,70.3,17.8,70.4L17.8,70.4z"></path>	<path class="st0" d="M68.9,38.3v5.7L63.6,44l-0.1,2.7h5.4l0.1,5.9c0.2,0.1,2.5-0.1,2.9-0.1l0-5.8c0.2-0.1,4.5,0,5.2,0  c0.1-1,0.1-1.9,0.1-2.9l-5.2,0.1l0.1-5.7C71,38.2,70,38.2,68.9,38.3L68.9,38.3z"></path>	<path class="st0" d="M61.8,65.1c0.2,0.2,0.3,0,0.8,0.4c0.9,0.8-0.3,1.3-1.1,1.9c0.3,0.3,0.6,0.3,1,0.1c0.1-0.1,0.2-0.2,0.4-0.3  c0.1-0.1,0.2-0.3,0.3-0.4c0.1,0.1,0.4,0.3,0.5,0.4c-0.3,0.5-0.4,0.6-0.8,1c-0.3,0.3-0.7,0.5-1.2,0.6c-1,0.1-1.6-0.9-1.6-2  c-0.2,0-0.3,0-0.5,0c-0.2,0-0.4,0-0.5,0.1h0.2c0.1,0.2,0.2,0.6,0.1,0.8c-0.1,0.2,0,0.1-0.1,0.1c-0.3,0.1-0.8,0-1,0.3  c-0.2,0.5,0.3,1.7,1.1,1.5c0.3-0.1,0.7-0.5,0.8-0.6c0.1,0,0.1,0,0.1,0.1c0.1-0.1,1.3,0,1.5,0c0.6,0,1.1,0,1.6,0c1,0,2.2-0.1,3.2,0  l0.5-0.5c0.1-0.2,0.3-0.2,0.5-0.4l1.8-1.9c0.2-0.2,0.3-0.3,0.4-0.5l0.3-0.4c0.1-0.1,0.1-0.1,0.1-0.2c-0.3-0.1-7,0-8.2,0  C61.9,65.1,61.9,65.1,61.8,65.1L61.8,65.1z"></path>	<path class="st0" d="M46.8,18.1c0.2,0.1,0.5,0.1,0.7,0.2l0.1,1.3l-0.8,0.1c-0.1-0.7-0.1-0.9-0.6-0.9c-0.2,0-0.4,0.1-0.5,0.3  c-0.1,0.2-0.1,0.5,0,0.6c0.4,0.4,1.3,0.3,1.8,1.1l0.1,0.1c0.3-0.1,0.9,0,1.3,0l-0.2-0.4c0.5-0.3,1-0.5,1.7-0.5v0l3.1,0  c0.4-0.4,0.9-0.7,1.7-0.6l8.1-0.1c0.1,0,0.1,0,0.1,0c-0.1-0.2-1.8-1.2-2.1-1.3c-1.1,0.1-2.4,0-3.5,0c-3,0-6,0-9.1,0  C48.1,18.1,47.3,18,46.8,18.1L46.8,18.1z"></path>	<path class="st0" d="M42.4,22.6l2,0l-0.1-1l0.8-0.1c0.1,0.3,0.1,0.8,0.4,0.9c0.3,0.1,0.7,0.1,0.9-0.1c0.2-0.2,0.2-0.6-0.2-0.8  c-0.5-0.3-1.9-0.5-1.8-1.9c0.1-0.4,0.4-0.9,0.7-1.1c0.2-0.1,0.3-0.1,0.4-0.2c-0.3-0.1-2,0-2.4,0H41c-0.1,0.1-0.1,0-0.1,0.1l1,4.4  C42.1,22.7,42.2,22.6,42.4,22.6L42.4,22.6z"></path>	<path class="st1" d="M54.2,40c-0.4,0-0.3-0.1-0.3,0.8l0,3.3c0,0.4,0,0.8,0,1.1c0,0.5-0.1,0.6,0.5,0.6c0.7,0,1.3-0.1,1.7-0.5  c1-0.8,1.2-3.1,0.1-4.5C55.8,40.2,55.1,39.9,54.2,40L54.2,40z"></path>	<path class="st0" d="M62,25.3c0.1,0.2,1.3,1.2,1.4,1.3c-0.1,0.1-0.3,0.3-0.4,0.4c-0.1-0.1-0.2-0.2-0.3-0.2  c-0.2,0.3-0.7,1.3-0.7,1.6c0.1,0,1.3-0.8,1.4-0.9c-0.1-0.1-0.1-0.1-0.2-0.2c0-0.1,0.3-0.5,0.4-0.5h7.5c-0.1-0.1-0.2-0.3-0.3-0.4  c-0.1-0.2-0.2-0.3-0.3-0.4c-0.2-0.3-0.4-0.6-0.7-0.8c-0.4,0-3.3,0-4,0c-1,0-2.7,0-3.7,0C62,25.2,62,25.3,62,25.3L62,25.3z"></path>	<path class="st1" d="M40.8,22.8C40.6,23,40.4,23.2,40,23c-0.2-0.1-0.3-0.4-0.4-0.7c-0.2-0.7-0.2-1.3,0.7-1.2  C40.5,21.4,40.8,22.6,40.8,22.8L40.8,22.8z M38.5,21.5c-0.1,0.5-0.2,0.7-0.1,1.2c0.1,0.2,0.1,0.3,0.2,0.5c0.1,0.2,0.2,0.3,0.3,0.4  l0.1,0.1c0.3,0.3,0.6,0.4,1,0.3c0.4-0.1,0.7-0.4,1-0.6c0.4,0.2,0.2,0.3,0.8,0.1c0.2-0.1,0.6-0.2,0.8-0.3c-0.1-0.2-0.1-0.4-0.1-0.6  c-0.2,0-0.3,0.1-0.5,0.1l-1-4.4l-1.7,0.6l0.1,0.6l0.6-0.1c0.1,0.3,0.3,0.9,0.3,1.1c-0.6,0.1-0.7,0-1.1,0.3  C38.6,21,38.6,21.4,38.5,21.5L38.5,21.5z"></path>	<path class="st1" d="M31,67.2c0.1-0.1,0.6-0.5,0.7-0.6c0.1-0.1,0.6-0.5,0.7-0.5c0,0.1-0.3,1-0.3,1.3c0,0.1-0.1,0.3-0.1,0.4L31,67.2  z M28.9,67.2c-0.1,0.1-0.3,0.4-0.3,0.5c0.1,0.1,1.4,0.9,1.5,1c0.1-0.2,0.3-0.4,0.3-0.5l-0.3-0.2l0.4-0.3c0.2,0.1,1.1,0.6,1.2,0.8  l-0.1,0.5l-0.4-0.2l-0.3,0.5l1.7,1.2l0.3-0.5c-0.1-0.1-0.2-0.1-0.3-0.2c0-0.2,0.2-0.8,0.3-1.1c0.1-0.5,0.8-2.9,0.8-3.2  c-0.2-0.1-0.6-0.4-0.9-0.5l-3.4,2.5C29.1,67.5,29.3,67.4,28.9,67.2L28.9,67.2z"></path>	<path class="st1" d="M45.6,18.2c-0.1,0.1-0.2,0.1-0.4,0.2c-0.3,0.2-0.7,0.6-0.7,1.1c-0.2,1.3,1.3,1.6,1.8,1.9  c0.4,0.2,0.3,0.6,0.2,0.8c-0.2,0.2-0.6,0.3-0.9,0.1c-0.2-0.1-0.3-0.6-0.4-0.9l-0.8,0.1l0.1,1l0,0.4c0.9,0.3,2.7,0.3,3.2-0.8  c0.3-0.6,0.1-1,0.1-1.2l-0.1-0.1c-0.5-0.8-1.4-0.7-1.8-1.1c-0.1-0.2-0.1-0.5,0-0.6c0.1-0.2,0.2-0.2,0.5-0.3c0.6,0,0.5,0.2,0.6,0.9  l0.8-0.1l-0.1-1.3c-0.2-0.1-0.5-0.1-0.7-0.2c-0.2,0.1-0.4,0-0.6,0C46,18.2,45.8,18.3,45.6,18.2L45.6,18.2z"></path>	<path class="st1" d="M30.2,25.5L29.7,26c0.1,0.3,0.3,0.3,0.1,0.5c-0.1,0.1-0.4,0.4-0.5,0.4c-0.1-0.1-0.2-0.2-0.3-0.3  c-0.1-0.1-0.2-0.2-0.3-0.3c-0.1-0.1-0.5-0.5-0.5-0.6c1-0.9,0.7-0.5,1.4-0.2c0.1-0.1,0.2-0.2,0.3-0.3c0.1-0.1,0.1-0.2,0.2-0.2  c0-0.1-0.9-0.9-1-1c0,0,0,0-0.1,0.1l0,0l-2.4,2.2c0.1,0.1,0.3,0.4,0.4,0.5c0.1-0.1,0.3-0.2,0.3-0.3l2.1,2.3  c0.1,0.1,0.2,0.2,0.3,0.3c-0.1,0.2-0.1,0.2-0.2,0.3c0.1,0.1,0.3,0.4,0.4,0.5c0.1-0.1,0.1-0.1,0.2-0.2l1.6-1.4  c-0.1-0.1-0.3-0.4-0.4-0.5c-0.2,0.2-0.4,0.3-0.6,0.5c-0.1-0.1-0.7-0.8-0.9-0.9c0.8-0.8,0.7-0.4,1-0.2c0.1-0.2,0.3-0.3,0.5-0.5l0,0  l0-0.1c0,0,0,0,0,0l-0.7-0.8C30.4,25.8,30.2,25.6,30.2,25.5L30.2,25.5z"></path>	<path class="st1" d="M53.9,69.6c0-0.1-0.2-0.4-0.2-0.4l-1.4,0.7c0.1,0.1,0.1,0.5,0.2,0.6l0.4-0.1l0.6,1.8l-0.3,0.2l0.2,0.6l1.8-0.6  L55,71.6l-0.3,0.1c-0.1-0.2-0.5-1.4-0.5-1.6c0-0.1,0.3-0.3,0.3-0.3c0.4-0.2,0.6,0.3,0.7,0.6c0.1,0.2,0.3,0.8,0.3,1l-0.3,0.1  l0.2,0.6l1.8-0.6l-0.2-0.6l-0.4,0.1c-0.1-0.3-0.2-0.8-0.4-1.1c-0.1-0.5-0.2-0.7-0.5-0.9C54.8,68.1,54.2,69.4,53.9,69.6L53.9,69.6z"></path>	<path class="st1" d="M40.9,70.6l0.3,0.1c0,0.7-0.4,1.6,0,2.2c0.1,0.2,0.4,0.5,0.7,0.6c0.5,0.1,0.7-0.2,1.1-0.2  c0.2,0.2,0.1,0.4,0.5,0.4c0.2,0,0.8,0.1,1,0c0.1-0.1,0.1-0.3,0.1-0.5c0-0.2-0.2-0.1-0.4-0.1c-0.1-0.2,0.1-1,0.1-1.3  c0-0.2,0.2-1.1,0.2-1.3L43,70.2l-0.1,0.6l0.3,0.1L43,72.6c-0.2,0.1-0.6,0.2-0.7,0s-0.1-0.6,0-0.8c0.1-0.5,0.2-1.2,0.2-1.6L41,70  L40.9,70.6z"></path>	<path class="st1" d="M63.7,26.9c-0.1,0-0.4,0.4-0.4,0.5c0.1,0.1,0.1,0.1,0.2,0.2c-0.1,0.2-1.3,0.9-1.4,0.9c0.1-0.3,0.6-1.2,0.7-1.6  c0.1,0,0.2,0.1,0.3,0.2c0.1-0.1,0.3-0.3,0.4-0.4c-0.1-0.2-1.3-1.2-1.4-1.3c-0.1,0.1-0.4,0.3-0.4,0.5c0.1,0.1,0.1,0.1,0.2,0.2L61,28  c-0.3,0.7-0.2,0.8-0.6,0.9c-0.6,0.1-1.1,0-1.2,0c-0.2,0.1,0,0.8,0.1,0.9c0.1,0.3,0.5,0.2,0.8,0.1c0.5-0.1,1.1-0.3,1.6-0.5l2.1-1  c0.6-0.3,0.4-0.3,0.6-0.1c0.1-0.1,0.3-0.3,0.4-0.5C64.7,27.7,63.9,27,63.7,26.9L63.7,26.9z"></path>	<path class="st1" d="M53.5,20c-0.1,0.2-0.3,0.5-0.3,0.8l-0.5-0.1c-0.1,0.1-0.2,0.4-0.2,0.6l0.5,0.1l-0.6,1.8L52,23.2l-0.2,0.6  l2.1,0.7l0.2-0.6l-0.6-0.2c0-0.2,0.5-1.7,0.6-1.8l0.9,0.3l0.2-0.6l-0.9-0.3c0.1-0.3,0.2-0.8,0.4-1c0.4-0.1,0.6,0.3,0.8,0.4  c0.2-0.1,0.5-0.4,0.6-0.6c-0.2-0.2-0.6-0.3-0.9-0.5C54.4,19.4,53.9,19.6,53.5,20L53.5,20z"></path>	<path class="st1" d="M50.8,71.9c0,0.3,0.2,0.5,0,0.7c-0.6,0.4-1-0.1-0.6-0.5C50.3,72,50.5,71.9,50.8,71.9L50.8,71.9z M48.8,71  c0.2,0.2,0.3,0.3,0.5,0.4c0.2-0.1,0.4-0.4,0.7-0.5c0.4-0.1,0.6,0.1,0.7,0.5c-0.5,0.1-0.9,0.2-1.2,0.4c-1,0.7-0.5,1.7,0.4,1.7  c0.5,0,0.9-0.3,1.2-0.5c0.3,0.2,0.2,0.3,0.7,0.2c1.1-0.2,0.8-0.2,0.7-0.9L52,72.4c-0.1-0.5-0.1-1-0.2-1.4c-0.1-0.5-0.3-0.8-0.7-1  C50.2,69.6,49.1,70.6,48.8,71L48.8,71z"></path>	<path class="st1" d="M50.3,22.1c0,0.3,0,0.5-0.2,0.6c-0.2,0.1-0.5,0-0.6-0.1C49.2,22.2,49.8,21.9,50.3,22.1L50.3,22.1z M48.9,21  l0.1,0.1c0.5-0.2,1.4-0.5,1.3,0.4c-0.3,0.1-0.8-0.2-1.4,0.1c-1.2,0.4-0.9,1.4-0.2,1.7c0.4,0.2,0.9,0,1.3-0.1c0.3,0.3,0,0.4,0.5,0.4  c0.3,0,0.7,0.1,1,0c0.1-0.1,0.1-0.5,0.1-0.6l-0.4-0.1c0.1-1,0.6-1.9-0.2-2.6c-0.2-0.2-0.4-0.2-0.7-0.3c-0.7,0-1.2,0.2-1.7,0.5  L48.9,21z"></path>	<path class="st1" d="M32.5,25.2c-0.2-0.3-0.3-0.8,0-0.9c0.3-0.2,0.7,0.2,0.7,0.4C33.1,24.8,32.7,25.1,32.5,25.2L32.5,25.2z   M31.9,24c-0.1,0.1-0.1,0.2-0.2,0.3c-0.1,0.1-0.1,0.2-0.2,0.3c-0.1,0.3-0.1,0.6,0,0.9c0.1,0.2,0.1,0.4,0.2,0.6  c0.3,0.5,0.9,0.9,1.6,0.8c0.7-0.2,1.5-0.9,1.8-1.4c-0.1-0.1-0.1-0.1-0.2-0.2c0-0.1-0.1-0.1-0.1-0.1c-0.1-0.1-0.1,0-0.1-0.1  c-0.2,0-0.3,0.2-0.4,0.3c-0.4,0.4-1,0.8-1.4,0.2l0.7-0.5c0.3-0.2,0.6-0.3,0.7-0.5c0.1-0.4,0.1-0.5-0.2-0.8  c-0.2-0.2-0.5-0.4-0.8-0.4c-0.3,0-0.5,0.1-0.8,0.2C32.2,23.7,32,23.9,31.9,24L31.9,24z"></path>	<path class="st1" d="M56.2,23.3c0.1-0.2,0.4-0.6,0.8-0.5c0.3,0.1,0.2,0.6,0.1,0.9C56.9,23.7,56.4,23.4,56.2,23.3L56.2,23.3z   M56,23.9c0.4,0.1,1.3,0.7,1.7,0.6c0.1,0,0.3-0.1,0.3-0.1c0.2-0.2,0.6-1.3-0.3-1.9c-1.6-1-3.3,0.6-2.8,2c0.3,0.9,1.6,1.2,2.4,1.3  l0.1-0.6C56.7,24.9,55.7,24.8,56,23.9L56,23.9z"></path>	<path class="st1" d="M61.2,66.9c-0.7-0.8,0.2-1.4,0.7-0.6C61.8,66.5,61.3,66.8,61.2,66.9L61.2,66.9z M60.1,66.7c0,1,0.6,2,1.6,2  c0.5,0,1-0.3,1.2-0.6c0.4-0.4,0.5-0.5,0.8-1c-0.1-0.1-0.3-0.3-0.5-0.4c-0.1,0.1-0.2,0.3-0.3,0.4c-0.1,0.1-0.2,0.2-0.4,0.3  c-0.4,0.3-0.8,0.3-1-0.1c0.8-0.6,2-1.1,1.1-1.9c-0.5-0.4-0.6-0.3-0.8-0.4c-0.3,0.1-0.4,0-0.7,0.2c-0.2,0.1-0.3,0.2-0.5,0.3  C60.4,65.9,60.2,66.2,60.1,66.7L60.1,66.7z"></path>	<path class="st1" d="M35.9,23.3c-0.2-0.3-0.2-0.8,0.1-0.9c0.3-0.1,0.6,0.3,0.7,0.5L35.9,23.3z M34.8,23.3c0,1.3,0.7,1.6,0.8,1.7  c0.1,0,0.2,0.1,0.4,0.1c0.2,0,0.3,0,0.5,0c0.2,0,0.5-0.1,0.7-0.2c0.3-0.2,1-0.6,1.1-0.9C38.3,24,38,23.7,38,23.6  c-0.2,0.1-1.4,1.3-1.8,0.3v0c0.2-0.1,1.1-0.5,1.3-0.6c0.7-0.3,0.1-1.6-1-1.6c-0.5,0.1-0.9,0.3-1.2,0.5C35,22.5,34.9,22.8,34.8,23.3  L34.8,23.3z"></path>	<path class="st1" d="M34.5,69.9l-0.6-0.1l-0.3,1c0.2,0.3,1.3,0.8,1.8,0.8c1,0,1.5-1,0.8-1.7c-0.3-0.3-0.9-0.6-0.7-0.8  c0.1-0.2,0.4-0.1,0.6,0c0.2,0.2,0.1,0.4,0.1,0.6l0.7,0.2l0.3-1c-0.6-0.6-2.4-1.2-2.8-0.1c-0.3,0.7,0.5,1.2,0.8,1.5  c0.4,0.4-0.1,0.7-0.6,0.3C34.4,70.4,34.5,70.2,34.5,69.9L34.5,69.9z"></path>	<path class="st1" d="M37.8,71.8v-0.5l-0.6-0.1l-0.2,1c0.6,0.2,1,0.5,1.7,0.5c0.7,0,1.2-0.3,1.3-1c0.1-0.9-1.3-1.1-1.2-1.5  c0-0.2,0.2-0.2,0.3-0.2c0.6,0,0.4,0.5,0.5,0.7c0.1,0,0.2,0,0.3,0.1c0.1,0,0.2,0.1,0.3,0l0.2-1c-0.4-0.2-1.1-0.5-1.6-0.4  c-0.6,0-1.2,0.3-1.2,0.9c-0.1,0.9,1,1.1,1.2,1.4c0.1,0.2,0,0.3-0.2,0.3C38.3,72.1,38,71.9,37.8,71.8L37.8,71.8z"></path>	<path class="st1" d="M60.6,24.3c0.2-0.3,0.5-0.6,0.6-0.9c-0.3-0.1-0.8-0.3-1.2-0.3c-0.1,0.1-0.3,0.4-0.4,0.5l-0.5-0.2l-0.4,0.5  l0.4,0.3l-0.6,0.9c-0.5,0.8-1,1.3,0.2,1.9c0.3,0.2,0.7,0.4,1.2,0.5l0.2-0.6c-0.3-0.2-1.2-0.3-0.7-1l0.8-1.1  c0.3,0.1,0.6,0.5,0.9,0.6c0.1-0.2,0.3-0.4,0.4-0.6C61.2,24.7,60.9,24.6,60.6,24.3L60.6,24.3z"></path>	<path class="st1" d="M46.8,71.3c-0.1-0.2-0.1-0.7-0.1-0.9c-0.1,0-1.3,0.2-1.5,0.2v0.6h0.4l0.1,1.9l-0.3,0l0,0.6l2.2-0.1V73h-0.6  c-0.1-0.5,0-1.3,0.5-1.6c0.2-0.1,0.4,0,0.6,0l0,0l0.1-0.2c0.1-0.1,0.1-0.2,0.1-0.3c0.1-0.2,0.1-0.4,0.1-0.6  c-0.1-0.1-0.4-0.1-0.6-0.1C47.2,70.3,47.1,71.1,46.8,71.3L46.8,71.3z"></path>	<path class="st1" d="M60.3,69c-0.1,0-0.1,0-0.1-0.1c-0.1,0.2-0.5,0.5-0.8,0.6c-0.8,0.3-1.3-1-1.1-1.5c0.2-0.3,0.6-0.2,1-0.3  c0.1-0.1,0,0.1,0.1-0.1c0.1-0.2,0-0.6-0.1-0.8h-0.2c-0.4,0.1-0.5,0.1-0.9,0.3c-1.8,1.2-0.9,3.8,0.9,3.3c0.6-0.2,1.2-0.7,1.4-1.1  C60.5,69.1,60.3,69.1,60.3,69L60.3,69z"></path>	<path class="st0" d="M29,24.1c0.2,0,1,0.9,1,1c-0.1,0.1-0.2,0.2-0.2,0.2c-0.1,0.1-0.2,0.2-0.3,0.3c-0.7-0.3-0.4-0.7-1.4,0.2  c0.1,0.1,0.4,0.5,0.5,0.6c0.1,0.1,0.2,0.2,0.3,0.3c0.1,0.1,0.1,0.2,0.3,0.3c0.1,0,0.4-0.3,0.5-0.4c0.3-0.2,0-0.3-0.1-0.5l0.5-0.5  h1.2c0.1,0,0.1,0.1,0.1,0.1s0,0,0,0c-0.1-0.4-0.1-0.6,0-0.9c0.1-0.1,0.1-0.2,0.2-0.3c0.1-0.2,0.2-0.2,0.2-0.3c-0.3,0-2,0-2.5,0  C29,24,29.1,24,29,24.1L29,24.1z"></path>	<path class="st0" d="M36.5,21.6c1.1,0,1.7,1.3,1,1.6c-0.2,0.1-1.2,0.5-1.3,0.6v0c0.5,1,1.6-0.3,1.8-0.3c0-0.1,0,0,0.1,0h0.6  c0.2,0.1,0,0,0.1,0c-0.1-0.1-0.2-0.2-0.3-0.4c-0.1-0.1-0.1-0.3-0.2-0.5c-0.1-0.5,0-0.7,0.1-1.2h-1.6C36.5,21.5,36.5,21.5,36.5,21.6  L36.5,21.6z"></path>	<path class="st0" d="M33.2,23.4c0.4,0.1,0.6,0.2,0.8,0.4c0.3,0.3,0.4,0.4,0.2,0.8c-0.1,0.2-0.4,0.3-0.7,0.5l-0.7,0.5  c0.4,0.6,1,0.2,1.4-0.2c0.1-0.1,0.2-0.3,0.4-0.3c-0.1-0.1,0-0.1-0.1-0.1c0.2,0,0.3,0,0.5,0c0.2,0,0.5,0.1,0.4-0.1  c-0.1-0.2-0.8-0.5-0.8-1.7c-0.2,0.1-1.2,0-1.5,0C33.2,23.3,33.2,23.4,33.2,23.4L33.2,23.4z"></path>	<path class="st0" d="M40.8,22.8c0-0.2-0.3-1.4-0.4-1.7c-0.9-0.1-0.9,0.5-0.7,1.2c0.1,0.3,0.2,0.6,0.4,0.7  C40.4,23.2,40.6,23,40.8,22.8L40.8,22.8z"></path>	<path class="st0" d="M31,67.2l0.9,0.6c0.1-0.1,0.1-0.3,0.1-0.4c0.1-0.2,0.4-1.1,0.3-1.3c-0.1,0-0.6,0.4-0.7,0.5  C31.5,66.7,31,67,31,67.2L31,67.2z"></path>	<path class="st0" d="M61.2,66.9c0.1-0.1,0.6-0.4,0.7-0.6C61.4,65.5,60.5,66.1,61.2,66.9L61.2,66.9z"></path>	<path class="st0" d="M56.2,23.3c0.1,0.1,0.6,0.3,0.8,0.4c0.2-0.2,0.3-0.7-0.1-0.9C56.6,22.7,56.3,23.1,56.2,23.3L56.2,23.3z"></path>	<path class="st0" d="M32.5,25.2c0.2-0.1,0.5-0.4,0.7-0.5c-0.1-0.2-0.4-0.6-0.7-0.4C32.2,24.4,32.3,24.9,32.5,25.2L32.5,25.2z"></path>	<path class="st0" d="M35.9,23.3l0.8-0.4c0-0.3-0.3-0.7-0.7-0.5C35.7,22.5,35.7,23,35.9,23.3L35.9,23.3z"></path>	<path class="st0" d="M50.3,22.1c-0.4-0.2-1.1,0.1-0.8,0.5c0.1,0.1,0.4,0.2,0.6,0.1C50.3,22.6,50.3,22.4,50.3,22.1L50.3,22.1z"></path>	<path class="st0" d="M50.8,71.9c-0.2,0-0.5,0.1-0.6,0.2c-0.4,0.3,0,0.9,0.6,0.5C51,72.4,50.8,72.2,50.8,71.9L50.8,71.9z"></path>	<path class="st2" d="M50.2,52.7l-1.2,0l0.1-1.1c-0.1,0.1-0.1,1-0.1,1.1C49.2,52.8,50,52.8,50.2,52.7L50.2,52.7z"></path>	<path class="st3" d="M21.3,47.7l-0.3,0v-0.8c-0.1,0.2-0.1,0.6,0,0.8L21.3,47.7z"></path>	<path class="st1" d="M8.5,33.6c0,0-1.2,0.7-1.2,0.7c-0.1,0.1-0.2,0.1-0.3,0.2c-2,1.4-3.2,2.8-4.4,4.9C2.3,40,1.8,41,1.6,41.7  c-0.7,2.2-0.8,5.4,0,7.6c0.6,1.9,1.1,2.8,2.2,4.3c0.8,1,1.8,1.9,2.8,2.7c0.2,0.2,0.4,0.3,0.6,0.5c0.2,0.1,0.4,0.2,0.6,0.3  c0.2,0.1,0.4,0.2,0.6,0.3c0.2,0.1,0.4,0.2,0.6,0.3c0.2,0.1,0.4,0.2,0.7,0.3c1.8,0.6,3,0.8,4.9,0.8l1.5,0c0.7-0.1,6.5,0,7.3,0h49.3  c0.4,0,1.5-0.1,1.8,0c0.2-0.1,1.8,0,2.2,0c1.6,0,3.2-0.3,4.6-0.9c0.3-0.1,0.6-0.3,0.8-0.3c0.2-0.1,0.4-0.2,0.6-0.3  c0.2-0.1,0.4-0.3,0.6-0.3c1.8-1.2,3.3-2.5,4.4-4.4c0.3-0.5,0.6-0.9,0.8-1.4c0.3-0.7,0.3-0.7,0.6-1.6c0.3-1,0.5-2.3,0.6-3.6V45  c0-0.5-0.1-1-0.2-1.6c-0.6-3.7-2.4-6.7-5.5-8.9c-0.2-0.1-0.5-0.3-0.7-0.4c-0.4-0.2-0.8-0.5-1.2-0.6c-0.2-0.2-1-0.5-1.3-0.6  c-0.5-0.2-0.9-0.3-1.4-0.4c-1.1-0.2-2.3-0.4-3.4-0.3l-1.4,0c-1.2,0.1-2.5,0-3.7,0H23.5c-0.9,0-7,0.1-7.3,0c-0.2,0.1-1.8,0-2.2,0  c-1.6,0.1-3.2,0.4-4.7,1C9.1,33.3,8.7,33.5,8.5,33.6L8.5,33.6z"></path>	<path class="st0" d="M16.2,32.2c0.3,0.1,6.4,0,7.3,0H71c1.2,0,2.5,0,3.7,0c-0.1-0.3-0.3-0.7-0.5-1c-1.1-2.2-2.6-4.5-4.2-6.3  L69,23.6c-0.1-0.1-0.1-0.1-0.2-0.2l-2.1-2c-0.5-0.6-2.2-1.8-2.9-2.3c-1-0.7-2.6-1.7-3.8-2.2c-7.8-3.9-16.5-4.5-24.9-1.8  c-4.4,1.4-9.2,4.4-12.5,7.8c-0.3,0.3-0.3,0.3-0.7,0.8l-2.4,2.8C18.5,27.9,16.8,30.6,16.2,32.2L16.2,32.2z"></path>	<path class="st0" d="M74.7,58.8c-0.3-0.1-1.4,0-1.8,0H23.5c-0.9,0-6.6,0-7.3,0c0.3,0.9,1.6,3.1,2.1,3.9c0.8,1.3,1.7,2.4,2.5,3.5  c0.1,0.1,0.2,0.2,0.3,0.4l1.1,1.2c0.5,0.4,0.8,0.8,1.1,1.1l0.6,0.5c0.4,0.3,0.9,0.8,1.4,1.2c0.3,0.2,0.6,0.5,0.9,0.7  c0.3,0.2,0.6,0.4,0.9,0.6c1.3,0.9,2.3,1.5,3.7,2.2c4.6,2.2,9.2,3.5,14.6,3.5c3.6,0,7.2-0.6,10.3-1.7c3.4-1.2,6-2.6,8.8-4.7  c0.5-0.3,2.1-1.7,2.5-2c0.1-0.1,0.2-0.2,0.4-0.3c0.2-0.2,0.2-0.2,0.4-0.4c0.3-0.3,0.5-0.5,0.7-0.8c0.8-0.9,1.3-1.4,2.1-2.4  c1.2-1.4,2.1-2.9,3-4.5C74,60.2,74.4,59.5,74.7,58.8L74.7,58.8z"></path>	<path class="st0" d="M8.5,33.6c0.2-0.1,0.5-0.2,0.8-0.3c1.5-0.6,3-1,4.7-1c0.4,0,2,0.1,2.2,0c-0.3-0.1-1.1,0-1.4,0  c0.2-0.6,1.3-2.7,1.6-3.2c1-1.7,2-3.2,3.2-4.7l0.9-1.1c0.1-0.1,0.1-0.1,0.2-0.2c0.1-0.1,0.1-0.2,0.2-0.2c0.1-0.1,0.1-0.1,0.2-0.2  c0.2-0.3,0.5-0.6,0.8-0.8c0.3-0.3,0.6-0.5,0.8-0.8c0.5-0.5,0.9-0.7,1.3-1.1c0.6-0.5,2-1.6,2.7-2.1c0.2-0.1,0.3-0.2,0.5-0.3  c1.3-1,3.7-2.1,5.2-2.8c2.3-1,4.8-1.7,7.4-2.2c9.3-1.7,18.4,0.9,25.1,5.6c0.6,0.5,1.2,0.9,1.8,1.4c0.2,0.1,0.3,0.3,0.4,0.4l1.1,0.9  c0.3,0.4,0.4,0.3,0.8,0.8l2.5,2.7c0.5,0.6,1,1.2,1.4,1.8c1.1,1.6,1.4,2.2,2.4,3.9c0.2,0.4,0.9,1.8,1,2.2c1.1-0.1,2.4,0.1,3.4,0.3  c0.5,0.1,1,0.2,1.4,0.4c0.3,0.1,1.2,0.4,1.3,0.6c0-0.5-1.3-3.6-1.7-4.3c-1.2-2.4-2.1-4.1-3.7-6.3c-0.5-0.6-1.3-1.7-1.7-2.2  c-0.4-0.4-1.5-1.8-1.9-2.1l-0.8-0.7c-0.4-0.4-0.4-0.4-0.8-0.7l-0.5-0.5c-0.1-0.2-0.3-0.3-0.5-0.5c-0.2-0.2-0.3-0.3-0.5-0.5  c-0.2-0.1-0.3-0.3-0.5-0.4c-0.2-0.2-0.3-0.3-0.5-0.4c-0.8-0.6-1.4-1.1-2.3-1.7c-0.8-0.5-1.6-1-2.5-1.5c-5.7-3.2-12.2-5-19-4.9  c-10,0-19.3,3.8-26.5,10.5l-0.8,0.7c-0.2,0.3-0.6,0.6-1,1l-0.5,0.5c-0.1,0.1-0.1,0.1-0.2,0.2c-0.2,0.2-0.3,0.3-0.5,0.5  c-0.6,0.7-1.6,2-2.2,2.8c-2.2,3.2-3.5,5.5-4.8,9.2c-0.1,0.2-0.2,0.5-0.3,0.7C8.7,33,8.5,33.5,8.5,33.6L8.5,33.6z"></path>	<path class="st0" d="M82.3,57.5c-0.2,0.1-0.5,0.2-0.8,0.3c-1.4,0.6-3.1,0.9-4.6,0.9c-0.4,0-2-0.1-2.2,0c0.3,0.1,1.1,0,1.4,0  C75.6,60,74.6,62,74,63c-0.8,1.3-1.7,2.5-2.7,3.7L70.2,68c-0.1,0.1-0.2,0.2-0.4,0.4c-0.4,0.5-0.3,0.3-0.6,0.6l-2.3,2.1  c-0.7,0.6-1.4,1.2-2.2,1.7C59.3,76.7,52.5,79,45.4,79c-2.6,0-6.1-0.4-8.5-1.1c-0.9-0.2-1.7-0.5-2.5-0.7c-3.5-1.3-6.3-2.7-9.3-5  c-0.3-0.2-0.6-0.5-0.9-0.7l-0.9-0.7c-0.3-0.3-0.6-0.5-0.8-0.8c-0.2-0.3-0.6-0.5-0.8-0.8c-0.3-0.3-0.5-0.6-0.8-0.8  c-0.1-0.1-0.1-0.1-0.2-0.2l-0.4-0.4c-1.3-1.6-2.4-2.9-3.5-4.8c-1-1.7-1.2-2.1-1.9-3.6c-0.1-0.2-0.2-0.4-0.2-0.6  c-1.9,0-3.2-0.2-4.9-0.8c-0.2-0.1-0.5-0.2-0.7-0.3c-0.2-0.1-0.4-0.2-0.6-0.3c0.3,1,0.7,2,1,2.9c2,4.8,4.4,8.4,7.9,12  c0.2,0.2,0.3,0.3,0.5,0.5c0.1,0.1,0.2,0.2,0.2,0.2c0.1,0.1,0.2,0.2,0.3,0.2c1.4,1.4,2.7,2.5,4.3,3.6c0.4,0.3,0.8,0.5,1.2,0.8  c10.2,6.8,23.4,8.4,35,4.1c0.9-0.3,1.9-0.7,2.8-1.2c2.1-1,3.2-1.6,5.1-2.9c1.1-0.8,2.9-2.1,4-3c0.2-0.2,0.4-0.3,0.5-0.5  c0.1-0.1,0.1-0.1,0.2-0.2c0.1-0.1,0.2-0.2,0.3-0.3c0.2-0.2,0.3-0.3,0.5-0.5c0.1-0.1,0.1-0.2,0.2-0.2l1.3-1.3  c0.8-0.9,1.5-1.7,2.3-2.7c1.3-1.7,2.9-4.2,3.9-6.1c0.7-1.5,1.8-3.8,2.3-5.5C82.4,57.6,82.3,57.6,82.3,57.5L82.3,57.5z"></path>	<path class="st0" d="M28.2,40.2l1.3,0.1c0,0.9-0.1,10.7-0.1,10.7c-0.2,0.1-0.9,0.1-1.2,0.1l0,1.9h5.3l0-1.9L31.8,51l0.1-8.1h0.2  c1,3,2.2,6.4,3.5,9.3l2,0c0.1-0.1,0.1-0.2,0.1-0.3l0.8-2c0.3-0.7,0.6-1.5,0.9-2.2c0.5-1.2,1.2-3,1.6-4.3c0.1-0.2,0-0.2,0.2-0.2  c0.1,1.8,0.1,3.9,0.1,5.8c0,0.4,0.1,1.7,0,2l-1.3,0.1l0,1.9h6.1l0-1.9L44.9,51c0-0.8-0.2-11,0-10.7l0.2,0c0.2,0,0.8,0,0.9-0.1  l0-2.1h-5.3c-0.1,0.2-0.7,2-0.9,2.4c-0.3,0.8-0.6,1.6-0.8,2.4l-1.6,4.5c-0.1,0.2,0,0.1-0.1,0.1c-0.2,0-0.1,0-0.2-0.2  c0-0.1-0.1-0.2-0.1-0.3c-0.8-2.5-1.8-5.2-2.7-7.7c-0.1-0.3-0.3-0.9-0.4-1.2h-5.7L28.2,40.2z"></path>	<path class="st0" d="M48.5,38.1l0,1.9l1.2,0.1c0.1,0.7,0,4.8,0,6v4.8c0,0.2-0.2,0.2-0.5,0.2c-0.4,0-0.6,0-0.7,0.1L48.5,53h7.1  c0-0.4,0.1-1.6,0-1.9L53.5,51l0-3.2l1,0c1.6,0,3.3-0.5,4.2-1.3c0.1-0.1,0.2-0.2,0.4-0.3c0.1-0.2,0.2-0.2,0.3-0.4  c0.7-0.8,1.1-1.9,1.1-3c0-0.8-0.2-1.6-0.5-2.2c-1.2-2.3-3.4-2.7-6-2.6L48.5,38.1z"></path>	<path class="st0" d="M25.3,52.4c0-0.5,0-4.3,0.1-4.5c0.2-0.1,0.7,0,1-0.1l0.1-2h-6.7l-0.1,2l1.8,0.1c0.1,0.6,0,2,0,2.7  c0,0.3,0.1,0.6-0.2,0.7c-0.4,0.1-1.2-0.1-1.6-0.2c-1.2-0.4-2.2-1.6-2.5-2.8c-0.8-2.5-0.3-6.6,2.1-7.8c0.9-0.4,2-0.6,2.8-0.1  c0.2,0.2,0.2,0.2,0.3,0.6l0.5,2.2c0.2,0,2.2-0.2,2.4-0.2c0.1-0.4-0.2-4-0.2-4.5c-1.2-0.6-3.3-0.6-4.7-0.5c-2.3,0.2-4,0.9-5.5,2.4  c-1.4,1.3-2.4,3.4-2.4,5.5c-0.1,1.8,0.5,3.8,1.6,5c0.2,0.2,0.3,0.5,0.6,0.7c1.8,1.4,3.7,1.8,6.1,1.8C22.5,53.3,23.8,53.1,25.3,52.4  L25.3,52.4z"></path>	<path class="st1" d="M16.2,32.2c0.7-1.6,2.3-4.3,3.3-5.7l2.4-2.8c0.4-0.5,0.4-0.5,0.7-0.8c3.2-3.4,8.1-6.4,12.5-7.8  c8.4-2.8,17.1-2.2,24.9,1.8c1.2,0.6,2.8,1.5,3.8,2.2c0.7,0.5,2.4,1.7,2.9,2.3l2.1,2c0.1,0.1,0.1,0.1,0.2,0.2l1.1,1.2  c1.6,1.8,3.1,4.1,4.2,6.3c0.1,0.3,0.4,0.7,0.5,1l1.4,0c-0.1-0.4-0.8-1.8-1-2.2c-1-1.7-1.3-2.3-2.4-3.9c-0.4-0.6-0.9-1.3-1.4-1.8  l-2.5-2.7c-0.4-0.4-0.5-0.4-0.8-0.8L67,19.9c-0.1-0.1-0.3-0.2-0.4-0.4c-0.6-0.5-1.2-0.9-1.8-1.4c-6.7-4.8-15.8-7.3-25.1-5.6  c-2.6,0.5-5,1.2-7.4,2.2c-1.5,0.6-3.9,1.8-5.2,2.8c-0.2,0.1-0.3,0.2-0.5,0.3c-0.7,0.5-2.1,1.5-2.7,2.1c-0.4,0.4-0.8,0.7-1.3,1.1  c-0.2,0.3-0.6,0.5-0.8,0.8c-0.3,0.2-0.5,0.5-0.8,0.8c-0.1,0.1-0.1,0.1-0.2,0.2c-0.1,0.1-0.1,0.1-0.2,0.2c-0.1,0.1-0.1,0.1-0.2,0.2  l-0.9,1.1c-1.2,1.5-2.2,3-3.2,4.7c-0.3,0.5-1.4,2.6-1.6,3.2C15.1,32.2,15.9,32.1,16.2,32.2L16.2,32.2z"></path>	<path class="st1" d="M74.7,58.8c-0.3,0.7-0.6,1.4-1,2c-0.9,1.6-1.8,3.1-3,4.5c-0.7,1-1.3,1.5-2.1,2.4c-0.3,0.3-0.5,0.5-0.7,0.8  c-0.1,0.1-0.2,0.2-0.4,0.4c-0.1,0.1-0.3,0.2-0.4,0.3c-0.4,0.4-2,1.7-2.5,2c-2.8,2.1-5.5,3.5-8.8,4.7c-3.2,1.1-6.7,1.7-10.3,1.7  c-5.4,0-10-1.2-14.6-3.5c-1.5-0.7-2.4-1.4-3.7-2.2c-0.3-0.2-0.6-0.4-0.9-0.6c-0.3-0.2-0.6-0.5-0.9-0.7c-0.5-0.4-1-0.9-1.4-1.2  l-0.6-0.5c-0.3-0.3-0.6-0.7-1.1-1.1l-1.1-1.2c-0.1-0.1-0.2-0.2-0.3-0.4c-0.9-1.1-1.7-2.2-2.5-3.5c-0.5-0.8-1.8-3-2.1-3.9l-1.5,0  c0.1,0.2,0.2,0.4,0.2,0.6c0.8,1.5,0.9,2,1.9,3.6c1.1,1.8,2.2,3.2,3.5,4.8l0.4,0.4c0.1,0.1,0.1,0.1,0.2,0.2c0.3,0.3,0.5,0.6,0.8,0.8  c0.2,0.2,0.6,0.5,0.8,0.8c0.2,0.3,0.5,0.5,0.8,0.8l0.9,0.7c0.3,0.2,0.6,0.5,0.9,0.7c3,2.3,5.8,3.7,9.3,5c0.8,0.3,1.6,0.5,2.5,0.7  c2.4,0.7,5.9,1.1,8.5,1.1c7.1,0,13.9-2.2,19.3-6.1c0.8-0.5,1.5-1.1,2.2-1.7l2.3-2.1c0.3-0.3,0.2-0.2,0.6-0.6  c0.1-0.2,0.3-0.3,0.4-0.4l1.1-1.3c1-1.2,1.8-2.4,2.7-3.7c0.6-1,1.7-3,2.2-4.2C75.8,58.9,75,58.9,74.7,58.8L74.7,58.8z"></path>	<path class="st1" d="M83.5,56.9c-0.2,0.1-0.4,0.2-0.6,0.3c-0.2,0.1-0.5,0.2-0.6,0.3c0,0.1,0.1,0.1,0,0.2c-0.5,1.7-1.6,4-2.3,5.5  c-0.9,1.9-2.5,4.4-3.9,6.1c-0.8,1-1.5,1.8-2.3,2.7l-1.3,1.3c-0.1,0.1-0.1,0.2-0.2,0.2c-0.2,0.2-0.3,0.3-0.5,0.5  c-0.1,0.1-0.2,0.2-0.3,0.3c-0.1,0.1-0.1,0.1-0.2,0.2c-0.2,0.2-0.4,0.3-0.5,0.5c-1.1,0.9-2.8,2.2-4,3c-1.9,1.3-3.1,1.8-5.1,2.9  c-0.9,0.4-1.8,0.8-2.8,1.2c-11.6,4.3-24.8,2.7-35-4.1c-0.4-0.3-0.8-0.5-1.2-0.8c-1.6-1.2-2.9-2.3-4.3-3.6c-0.1-0.1-0.2-0.1-0.3-0.2  c-0.1-0.1-0.1-0.2-0.2-0.2c-0.2-0.2-0.3-0.3-0.5-0.5c-3.4-3.7-5.9-7.3-7.9-12c-0.3-0.9-0.8-2-1-2.9c-0.2-0.1-0.4-0.2-0.6-0.3  c-0.2-0.1-0.4-0.2-0.6-0.3l0.5,1.6c0.5,1.6,1.4,3.6,2.1,5.1c0.1,0.1,0.1,0.2,0.2,0.3l1.3,2.3c0.1,0.2,0.2,0.4,0.4,0.6  c1.2,1.8,2,3,3.4,4.6l2.9,3.1c0.5,0.5,1,1,1.6,1.5c0.1,0.1,0.2,0.2,0.3,0.2l1.8,1.4c1.1,0.8,3.2,2.2,4.4,2.8  c0.1,0.1,0.2,0.1,0.3,0.2c0.1,0.1,0.2,0.1,0.3,0.2c0.2,0.1,0.4,0.2,0.7,0.4c0.3,0.1,0.5,0.2,0.7,0.3c1.6,0.7,2.1,1,3.7,1.6  c4,1.5,9,2.3,13.3,2.3c4.9,0,9.7-0.8,14.1-2.5c0.5-0.2,1-0.4,1.5-0.6c1.6-0.7,3.4-1.6,4.8-2.5c0.2-0.1,0.4-0.2,0.6-0.4  c0.9-0.6,1.6-1.1,2.5-1.7L71,76c0.1-0.1,0.2-0.2,0.3-0.2c0.1-0.1,0.2-0.2,0.3-0.2c0.1-0.1,0.2-0.2,0.3-0.2l1.1-1  c0.5-0.5,1.6-1.6,2-2.1c0.1-0.1,0.2-0.2,0.2-0.2l2.5-3.2l1.1-1.6c0.1-0.1,0.1-0.2,0.2-0.3c1.1-1.8,1.6-2.7,2.6-4.7  c0.5-1.1,1.1-2.6,1.5-3.7l0.3-0.8c0.1-0.1,0.1-0.2,0.1-0.4C83.5,57.2,83.5,57,83.5,56.9L83.5,56.9z"></path>	<path class="st0" d="M7.3,34.3c0.1,0,1.2-0.7,1.2-0.7c-0.1-0.1,0.1-0.6,0.2-0.7c0.1-0.2,0.2-0.5,0.3-0.7c1.4-3.6,2.6-6,4.8-9.2  c0.5-0.8,1.6-2.1,2.2-2.8c0.2-0.2,0.3-0.3,0.5-0.5c0.1-0.1,0.1-0.2,0.2-0.2l0.5-0.5c0.4-0.4,0.8-0.7,1-1l0.8-0.7  c7.2-6.7,16.4-10.4,26.5-10.5c6.9,0,13.3,1.7,19,4.9c0.9,0.5,1.7,1,2.5,1.5c0.9,0.6,1.5,1.1,2.3,1.7c0.2,0.1,0.3,0.3,0.5,0.4  c0.2,0.1,0.4,0.3,0.5,0.4c0.2,0.2,0.3,0.3,0.5,0.5c0.2,0.1,0.4,0.3,0.5,0.5l0.5,0.5c0.3,0.3,0.4,0.3,0.8,0.7l0.8,0.7  c0.3,0.3,1.5,1.7,1.9,2.1c0.5,0.5,1.3,1.6,1.7,2.2c1.6,2.2,2.5,3.9,3.7,6.3c0.3,0.7,1.7,3.8,1.7,4.3c0.5,0.2,0.8,0.5,1.2,0.6  c-0.1-0.1-0.1-0.2-0.1-0.4c-0.1-0.2-0.1-0.3-0.1-0.4l-1.9-4.8c-0.8-1.7-1.6-3.1-2.6-4.7L78,22.7c-0.1-0.1-0.1-0.2-0.2-0.3  c-0.2-0.2-0.3-0.4-0.4-0.6l-2.6-3.1c-0.1-0.1-0.2-0.2-0.3-0.3c-0.4-0.5-1.5-1.5-2.1-2.1c-0.4-0.3-1.2-1.1-1.7-1.4  c-0.8-0.6-1.6-1.3-2.4-1.8l-3.2-2c-1.4-0.8-2.6-1.4-4.2-2.1c-1-0.4-2-0.8-3-1.2c-1-0.3-1.8-0.5-2.8-0.8c-0.6-0.2-1.5-0.3-2.1-0.5  c-2.3-0.5-4.7-0.7-7.2-0.7H45c-2.5,0-4.9,0.3-7.2,0.7c-2.4,0.5-4.4,1.1-6.5,1.8c-1.7,0.6-3.4,1.4-5,2.3c-0.2,0.1-0.5,0.2-0.7,0.4  c-1.3,0.7-1.9,1.2-3.2,2l-1.8,1.4c-0.7,0.6-1.3,1-2,1.7l-2.6,2.6c-0.1,0.1-0.1,0.2-0.2,0.3L12.7,23c-0.2,0.2-0.3,0.4-0.4,0.6  c-0.9,1.3-1.8,2.9-2.5,4.3c-0.5,1-1,2.2-1.4,3.2c-0.2,0.5-0.4,1-0.6,1.5c-0.1,0.3-0.2,0.5-0.3,0.8L7.3,34.3z"></path>	<path class="st0" d="M69,38.2c-0.1,0.5,0.1,5.4,0,5.8l-5.4,0.1l-0.1,2.8c0.9,0.1,5.2-0.1,5.5,0l0,6.1c0.8,0.1,2.1-0.1,2.9-0.1l0-6  h5.3c0.1-0.4,0.2-2.5,0.1-3L72,43.9l0.1-5.9L69,38.2z"></path>	<path class="st1" d="M53.5,40c0,1.5,0,3,0,4.5c0,0.3,0,0.7,0,1.1c0,0.3,0.4,0.3,0.9,0.3c0.7,0,1.3-0.3,1.6-0.7  c0.7-0.8,0.8-2.5,0.4-3.7c-0.2-0.5-0.6-1-1-1.3C54.9,40,54.2,39.8,53.5,40L53.5,40z"></path>	<path class="st1" d="M38.5,18.3l0.1,0.6l0.6-0.1l0.3,1.1c-0.4,0.1-1-0.1-1.6,0.7c-0.3,0.4-0.4,1.2-0.2,1.8c0.2,0.9,1.2,1.4,2,1  c0.2-0.1,0.4-0.3,0.6-0.5c0.4,0.2,0.1,0.4,0.8,0.1c0.3-0.1,0.6-0.2,0.8-0.3c-0.1-0.2-0.1-0.5-0.2-0.6c-0.2,0.1-0.2,0.1-0.4,0.1  l-1.1-4.5c-0.2,0-0.6,0.2-0.8,0.3C39.1,18.1,38.8,18.2,38.5,18.3L38.5,18.3z"></path>	<path class="st1" d="M27.8,68c-0.1,0.1-0.3,0.3-0.3,0.5c0.1,0.1,1.4,0.9,1.5,1c0.1-0.1,0.3-0.4,0.3-0.5c-0.1-0.1-0.2-0.1-0.3-0.2  c0.1-0.1,0.3-0.2,0.4-0.4c0.2,0.1,0.9,0.6,1.2,0.7c0,0.2,0,0.2-0.1,0.3l-0.1,0.3l-0.3-0.2L29.8,70c0.3,0.2,1.7,1.1,1.8,1.2l0.3-0.5  c-0.3-0.3-0.4,0-0.1-1c0.1-0.5,0.9-3.4,0.9-3.7c-0.3-0.1-0.6-0.4-0.9-0.5c-0.2,0.1-0.3,0.2-0.5,0.3l-2.5,1.8  C28,68.3,28.3,68.2,27.8,68L27.8,68z"></path>	<path class="st1" d="M44.5,20.9L43.7,21c-0.1,0.2,0.1,1.2,0.1,1.4c0.8,0.2,1.9,0.3,2.6-0.1c0.8-0.4,1-1.4,0.6-2.1  c-0.4-0.7-1.6-0.8-1.9-1.2c-0.3-0.5,0.1-0.8,0.5-0.9c0.6,0,0.6,0.3,0.7,0.9l0.8-0.1L47,17.7c-0.7-0.3-2-0.2-2.5,0.2  c-0.6,0.4-1,1.4-0.3,2.1c0.8,0.9,1.8,0.6,1.8,1.3c0,0.5-0.4,0.6-0.9,0.6C44.5,21.8,44.7,21.4,44.5,20.9L44.5,20.9z"></path>	<path class="st1" d="M25.4,26c0.1,0.1,0.3,0.4,0.4,0.5c0.2-0.1,0.2-0.2,0.4-0.3c0.1,0.2,0.2,0.2,0.3,0.3c0.1,0.1,0.2,0.2,0.3,0.3  c0.1,0.1,0.2,0.2,0.3,0.3c0.2,0.1,0.2,0.2,0.3,0.3c0.1,0.1,0.2,0.2,0.3,0.3c0.1,0.1,0.2,0.2,0.3,0.3c0.1,0.2,0.5,0.5,0.6,0.7  l-0.3,0.3c0.1,0.1,0.3,0.4,0.4,0.5c0.2-0.1,0.3-0.3,0.5-0.4c0.3-0.2,1.2-1.1,1.4-1.3c-0.1-0.2-0.3-0.3-0.4-0.5  c-0.2,0.1-0.4,0.4-0.6,0.5c-0.1-0.1-0.1,0-0.1-0.1c0-0.1-0.1-0.1-0.1-0.1c-0.1-0.2-0.5-0.5-0.6-0.7c0.8-0.7,0.5-0.6,1-0.2l0.5-0.5  c-0.1-0.1-0.1-0.2-0.2-0.3l-0.8-0.9c-0.2,0.1,0-0.1-0.2,0.1c-0.1,0.1-0.1,0.1-0.1,0.1c-0.1,0.1-0.2,0.2-0.3,0.3  c0.1,0.1,0.2,0.2,0.2,0.4c-0.1,0.1-0.5,0.5-0.6,0.6c-0.2-0.2-0.9-1-1-1.2c0.1-0.1,0.2-0.2,0.3-0.3c0.4-0.3,0.4-0.4,0.7-0.2  c0.2,0.1,0.2,0.2,0.4,0.2l0.4-0.5c0.1-0.1,0,0,0.1-0.1l-1-1L25.4,26z"></path>	<path class="st1" d="M53.6,70.3c-0.1-0.1-0.2-0.3-0.2-0.4c-0.2,0.1-0.5,0.2-0.7,0.3c-0.2,0.1-0.5,0.2-0.7,0.4l0.2,0.6l0.4-0.1  c0.2,0.2,0.2,0.6,0.3,0.9c0.1,0.2,0.3,0.7,0.3,0.9l-0.3,0.2l0.2,0.6l1.8-0.6l-0.2-0.6l-0.3,0.1c-0.3-1.3-0.8-1.5-0.1-1.9  c0.4-0.3,0.6,0.2,0.7,0.5c0.1,0.3,0.3,0.7,0.3,1L55,72.3l0.2,0.6l1.8-0.6l-0.2-0.6l-0.3,0.1c-0.2-0.2-0.3-0.8-0.4-1.1  c-0.2-0.5-0.2-0.7-0.6-1c-0.3-0.2-0.8-0.3-1.2-0.1C54,69.8,53.8,70.3,53.6,70.3L53.6,70.3z"></path>	<path class="st1" d="M40.2,71.4l0.3,0.1c-0.1,0.7-0.4,1.7-0.1,2.3c0.6,1,1.4,0.4,1.9,0.3c0.1,0.1,0.1,0.2,0.2,0.3  c0.1,0.2,0.1,0.1,0.4,0.2c0.3,0,0.7,0,1,0l0.1-0.6l-0.4-0.1c0-0.5,0.4-2.5,0.3-2.6c-0.2-0.1-1.3-0.2-1.6-0.2c0,0.2-0.1,0.5,0,0.6  l0.3,0.1c0,0.1-0.2,1.6-0.3,1.7c-0.2,0.2-0.6,0.1-0.7-0.1c-0.2-0.4,0.2-1.7,0.2-2.4c-0.2-0.1-1.3-0.2-1.6-0.2L40.2,71.4z"></path>	<path class="st1" d="M61.4,25.3c0.3,0.3,0.3,0.1-0.1,0.9l-0.8,2c-0.1,0.3-0.1,0.3-0.4,0.3c-0.6,0.2-1.2,0-1.3,0  c-0.1,0.2,0.1,0.7,0.1,0.9c0.1,0.2,0.1,0.2,0.3,0.2c0.2,0,0.3-0.1,0.5-0.1c1-0.2,2.8-1.1,3.8-1.6c0.6-0.3,0.4-0.2,0.7-0.1  c0.1-0.1,0.4-0.3,0.5-0.5c-0.3-0.2-0.6-0.5-0.8-0.7c-0.1-0.1-0.2-0.2-0.3-0.2c-0.1,0.1-0.4,0.4-0.4,0.5l0.2,0.2  c-0.5,0.3-1,0.7-1.5,0.9c0-0.3,0.6-1.3,0.7-1.6l0.3,0.2c0.1-0.2,0.3-0.3,0.4-0.5c-0.1-0.1-0.7-0.6-0.9-0.8  c-0.1-0.1-0.5-0.5-0.6-0.5L61.4,25.3z"></path>	<path class="st1" d="M48.2,19.9l0.3,0.6c0.3-0.1,1.6-0.7,1.4,0.4c-0.3,0.1-0.8-0.2-1.4,0c-1.2,0.4-1,1.4-0.2,1.8  c0.5,0.2,1,0,1.4-0.1c0.2,0.3,0.2,0.4,0.6,0.4c0.3,0,0.7,0.1,0.9,0c0,0,0-0.1,0,0l0.1-0.3c0-0.1,0.1-0.2,0-0.3l-0.4-0.1  c0.1-1,0.6-1.9-0.1-2.6C50.1,19.2,48.9,19.6,48.2,19.9L48.2,19.9z"></path>	<path class="st1" d="M48.3,71.8c0.2,0.1,0.3,0.3,0.4,0.4c0.2,0,0.2-0.2,0.4-0.3c0.5-0.3,1-0.6,1.1,0.2c-0.5,0-1,0.2-1.3,0.4  c-1.3,0.9-0.2,2.3,1.1,1.6c0.2-0.1,0.3-0.2,0.5-0.3c0.3,0.2,0.1,0.3,0.7,0.2c0.3-0.1,0.6-0.2,0.8-0.3L52,73.2l-0.4,0.1  c-0.3-1-0.1-2.1-1-2.4c-0.5-0.2-1,0-1.4,0.2C48.9,71.2,48.5,71.6,48.3,71.8L48.3,71.8z"></path>	<path class="st1" d="M52.7,20.2l-0.5-0.1L52,20.7l0.5,0.2l-0.6,1.9l-0.4-0.1l-0.2,0.6l2.2,0.7l0.2-0.6l-0.6-0.2  c0-0.2,0.5-1.7,0.6-1.9l0.9,0.3l0.2-0.7c-0.2-0.1-0.8-0.2-0.9-0.3c0.1-0.3,0.2-0.7,0.4-1c0.5,0,0.6,0.3,0.9,0.4  c0.3-0.2,0.4-0.3,0.6-0.7c-0.4-0.3-1.2-0.6-1.8-0.4C53.2,19.2,53,19.5,52.7,20.2L52.7,20.2z"></path>	<path class="st1" d="M34.2,25.1l-0.4-0.4c-0.4,0.3-1.1,1.4-1.8,0.6c0,0,0,0,0.1-0.1c0.3-0.3,1.3-0.7,1.4-1c0.2-0.5,0-0.7-0.3-1  c-1-0.8-2.1,0-2.4,0.8c-0.5,1.1,0.3,2.3,1.2,2.5c0.8,0.1,1.6-0.4,2-0.9C33.9,25.5,34.1,25.3,34.2,25.1L34.2,25.1z"></path>	<path class="st1" d="M63.6,67.9c-0.1-0.1-0.3-0.4-0.5-0.4c-0.1,0.2-0.5,0.6-0.7,0.8c-0.3,0.2-0.8,0.3-1-0.1l1.1-0.8  c0.5-0.4,0.4-0.8-0.1-1.2c-1-0.8-2.1,0.1-2.4,0.9c-0.4,1.1,0.4,2.3,1.3,2.4C62.4,69.6,63.3,68.5,63.6,67.9L63.6,67.9z"></path>	<path class="st1" d="M57,25.3l0.1-0.6c-0.4-0.1-0.8-0.2-1.1-0.3c-0.3-0.2-0.5-0.5-0.4-0.9c1,0.3,2,1.4,2.3-0.1  c0.3-1.7-2.2-2.3-3.2-0.8c-0.3,0.4-0.5,0.9-0.3,1.5C54.8,24.8,55.8,25.2,57,25.3L57,25.3z"></path>	<path class="st1" d="M37.5,23.6c-0.1-0.1-0.3-0.4-0.4-0.5c-0.3,0.2-0.5,0.4-0.9,0.6c-0.5,0.2-0.8,0.1-1-0.3  c0.1-0.1,1.1-0.5,1.3-0.6c0.2-0.1,0.4-0.3,0.4-0.6c0-0.2-0.6-1.4-1.7-1c-2.7,0.9-1,5.2,1.8,2.9L37.5,23.6z"></path>	<path class="st1" d="M33.6,70.8c-0.1-0.1-0.5-0.2-0.7-0.1l-0.3,1c0.9,0.7,2.7,1.3,3.1,0c0.2-0.7-0.4-1-0.9-1.4  c-0.3-0.2-0.2-0.6,0.2-0.5c0.2,0,0.3,0.1,0.4,0.2c0.1,0.1,0,0.3,0,0.5c0.2,0.1,0.5,0.2,0.7,0.2c0.1-0.3,0.3-0.8,0.3-1  c-0.5-0.2-0.9-0.6-1.7-0.6c-1.1-0.1-1.8,0.8-0.9,1.8c0.1,0.1,0.5,0.4,0.6,0.5c0.3,0.6-0.8,0.4-0.9,0C33.5,71.2,33.6,70.9,33.6,70.8  L33.6,70.8z"></path>	<path class="st1" d="M37,72.1L36.3,72l-0.2,1c0,0,0,0,0.1,0.1c0,0,0.1,0,0.1,0c0.6,0.4,2,0.7,2.6,0.1c0.3-0.3,0.5-0.9,0.1-1.3  s-1-0.6-1-0.8c0-0.3,0.2-0.4,0.5-0.3c0.3,0.1,0.3,0.3,0.3,0.7l0.7,0.1l0.2-1c-0.5-0.2-1.1-0.5-1.8-0.4c-0.8,0.1-1.7,0.9-0.6,1.8  c0.2,0.1,0.6,0.3,0.7,0.5c0.2,0.3-0.1,0.5-0.5,0.4C37,72.7,37,72.6,37,72.1L37,72.1z"></path>	<path class="st1" d="M59.4,23.2l-0.5-0.2c-0.1,0.1-0.3,0.3-0.4,0.5l0.4,0.3c-0.1,0.1-0.2,0.3-0.3,0.5c-0.7,1.1-1.5,1.7-0.1,2.5  c0.3,0.2,0.7,0.4,1.2,0.5c0.1-0.2,0.2-0.4,0.3-0.6c-0.4-0.2-1.2-0.4-0.8-1l0.8-1.1l0,0c0,0,0,0,0,0l0,0c0.3,0.2,0.6,0.5,0.9,0.6  c0.1-0.1,0.3-0.4,0.4-0.6c-0.2-0.2-0.8-0.5-0.9-0.7c0.1-0.3,0.5-0.6,0.6-0.9c-0.2-0.1-0.9-0.3-1.2-0.3  C59.7,22.8,59.5,23.1,59.4,23.2L59.4,23.2z"></path>	<path class="st1" d="M46.3,72.1l-0.1-1c-0.3,0-0.7,0.1-1,0.2c-0.6,0.1-0.6,0-0.5,0.7l0.5,0c0,0.4,0.1,1.7,0,1.9L44.7,74v0.6  l2.2-0.1c0.1-0.2,0-0.4,0-0.6h-0.6c-0.1-0.6,0.1-1.4,0.5-1.7c0.2-0.1,0.4,0,0.6,0c0.2-0.2,0.3-0.7,0.3-1.1  c-0.2-0.1-0.3-0.1-0.6-0.1c-0.4,0-0.6,0.3-0.8,0.6C46.4,71.9,46.3,72.1,46.3,72.1L46.3,72.1z"></path>	<path class="st1" d="M60.4,70.1c-0.1-0.2-0.3-0.3-0.4-0.5c-0.2,0.2-1,1.3-1.7,0.3c-1-1.6,0.6-1.4,0.7-1.5c0.1-0.1,0.1-0.7-0.1-0.9  c-1.2,0-2.6,1.5-1.8,3c0.7,1.3,2.2,0.9,3.1-0.2C60.3,70.3,60.3,70.2,60.4,70.1L60.4,70.1z"></path>	<path class="st0" d="M40,22.3c0-0.2-0.3-1.6-0.4-1.7c-1.3-0.3-0.8,1.7-0.4,1.9C39.6,22.7,39.8,22.4,40,22.3L40,22.3z"></path>	<path class="st0" d="M29.9,67.8c0.1,0.2,0.7,0.6,0.9,0.6l0.5-1.7C31.2,66.8,30.2,67.7,29.9,67.8L29.9,67.8z"></path>	<path class="st0" d="M55.9,22.9l0.8,0.4c0.2-0.3,0.3-0.8-0.1-0.9C56.3,22.2,56,22.6,55.9,22.9L55.9,22.9z"></path>	<path class="st0" d="M61,67.7c0.1-0.1,0.6-0.5,0.7-0.6c-0.2-0.6-1.1-0.6-0.9,0.1c0,0.1,0.1,0.2,0.1,0.2L61,67.7z"></path>	<path class="st0" d="M31.6,24.7l0.7-0.5c0-0.2-0.4-0.6-0.8-0.5c-0.3,0.2-0.2,0.6-0.1,0.8L31.6,24.7z"></path>	<path class="st0" d="M35,22.8l0.8-0.3c0-0.3-0.3-0.7-0.7-0.6C34.8,22,34.9,22.5,35,22.8L35,22.8z"></path>	<path class="st0" d="M50.3,72.8c-0.6,0-1,0.5-0.7,0.8c0.2,0.1,0.5,0,0.6-0.1C50.5,73.3,50.4,73,50.3,72.8L50.3,72.8z"></path>	<path class="st0" d="M49.8,21.6c-0.8-0.2-1.1,0.2-0.9,0.5c0.2,0.2,0.4,0.2,0.7,0.1c0.1-0.1,0.1-0.1,0.2-0.2  C49.8,21.8,49.8,21.7,49.8,21.6L49.8,21.6z"></path></g></svg>