<svg xmlns="http://www.w3.org/2000/svg" xmlns:xlink="http://www.w3.org/1999/xlink" id="Layer_1" x="0px" y="0px" viewBox="0 0 95 95" style="enable-background:new 0 0 95 95;" xml:space="preserve"><style type="text/css">	.st0{fill-rule:evenodd;clip-rule:evenodd;fill:#BBBBBB;}	.st1{fill:#BBBBBB;}</style><g>	<path class="st0" d="M4.63,23.22h18.8c0.74,0,1.31,0.57,1.31,1.31v6.24c0,0.74-0.57,1.31-1.31,1.31h-3.94v16.91h3.94  c0.74,0,1.31,0.66,1.31,1.4v6.24c0,0.74-0.57,1.31-1.31,1.31H4.63c-0.74,0-1.31-0.57-1.31-1.31v-6.24c0-0.74,0.57-1.4,1.31-1.4h4.1  V32.08h-4.1c-0.74,0-1.31-0.57-1.31-1.31v-6.24C3.32,23.79,3.89,23.22,4.63,23.22L4.63,23.22z M74.56,58.51  c-9.6,0-17.4-5.91-17.4-17.56c0-11.57,7.8-17.56,17.4-17.56c9.52,0,17.32,5.99,17.32,17.56C91.88,52.6,84.08,58.51,74.56,58.51  L74.56,58.51z M79.49,40.95c0-6.32-1.07-9.6-4.92-9.6c-3.86,0-5.01,3.28-5.01,9.6c0,6.4,1.15,9.6,5.01,9.6  C78.42,50.55,79.49,47.35,79.49,40.95L79.49,40.95z M42.72,36.43c-3.2-0.98-6.4-1.15-6.32-3.78c0.08-0.9,0.74-1.97,3.2-1.97  c1.56,0,4.1,0.49,6.07,1.81c1.97,1.31,3.45,3.28,4.92,3.28h3.69c1.07,0,1.81-1.64,1.81-2.71v-7.22c0-1.23-0.82-1.64-1.72-1.64  h-3.53c-2.38,0.08-1.31,1.97-2.3,2.38c-2.71,1.07-2.71-2.95-9.77-3.04c-8.04-0.16-12.8,4.68-12.64,10.26  c0.08,6.98,5.17,9.52,11.49,11.66c3.2,1.07,8.37,1.56,8.21,4.19c-0.08,0.98-0.74,1.97-3.2,1.97c-1.56,0.08-4.1-0.49-6.07-1.81  c-1.97-1.31-3.45-3.28-4.92-3.28h-3.61c-1.15,0-1.89,1.64-1.89,2.71v7.22c0,1.23,0.82,1.64,1.72,1.64h3.53  c2.38-0.08,1.31-1.97,2.3-2.38c2.71-0.98,2.71,2.95,9.77,3.04c8.04,0.16,12.8-4.68,12.64-10.26  C56.01,41.52,50.92,38.81,42.72,36.43L42.72,36.43z"></path>	<path class="st0" d="M69.31,11.73c-0.98,1.15-2.38,2.22-4.1,3.12c0.98,1.48,1.97,3.12,2.79,4.84c0.16,0.33,0.33,0.66,0.41,0.98  h-1.64c-0.08-0.08-0.08-0.25-0.16-0.33c-0.82-1.72-1.72-3.28-2.79-4.76c-0.9,0.33-1.89,0.74-2.95,1.07  c-1.15,0.41-2.38,0.74-3.69,0.98c0.33,0.82,0.57,1.64,0.82,2.54c0.08,0.16,0.08,0.33,0.16,0.49h-1.56c-0.08,0-0.08,0-0.08,0  c-0.25-0.98-0.49-1.89-0.82-2.71c-2.54,0.41-5.34,0.74-8.21,0.74v1.97h-1.56V18.7c-2.87,0-5.66-0.33-8.29-0.74  c-0.25,0.82-0.57,1.72-0.82,2.71l0,0h-1.56c0.08-0.16,0.08-0.33,0.16-0.49c0.25-0.9,0.49-1.72,0.74-2.54  c-1.4-0.33-2.79-0.66-4.02-1.07c-0.9-0.33-1.81-0.66-2.54-0.98c-1.07,1.48-1.97,3.04-2.87,4.76c0,0.08-0.08,0.25-0.08,0.33h-1.72  c0.16-0.33,0.33-0.66,0.49-0.98c0.82-1.72,1.72-3.37,2.79-4.84c-1.81-0.9-3.2-1.97-4.19-3.12c-2.95,2.46-5.58,5.5-7.72,8.95h-1.72  C21.13,9.35,33.03,1.8,46.66,1.8s25.61,7.55,32.18,18.88h-1.81C74.97,17.23,72.35,14.19,69.31,11.73L69.31,11.73z M36.97,4.75  c0.66,0.66,1.64,1.31,2.79,1.72c1.89,0.82,4.27,1.31,6.89,1.31c2.46,0,4.76-0.41,6.57-1.07c1.31-0.57,2.46-1.23,3.2-1.97  c-3.12-0.9-6.4-1.4-9.77-1.4C43.29,3.35,40.09,3.85,36.97,4.75L36.97,4.75z M36.73,6.56c-0.49-0.41-0.98-0.82-1.31-1.31  c-3.69,1.31-7.14,3.12-10.18,5.5c0.9,1.07,2.22,1.97,3.86,2.87C31.31,10.66,33.85,8.28,36.73,6.56L36.73,6.56z M40.99,8.61  c-0.66-0.16-1.23-0.41-1.81-0.66c-0.33-0.16-0.66-0.25-0.98-0.41c-2.87,1.56-5.5,3.86-7.72,6.73c0.66,0.25,1.4,0.57,2.05,0.82  c1.31,0.41,2.71,0.74,4.19,1.07C37.96,12.96,39.35,10.41,40.99,8.61L40.99,8.61z M45.92,9.35c-1.07-0.08-2.13-0.16-3.12-0.33  c-1.72,1.56-3.28,4.19-4.6,7.47c2.38,0.41,5.01,0.66,7.72,0.66V9.35z M50.6,9.02c-0.98,0.16-2.05,0.25-3.12,0.33v7.8  c2.71,0,5.25-0.25,7.63-0.66C53.88,13.2,52.32,10.58,50.6,9.02L50.6,9.02z M55.11,7.54c-0.41,0.16-0.9,0.41-1.4,0.57  c-0.41,0.16-0.9,0.33-1.4,0.49c1.64,1.81,3.12,4.35,4.35,7.55c1.31-0.25,2.63-0.57,3.78-0.98c0.82-0.25,1.64-0.57,2.38-0.9  C60.61,11.4,57.98,9.1,55.11,7.54L55.11,7.54z M57.98,5.24c-0.33,0.49-0.82,0.9-1.31,1.31c2.79,1.72,5.42,4.1,7.63,7.06  c1.64-0.9,2.95-1.81,3.86-2.87C65.12,8.36,61.68,6.56,57.98,5.24L57.98,5.24z M69.31,69.02c-0.98-1.15-2.38-2.22-4.1-3.12  c0.98-1.48,1.97-3.12,2.79-4.84c0.16-0.33,0.33-0.66,0.41-0.98h-1.64c-0.08,0.08-0.08,0.25-0.16,0.33  c-0.82,1.72-1.72,3.28-2.79,4.84c-0.9-0.41-1.89-0.82-2.95-1.15c-1.15-0.41-2.38-0.74-3.69-0.98c0.33-0.82,0.57-1.64,0.82-2.54  c0.08-0.16,0.08-0.33,0.16-0.49h-1.56c-0.08,0-0.08,0-0.08,0.08c-0.25,0.9-0.49,1.81-0.82,2.63c-2.54-0.41-5.34-0.74-8.21-0.74  v-1.97h-1.56v1.97c-2.87,0-5.66,0.33-8.29,0.74c-0.25-0.82-0.57-1.72-0.82-2.63c0-0.08,0-0.08,0-0.08h-1.56  c0.08,0.16,0.08,0.33,0.16,0.49c0.25,0.9,0.49,1.72,0.74,2.54c-1.4,0.33-2.79,0.66-4.02,1.07c-0.9,0.33-1.81,0.66-2.54,1.07  c-1.07-1.56-1.97-3.12-2.87-4.84c0-0.08-0.08-0.25-0.08-0.33h-1.72c0.16,0.33,0.33,0.66,0.49,0.98c0.82,1.72,1.72,3.37,2.79,4.84  c-1.81,0.9-3.2,1.97-4.19,3.12c-2.95-2.46-5.58-5.5-7.72-8.95h-1.72c6.57,11.33,18.47,18.88,32.09,18.88s25.61-7.55,32.18-18.88  h-1.81C74.97,63.52,72.35,66.56,69.31,69.02L69.31,69.02z M36.97,75.99c0.66-0.66,1.64-1.23,2.79-1.72  c1.89-0.82,4.27-1.31,6.89-1.31c2.46,0,4.76,0.41,6.57,1.15c1.31,0.49,2.46,1.15,3.2,1.89c-3.12,0.9-6.4,1.4-9.77,1.4  C43.29,77.39,40.09,76.9,36.97,75.99L36.97,75.99z M36.73,74.19c-0.49,0.41-0.98,0.82-1.31,1.31c-3.69-1.23-7.14-3.12-10.18-5.5  c0.9-1.07,2.22-1.97,3.86-2.87C31.31,70.08,33.85,72.47,36.73,74.19L36.73,74.19z M40.99,72.14c-0.66,0.16-1.23,0.41-1.81,0.66  c-0.33,0.16-0.66,0.25-0.98,0.41c-2.87-1.48-5.5-3.86-7.72-6.73c0.66-0.25,1.4-0.57,2.05-0.82c1.31-0.41,2.71-0.74,4.19-1.07  C37.96,67.79,39.35,70.33,40.99,72.14L40.99,72.14z M45.92,71.4c-1.07,0.08-2.13,0.16-3.12,0.33c-1.72-1.56-3.28-4.1-4.6-7.47  c2.38-0.41,5.01-0.66,7.72-0.66V71.4z M50.6,71.73c-0.98-0.16-2.05-0.25-3.12-0.33v-7.8c2.71,0,5.25,0.25,7.63,0.66  C53.88,67.62,52.32,70.17,50.6,71.73L50.6,71.73z M55.11,73.2c-0.41-0.16-0.9-0.41-1.4-0.57c-0.41-0.16-0.9-0.33-1.4-0.49  c1.64-1.81,3.12-4.35,4.35-7.55c1.31,0.25,2.63,0.57,3.78,0.98c0.82,0.33,1.64,0.57,2.38,0.9C60.61,69.35,57.98,71.73,55.11,73.2  L55.11,73.2z M57.98,75.5c-0.33-0.49-0.82-0.9-1.31-1.31c2.79-1.72,5.42-4.1,7.63-7.06c1.64,0.9,2.95,1.81,3.86,2.87  C65.12,72.38,61.68,74.27,57.98,75.5L57.98,75.5z"></path>	<path class="st1" d="M11.12,92.9H8.9V85.6c-0.82,0.66-1.72,1.15-2.87,1.48v-1.81c0.57-0.16,1.23-0.41,1.89-0.9  c0.66-0.49,1.15-0.98,1.4-1.64h1.81V92.9z M18.75,92.9v-2.05h-4.68v-1.64l5.01-6.4h1.81v6.4h1.48v1.64h-1.48v2.05H18.75z   M18.75,89.21v-3.45l-2.63,3.45H18.75z M27.12,82.73c1.15,0,2.05,0.41,2.63,1.07c0.74,0.82,1.15,2.22,1.15,4.1  c0,1.97-0.41,3.37-1.15,4.19c-0.57,0.66-1.48,0.98-2.63,0.98c-1.07,0-1.97-0.33-2.71-1.07c-0.66-0.82-0.98-2.13-0.98-4.1  c0-1.89,0.33-3.28,1.07-4.1C25.15,83.14,26.05,82.73,27.12,82.73L27.12,82.73z M27.12,84.37c-0.25,0-0.49,0.08-0.66,0.25  c-0.25,0.16-0.41,0.41-0.49,0.74c-0.16,0.57-0.25,1.4-0.25,2.54c0,1.23,0.08,2.05,0.25,2.46c0.08,0.49,0.25,0.74,0.49,0.9  c0.16,0.16,0.41,0.25,0.66,0.25s0.49-0.08,0.74-0.25c0.16-0.16,0.33-0.41,0.49-0.82c0.16-0.49,0.16-1.31,0.16-2.54  c0-1.15,0-1.97-0.16-2.38c-0.16-0.49-0.33-0.74-0.49-0.9C27.61,84.45,27.37,84.37,27.12,84.37L27.12,84.37z M36.15,82.73  c1.07,0,1.97,0.41,2.63,1.07c0.74,0.82,1.07,2.22,1.07,4.1c0,1.97-0.33,3.37-1.15,4.19c-0.57,0.66-1.48,0.98-2.54,0.98  c-1.15,0-2.05-0.33-2.79-1.07c-0.66-0.82-0.98-2.13-0.98-4.1c0-1.89,0.33-3.28,1.15-4.1C34.1,83.14,35,82.73,36.15,82.73  L36.15,82.73z M36.15,84.37c-0.33,0-0.57,0.08-0.74,0.25c-0.25,0.16-0.41,0.41-0.49,0.74c-0.16,0.57-0.25,1.4-0.25,2.54  c0,1.23,0.08,2.05,0.25,2.46c0.08,0.49,0.33,0.74,0.49,0.9c0.16,0.16,0.41,0.25,0.74,0.25c0.25,0,0.49-0.08,0.66-0.25  c0.25-0.16,0.41-0.41,0.49-0.82c0.16-0.49,0.25-1.31,0.25-2.54c0-1.15-0.08-1.97-0.25-2.38c-0.08-0.49-0.25-0.74-0.49-0.9  C36.64,84.45,36.4,84.37,36.15,84.37L36.15,84.37z M46.99,92.9h-2.22V85.6c-0.82,0.66-1.72,1.15-2.87,1.48v-1.81  c0.57-0.16,1.23-0.41,1.89-0.9c0.74-0.49,1.15-0.98,1.4-1.64h1.81V92.9z M51.17,87.49V85.6h2.22v1.89H51.17z M51.17,92.9v-1.89  h2.22v1.89H51.17z M63.15,91.1v1.81h-7.72c0.08-0.66,0.33-1.31,0.74-1.89c0.41-0.66,1.23-1.48,2.46-2.46  c0.98-0.82,1.64-1.4,1.81-1.64c0.33-0.41,0.49-0.82,0.49-1.23c0-0.41-0.16-0.74-0.41-0.98c-0.25-0.25-0.66-0.33-1.07-0.33  c-0.49,0-0.82,0.08-1.15,0.33c-0.25,0.25-0.41,0.66-0.41,1.23l-2.22-0.16c0.08-1.07,0.49-1.81,1.23-2.3  c0.66-0.49,1.56-0.74,2.54-0.74c1.15,0,2.05,0.33,2.71,0.82c0.66,0.57,0.98,1.23,0.98,2.05c0,0.41-0.08,0.9-0.25,1.31  c-0.25,0.41-0.49,0.82-0.9,1.23c-0.25,0.33-0.74,0.74-1.48,1.31c-0.66,0.57-1.15,0.9-1.31,1.15c-0.16,0.16-0.33,0.33-0.49,0.49  H63.15z M68.41,82.73c1.07,0,1.97,0.41,2.63,1.07c0.74,0.82,1.15,2.22,1.15,4.1c0,1.97-0.41,3.37-1.15,4.19  c-0.66,0.66-1.56,0.98-2.63,0.98c-1.15,0-2.05-0.33-2.71-1.07c-0.74-0.82-1.07-2.13-1.07-4.1c0-1.89,0.41-3.28,1.15-4.1  C66.44,83.14,67.26,82.73,68.41,82.73L68.41,82.73z M68.41,84.37c-0.25,0-0.49,0.08-0.74,0.25c-0.16,0.16-0.33,0.41-0.49,0.74  c-0.08,0.57-0.16,1.4-0.16,2.54c0,1.23,0,2.05,0.16,2.46c0.16,0.49,0.33,0.74,0.49,0.9c0.25,0.16,0.49,0.25,0.74,0.25  s0.49-0.08,0.66-0.25c0.25-0.16,0.41-0.41,0.49-0.82c0.16-0.49,0.25-1.31,0.25-2.54c0-1.15-0.08-1.97-0.16-2.38  c-0.16-0.49-0.33-0.74-0.57-0.9C68.9,84.45,68.65,84.37,68.41,84.37L68.41,84.37z M79.24,92.9h-2.13V85.6  c-0.82,0.66-1.81,1.15-2.87,1.48v-1.81c0.57-0.16,1.15-0.41,1.89-0.9c0.66-0.49,1.15-0.98,1.4-1.64h1.72V92.9z M82.61,90.36  l2.22-0.25c0.08,0.41,0.25,0.82,0.57,1.07c0.33,0.25,0.66,0.33,1.07,0.33c0.49,0,0.82-0.16,1.15-0.49  c0.33-0.33,0.49-0.82,0.49-1.48c0-0.57-0.16-1.07-0.49-1.4c-0.33-0.33-0.74-0.49-1.23-0.49c-0.66,0-1.23,0.25-1.72,0.74l-1.81-0.16  L84,82.97h5.91v1.81h-4.19l-0.41,1.72c0.49-0.25,1.07-0.33,1.56-0.33c0.98,0,1.81,0.25,2.46,0.9c0.74,0.66,1.07,1.48,1.07,2.46  c0,0.82-0.33,1.56-0.82,2.22c-0.74,0.9-1.81,1.31-3.12,1.31c-1.07,0-1.97-0.25-2.63-0.74C83.18,91.84,82.77,91.18,82.61,90.36  L82.61,90.36z"></path></g></svg>