<svg xmlns="http://www.w3.org/2000/svg" xmlns:xlink="http://www.w3.org/1999/xlink" id="Layer_1" x="0px" y="0px" viewBox="0 0 91 91" style="enable-background:new 0 0 91 91;" xml:space="preserve"><style type="text/css">	.st0{fill-rule:evenodd;clip-rule:evenodd;fill:#BBBBBB;}	.st1{fill:#BBBBBB;}</style><g>	<path class="st0" d="M4.58,22h18.07c0.71,0,1.26,0.55,1.26,1.26v6c0,0.71-0.55,1.26-1.26,1.26h-3.79v16.25h3.79  c0.71,0,1.26,0.63,1.26,1.34v6c0,0.71-0.55,1.26-1.26,1.26H4.58c-0.71,0-1.26-0.55-1.26-1.26v-6c0-0.71,0.55-1.34,1.26-1.34h3.95  V30.53H4.58c-0.71,0-1.26-0.55-1.26-1.26v-6C3.32,22.56,3.87,22,4.58,22L4.58,22z M71.81,55.93c-9.23,0-16.73-5.68-16.73-16.89  c0-11.13,7.5-16.89,16.73-16.89c9.15,0,16.65,5.76,16.65,16.89C88.46,50.25,80.96,55.93,71.81,55.93L71.81,55.93z M76.54,39.05  c0-6.08-1.03-9.23-4.73-9.23S67,32.97,67,39.05c0,6.15,1.1,9.23,4.81,9.23S76.54,45.2,76.54,39.05L76.54,39.05z M41.2,34.71  c-3.08-0.95-6.15-1.1-6.08-3.63c0.08-0.87,0.71-1.89,3.08-1.89c1.5,0,3.95,0.47,5.84,1.74c1.89,1.26,3.31,3.16,4.73,3.16h3.55  c1.03,0,1.74-1.58,1.74-2.6v-6.94c0-1.18-0.79-1.58-1.66-1.58h-3.39c-2.29,0.08-1.26,1.89-2.21,2.29c-2.6,1.03-2.6-2.84-9.39-2.92  c-7.73-0.16-12.31,4.5-12.15,9.86c0.08,6.71,4.97,9.15,11.05,11.2c3.08,1.03,8.05,1.5,7.89,4.02c-0.08,0.95-0.71,1.89-3.08,1.89  c-1.5,0.08-3.95-0.47-5.84-1.74c-1.89-1.26-3.31-3.16-4.73-3.16h-3.47c-1.1,0-1.81,1.58-1.81,2.6v6.94c0,1.18,0.79,1.58,1.66,1.58  h3.39c2.29-0.08,1.26-1.89,2.21-2.29c2.6-0.95,2.6,2.84,9.39,2.92c7.73,0.16,12.31-4.5,12.15-9.86C53.98,39.6,49.09,37,41.2,34.71  L41.2,34.71z"></path>	<path class="st0" d="M66.76,10.96c-0.95,1.1-2.29,2.13-3.95,3c0.95,1.42,1.89,3,2.68,4.66c0.16,0.32,0.32,0.63,0.39,0.95h-1.58  c-0.08-0.08-0.08-0.24-0.16-0.32c-0.79-1.66-1.66-3.16-2.68-4.58c-0.87,0.32-1.81,0.71-2.84,1.03c-1.1,0.39-2.29,0.71-3.55,0.95  c0.32,0.79,0.55,1.58,0.79,2.45c0.08,0.16,0.08,0.32,0.16,0.47h-1.5c-0.08,0-0.08,0-0.08,0c-0.24-0.95-0.47-1.81-0.79-2.6  c-2.45,0.39-5.13,0.71-7.89,0.71v1.89h-1.5v-1.89c-2.76,0-5.44-0.32-7.97-0.71c-0.24,0.79-0.55,1.66-0.79,2.6l0,0h-1.5  c0.08-0.16,0.08-0.32,0.16-0.47c0.24-0.87,0.47-1.66,0.71-2.45c-1.34-0.32-2.68-0.63-3.87-1.03c-0.87-0.32-1.74-0.63-2.45-0.95  c-1.03,1.42-1.89,2.92-2.76,4.58c0,0.08-0.08,0.24-0.08,0.32h-1.66c0.16-0.32,0.32-0.63,0.47-0.95c0.79-1.66,1.66-3.24,2.68-4.66  c-1.74-0.87-3.08-1.89-4.02-3c-2.84,2.37-5.37,5.29-7.42,8.6h-1.66C20.44,8.67,31.88,1.41,44.98,1.41S69.6,8.67,75.91,19.56h-1.74  C72.2,16.24,69.68,13.33,66.76,10.96L66.76,10.96z M35.67,4.25c0.63,0.63,1.58,1.26,2.68,1.66c1.81,0.79,4.1,1.26,6.63,1.26  c2.37,0,4.58-0.39,6.31-1.03c1.26-0.55,2.37-1.18,3.08-1.89c-3-0.87-6.15-1.34-9.39-1.34C41.75,2.91,38.67,3.38,35.67,4.25  L35.67,4.25z M35.44,5.99c-0.47-0.39-0.95-0.79-1.26-1.26c-3.55,1.26-6.86,3-9.78,5.29c0.87,1.03,2.13,1.89,3.71,2.76  C30.23,9.93,32.67,7.64,35.44,5.99L35.44,5.99z M39.54,7.96c-0.63-0.16-1.18-0.39-1.74-0.63c-0.32-0.16-0.63-0.24-0.95-0.39  c-2.76,1.5-5.29,3.71-7.42,6.47c0.63,0.24,1.34,0.55,1.97,0.79c1.26,0.39,2.6,0.71,4.02,1.03C36.62,12.14,37.96,9.7,39.54,7.96  L39.54,7.96z M44.27,8.67c-1.03-0.08-2.05-0.16-3-0.32c-1.66,1.5-3.16,4.02-4.42,7.18c2.29,0.39,4.81,0.63,7.42,0.63V8.67z   M48.77,8.35c-0.95,0.16-1.97,0.24-3,0.32v7.5c2.6,0,5.05-0.24,7.34-0.63C51.93,12.38,50.43,9.85,48.77,8.35L48.77,8.35z   M53.11,6.93c-0.39,0.16-0.87,0.39-1.34,0.55c-0.39,0.16-0.87,0.32-1.34,0.47c1.58,1.74,3,4.18,4.18,7.26  c1.26-0.24,2.52-0.55,3.63-0.95c0.79-0.24,1.58-0.55,2.29-0.87C58.4,10.64,55.87,8.43,53.11,6.93L53.11,6.93z M55.87,4.72  c-0.32,0.47-0.79,0.87-1.26,1.26c2.68,1.66,5.21,3.95,7.34,6.79c1.58-0.87,2.84-1.74,3.71-2.76C62.74,7.72,59.42,5.99,55.87,4.72  L55.87,4.72z M66.76,66.03c-0.95-1.1-2.29-2.13-3.95-3c0.95-1.42,1.89-3,2.68-4.66c0.16-0.32,0.32-0.63,0.39-0.95h-1.58  c-0.08,0.08-0.08,0.24-0.16,0.32c-0.79,1.66-1.66,3.16-2.68,4.66c-0.87-0.39-1.81-0.79-2.84-1.1c-1.1-0.39-2.29-0.71-3.55-0.95  c0.32-0.79,0.55-1.58,0.79-2.45c0.08-0.16,0.08-0.32,0.16-0.47h-1.5c-0.08,0-0.08,0-0.08,0.08c-0.24,0.87-0.47,1.74-0.79,2.52  c-2.45-0.39-5.13-0.71-7.89-0.71v-1.89h-1.5v1.89c-2.76,0-5.44,0.32-7.97,0.71c-0.24-0.79-0.55-1.66-0.79-2.52  c0-0.08,0-0.08,0-0.08h-1.5c0.08,0.16,0.08,0.32,0.16,0.47c0.24,0.87,0.47,1.66,0.71,2.45c-1.34,0.32-2.68,0.63-3.87,1.03  c-0.87,0.32-1.74,0.63-2.45,1.03c-1.03-1.5-1.89-3-2.76-4.66c0-0.08-0.08-0.24-0.08-0.32h-1.66c0.16,0.32,0.32,0.63,0.47,0.95  c0.79,1.66,1.66,3.24,2.68,4.66c-1.74,0.87-3.08,1.89-4.02,3c-2.84-2.37-5.37-5.29-7.42-8.6h-1.66  c6.31,10.89,17.75,18.15,30.85,18.15s24.62-7.26,30.93-18.15h-1.74C72.2,60.75,69.68,63.67,66.76,66.03L66.76,66.03z M35.67,72.74  c0.63-0.63,1.58-1.18,2.68-1.66c1.81-0.79,4.1-1.26,6.63-1.26c2.37,0,4.58,0.39,6.31,1.1c1.26,0.47,2.37,1.1,3.08,1.81  c-3,0.87-6.15,1.34-9.39,1.34C41.75,74.08,38.67,73.61,35.67,72.74L35.67,72.74z M35.44,71c-0.47,0.39-0.95,0.79-1.26,1.26  c-3.55-1.18-6.86-3-9.78-5.29c0.87-1.03,2.13-1.89,3.71-2.76C30.23,67.06,32.67,69.35,35.44,71L35.44,71z M39.54,69.03  c-0.63,0.16-1.18,0.39-1.74,0.63c-0.32,0.16-0.63,0.24-0.95,0.39c-2.76-1.42-5.29-3.71-7.42-6.47c0.63-0.24,1.34-0.55,1.97-0.79  c1.26-0.39,2.6-0.71,4.02-1.03C36.62,64.85,37.96,67.3,39.54,69.03L39.54,69.03z M44.27,68.32c-1.03,0.08-2.05,0.16-3,0.32  c-1.66-1.5-3.16-3.95-4.42-7.18c2.29-0.39,4.81-0.63,7.42-0.63V68.32z M48.77,68.64c-0.95-0.16-1.97-0.24-3-0.32v-7.5  c2.6,0,5.05,0.24,7.34,0.63C51.93,64.69,50.43,67.14,48.77,68.64L48.77,68.64z M53.11,70.06c-0.39-0.16-0.87-0.39-1.34-0.55  c-0.39-0.16-0.87-0.32-1.34-0.47c1.58-1.74,3-4.18,4.18-7.26c1.26,0.24,2.52,0.55,3.63,0.95c0.79,0.32,1.58,0.55,2.29,0.87  C58.4,66.35,55.87,68.64,53.11,70.06L53.11,70.06z M55.87,72.27c-0.32-0.47-0.79-0.87-1.26-1.26c2.68-1.66,5.21-3.95,7.34-6.79  c1.58,0.87,2.84,1.74,3.71,2.76C62.74,69.27,59.42,71.08,55.87,72.27L55.87,72.27z"></path>	<path class="st1" d="M9.55,88.99v-1.97H4.98v-1.58l4.81-6.15h1.81v6.15h1.34v1.58h-1.34v1.97H9.55z M9.55,85.44v-3.31l-2.52,3.31  H9.55z M14.05,86.55l2.13-0.24c0,0.39,0.24,0.79,0.47,1.03c0.32,0.24,0.71,0.32,1.1,0.32c0.39,0,0.79-0.16,1.1-0.47  c0.32-0.32,0.47-0.79,0.47-1.42c0-0.55-0.16-1.03-0.47-1.34s-0.71-0.47-1.18-0.47c-0.63,0-1.18,0.24-1.66,0.71l-1.74-0.16l1.1-5.05  H21v1.74h-4.02l-0.32,1.66c0.47-0.24,0.95-0.32,1.42-0.32c0.95,0,1.81,0.24,2.45,0.87c0.63,0.63,0.95,1.42,0.95,2.37  c0,0.79-0.24,1.5-0.79,2.13c-0.71,0.87-1.74,1.26-3,1.26c-1.03,0-1.81-0.24-2.52-0.71C14.53,87.97,14.13,87.34,14.05,86.55  L14.05,86.55z M26.2,79.21c1.1,0,1.97,0.39,2.52,1.03c0.71,0.79,1.1,2.13,1.1,3.95c0,1.89-0.39,3.24-1.1,4.02  c-0.55,0.63-1.42,0.95-2.52,0.95c-1.03,0-1.89-0.32-2.6-1.03c-0.63-0.79-0.95-2.05-0.95-3.95c0-1.81,0.32-3.16,1.03-3.95  C24.31,79.6,25.18,79.21,26.2,79.21L26.2,79.21z M26.2,80.79c-0.24,0-0.47,0.08-0.63,0.24c-0.24,0.16-0.39,0.39-0.47,0.71  c-0.16,0.55-0.24,1.34-0.24,2.45c0,1.18,0.08,1.97,0.24,2.37c0.08,0.47,0.24,0.71,0.47,0.87c0.16,0.16,0.39,0.24,0.63,0.24  s0.47-0.08,0.71-0.24c0.16-0.16,0.32-0.39,0.47-0.79c0.16-0.47,0.16-1.26,0.16-2.45c0-1.1,0-1.89-0.16-2.29  c-0.16-0.47-0.32-0.71-0.47-0.87C26.68,80.87,26.44,80.79,26.2,80.79L26.2,80.79z M34.88,79.21c1.03,0,1.89,0.39,2.52,1.03  c0.71,0.79,1.03,2.13,1.03,3.95c0,1.89-0.32,3.24-1.1,4.02c-0.55,0.63-1.42,0.95-2.45,0.95c-1.1,0-1.97-0.32-2.68-1.03  c-0.63-0.79-0.95-2.05-0.95-3.95c0-1.81,0.32-3.16,1.1-3.95C32.91,79.6,33.78,79.21,34.88,79.21L34.88,79.21z M34.88,80.79  c-0.32,0-0.55,0.08-0.71,0.24c-0.24,0.16-0.39,0.39-0.47,0.71c-0.16,0.55-0.24,1.34-0.24,2.45c0,1.18,0.08,1.97,0.24,2.37  c0.08,0.47,0.32,0.71,0.47,0.87c0.16,0.16,0.39,0.24,0.71,0.24c0.24,0,0.47-0.08,0.63-0.24c0.24-0.16,0.39-0.39,0.47-0.79  c0.16-0.47,0.24-1.26,0.24-2.45c0-1.1-0.08-1.89-0.24-2.29c-0.08-0.47-0.24-0.71-0.47-0.87C35.36,80.87,35.12,80.79,34.88,80.79  L34.88,80.79z M45.3,88.99h-2.13v-7.02c-0.79,0.63-1.66,1.1-2.76,1.42v-1.74c0.55-0.16,1.18-0.39,1.81-0.87  c0.71-0.47,1.1-0.95,1.34-1.58h1.74V88.99z M49.32,83.79v-1.81h2.13v1.81H49.32z M49.32,88.99v-1.81h2.13v1.81H49.32z M60.84,87.26  v1.74h-7.42c0.08-0.63,0.32-1.26,0.71-1.81c0.39-0.63,1.18-1.42,2.37-2.37c0.95-0.79,1.58-1.34,1.74-1.58  c0.32-0.39,0.47-0.79,0.47-1.18s-0.16-0.71-0.39-0.95c-0.24-0.24-0.63-0.32-1.03-0.32c-0.47,0-0.79,0.08-1.1,0.32  c-0.24,0.24-0.39,0.63-0.39,1.18l-2.13-0.16c0.08-1.03,0.47-1.74,1.18-2.21c0.63-0.47,1.5-0.71,2.45-0.71c1.1,0,1.97,0.32,2.6,0.79  c0.63,0.55,0.95,1.18,0.95,1.97c0,0.39-0.08,0.87-0.24,1.26c-0.24,0.39-0.47,0.79-0.87,1.18c-0.24,0.32-0.71,0.71-1.42,1.26  c-0.63,0.55-1.1,0.87-1.26,1.1c-0.16,0.16-0.32,0.32-0.47,0.47H60.84z M65.89,79.21c1.03,0,1.89,0.39,2.52,1.03  c0.71,0.79,1.1,2.13,1.1,3.95c0,1.89-0.39,3.24-1.1,4.02c-0.63,0.63-1.5,0.95-2.52,0.95c-1.1,0-1.97-0.32-2.6-1.03  c-0.71-0.79-1.03-2.05-1.03-3.95c0-1.81,0.39-3.16,1.1-3.95C64,79.6,64.79,79.21,65.89,79.21L65.89,79.21z M65.89,80.79  c-0.24,0-0.47,0.08-0.71,0.24c-0.16,0.16-0.32,0.39-0.47,0.71c-0.08,0.55-0.16,1.34-0.16,2.45c0,1.18,0,1.97,0.16,2.37  c0.16,0.47,0.32,0.71,0.47,0.87c0.24,0.16,0.47,0.24,0.71,0.24c0.24,0,0.47-0.08,0.63-0.24c0.24-0.16,0.39-0.39,0.47-0.79  c0.16-0.47,0.24-1.26,0.24-2.45c0-1.1-0.08-1.89-0.16-2.29c-0.16-0.47-0.32-0.71-0.55-0.87C66.37,80.87,66.13,80.79,65.89,80.79  L65.89,80.79z M76.31,88.99h-2.05v-7.02c-0.79,0.63-1.74,1.1-2.76,1.42v-1.74c0.55-0.16,1.1-0.39,1.81-0.87  c0.63-0.47,1.1-0.95,1.34-1.58h1.66V88.99z M81.36,83.79c-0.55-0.24-0.95-0.55-1.18-0.87c-0.24-0.39-0.39-0.79-0.39-1.18  c0-0.71,0.32-1.34,0.87-1.81c0.55-0.47,1.42-0.71,2.45-0.71c1.1,0,1.89,0.24,2.45,0.71c0.63,0.47,0.87,1.1,0.87,1.81  c0,0.47-0.08,0.87-0.39,1.18c-0.24,0.39-0.63,0.63-1.1,0.87c0.63,0.16,1.1,0.47,1.42,0.95c0.32,0.39,0.47,0.87,0.47,1.42  c0,0.87-0.32,1.66-1.03,2.21c-0.63,0.55-1.5,0.79-2.6,0.79c-0.95,0-1.81-0.24-2.45-0.71c-0.79-0.47-1.18-1.26-1.18-2.21  c0-0.55,0.08-1.03,0.39-1.5C80.25,84.34,80.73,84.02,81.36,83.79L81.36,83.79z M81.83,81.89c0,0.39,0.08,0.63,0.32,0.87  c0.24,0.24,0.55,0.32,0.95,0.32s0.71-0.16,0.95-0.32c0.24-0.24,0.39-0.55,0.39-0.87c0-0.39-0.08-0.63-0.32-0.87  c-0.32-0.24-0.63-0.32-0.95-0.32c-0.47,0-0.79,0.08-1.03,0.32S81.83,81.5,81.83,81.89L81.83,81.89z M81.59,86.07  c0,0.47,0.16,0.87,0.47,1.18c0.32,0.32,0.63,0.39,1.1,0.39s0.79-0.08,1.1-0.39c0.24-0.24,0.39-0.63,0.39-1.18  c0-0.47-0.16-0.87-0.39-1.1c-0.32-0.32-0.71-0.39-1.1-0.39c-0.55,0-0.95,0.16-1.18,0.47C81.75,85.36,81.59,85.68,81.59,86.07  L81.59,86.07z"></path></g></svg>