<svg xmlns="http://www.w3.org/2000/svg" xmlns:xlink="http://www.w3.org/1999/xlink" id="Layer_1" x="0px" y="0px" viewBox="0 0 91 91" style="enable-background:new 0 0 91 91;" xml:space="preserve"><style type="text/css">	.st0{fill:#BAB8B9;}	.st1{fill:#BAB8B9;stroke:#BAB8B9;stroke-width:0.9921;stroke-miterlimit:10;}	.st2{fill:#FFFFFF;}	.st3{fill:none;stroke:#FFFFFF;stroke-width:0.737;stroke-miterlimit:10;}</style><g>	<path class="st0" d="M59.73,36.95c-0.72-0.33-1.52-0.44-2.3-0.33c-1.66,0.23-4.75,1.34-7.19,6.1c0,0-7.29-2.52-10.11,0.89  c-0.54,0.66-0.75,1.55-0.48,2.37c0.22,0.67,0.76,1.3,2.05,1.13c0,0-1.69-1.02-1.11-2.4c0.15-0.36,0.43-0.64,0.77-0.83  c0.92-0.51,3.38-1.31,8.39,0.31c0,0-1.05,1.64-1.53,7.06l-0.07,0.02c0,0-0.53-5.49-2.68-4.29c0,0-1.51,0.84-1.57,1.68  c0,0,1.85-0.58,1.94,4.22c0,0,0.08,3.58,1.2,3.38c0.06-0.01,0.12-0.04,0.17-0.07c0.16-0.09,0.57-0.3,0.87-0.34  c0.09-0.01,0.17-0.09,0.18-0.19c0.2-1.37,1.53-10.07,2.48-11.33c0,0,5.43,1.8,9.07-1.58c0.74-0.69,1.27-1.57,1.48-2.57  C61.51,39.1,61.38,37.72,59.73,36.95L59.73,36.95z M60.32,40.16c-0.12,0.83-0.57,1.59-1.23,2.1c-1.1,0.87-3.38,1.83-7.64,0.72  c0,0,2.39-5.62,6.77-5.39c0.51,0.03,1.01,0.21,1.4,0.54C60.06,38.51,60.47,39.14,60.32,40.16L60.32,40.16z"></path>	<path class="st0" d="M60.86,53.82l1.11-6.09c0.08-0.41-0.12-0.83-0.48-1.01c-0.31-0.15-0.77-0.21-1.49-0.18l-0.01,1.01  c-0.01,0.92-0.21,1.84-0.58,2.68c-0.27,0.62-0.58,1.22-0.76,1.23c0,0-0.92,0.44-1.12-1.21c0,0-0.35-4.04,1.59-4.92  c0,0,0.75-0.49,1.44,1.04c0,0,0.46,0.19,0.61-0.25c0.05-0.15,0.04-0.31-0.02-0.45c-0.23-0.56-1.12-2.17-3.21-0.56  c-0.56,0.43-1.02,0.99-1.33,1.63c-0.39,0.77-0.85,2.01-0.99,3.67c0,0.05-0.02,0.1-0.03,0.15c-0.23,0.65-2,5.33-3.5,2.02  c-0.02-0.05-0.01-0.12,0.04-0.15c0.47-0.34,2.84-2.21,2.73-4.93c-0.02-0.49-0.42-0.97-0.91-1.02c-0.4-0.05-0.96,0.08-1.68,0.66  c-0.7,0.56-1.24,1.31-1.6,2.14c-0.53,1.22-1.14,3.22-0.27,4.54c0.61,0.92,1.76,1.15,2.8,0.82c0.96-0.3,2.19-1.2,2.72-2.96  c0,0,1.5,2.75,3.67-0.11l-0.2,2.28c0,0-3.22-0.52-4.98,2.38c-0.29,0.47-0.45,1.02-0.43,1.57c0.03,0.74,0.38,1.64,1.86,1.7  c0.33,0.02,0.67-0.03,0.98-0.14c0.98-0.32,3.07-1.32,3.68-4.22c0,0,10.49,3.58,10.79-2.58C71.3,52.55,69.13,55.89,60.86,53.82  L60.86,53.82z M53.34,47.01c0.23-0.16,0.55-0.05,0.64,0.21c0.21,0.62,0.2,1.97-2.08,4.24C51.9,51.47,51.88,48.03,53.34,47.01  L53.34,47.01z M56.96,58.83c-0.12,0.06-0.25,0.09-0.38,0.1c-1.31,0.08-1.65-0.56-1.71-1.11c-0.04-0.39,0.07-0.78,0.28-1.11  c1.38-2.1,4.1-1.77,4.1-1.77C58.72,57.7,57.46,58.58,56.96,58.83L56.96,58.83z"></path>	<path class="st0" d="M67.98,43.42c0,0-0.48-2.42-2.88-1.02c-0.31,0.18-0.59,0.42-0.83,0.69c-0.73,0.83-2.18,2.88-1.66,5.59  c0.08,0.44,0.29,0.85,0.6,1.16c0.02,0.02,0.05,0.04,0.07,0.07c0.66,0.6,1.66,0.64,2.38,0.11c0.22-0.16,0.44-0.39,0.63-0.71  c0.03-0.06,0.06-0.12,0.09-0.18c0.13-0.29,0.51-1.16,0.59-0.99c0,0,0.23,1.45,1.86,0.97c0,0,1.47-0.53,1.84-2.61  c0,0-0.07,1.37,1.04,1.37l0.87-0.03c0,0-0.1-0.43-0.2-1.05c-0.31-1.83-0.03-3.73,0.83-5.37c0.34-0.64,0.64-1,0.65-0.23v3.02  c0,0.51,0.09,1.02,0.29,1.49c0.31,0.72,0.91,1.44,2.02,0.74c0.37-0.23,0.83-0.75,1.03-1.14c0.38-0.74,0.91-2.06,1.17-4.08  c0,0,0.5-4.76,2.01-5.95c0,0-1.32,3.45-1.16,4.3c0,0,0.33-0.8,1.8-1.28c0,0,0.31-0.95,0.18-1.92c-0.01-0.1-0.03-0.2-0.03-0.3  c-0.04-0.56-0.09-2.34,0.56-3.1c0,0-7.59,1.34-4.21,8.66c0,0-0.04,2.29-1.41,3.8c0,0-0.36,0.38-0.47-0.71  c-0.02-0.22-0.03-0.45-0.02-0.67l0.13-3.86c0.01-0.19-0.06-0.39-0.18-0.53c-0.43-0.51-1.56-1.35-3.02,1.42c0,0-0.6-1.21-1.94-0.53  V43c0,1.08-0.18,2.15-0.55,3.15c-0.32,0.85-0.74,1.73-1.19,1.92c-0.25,0.11-0.53-0.08-0.55-0.35c-0.06-0.6-0.22-1.95,0.04-2.86  c0,0-0.71-1.16-1.5-0.4c-0.01,0.01-0.02,0.03-0.02,0.04c0.02,0.17,0.12,1.2,0.01,1.58c0,0-0.65,2.76-1.54,2.92  c0,0-1.36,0.53-0.85-3.35c0.04-0.3,0.1-0.61,0.2-0.9c0.23-0.71,0.72-1.81,1.56-2c0,0,0.7-0.22,1.14,1.13  C67.34,43.9,68.1,44.15,67.98,43.42L67.98,43.42z"></path>	<path class="st0" d="M78.82,42.41c0,0,1.29,0.47,3.1-0.88c0.37-0.28,0.7-0.6,1.01-0.95c0.34-0.39,1.06-1.08,1.91-1.1  c0,0-4.86-2.83-6.14,2.4c0,0,1.45-2.28,3.66-2.05C82.36,39.83,79.56,40.41,78.82,42.41L78.82,42.41z"></path>	<path class="st1" d="M87.44,63.1H3.15V28.76h84.29V63.1z M4.09,62.16H86.5V29.7H4.09V62.16z"></path>	<rect x="3.55" y="29.22" class="st0" width="34.41" height="33.4"></rect>	<path class="st2" d="M18.59,46.23c0,0,8.34,4.28,10.99-0.15l-1.56-0.29c0,0,5.53-1.41,6.61-7.28l-1.2,0.02c0,0,4.29-4.82,3.56-8.45  c0,0-6.48-1.37-9.96,1.47l-0.11-1.92c0,0-6.7,2.84-7.25,6.2l-0.11-0.19l-0.04-1.34c0,0-3.83,2.35-2.43,10.86l-0.51,0.67l-1.33-1.89  c0,0,0.49-4.43-1.38-5.97v1c0,0-1.08-2.99-4.27-3.78l0.1,1.44c0,0-2.26-2.19-6.13-1c0,0,0.59,3.88,2.45,4.38l-0.79,0.13  c0,0,0.52,3.96,3.63,3.96l-1.03,0.57c0,0,3.21,2.94,6.43,0.07c0,0-4.32-6.67-6.97-7.07c0,0,1.77-0.85,7.46,6.62l1.23,2.03  l-0.67,1.09c0,0-0.85-1.75-2.42-1.25c0,0,0.47,1.58,2.36,1.44l-1.29,2.34l1.18-0.2l0.96-1.78l0.77,0.49c0,0,0.39,3.81,5.77,1.72  c0,0-1.64-4.31-5.64-2.23l-0.72-0.5c0,0,7.41-10.75,15.7-14.04C31.98,33.39,22.29,39.22,18.59,46.23L18.59,46.23z"></path>	<rect x="3.47" y="53.58" class="st3" width="33.76" height="8.1"></rect>	<path class="st2" d="M5.16,61.02l0.15-0.04c0.01,0,0.02-0.01,0.03-0.01c0.01-0.01,0.01-0.02,0.01-0.03v-0.88  c0-0.01,0-0.02-0.01-0.03c-0.01-0.01-0.02-0.01-0.03-0.01l-0.15-0.04v-0.06h0.57v0.06l-0.15,0.04c-0.01,0-0.02,0.01-0.03,0.01  c-0.01,0.01-0.01,0.02-0.01,0.03v0.88c0,0.01,0,0.02,0.01,0.03c0.01,0.01,0.02,0.01,0.03,0.01l0.15,0.04v0.06H5.16V61.02z"></path>	<path class="st2" d="M5.92,61.02l0.12-0.03c0.01,0,0.02-0.01,0.03-0.01c0.01-0.01,0.01-0.01,0.01-0.03v-0.57  c0-0.01,0-0.02-0.01-0.03c-0.01-0.01-0.02-0.01-0.03-0.02L5.92,60.3v-0.06l0.32-0.04v0.14h0.01c0.03-0.03,0.06-0.06,0.08-0.08  c0.03-0.02,0.06-0.03,0.08-0.04s0.06-0.02,0.08-0.02c0.03,0,0.05,0,0.08,0c0.04,0,0.08,0.01,0.12,0.02  c0.04,0.01,0.07,0.03,0.1,0.05c0.03,0.02,0.05,0.06,0.07,0.09s0.03,0.08,0.03,0.13v0.46c0,0.01,0,0.02,0.01,0.03  c0.01,0.01,0.02,0.01,0.03,0.01l0.1,0.03v0.06H6.58v-0.06l0.09-0.03c0.01,0,0.02-0.01,0.03-0.01c0.01-0.01,0.01-0.02,0.01-0.03  v-0.4c0-0.04,0-0.07-0.01-0.1c-0.01-0.03-0.02-0.06-0.03-0.07c-0.02-0.02-0.04-0.04-0.07-0.05c-0.03-0.01-0.07-0.02-0.11-0.02  c-0.02,0-0.04,0-0.06,0c-0.02,0-0.04,0.01-0.07,0.01c-0.02,0.01-0.04,0.02-0.06,0.03s-0.04,0.02-0.05,0.04v0.56  c0,0.01,0,0.02,0.01,0.03c0.01,0.01,0.02,0.01,0.03,0.01l0.09,0.03v0.06H5.92V61.02z"></path>	<path class="st2" d="M7.23,60.84h0.11l0.03,0.08c0,0.01,0.01,0.02,0.02,0.03c0.01,0.01,0.02,0.01,0.02,0.02  c0.02,0.01,0.03,0.01,0.04,0.02c0.02,0.01,0.03,0.01,0.05,0.01c0.02,0,0.03,0.01,0.05,0.01c0.02,0,0.03,0,0.05,0  c0.03,0,0.05,0,0.08-0.01c0.03-0.01,0.05-0.01,0.07-0.02c0.02-0.01,0.04-0.03,0.05-0.04c0.02-0.02,0.02-0.04,0.02-0.06  c0-0.02,0-0.04-0.01-0.05c-0.01-0.02-0.02-0.03-0.03-0.04c-0.01-0.01-0.03-0.02-0.05-0.03c-0.02-0.01-0.04-0.01-0.07-0.02  c-0.04-0.01-0.07-0.02-0.11-0.03c-0.03-0.01-0.07-0.02-0.1-0.03c-0.04-0.01-0.07-0.02-0.09-0.04c-0.03-0.01-0.05-0.03-0.07-0.05  c-0.02-0.02-0.03-0.04-0.04-0.07c-0.01-0.02-0.01-0.05-0.01-0.08c0-0.04,0.01-0.07,0.03-0.11c0.02-0.03,0.05-0.06,0.09-0.08  c0.04-0.02,0.08-0.04,0.13-0.06c0.05-0.01,0.1-0.02,0.16-0.02c0.03,0,0.06,0,0.08,0c0.03,0,0.05,0,0.07,0.01  c0.02,0.01,0.04,0.01,0.07,0.01c0.02,0.01,0.04,0.01,0.07,0.02l0,0.21H7.84l-0.03-0.08c-0.01-0.01-0.01-0.02-0.02-0.02  c-0.01-0.01-0.02-0.01-0.02-0.02c-0.02-0.01-0.04-0.02-0.07-0.02c-0.03-0.01-0.05-0.01-0.08-0.01c-0.03,0-0.06,0-0.08,0.01  c-0.02,0-0.04,0.01-0.06,0.02c-0.02,0.01-0.03,0.02-0.04,0.04c-0.01,0.01-0.02,0.03-0.02,0.05s0,0.04,0.01,0.05  c0.01,0.01,0.02,0.03,0.03,0.04c0.02,0.01,0.03,0.02,0.06,0.03c0.02,0.01,0.05,0.02,0.08,0.02c0.01,0.01,0.03,0.01,0.04,0.01  c0.02,0.01,0.03,0.01,0.04,0.01c0.02,0,0.03,0.01,0.04,0.01c0.01,0,0.03,0.01,0.04,0.01c0.04,0.01,0.07,0.02,0.1,0.03  c0.03,0.01,0.05,0.03,0.07,0.04c0.02,0.02,0.03,0.04,0.04,0.06C7.99,60.76,8,60.79,8,60.82c0,0.04-0.01,0.08-0.04,0.12  C7.94,60.97,7.91,61,7.87,61.03c-0.04,0.02-0.08,0.04-0.14,0.06c-0.05,0.01-0.1,0.02-0.16,0.02c-0.03,0-0.07,0-0.1-0.01  c-0.03,0-0.06-0.01-0.09-0.01c-0.03-0.01-0.06-0.01-0.08-0.02c-0.03-0.01-0.05-0.01-0.07-0.02V60.84z"></path>	<path class="st2" d="M8.29,60.3H8.13v-0.07c0.03,0,0.05-0.01,0.07-0.01c0.02-0.01,0.04-0.01,0.06-0.02s0.03-0.02,0.04-0.03  c0.01-0.02,0.02-0.04,0.02-0.07l0.01-0.12l0.16-0.03v0.26h0.35L8.82,60.3H8.48v0.57c0,0.02,0.01,0.03,0.02,0.05  c0.01,0.01,0.03,0.02,0.05,0.03c0.02,0.01,0.04,0.02,0.06,0.02c0.02,0,0.04,0.01,0.06,0.01c0.01,0,0.02,0,0.04,0  c0.01,0,0.03,0,0.04-0.01s0.02-0.01,0.04-0.01c0.01,0,0.02-0.01,0.03-0.01h0.03v0.07c-0.01,0.01-0.02,0.01-0.04,0.02  c-0.02,0.01-0.04,0.02-0.06,0.03c-0.03,0.01-0.05,0.02-0.08,0.02c-0.03,0.01-0.06,0.01-0.09,0.01c-0.04,0-0.07,0-0.1-0.01  c-0.03-0.01-0.06-0.02-0.08-0.03C8.35,61.04,8.33,61.02,8.31,61c-0.01-0.02-0.02-0.05-0.02-0.07V60.3z"></path>	<path class="st2" d="M8.96,61.02l0.14-0.03c0.01,0,0.02-0.01,0.03-0.01c0.01-0.01,0.01-0.01,0.01-0.03v-0.56  c0-0.01,0-0.02-0.01-0.03c-0.01-0.01-0.02-0.01-0.03-0.02L8.96,60.3v-0.06l0.36-0.04v0.75c0,0.01,0.01,0.02,0.01,0.03  c0.01,0.01,0.02,0.01,0.03,0.01l0.14,0.03v0.06H8.96V61.02z M9.21,60.04c-0.02,0-0.03,0-0.05-0.01c-0.02-0.01-0.03-0.01-0.04-0.02  C9.11,60,9.1,59.99,9.09,59.98c-0.01-0.01-0.01-0.03-0.01-0.04s0-0.03,0.01-0.04c0.01-0.01,0.02-0.03,0.03-0.03  s0.03-0.02,0.04-0.02c0.02-0.01,0.03-0.01,0.05-0.01c0.02,0,0.04,0,0.06,0.01c0.02,0.01,0.03,0.01,0.04,0.02  c0.01,0.01,0.02,0.02,0.03,0.03c0.01,0.01,0.01,0.03,0.01,0.04c0,0.02,0,0.03-0.01,0.05C9.33,59.99,9.32,60,9.31,60.01  c-0.01,0.01-0.03,0.02-0.04,0.02C9.25,60.04,9.23,60.04,9.21,60.04L9.21,60.04z"></path>	<path class="st2" d="M9.76,60.3H9.6v-0.07c0.03,0,0.05-0.01,0.07-0.01c0.02-0.01,0.04-0.01,0.06-0.02  c0.02-0.01,0.03-0.02,0.04-0.03c0.01-0.02,0.01-0.04,0.02-0.07l0.01-0.12l0.16-0.03v0.26h0.35L10.3,60.3H9.95v0.57  c0,0.02,0.01,0.03,0.02,0.05c0.01,0.01,0.03,0.02,0.05,0.03c0.02,0.01,0.04,0.02,0.06,0.02c0.02,0,0.04,0.01,0.06,0.01  c0.01,0,0.02,0,0.04,0c0.01,0,0.03,0,0.04-0.01c0.01,0,0.03-0.01,0.04-0.01c0.01,0,0.02-0.01,0.03-0.01h0.03v0.07  c-0.01,0.01-0.02,0.01-0.04,0.02c-0.02,0.01-0.04,0.02-0.07,0.03c-0.02,0.01-0.05,0.02-0.08,0.02c-0.03,0.01-0.06,0.01-0.09,0.01  c-0.04,0-0.07,0-0.1-0.01c-0.03-0.01-0.06-0.02-0.08-0.03C9.82,61.04,9.8,61.02,9.79,61c-0.02-0.02-0.02-0.05-0.02-0.07V60.3z"></path>	<path class="st2" d="M10.56,60.38c0-0.01,0-0.02-0.01-0.03c-0.01-0.01-0.02-0.01-0.03-0.02l-0.11-0.04v-0.06l0.33-0.04v0.54  c0,0.04,0,0.07,0.01,0.1c0.01,0.03,0.02,0.06,0.03,0.07c0.02,0.02,0.04,0.04,0.07,0.05c0.03,0.01,0.07,0.02,0.11,0.02  c0.02,0,0.04,0,0.06,0c0.02,0,0.04-0.01,0.07-0.01c0.02-0.01,0.04-0.01,0.06-0.03c0.02-0.01,0.04-0.02,0.05-0.04v-0.51  c0-0.01,0-0.02-0.01-0.03c-0.01-0.01-0.02-0.01-0.03-0.01l-0.11-0.04v-0.06l0.34-0.05v0.72c0,0.01,0,0.02,0.01,0.03  c0.01,0.01,0.02,0.01,0.03,0.02l0.11,0.04v0.06l-0.32,0.05h-0.01v-0.14h-0.01c-0.03,0.03-0.06,0.06-0.08,0.08s-0.06,0.03-0.08,0.04  c-0.03,0.01-0.06,0.02-0.08,0.02c-0.03,0-0.05,0.01-0.08,0.01c-0.04,0-0.09-0.01-0.13-0.02c-0.04-0.01-0.07-0.03-0.1-0.05  c-0.03-0.02-0.05-0.05-0.07-0.09c-0.02-0.04-0.02-0.08-0.02-0.13V60.38z"></path>	<path class="st2" d="M11.81,60.3h-0.16v-0.07c0.03,0,0.05-0.01,0.07-0.01c0.02-0.01,0.04-0.01,0.06-0.02  c0.02-0.01,0.03-0.02,0.04-0.03c0.01-0.02,0.01-0.04,0.02-0.07l0.01-0.12L12,59.95v0.26h0.35l-0.01,0.09H12v0.57  c0,0.02,0.01,0.03,0.02,0.05c0.01,0.01,0.03,0.02,0.05,0.03c0.02,0.01,0.04,0.02,0.06,0.02c0.02,0,0.04,0.01,0.06,0.01  c0.01,0,0.02,0,0.04,0s0.03,0,0.04-0.01c0.01,0,0.03-0.01,0.04-0.01c0.01,0,0.02-0.01,0.03-0.01h0.03v0.07  c-0.01,0.01-0.02,0.01-0.04,0.02c-0.02,0.01-0.04,0.02-0.07,0.03c-0.02,0.01-0.05,0.02-0.08,0.02c-0.03,0.01-0.06,0.01-0.09,0.01  c-0.04,0-0.07,0-0.1-0.01c-0.03-0.01-0.06-0.02-0.08-0.03c-0.03-0.01-0.04-0.03-0.06-0.05c-0.02-0.02-0.02-0.05-0.02-0.07V60.3z"></path>	<path class="st2" d="M13.39,60.87v0.09c-0.02,0.02-0.05,0.03-0.08,0.05c-0.03,0.02-0.06,0.03-0.1,0.04  c-0.03,0.01-0.07,0.02-0.11,0.03c-0.04,0.01-0.08,0.01-0.12,0.01c-0.07,0-0.13-0.01-0.19-0.03c-0.06-0.02-0.11-0.05-0.15-0.09  c-0.04-0.04-0.08-0.08-0.1-0.14c-0.02-0.06-0.04-0.12-0.04-0.19c0-0.07,0.01-0.13,0.03-0.18c0.02-0.06,0.06-0.11,0.1-0.15  c0.04-0.04,0.09-0.07,0.15-0.1c0.06-0.03,0.12-0.04,0.19-0.04c0.07,0,0.13,0.01,0.18,0.03c0.05,0.02,0.1,0.04,0.13,0.08  c0.04,0.03,0.06,0.07,0.08,0.11c0.02,0.04,0.03,0.09,0.03,0.13c0,0.01,0,0.01,0,0.02c0,0.01,0,0.01,0,0.02c0,0.01,0,0.02,0,0.02  c0,0.01,0,0.02,0,0.02h-0.7c0,0.12,0.03,0.21,0.09,0.27c0.06,0.06,0.15,0.09,0.26,0.09c0.04,0,0.07,0,0.1-0.01  c0.03-0.01,0.06-0.02,0.09-0.03c0.03-0.01,0.05-0.02,0.08-0.03c0.02-0.01,0.04-0.02,0.06-0.03H13.39z M13.19,60.53  c0-0.04-0.01-0.08-0.01-0.11c-0.01-0.03-0.02-0.06-0.04-0.08c-0.02-0.02-0.04-0.04-0.07-0.05c-0.03-0.01-0.06-0.02-0.11-0.02  c-0.04,0-0.07,0.01-0.1,0.02c-0.03,0.01-0.06,0.03-0.08,0.05c-0.02,0.02-0.04,0.05-0.06,0.08c-0.01,0.03-0.02,0.07-0.03,0.11H13.19  z"></path>	<path class="st2" d="M14.66,61.1c-0.07,0-0.14-0.01-0.2-0.03c-0.06-0.02-0.11-0.05-0.15-0.09c-0.04-0.04-0.07-0.09-0.1-0.14  c-0.02-0.06-0.03-0.12-0.03-0.19c0-0.06,0.01-0.12,0.03-0.18c0.02-0.06,0.06-0.1,0.1-0.14c0.04-0.04,0.09-0.07,0.15-0.1  c0.06-0.02,0.13-0.03,0.2-0.03c0.08,0,0.15,0.01,0.21,0.04c0.06,0.03,0.11,0.06,0.15,0.1c0.04,0.04,0.07,0.09,0.09,0.15  c0.02,0.06,0.03,0.11,0.03,0.17c0,0.06-0.01,0.12-0.03,0.18c-0.02,0.06-0.06,0.11-0.1,0.15c-0.04,0.04-0.09,0.07-0.15,0.1  C14.81,61.09,14.74,61.1,14.66,61.1L14.66,61.1z M14.68,61.01c0.06,0,0.1-0.01,0.14-0.03c0.03-0.02,0.06-0.05,0.08-0.08  c0.02-0.03,0.04-0.07,0.04-0.11c0.01-0.04,0.01-0.08,0.01-0.12c0-0.05-0.01-0.09-0.02-0.14c-0.01-0.05-0.03-0.09-0.05-0.13  c-0.02-0.03-0.06-0.06-0.09-0.09c-0.04-0.02-0.08-0.03-0.14-0.03c-0.04,0-0.07,0.01-0.09,0.02c-0.03,0.01-0.05,0.02-0.07,0.04  c-0.02,0.02-0.04,0.04-0.05,0.06c-0.01,0.02-0.03,0.05-0.03,0.07c-0.01,0.03-0.02,0.05-0.02,0.08c0,0.03-0.01,0.05-0.01,0.08  c0,0.03,0,0.06,0.01,0.09c0,0.03,0.01,0.06,0.02,0.09c0.01,0.03,0.02,0.06,0.04,0.08c0.02,0.03,0.03,0.05,0.06,0.07  c0.02,0.02,0.05,0.03,0.08,0.04C14.61,61.01,14.64,61.01,14.68,61.01L14.68,61.01z"></path>	<path class="st2" d="M15.34,61.02l0.13-0.03c0.01,0,0.02-0.01,0.03-0.01c0.01-0.01,0.01-0.01,0.01-0.03v-0.61h-0.18l0-0.09h0.18  c0-0.08,0.02-0.15,0.04-0.2c0.02-0.06,0.05-0.1,0.08-0.13c0.03-0.03,0.08-0.06,0.12-0.07c0.05-0.02,0.1-0.02,0.16-0.02  c0.01,0,0.02,0,0.04,0c0.02,0,0.03,0,0.05,0.01c0.02,0,0.03,0,0.05,0.01c0.02,0,0.03,0.01,0.04,0.01l-0.01,0.15h-0.04  c-0.01,0-0.03-0.01-0.04-0.01c-0.02-0.01-0.03-0.01-0.05-0.02c-0.02-0.01-0.03-0.01-0.05-0.01c-0.02-0.01-0.04-0.01-0.06-0.01  c-0.04,0-0.07,0.01-0.09,0.01c-0.02,0.01-0.04,0.02-0.05,0.03c-0.01,0.01-0.01,0.02-0.01,0.03c0,0.02-0.01,0.03-0.01,0.06  c0,0.02,0,0.05-0.01,0.08c0,0.03,0,0.06,0,0.1h0.28l0,0.09h-0.28v0.61c0,0.01,0.01,0.02,0.01,0.03c0.01,0.01,0.02,0.01,0.03,0.01  l0.15,0.03v0.06h-0.54V61.02z"></path>	<path class="st2" d="M17.68,60.68c0-0.01,0-0.02-0.01-0.03c-0.01-0.01-0.02-0.01-0.03-0.01l-0.18-0.04v-0.06h0.56v0.06l-0.12,0.04  c-0.01,0-0.02,0.01-0.02,0.01c-0.01,0.01-0.01,0.02-0.01,0.03v0.13c0,0.05,0,0.09,0,0.13c0,0.04,0,0.06,0,0.08  c-0.03,0.01-0.07,0.02-0.11,0.03c-0.04,0.01-0.08,0.02-0.13,0.03c-0.04,0.01-0.09,0.01-0.14,0.02c-0.05,0.01-0.09,0.01-0.14,0.01  c-0.09,0-0.17-0.01-0.25-0.04c-0.08-0.03-0.14-0.07-0.2-0.12c-0.06-0.05-0.11-0.12-0.14-0.19c-0.03-0.08-0.05-0.16-0.05-0.26  c0-0.09,0.02-0.18,0.05-0.25c0.03-0.07,0.08-0.14,0.14-0.19c0.06-0.05,0.13-0.09,0.21-0.12c0.08-0.03,0.17-0.04,0.27-0.04  c0.06,0,0.11,0,0.16,0.01c0.05,0,0.09,0.01,0.13,0.01c0.04,0.01,0.07,0.01,0.11,0.02c0.03,0.01,0.06,0.01,0.08,0.02v0.3h-0.11  l-0.03-0.17c0-0.01-0.01-0.02-0.02-0.02c-0.01-0.01-0.02-0.01-0.03-0.01c-0.02-0.01-0.04-0.02-0.07-0.02  c-0.02-0.01-0.05-0.01-0.08-0.02C17.51,60,17.48,60,17.45,60c-0.03,0-0.06,0-0.08,0c-0.07,0-0.12,0.01-0.18,0.03  c-0.05,0.02-0.1,0.05-0.14,0.09c-0.04,0.04-0.07,0.09-0.09,0.15c-0.02,0.06-0.03,0.13-0.03,0.21c0,0.08,0.01,0.15,0.03,0.22  c0.02,0.07,0.05,0.12,0.09,0.17c0.04,0.05,0.09,0.08,0.15,0.11c0.06,0.03,0.13,0.04,0.2,0.04c0.03,0,0.06,0,0.09-0.01  c0.03,0,0.05-0.01,0.08-0.01c0.02-0.01,0.04-0.01,0.06-0.02c0.02-0.01,0.03-0.01,0.04-0.01V60.68z"></path>	<path class="st2" d="M18.16,61.02l0.14-0.03c0.01,0,0.02-0.01,0.03-0.01c0.01-0.01,0.01-0.01,0.01-0.03v-0.96  c0-0.01,0-0.02-0.01-0.03c-0.01-0.01-0.02-0.01-0.03-0.02l-0.14-0.05v-0.06l0.37-0.01v1.12c0,0.01,0,0.02,0.01,0.03  c0.01,0.01,0.02,0.01,0.03,0.01l0.14,0.03v0.06h-0.54V61.02z"></path>	<path class="st2" d="M19.33,61.1c-0.07,0-0.14-0.01-0.2-0.03c-0.06-0.02-0.11-0.05-0.15-0.09c-0.04-0.04-0.08-0.09-0.1-0.14  c-0.02-0.06-0.03-0.12-0.03-0.19c0-0.06,0.01-0.12,0.03-0.18c0.02-0.06,0.06-0.1,0.1-0.14c0.04-0.04,0.09-0.07,0.15-0.1  c0.06-0.02,0.13-0.03,0.2-0.03c0.08,0,0.15,0.01,0.21,0.04c0.06,0.03,0.11,0.06,0.15,0.1c0.04,0.04,0.07,0.09,0.09,0.15  c0.02,0.06,0.03,0.11,0.03,0.17c0,0.06-0.01,0.12-0.03,0.18c-0.02,0.06-0.06,0.11-0.1,0.15c-0.04,0.04-0.09,0.07-0.15,0.1  C19.48,61.09,19.41,61.1,19.33,61.1L19.33,61.1z M19.35,61.01c0.05,0,0.1-0.01,0.13-0.03c0.03-0.02,0.06-0.05,0.08-0.08  c0.02-0.03,0.04-0.07,0.04-0.11c0.01-0.04,0.01-0.08,0.01-0.12c0-0.05-0.01-0.09-0.02-0.14c-0.01-0.05-0.03-0.09-0.05-0.13  c-0.02-0.03-0.06-0.06-0.09-0.09c-0.04-0.02-0.08-0.03-0.13-0.03c-0.04,0-0.07,0.01-0.09,0.02c-0.03,0.01-0.05,0.02-0.07,0.04  c-0.02,0.02-0.04,0.04-0.05,0.06c-0.01,0.02-0.02,0.05-0.03,0.07c-0.01,0.03-0.02,0.05-0.02,0.08c0,0.03-0.01,0.05-0.01,0.08  c0,0.03,0,0.06,0.01,0.09c0,0.03,0.01,0.06,0.02,0.09c0.01,0.03,0.02,0.06,0.04,0.08c0.02,0.03,0.03,0.05,0.06,0.07  c0.02,0.02,0.05,0.03,0.08,0.04C19.28,61.01,19.31,61.01,19.35,61.01L19.35,61.01z"></path>	<path class="st2" d="M20.12,59.99c0-0.01,0-0.02-0.01-0.03c-0.01-0.01-0.02-0.01-0.03-0.02l-0.12-0.05v-0.06l0.34-0.02v0.46v0.05  c0.03-0.03,0.06-0.06,0.09-0.08c0.03-0.02,0.06-0.03,0.09-0.04c0.03-0.01,0.06-0.02,0.08-0.02c0.03,0,0.05,0,0.06,0  c0.06,0,0.12,0.01,0.17,0.03c0.05,0.02,0.09,0.05,0.12,0.09c0.03,0.04,0.06,0.08,0.08,0.13c0.02,0.05,0.03,0.11,0.03,0.17  c0,0.07-0.01,0.13-0.03,0.19c-0.02,0.06-0.05,0.11-0.1,0.16c-0.04,0.04-0.09,0.08-0.15,0.11c-0.06,0.03-0.13,0.04-0.21,0.04  c-0.04,0-0.07,0-0.11,0c-0.04,0-0.07-0.01-0.11-0.02c-0.03-0.01-0.07-0.01-0.1-0.02c-0.03-0.01-0.07-0.02-0.09-0.03V59.99z   M20.3,60.94c0.01,0.01,0.03,0.02,0.05,0.03c0.02,0.01,0.04,0.02,0.06,0.02c0.02,0.01,0.04,0.01,0.06,0.02  c0.02,0.01,0.04,0.01,0.05,0.01c0.05,0,0.1-0.01,0.14-0.03c0.04-0.02,0.07-0.04,0.1-0.08c0.03-0.03,0.04-0.07,0.06-0.11  c0.01-0.04,0.02-0.09,0.02-0.13c0-0.05-0.01-0.1-0.02-0.14c-0.01-0.04-0.03-0.08-0.05-0.11c-0.03-0.03-0.06-0.06-0.09-0.08  c-0.04-0.02-0.08-0.03-0.14-0.03c-0.02,0-0.03,0-0.05,0c-0.02,0-0.04,0.01-0.06,0.02c-0.02,0.01-0.04,0.02-0.06,0.03  c-0.02,0.01-0.04,0.03-0.05,0.04V60.94z"></path>	<path class="st2" d="M21.86,60.95c-0.03,0.03-0.06,0.06-0.09,0.08c-0.03,0.02-0.06,0.03-0.09,0.04s-0.06,0.02-0.09,0.02  c-0.03,0-0.06,0.01-0.08,0.01c-0.04,0-0.08-0.01-0.12-0.02c-0.03-0.01-0.07-0.03-0.09-0.05c-0.02-0.02-0.04-0.05-0.06-0.08  c-0.01-0.03-0.02-0.06-0.02-0.09c0-0.04,0.01-0.07,0.02-0.1c0.01-0.03,0.03-0.06,0.06-0.08c0.03-0.02,0.05-0.04,0.09-0.06  c0.03-0.02,0.07-0.03,0.1-0.04c0.04-0.01,0.07-0.02,0.11-0.02c0.04,0,0.07-0.01,0.1-0.01c0.01,0,0.02,0,0.03,0  c0.01,0,0.03,0,0.04,0c0.02,0,0.03,0,0.04,0c0.01,0,0.02,0,0.03,0l0-0.12c0-0.03-0.01-0.06-0.01-0.08  c-0.01-0.02-0.02-0.04-0.04-0.05c-0.02-0.01-0.04-0.02-0.06-0.03c-0.02-0.01-0.05-0.01-0.08-0.01c-0.03,0-0.06,0.01-0.09,0.02  c-0.03,0.01-0.06,0.02-0.09,0.04c-0.03,0.01-0.06,0.03-0.08,0.04c-0.02,0.01-0.04,0.03-0.06,0.04H21.3l-0.01-0.16  c0.03-0.01,0.05-0.02,0.08-0.03c0.03-0.01,0.06-0.02,0.09-0.02c0.03-0.01,0.06-0.01,0.1-0.02c0.03-0.01,0.07-0.01,0.12-0.01  c0.04,0,0.09,0,0.13,0.01c0.04,0.01,0.08,0.02,0.12,0.04c0.03,0.02,0.06,0.05,0.08,0.09c0.02,0.03,0.03,0.08,0.03,0.14l0,0.45  c0,0.01,0,0.02,0.01,0.03c0.01,0.01,0.01,0.02,0.02,0.02c0.01,0.01,0.02,0.01,0.03,0.01c0.01,0,0.02,0.01,0.03,0.01  c0.01,0,0.01,0,0.02,0c0.01,0,0.01,0,0.02-0.01c0.01,0,0.02-0.01,0.02-0.01c0.01,0,0.02-0.01,0.02-0.01h0.02v0.07  c-0.01,0.01-0.02,0.01-0.04,0.02c-0.02,0.01-0.03,0.02-0.05,0.02c-0.02,0.01-0.04,0.01-0.05,0.02c-0.02,0.01-0.04,0.01-0.05,0.01  c-0.03,0-0.05,0-0.07-0.01c-0.02-0.01-0.04-0.02-0.06-0.03c-0.02-0.01-0.03-0.03-0.03-0.04c-0.01-0.02-0.01-0.04-0.01-0.07H21.86z   M21.86,60.64c-0.06,0-0.12,0-0.18,0.01c-0.05,0.01-0.1,0.02-0.14,0.03c-0.04,0.01-0.07,0.03-0.09,0.06  c-0.02,0.02-0.03,0.06-0.03,0.09c0,0.03,0.01,0.06,0.02,0.08c0.01,0.02,0.03,0.04,0.04,0.05c0.02,0.01,0.04,0.02,0.06,0.03  c0.02,0.01,0.04,0.01,0.06,0.01c0.02,0,0.04,0,0.07-0.01s0.05-0.01,0.07-0.02c0.02-0.01,0.04-0.02,0.07-0.03  c0.02-0.01,0.04-0.03,0.05-0.04V60.64z"></path>	<path class="st2" d="M22.31,61.02l0.14-0.03c0.01,0,0.02-0.01,0.03-0.01c0.01-0.01,0.01-0.01,0.01-0.03v-0.96  c0-0.01,0-0.02-0.01-0.03c-0.01-0.01-0.02-0.01-0.03-0.02l-0.14-0.05v-0.06l0.37-0.01v1.12c0,0.01,0,0.02,0.01,0.03  c0.01,0.01,0.02,0.01,0.03,0.01l0.14,0.03v0.06h-0.54V61.02z"></path>	<path class="st2" d="M24.75,60.82v0.11c-0.03,0.02-0.06,0.04-0.09,0.06c-0.03,0.02-0.07,0.04-0.11,0.06  c-0.04,0.02-0.09,0.03-0.13,0.04c-0.05,0.01-0.09,0.02-0.14,0.02c-0.1,0-0.19-0.01-0.27-0.04c-0.08-0.03-0.15-0.07-0.21-0.12  c-0.06-0.05-0.1-0.12-0.13-0.19c-0.03-0.08-0.05-0.16-0.05-0.26c0-0.09,0.02-0.18,0.05-0.25c0.03-0.07,0.08-0.14,0.14-0.19  c0.06-0.05,0.13-0.09,0.21-0.12c0.08-0.03,0.17-0.04,0.26-0.04c0.03,0,0.07,0,0.11,0.01c0.04,0,0.08,0.01,0.12,0.02  c0.04,0.01,0.08,0.01,0.12,0.02c0.04,0.01,0.07,0.01,0.1,0.02v0.3h-0.11l-0.03-0.17c0-0.01-0.01-0.01-0.02-0.02  c-0.01-0.01-0.02-0.01-0.03-0.02c-0.02-0.01-0.04-0.02-0.06-0.02c-0.02-0.01-0.04-0.01-0.07-0.02C24.38,60,24.35,60,24.33,60  c-0.02,0-0.05,0-0.08,0c-0.06,0-0.12,0.01-0.17,0.03c-0.05,0.02-0.1,0.05-0.14,0.09c-0.04,0.04-0.07,0.09-0.09,0.15  c-0.02,0.06-0.03,0.13-0.03,0.21c0,0.17,0.04,0.3,0.13,0.38c0.09,0.09,0.21,0.13,0.37,0.13c0.04,0,0.09-0.01,0.13-0.02  c0.04-0.01,0.07-0.02,0.11-0.04c0.03-0.02,0.06-0.03,0.08-0.05c0.02-0.02,0.05-0.03,0.06-0.05H24.75z"></path>	<path class="st2" d="M25.82,60.87v0.09c-0.02,0.02-0.05,0.03-0.08,0.05c-0.03,0.02-0.06,0.03-0.1,0.04  c-0.04,0.01-0.07,0.02-0.11,0.03c-0.04,0.01-0.08,0.01-0.12,0.01c-0.07,0-0.13-0.01-0.19-0.03s-0.11-0.05-0.15-0.09  c-0.04-0.04-0.08-0.08-0.1-0.14c-0.03-0.06-0.04-0.12-0.04-0.19c0-0.07,0.01-0.13,0.03-0.18c0.02-0.06,0.06-0.11,0.1-0.15  c0.04-0.04,0.09-0.07,0.15-0.1c0.06-0.03,0.12-0.04,0.19-0.04c0.07,0,0.13,0.01,0.18,0.03c0.05,0.02,0.09,0.04,0.13,0.08  c0.04,0.03,0.06,0.07,0.08,0.11c0.02,0.04,0.03,0.09,0.03,0.13c0,0.01,0,0.01,0,0.02c0,0.01,0,0.01,0,0.02c0,0.01,0,0.02,0,0.02  c0,0.01,0,0.02,0,0.02h-0.7c0,0.12,0.03,0.21,0.09,0.27c0.06,0.06,0.15,0.09,0.26,0.09c0.04,0,0.07,0,0.1-0.01  c0.03-0.01,0.06-0.02,0.09-0.03c0.03-0.01,0.05-0.02,0.08-0.03c0.02-0.01,0.04-0.02,0.06-0.03H25.82z M25.63,60.53  c0-0.04,0-0.08-0.01-0.11c-0.01-0.03-0.02-0.06-0.04-0.08c-0.02-0.02-0.04-0.04-0.07-0.05c-0.03-0.01-0.06-0.02-0.11-0.02  c-0.04,0-0.07,0.01-0.1,0.02c-0.03,0.01-0.06,0.03-0.08,0.05c-0.02,0.02-0.04,0.05-0.06,0.08c-0.02,0.03-0.02,0.07-0.03,0.11H25.63  z"></path>	<path class="st2" d="M26.01,61.02l0.11-0.03c0.01,0,0.02-0.01,0.03-0.01c0.01-0.01,0.01-0.01,0.01-0.03v-0.56  c0-0.01,0-0.02-0.01-0.03c-0.01-0.01-0.02-0.01-0.03-0.02l-0.12-0.04v-0.06l0.33-0.04v0.19h0.01c0.03-0.03,0.06-0.07,0.08-0.09  c0.03-0.03,0.05-0.04,0.07-0.06c0.03-0.02,0.05-0.03,0.08-0.03c0.02-0.01,0.05-0.01,0.07-0.01c0.02,0,0.03,0,0.05,0  c0.02,0,0.03,0,0.04,0.01c0.02,0,0.03,0.01,0.04,0.01c0.01,0.01,0.03,0.01,0.04,0.02v0.2h-0.11l-0.03-0.06  c0-0.01-0.01-0.01-0.02-0.02c-0.01-0.01-0.02-0.01-0.03-0.01c-0.01-0.01-0.02-0.01-0.03-0.01c-0.01,0-0.02,0-0.03,0  c-0.03,0-0.05,0.01-0.07,0.01c-0.02,0.01-0.04,0.02-0.06,0.03c-0.02,0.01-0.03,0.03-0.05,0.04c-0.02,0.02-0.03,0.03-0.05,0.05v0.49  c0,0.01,0,0.02,0.01,0.03c0.01,0.01,0.02,0.01,0.03,0.01l0.14,0.03v0.06h-0.52V61.02z"></path>	<path class="st2" d="M27.11,60.3h-0.16v-0.07c0.03,0,0.05-0.01,0.07-0.01c0.02-0.01,0.04-0.01,0.06-0.02  c0.01-0.01,0.03-0.02,0.04-0.03c0.01-0.02,0.01-0.04,0.02-0.07l0.01-0.12l0.16-0.03v0.26h0.35l-0.01,0.09H27.3v0.57  c0,0.02,0.01,0.03,0.02,0.05c0.01,0.01,0.03,0.02,0.05,0.03c0.02,0.01,0.04,0.02,0.06,0.02s0.04,0.01,0.06,0.01  c0.01,0,0.02,0,0.04,0c0.01,0,0.03,0,0.04-0.01c0.01,0,0.03-0.01,0.04-0.01c0.01,0,0.02-0.01,0.03-0.01h0.03v0.07  c-0.01,0.01-0.02,0.01-0.04,0.02c-0.02,0.01-0.04,0.02-0.07,0.03c-0.02,0.01-0.05,0.02-0.08,0.02c-0.03,0.01-0.06,0.01-0.09,0.01  c-0.04,0-0.07,0-0.1-0.01c-0.03-0.01-0.06-0.02-0.08-0.03c-0.02-0.01-0.04-0.03-0.06-0.05c-0.02-0.02-0.02-0.05-0.02-0.07V60.3z"></path>	<path class="st2" d="M27.78,61.02l0.14-0.03c0.01,0,0.02-0.01,0.03-0.01c0.01-0.01,0.01-0.01,0.01-0.03v-0.56  c0-0.01,0-0.02-0.01-0.03c-0.01-0.01-0.02-0.01-0.03-0.02l-0.14-0.04v-0.06l0.36-0.04v0.75c0,0.01,0,0.02,0.01,0.03  c0.01,0.01,0.02,0.01,0.03,0.01l0.14,0.03v0.06h-0.54V61.02z M28.03,60.04c-0.02,0-0.03,0-0.05-0.01  c-0.02-0.01-0.03-0.01-0.04-0.02c-0.01-0.01-0.02-0.02-0.03-0.03c-0.01-0.01-0.01-0.03-0.01-0.04s0-0.03,0.01-0.04  c0.01-0.01,0.02-0.03,0.03-0.03s0.03-0.02,0.04-0.02c0.02-0.01,0.03-0.01,0.05-0.01c0.02,0,0.04,0,0.06,0.01  c0.02,0.01,0.03,0.01,0.04,0.02c0.01,0.01,0.02,0.02,0.03,0.03c0.01,0.01,0.01,0.03,0.01,0.04c0,0.02-0.01,0.03-0.01,0.05  c-0.01,0.02-0.02,0.03-0.03,0.04c-0.01,0.01-0.03,0.02-0.04,0.02C28.07,60.04,28.05,60.04,28.03,60.04L28.03,60.04z"></path>	<path class="st2" d="M28.46,61.02l0.13-0.03c0.01,0,0.02-0.01,0.03-0.01c0.01-0.01,0.01-0.01,0.01-0.03v-0.61h-0.18l0-0.09h0.18  c0.01-0.08,0.02-0.15,0.04-0.2c0.02-0.06,0.05-0.1,0.08-0.13c0.03-0.03,0.08-0.06,0.12-0.07c0.05-0.02,0.1-0.02,0.16-0.02  c0.01,0,0.02,0,0.04,0c0.02,0,0.03,0,0.05,0.01c0.02,0,0.03,0.01,0.05,0.01c0.02,0,0.03,0.01,0.04,0.01l-0.01,0.15h-0.04  c-0.01,0-0.03-0.01-0.04-0.02c-0.02-0.01-0.03-0.01-0.05-0.01c-0.02-0.01-0.03-0.01-0.05-0.01c-0.02-0.01-0.04-0.01-0.06-0.01  c-0.03,0-0.06,0.01-0.08,0.01c-0.02,0.01-0.04,0.02-0.05,0.03c0,0.01-0.01,0.02-0.01,0.03c0,0.02-0.01,0.03-0.01,0.06  c0,0.02-0.01,0.05-0.01,0.08c0,0.03,0,0.06,0,0.1h0.28l-0.01,0.09h-0.28v0.61c0,0.01,0,0.02,0.01,0.03  c0.01,0.01,0.02,0.01,0.03,0.01L29,61.02v0.06h-0.54V61.02z M29.26,61.02l0.14-0.03c0.01,0,0.02-0.01,0.03-0.01  c0.01-0.01,0.01-0.01,0.01-0.03v-0.56c0-0.01,0-0.02-0.01-0.03c-0.01-0.01-0.02-0.01-0.03-0.02l-0.14-0.04v-0.06l0.36-0.04v0.75  c0,0.01,0,0.02,0.01,0.03c0.01,0.01,0.02,0.01,0.02,0.01l0.14,0.03v0.06h-0.54V61.02z M29.51,60.04c-0.02,0-0.03,0-0.05-0.01  c-0.02-0.01-0.03-0.01-0.04-0.02c-0.01-0.01-0.02-0.02-0.03-0.03c-0.01-0.01-0.01-0.03-0.01-0.04c0-0.02,0-0.03,0.01-0.05  c0.01-0.01,0.02-0.02,0.03-0.03c0.01-0.01,0.03-0.02,0.04-0.02c0.02-0.01,0.03-0.01,0.05-0.01c0.02,0,0.04,0,0.06,0.01  c0.02,0,0.03,0.01,0.04,0.02c0.01,0.01,0.02,0.02,0.03,0.03c0.01,0.01,0.01,0.03,0.01,0.04c0,0.02,0,0.03-0.01,0.05  c-0.01,0.02-0.02,0.03-0.03,0.04c-0.01,0.01-0.03,0.02-0.04,0.02C29.55,60.03,29.53,60.04,29.51,60.04L29.51,60.04z"></path>	<path class="st2" d="M30.8,60.87v0.09c-0.02,0.02-0.05,0.03-0.08,0.05c-0.03,0.02-0.06,0.03-0.09,0.05  c-0.03,0.01-0.07,0.02-0.11,0.03c-0.04,0.01-0.08,0.01-0.12,0.01c-0.07,0-0.14-0.01-0.19-0.03c-0.06-0.02-0.11-0.05-0.15-0.09  c-0.04-0.04-0.07-0.09-0.09-0.14c-0.02-0.06-0.03-0.11-0.03-0.18c0-0.05,0.01-0.09,0.02-0.13s0.03-0.08,0.06-0.11  c0.02-0.04,0.05-0.07,0.09-0.09c0.03-0.03,0.07-0.05,0.11-0.07c0.04-0.02,0.08-0.03,0.12-0.05c0.04-0.01,0.09-0.02,0.13-0.02  c0.04,0,0.07,0,0.1,0.01c0.03,0.01,0.06,0.01,0.08,0.02c0.02,0.01,0.04,0.02,0.06,0.02s0.03,0.01,0.04,0.02l-0.01,0.16h-0.04  c-0.02-0.01-0.05-0.03-0.07-0.04c-0.03-0.02-0.05-0.03-0.08-0.04c-0.03-0.01-0.05-0.02-0.08-0.03c-0.03-0.01-0.06-0.01-0.1-0.01  c-0.01,0-0.02,0-0.04,0c-0.01,0-0.03,0.01-0.04,0.01c-0.01,0-0.03,0.01-0.04,0.02c-0.01,0.01-0.02,0.02-0.03,0.02  c-0.01,0.01-0.02,0.02-0.03,0.03c-0.01,0.02-0.02,0.03-0.03,0.05c-0.01,0.02-0.02,0.05-0.02,0.08s-0.01,0.07-0.01,0.11  c0,0.06,0.01,0.11,0.02,0.15c0.02,0.04,0.03,0.08,0.06,0.11c0.03,0.03,0.06,0.05,0.1,0.07c0.04,0.02,0.09,0.02,0.14,0.02  c0.03,0,0.06,0,0.09-0.01c0.03-0.01,0.06-0.02,0.08-0.03c0.03-0.01,0.05-0.02,0.07-0.04c0.02-0.01,0.04-0.02,0.06-0.03H30.8z"></path>	<path class="st2" d="M31.6,60.95c-0.03,0.03-0.05,0.06-0.08,0.08c-0.03,0.02-0.06,0.03-0.09,0.04c-0.03,0.01-0.06,0.02-0.09,0.02  c-0.03,0-0.06,0.01-0.08,0.01c-0.04,0-0.08-0.01-0.12-0.02c-0.04-0.01-0.07-0.03-0.09-0.05C31.01,61,31,60.98,30.98,60.95  c-0.01-0.03-0.02-0.06-0.02-0.09c0-0.04,0.01-0.07,0.02-0.1c0.02-0.03,0.04-0.06,0.06-0.08c0.03-0.02,0.06-0.04,0.09-0.06  c0.03-0.02,0.07-0.03,0.1-0.04c0.03-0.01,0.07-0.02,0.11-0.02c0.04,0,0.07-0.01,0.1-0.01c0.01,0,0.02,0,0.03,0  c0.01,0,0.03,0,0.04,0c0.02,0,0.03,0,0.04,0c0.01,0,0.02,0,0.03,0l0-0.12c0-0.03-0.01-0.06-0.02-0.08  c-0.01-0.02-0.02-0.04-0.04-0.05c-0.02-0.01-0.03-0.02-0.06-0.03c-0.02-0.01-0.05-0.01-0.08-0.01c-0.03,0-0.06,0.01-0.09,0.02  c-0.03,0.01-0.06,0.02-0.09,0.04c-0.03,0.01-0.06,0.03-0.08,0.04c-0.03,0.01-0.05,0.03-0.06,0.04h-0.04l-0.01-0.16  c0.03-0.01,0.06-0.02,0.08-0.03c0.03-0.01,0.06-0.02,0.09-0.02c0.03-0.01,0.07-0.01,0.1-0.02c0.03-0.01,0.07-0.01,0.12-0.01  c0.04,0,0.09,0,0.13,0.01c0.04,0.01,0.08,0.02,0.12,0.04c0.03,0.02,0.06,0.05,0.08,0.09c0.02,0.03,0.03,0.08,0.03,0.14l0,0.45  c0,0.01,0,0.02,0.01,0.03c0.01,0.01,0.01,0.02,0.02,0.02c0.01,0.01,0.02,0.01,0.03,0.01c0.01,0,0.02,0.01,0.03,0.01  c0.01,0,0.01,0,0.02,0c0.01,0,0.02,0,0.02-0.01c0.01,0,0.02-0.01,0.02-0.01c0.01,0,0.02-0.01,0.02-0.01h0.02v0.07  c-0.01,0.01-0.02,0.01-0.04,0.02c-0.02,0.01-0.03,0.02-0.05,0.02c-0.02,0.01-0.04,0.01-0.06,0.02c-0.02,0.01-0.03,0.01-0.05,0.01  c-0.03,0-0.05,0-0.08-0.01c-0.02-0.01-0.04-0.02-0.06-0.03c-0.01-0.01-0.02-0.03-0.03-0.04c-0.01-0.02-0.01-0.04-0.01-0.07H31.6z   M31.6,60.64c-0.06,0-0.12,0-0.18,0.01c-0.06,0.01-0.1,0.02-0.14,0.03c-0.04,0.01-0.07,0.03-0.09,0.06  c-0.02,0.02-0.03,0.06-0.03,0.09c0,0.03,0.01,0.06,0.02,0.08c0.01,0.02,0.03,0.04,0.04,0.05c0.02,0.01,0.04,0.02,0.06,0.03  c0.02,0.01,0.04,0.01,0.06,0.01s0.04,0,0.07-0.01s0.05-0.01,0.07-0.02c0.02-0.01,0.04-0.02,0.06-0.03  c0.02-0.01,0.04-0.03,0.05-0.04V60.64z"></path>	<path class="st2" d="M32.2,60.3h-0.16v-0.07c0.03,0,0.05-0.01,0.07-0.01c0.02-0.01,0.04-0.01,0.06-0.02  c0.02-0.01,0.03-0.02,0.04-0.03c0.01-0.02,0.01-0.04,0.02-0.07l0.01-0.12l0.16-0.03v0.26h0.35l-0.01,0.09h-0.35v0.57  c0,0.02,0.01,0.03,0.02,0.05c0.01,0.01,0.03,0.02,0.05,0.03c0.02,0.01,0.04,0.02,0.06,0.02c0.02,0,0.04,0.01,0.06,0.01  c0.01,0,0.02,0,0.04,0c0.01,0,0.03,0,0.04-0.01c0.01,0,0.03-0.01,0.04-0.01c0.01,0,0.02-0.01,0.03-0.01h0.03v0.07  c-0.01,0.01-0.02,0.01-0.04,0.02c-0.02,0.01-0.04,0.02-0.07,0.03c-0.02,0.01-0.05,0.02-0.08,0.02c-0.03,0.01-0.06,0.01-0.09,0.01  c-0.04,0-0.07,0-0.1-0.01c-0.03-0.01-0.06-0.02-0.08-0.03c-0.02-0.01-0.04-0.03-0.06-0.05c-0.02-0.02-0.02-0.05-0.02-0.07V60.3z"></path>	<path class="st2" d="M32.86,61.02l0.14-0.03c0.01,0,0.02-0.01,0.03-0.01c0.01-0.01,0.01-0.01,0.01-0.03v-0.56  c0-0.01-0.01-0.02-0.01-0.03c-0.01-0.01-0.02-0.01-0.03-0.02l-0.14-0.04v-0.06l0.36-0.04v0.75c0,0.01,0,0.02,0.01,0.03  c0.01,0.01,0.02,0.01,0.03,0.01l0.14,0.03v0.06h-0.54V61.02z M33.12,60.04c-0.02,0-0.03,0-0.05-0.01  c-0.02-0.01-0.03-0.01-0.04-0.02C33.01,60,33,59.99,32.99,59.98c-0.01-0.01-0.01-0.03-0.01-0.04s0-0.03,0.01-0.04  c0.01-0.01,0.02-0.03,0.03-0.03c0.01-0.01,0.03-0.02,0.04-0.02c0.02-0.01,0.03-0.01,0.05-0.01c0.02,0,0.04,0,0.06,0.01  c0.02,0.01,0.03,0.01,0.04,0.02c0.01,0.01,0.02,0.02,0.03,0.03c0.01,0.01,0.01,0.03,0.01,0.04c0,0.02,0,0.03-0.01,0.05  c-0.01,0.02-0.02,0.03-0.03,0.04c-0.01,0.01-0.03,0.02-0.04,0.02C33.16,60.04,33.14,60.04,33.12,60.04L33.12,60.04z"></path>	<path class="st2" d="M34.04,61.1c-0.07,0-0.14-0.01-0.2-0.03c-0.06-0.02-0.11-0.05-0.15-0.09c-0.04-0.04-0.07-0.09-0.1-0.14  c-0.02-0.06-0.03-0.12-0.03-0.19c0-0.06,0.01-0.12,0.03-0.18c0.02-0.06,0.06-0.1,0.1-0.14c0.04-0.04,0.09-0.07,0.15-0.1  c0.06-0.02,0.13-0.03,0.21-0.03c0.08,0,0.15,0.01,0.21,0.04c0.06,0.03,0.11,0.06,0.15,0.1c0.04,0.04,0.07,0.09,0.09,0.15  c0.02,0.06,0.03,0.11,0.03,0.17c0,0.06-0.01,0.12-0.03,0.18c-0.02,0.06-0.06,0.11-0.1,0.15s-0.09,0.07-0.15,0.1  C34.19,61.09,34.12,61.1,34.04,61.1L34.04,61.1z M34.06,61.01c0.05,0,0.1-0.01,0.13-0.03c0.03-0.02,0.06-0.05,0.08-0.08  c0.02-0.03,0.04-0.07,0.04-0.11c0.01-0.04,0.01-0.08,0.01-0.12c0-0.05-0.01-0.09-0.02-0.14c-0.01-0.05-0.03-0.09-0.05-0.13  c-0.02-0.03-0.05-0.06-0.09-0.09c-0.04-0.02-0.08-0.03-0.13-0.03c-0.04,0-0.07,0.01-0.09,0.02c-0.03,0.01-0.05,0.02-0.07,0.04  c-0.02,0.02-0.04,0.04-0.05,0.06c-0.01,0.02-0.02,0.05-0.03,0.07c-0.01,0.03-0.02,0.05-0.02,0.08c0,0.03-0.01,0.05-0.01,0.08  c0,0.03,0,0.06,0.01,0.09c0.01,0.03,0.01,0.06,0.02,0.09c0.01,0.03,0.02,0.06,0.04,0.08c0.02,0.03,0.03,0.05,0.06,0.07  c0.02,0.02,0.05,0.03,0.08,0.04C33.98,61.01,34.02,61.01,34.06,61.01L34.06,61.01z"></path>	<path class="st2" d="M34.72,61.02l0.11-0.03c0.01,0,0.02-0.01,0.03-0.01c0.01-0.01,0.01-0.01,0.01-0.03v-0.57  c0-0.01,0-0.02-0.01-0.03c-0.01-0.01-0.02-0.01-0.03-0.02l-0.11-0.04v-0.06l0.32-0.04v0.14h0.01c0.03-0.03,0.06-0.06,0.08-0.08  c0.03-0.02,0.06-0.03,0.08-0.04s0.06-0.02,0.08-0.02c0.03,0,0.05,0,0.08,0c0.04,0,0.09,0.01,0.13,0.02  c0.04,0.01,0.07,0.03,0.1,0.05c0.03,0.02,0.05,0.06,0.07,0.09c0.02,0.04,0.03,0.08,0.03,0.13v0.46c0,0.01,0,0.02,0.01,0.03  c0.01,0.01,0.02,0.01,0.03,0.01l0.1,0.03v0.06h-0.46v-0.06l0.09-0.03c0.01,0,0.02-0.01,0.03-0.01c0.01-0.01,0.01-0.02,0.01-0.03  v-0.4c0-0.04,0-0.07-0.01-0.1c-0.01-0.03-0.02-0.06-0.03-0.07c-0.01-0.02-0.04-0.04-0.07-0.05c-0.03-0.01-0.07-0.02-0.11-0.02  c-0.02,0-0.04,0-0.06,0c-0.02,0-0.04,0.01-0.07,0.01c-0.02,0.01-0.04,0.02-0.06,0.03c-0.02,0.01-0.04,0.02-0.05,0.04v0.56  c0,0.01,0.01,0.02,0.01,0.03c0.01,0.01,0.02,0.01,0.03,0.01l0.08,0.03v0.06h-0.46V61.02z"></path>	<path class="st2" d="M6.31,54.81c0.09-0.07,0.19-0.12,0.3-0.17c0.18-0.07,0.38-0.11,0.59-0.11c0.12,0,0.24,0.01,0.37,0.02  c0.13,0.01,0.25,0.03,0.37,0.05c0.12,0.02,0.23,0.05,0.33,0.08c0.11,0.03,0.2,0.06,0.28,0.1c0.03,0.02,0.07,0.03,0.09,0.05  c0.03,0.02,0.05,0.04,0.06,0.07l0.22,0.51h0.2v-0.91c-0.1-0.03-0.2-0.06-0.32-0.08c-0.12-0.03-0.24-0.05-0.39-0.07  c-0.14-0.02-0.29-0.04-0.46-0.05c-0.17-0.01-0.35-0.02-0.56-0.02c-0.35,0-0.67,0.05-0.96,0.15c-0.04,0.02-0.09,0.03-0.13,0.05  V54.81z"></path>	<path class="st2" d="M5.99,57.42c-0.07-0.12-0.13-0.25-0.17-0.39c-0.07-0.23-0.11-0.49-0.11-0.76c0-0.29,0.04-0.54,0.11-0.76  c0.04-0.13,0.1-0.24,0.17-0.35v-0.52c-0.11,0.07-0.22,0.14-0.32,0.22c-0.22,0.18-0.39,0.4-0.51,0.65  c-0.12,0.25-0.18,0.53-0.18,0.84c0,0.32,0.06,0.61,0.19,0.87c0.13,0.25,0.29,0.47,0.5,0.65c0.1,0.08,0.21,0.15,0.32,0.22V57.42z"></path>	<path class="st2" d="M7.83,56.59v0.13l0.51,0.08c0.05,0.01,0.09,0.03,0.12,0.06c0.03,0.03,0.05,0.07,0.05,0.11v0.95  c-0.04,0.02-0.11,0.04-0.19,0.07c-0.09,0.03-0.18,0.05-0.29,0.08c-0.11,0.03-0.22,0.05-0.34,0.07c-0.12,0.02-0.24,0.03-0.36,0.03  c-0.26,0-0.49-0.05-0.69-0.14c-0.12-0.06-0.24-0.13-0.34-0.22v0.43c0.03,0.01,0.07,0.03,0.11,0.04c0.28,0.09,0.58,0.14,0.9,0.14  c0.17,0,0.33-0.01,0.5-0.02c0.17-0.02,0.34-0.04,0.5-0.07c0.16-0.03,0.32-0.06,0.46-0.09c0.15-0.03,0.28-0.07,0.4-0.11  c-0.01-0.07-0.01-0.17-0.01-0.29v-0.41v-0.44c0-0.04,0.02-0.08,0.05-0.11c0.03-0.03,0.07-0.05,0.12-0.06l0.47-0.08v-0.13H7.83z"></path>	<path class="st2" d="M19.1,54.7c0.04-0.02,0.08-0.04,0.12-0.05c0.18-0.07,0.38-0.11,0.6-0.11c0.1,0,0.21,0.01,0.32,0.02  c0.11,0.01,0.22,0.03,0.33,0.06c0.11,0.02,0.21,0.05,0.31,0.08c0.1,0.03,0.19,0.06,0.27,0.1c0.03,0.01,0.07,0.03,0.09,0.05  c0.03,0.02,0.05,0.04,0.06,0.08l0.24,0.5h0.19v-0.91c-0.1-0.03-0.21-0.06-0.34-0.08c-0.13-0.03-0.27-0.05-0.42-0.07  s-0.29-0.04-0.43-0.05s-0.28-0.02-0.4-0.02c-0.33,0-0.64,0.05-0.93,0.14V54.7z"></path>	<path class="st2" d="M21.76,57.55c-0.08,0.05-0.16,0.11-0.26,0.17c-0.09,0.06-0.2,0.11-0.33,0.17c-0.13,0.05-0.27,0.09-0.42,0.13  c-0.16,0.03-0.34,0.05-0.54,0.05c-0.45,0-0.82-0.08-1.12-0.25v0.48c0.28,0.08,0.58,0.12,0.92,0.12c0.18,0,0.36-0.02,0.53-0.06  c0.18-0.04,0.34-0.09,0.5-0.15c0.15-0.06,0.3-0.13,0.43-0.2c0.13-0.07,0.25-0.14,0.35-0.21v-0.24H21.76z"></path>	<path class="st2" d="M18.78,57.57c-0.3-0.3-0.46-0.74-0.46-1.32c0-0.29,0.04-0.54,0.11-0.75c0.07-0.21,0.18-0.39,0.31-0.54  c0.01-0.01,0.02-0.03,0.04-0.04v-0.38c-0.18,0.09-0.34,0.19-0.49,0.31c-0.22,0.18-0.39,0.4-0.51,0.65  c-0.12,0.25-0.19,0.54-0.19,0.84c0,0.32,0.06,0.6,0.17,0.86c0.12,0.25,0.28,0.47,0.49,0.65c0.15,0.13,0.33,0.23,0.53,0.32V57.57z"></path>	<path class="st2" d="M13.44,54.37H12.9v0.95h0.19l0.27-0.64c0.01-0.03,0.03-0.05,0.05-0.07c0.01-0.01,0.02-0.01,0.03-0.02V54.37z"></path>	<path class="st2" d="M16.62,54.37v0.23c0.01,0,0.02,0.01,0.03,0.02c0.02,0.02,0.04,0.04,0.05,0.07l0.27,0.64h0.2v-0.95H16.62z"></path>	<path class="st2" d="M15.4,58.05c-0.03-0.03-0.05-0.07-0.05-0.11v-3.36h0.95v-0.22h-2.54v0.22h0.93v3.36  c0,0.04-0.02,0.08-0.05,0.11c-0.03,0.03-0.07,0.05-0.12,0.06l-0.54,0.08v0.13h2.09v-0.13l-0.54-0.08  C15.48,58.1,15.44,58.08,15.4,58.05L15.4,58.05z"></path>	<path class="st2" d="M23.79,58.05c-0.03-0.03-0.05-0.07-0.05-0.11v-1.57h1.07v-0.22h-1.07v-1.4c0-0.04,0.02-0.08,0.05-0.11  c0.04-0.03,0.08-0.05,0.13-0.06l0.46-0.08v-0.13h-1.94v0.13l0.47,0.08c0.05,0.01,0.09,0.03,0.12,0.06  c0.03,0.03,0.05,0.07,0.05,0.11v3.19c0,0.04-0.02,0.08-0.05,0.11c-0.03,0.03-0.07,0.05-0.12,0.06l-0.47,0.08v0.13h1.94v-0.13  l-0.46-0.08C23.86,58.1,23.82,58.08,23.79,58.05L23.79,58.05z"></path>	<path class="st2" d="M26.92,54.64c0.03-0.03,0.07-0.05,0.12-0.06l0.47-0.08v-0.13h-1.94v0.13l0.47,0.08  c0.05,0.01,0.09,0.03,0.12,0.06c0.03,0.03,0.05,0.07,0.05,0.11v1.4h-1.07v0.22h1.07v1.57c0,0.04-0.02,0.08-0.05,0.11  c-0.03,0.03-0.07,0.05-0.12,0.06l-0.47,0.08v0.13h1.94v-0.13l-0.47-0.08c-0.05-0.01-0.09-0.03-0.12-0.06  c-0.03-0.03-0.05-0.07-0.05-0.11v-3.19C26.87,54.71,26.88,54.67,26.92,54.64L26.92,54.64z"></path>	<path class="st2" d="M32.35,56.85h0.53v-0.22h-0.42l0.42-0.87v-0.61l-1.37,2.8c-0.02,0.04-0.05,0.07-0.09,0.11  c-0.04,0.03-0.08,0.05-0.13,0.06l-0.32,0.07v0.13h1.43v-0.13l-0.63-0.11L32.35,56.85z"></path>	<path class="st2" d="M35.57,58.11c-0.05-0.01-0.09-0.03-0.13-0.06s-0.07-0.07-0.09-0.11l-1.8-3.64h-0.14l-0.22,0.32v0.47l0.03-0.06  h0l0.18,0.39l0.6,1.21h-0.82v0.22h0.93l0.61,1.24l-0.64,0.09v0.13h1.79v-0.13L35.57,58.11z"></path>	<path class="st2" d="M29.67,54.64c0.03-0.03,0.08-0.05,0.12-0.06l0.46-0.07v-0.13h-0.87v3.95h0.87v-0.14l-0.46-0.08  c-0.05-0.01-0.09-0.03-0.13-0.06c-0.03-0.03-0.05-0.07-0.05-0.11v-3.19C29.62,54.71,29.64,54.67,29.67,54.64L29.67,54.64z"></path>	<path class="st2" d="M29.2,54.37h-0.88v0.13l0.47,0.07c0.05,0.01,0.09,0.03,0.12,0.06c0.03,0.03,0.05,0.07,0.05,0.11v3.19  c0,0.04-0.02,0.08-0.05,0.11c-0.03,0.03-0.07,0.05-0.12,0.06l-0.47,0.08v0.13h0.88V54.37z"></path>	<path class="st2" d="M11.68,54.64c0.03-0.03,0.08-0.05,0.13-0.06l0.46-0.07v-0.13h-0.87v3.95h0.87v-0.14l-0.46-0.08  c-0.05-0.01-0.09-0.03-0.13-0.06c-0.03-0.03-0.05-0.07-0.05-0.11v-3.19C11.62,54.71,11.64,54.67,11.68,54.64L11.68,54.64z"></path>	<path class="st2" d="M11.2,54.37h-0.88v0.13l0.47,0.07c0.05,0.01,0.09,0.03,0.12,0.06c0.03,0.03,0.05,0.07,0.05,0.11v3.19  c0,0.04-0.02,0.08-0.05,0.11c-0.03,0.03-0.07,0.05-0.12,0.06l-0.47,0.08v0.13h0.88V54.37z"></path>	<rect x="3.39" y="59.17" class="st2" width="33.92" height="0.21"></rect></g></svg>