<svg xmlns="http://www.w3.org/2000/svg" xmlns:xlink="http://www.w3.org/1999/xlink" width="793" zoomAndPan="magnify" viewBox="0 0 594.75 260.250006" height="347" preserveAspectRatio="xMidYMid meet" version="1.0"><defs><g/><clipPath id="99d6adb038"><path d="M 156.042969 0 L 437.980469 0 L 437.980469 116 L 156.042969 116 Z M 156.042969 0 " clip-rule="nonzero"/></clipPath><clipPath id="ac274b129d"><rect x="0" width="561" y="0" height="55"/></clipPath><clipPath id="aed2cde19b"><rect x="0" width="320" y="0" height="24"/></clipPath></defs><g clip-path="url(#99d6adb038)"><path fill="#2b3a2e" d="M 161.015625 97.855469 C 161.015625 97.855469 162.140625 95.980469 166.449219 92.515625 C 170.753906 89.050781 180.496094 80.8125 183.679688 78.003906 C 186.863281 75.285156 190.140625 71.449219 190.980469 70.511719 C 191.730469 69.480469 193.230469 68.449219 197.253906 68.449219 C 201.28125 68.449219 210.367188 69.199219 212.144531 68.449219 C 213.921875 67.796875 219.824219 63.207031 221.507812 61.523438 C 223.195312 59.835938 229.84375 53.75 230.125 53.46875 C 230.5 53.1875 232.839844 51.035156 233.308594 50.378906 C 233.777344 49.722656 237.519531 46.164062 239.019531 44.949219 C 240.515625 43.730469 243.328125 40.546875 243.328125 40.546875 C 243.328125 40.546875 246.980469 38.113281 247.914062 37.269531 C 248.757812 36.425781 250.257812 37.082031 251.753906 38.019531 C 253.253906 38.859375 254.9375 40.828125 256.0625 41.667969 C 257.183594 42.417969 262.054688 47.382812 265.332031 48.785156 C 268.515625 50.191406 274.976562 54.78125 275.820312 54.59375 C 276.664062 54.40625 286.214844 46.726562 289.398438 43.074219 C 292.582031 39.328125 294.734375 36.332031 297.730469 33.804688 C 300.632812 31.277344 300.539062 29.402344 303.070312 28.839844 C 305.597656 28.28125 309.8125 28.839844 313.464844 24.722656 C 317.207031 20.601562 326.480469 10.582031 326.480469 10.582031 C 326.480469 10.582031 335.46875 2.152344 336.40625 1.3125 C 337.433594 0.46875 340.617188 0 343.800781 2.808594 C 346.988281 5.710938 351.574219 11.890625 353.542969 14.984375 C 355.507812 18.074219 356.820312 19.851562 358.410156 20.414062 C 360.003906 20.882812 363.28125 22.097656 364.121094 27.4375 C 364.964844 32.867188 367.867188 39.140625 369.742188 42.042969 C 371.707031 45.039062 379.292969 54.21875 380.882812 55.714844 C 382.570312 57.214844 382.664062 58.335938 384.253906 56.558594 C 385.753906 54.6875 389.5 52.90625 391.464844 51.597656 C 393.339844 50.285156 399.800781 47.570312 403.546875 51.6875 C 407.382812 55.902344 418.058594 68.917969 421.429688 73.789062 C 424.707031 78.65625 432.105469 88.300781 434.164062 90.175781 C 436.320312 91.953125 437.722656 93.171875 437.722656 94.390625 C 437.722656 95.699219 435.101562 92.890625 433.511719 91.019531 C 431.917969 89.050781 430.605469 88.023438 429.109375 86.710938 C 427.515625 85.492188 422.648438 78.28125 421.242188 76.503906 C 419.933594 74.820312 412.066406 64.707031 410.289062 62.738281 C 408.507812 60.679688 401.484375 53.1875 399.894531 53.5625 C 398.300781 53.9375 394.648438 59.648438 393.152344 61.148438 C 391.746094 62.644531 379.105469 72.195312 377.511719 73.132812 C 375.921875 73.976562 373.394531 73.976562 372.082031 74.914062 C 370.675781 75.847656 368.710938 75.753906 366.464844 75.847656 C 364.214844 76.035156 362.34375 77.253906 361.125 76.597656 C 360.003906 75.941406 364.871094 72.289062 366.839844 71.355469 C 368.710938 70.417969 374.609375 65.640625 375.828125 64.613281 C 377.042969 63.675781 381.070312 60.210938 380.601562 58.429688 C 380.136719 56.558594 370.582031 46.726562 368.335938 43.355469 C 366.089844 40.078125 362.8125 28.933594 361.21875 26.125 C 359.535156 23.316406 355.132812 20.882812 353.636719 18.632812 C 352.042969 16.386719 345.769531 8.707031 343.617188 7.304688 C 341.460938 5.898438 339.777344 5.992188 339.777344 5.992188 C 339.777344 5.992188 339.964844 11.890625 337.246094 17.605469 C 334.4375 23.316406 327.695312 35.675781 326.761719 38.859375 C 325.730469 41.949219 324.511719 45.695312 321.703125 47.570312 C 318.988281 49.535156 317.488281 51.035156 316.554688 51.875 C 315.617188 52.71875 312.246094 55.246094 311.402344 54.964844 C 310.558594 54.6875 312.808594 49.816406 312.808594 47.195312 C 312.902344 44.480469 312.996094 43.449219 312.621094 42.886719 C 312.246094 42.324219 309.8125 41.015625 308.875 41.667969 C 307.9375 42.230469 302.976562 49.628906 300.914062 51.503906 C 298.855469 53.375 298.292969 53.09375 297.917969 52.4375 C 297.542969 51.78125 295.109375 46.632812 294.828125 47.195312 C 294.453125 47.851562 290.335938 60.679688 287.992188 62.082031 C 285.652344 63.582031 279.003906 69.292969 276.851562 69.761719 C 274.695312 70.324219 271.324219 71.074219 271.324219 72.195312 C 271.324219 73.320312 269.828125 83.808594 266.644531 88.769531 C 263.460938 93.734375 264.488281 94.859375 262.804688 95.980469 C 261.117188 97.105469 248.757812 103.003906 244.167969 106.75 C 239.582031 110.402344 237.707031 109.464844 235.742188 111.433594 C 233.683594 113.304688 231.152344 116.582031 230.871094 114.523438 C 230.589844 112.460938 239.113281 103.660156 241.828125 101.132812 C 244.542969 98.601562 254.28125 88.957031 256.15625 86.335938 C 257.933594 83.621094 265.238281 75.378906 265.613281 70.792969 C 265.988281 66.296875 265.988281 63.300781 264.300781 60.773438 C 262.523438 58.246094 258.777344 51.035156 258.402344 50.378906 C 258.027344 49.628906 257.09375 48.878906 256.625 48.226562 C 256.25 47.476562 254.9375 45.507812 253.90625 44.855469 C 252.785156 44.199219 250.445312 39.984375 249.414062 40.546875 C 248.289062 41.203125 245.199219 45.414062 243.421875 46.726562 C 241.734375 48.132812 240.984375 48.878906 240.609375 50.753906 C 240.238281 52.71875 236.023438 58.617188 236.398438 59.085938 C 236.867188 59.554688 239.957031 59.179688 241.828125 58.804688 C 243.703125 58.429688 244.261719 60.585938 241.921875 62.738281 C 239.582031 64.984375 238.550781 64.519531 238.082031 70.136719 C 237.613281 75.660156 238.925781 78.375 233.027344 82.027344 C 227.128906 85.679688 222.164062 86.898438 215.984375 92.984375 C 209.898438 99.070312 207.273438 101.507812 206.433594 102.535156 C 205.496094 103.566406 203.996094 103.003906 204.371094 100.757812 C 204.652344 98.414062 203.996094 95.699219 203.996094 95.699219 C 203.996094 95.699219 198.003906 97.105469 195.101562 98.882812 C 192.199219 100.664062 187.144531 102.722656 184.332031 104.503906 C 181.429688 106.28125 178.902344 108.621094 178.433594 108.621094 C 177.964844 108.621094 178.714844 105.90625 181.804688 104.035156 C 184.988281 102.160156 191.636719 97.199219 193.417969 95.511719 C 195.195312 93.828125 203.996094 89.707031 204.839844 88.675781 C 205.683594 87.648438 207.929688 84.183594 207.367188 83.246094 C 206.808594 82.308594 201.5625 82.683594 200.535156 81.746094 C 199.410156 80.8125 198.097656 76.410156 198.097656 76.410156 C 198.097656 76.410156 190.886719 76.316406 190.046875 76.503906 C 189.203125 76.691406 189.109375 77.347656 188.640625 79.3125 C 188.078125 81.1875 187.144531 88.675781 184.519531 89.144531 C 181.804688 89.613281 175.625 89.144531 172.628906 91.113281 C 169.726562 93.078125 166.167969 95.605469 165.230469 96.355469 C 164.199219 97.105469 162.328125 98.601562 161.578125 99.351562 C 160.921875 100.101562 159.050781 101.691406 158.113281 102.253906 C 157.085938 102.910156 156.148438 101.507812 157.363281 100.570312 C 158.488281 99.632812 161.015625 97.855469 161.015625 97.855469 Z M 161.015625 97.855469 " fill-opacity="1" fill-rule="evenodd"/></g><g transform="matrix(1, 0, 0, 1, 18, 158)"><g clip-path="url(#ac274b129d)"><g fill="#2b3a2e" fill-opacity="1"><g transform="translate(0.829024, 41.860452)"><g><path d="M 11.921875 0.4375 C 9.890625 0.4375 8.195312 0.25 6.84375 -0.125 C 5.5 -0.507812 4.414062 -1.003906 3.59375 -1.609375 C 2.78125 -2.210938 2.203125 -2.890625 1.859375 -3.640625 C 1.515625 -4.390625 1.34375 -5.128906 1.34375 -5.859375 C 1.34375 -6.640625 1.484375 -7.289062 1.765625 -7.8125 C 2.054688 -8.34375 2.441406 -8.773438 2.921875 -9.109375 C 3.398438 -9.453125 3.941406 -9.695312 4.546875 -9.84375 C 5.160156 -9.988281 5.796875 -10.0625 6.453125 -10.0625 C 6.453125 -8.769531 6.601562 -7.632812 6.90625 -6.65625 C 7.21875 -5.6875 7.644531 -4.875 8.1875 -4.21875 C 8.738281 -3.5625 9.390625 -3.066406 10.140625 -2.734375 C 10.898438 -2.410156 11.726562 -2.25 12.625 -2.25 C 13.507812 -2.25 14.296875 -2.375 14.984375 -2.625 C 15.671875 -2.875 16.253906 -3.21875 16.734375 -3.65625 C 17.222656 -4.09375 17.59375 -4.609375 17.84375 -5.203125 C 18.09375 -5.804688 18.21875 -6.453125 18.21875 -7.140625 C 18.21875 -7.898438 18.0625 -8.578125 17.75 -9.171875 C 17.445312 -9.765625 16.984375 -10.316406 16.359375 -10.828125 C 15.734375 -11.335938 14.945312 -11.820312 14 -12.28125 C 13.050781 -12.75 11.945312 -13.242188 10.6875 -13.765625 C 9.113281 -14.410156 7.785156 -15.078125 6.703125 -15.765625 C 5.628906 -16.453125 4.757812 -17.191406 4.09375 -17.984375 C 3.4375 -18.773438 2.960938 -19.632812 2.671875 -20.5625 C 2.390625 -21.488281 2.25 -22.5 2.25 -23.59375 C 2.25 -24.976562 2.523438 -26.226562 3.078125 -27.34375 C 3.640625 -28.457031 4.410156 -29.410156 5.390625 -30.203125 C 6.378906 -30.992188 7.546875 -31.601562 8.890625 -32.03125 C 10.242188 -32.457031 11.71875 -32.671875 13.3125 -32.671875 C 14.96875 -32.671875 16.394531 -32.535156 17.59375 -32.265625 C 18.800781 -31.992188 19.796875 -31.625 20.578125 -31.15625 C 21.367188 -30.6875 21.957031 -30.128906 22.34375 -29.484375 C 22.726562 -28.847656 22.921875 -28.164062 22.921875 -27.4375 C 22.921875 -26.90625 22.804688 -26.410156 22.578125 -25.953125 C 22.347656 -25.492188 22 -25.097656 21.53125 -24.765625 C 21.070312 -24.429688 20.492188 -24.164062 19.796875 -23.96875 C 19.097656 -23.78125 18.285156 -23.6875 17.359375 -23.6875 C 17.359375 -24.320312 17.273438 -25 17.109375 -25.71875 C 16.941406 -26.445312 16.664062 -27.125 16.28125 -27.75 C 15.894531 -28.375 15.394531 -28.890625 14.78125 -29.296875 C 14.175781 -29.710938 13.441406 -29.921875 12.578125 -29.921875 C 11.972656 -29.921875 11.398438 -29.832031 10.859375 -29.65625 C 10.316406 -29.476562 9.84375 -29.210938 9.4375 -28.859375 C 9.03125 -28.503906 8.707031 -28.066406 8.46875 -27.546875 C 8.238281 -27.023438 8.125 -26.425781 8.125 -25.75 C 8.125 -25.125 8.226562 -24.53125 8.4375 -23.96875 C 8.644531 -23.414062 9.023438 -22.867188 9.578125 -22.328125 C 10.128906 -21.796875 10.882812 -21.257812 11.84375 -20.71875 C 12.800781 -20.1875 14.046875 -19.613281 15.578125 -19 C 17.117188 -18.363281 18.429688 -17.710938 19.515625 -17.046875 C 20.609375 -16.390625 21.503906 -15.679688 22.203125 -14.921875 C 22.898438 -14.171875 23.40625 -13.34375 23.71875 -12.4375 C 24.03125 -11.53125 24.1875 -10.53125 24.1875 -9.4375 C 24.1875 -7.976562 23.898438 -6.640625 23.328125 -5.421875 C 22.753906 -4.210938 21.929688 -3.175781 20.859375 -2.3125 C 19.785156 -1.445312 18.492188 -0.769531 16.984375 -0.28125 C 15.484375 0.195312 13.796875 0.4375 11.921875 0.4375 Z M 11.921875 0.4375 "/></g></g></g><g fill="#2b3a2e" fill-opacity="1"><g transform="translate(29.97655, 41.860452)"><g><path d="M 9.828125 -10.59375 L 8.53125 -6.71875 C 8.40625 -6.351562 8.28125 -5.921875 8.15625 -5.421875 C 8.03125 -4.929688 7.96875 -4.503906 7.96875 -4.140625 C 7.96875 -3.847656 8.023438 -3.59375 8.140625 -3.375 C 8.265625 -3.15625 8.421875 -2.972656 8.609375 -2.828125 C 8.804688 -2.691406 9.023438 -2.585938 9.265625 -2.515625 C 9.503906 -2.441406 9.757812 -2.40625 10.03125 -2.40625 L 11.921875 -2.40625 L 11.921875 0 L 0.171875 0 L 0.171875 -2.40625 L 0.734375 -2.40625 C 1.128906 -2.40625 1.488281 -2.445312 1.8125 -2.53125 C 2.144531 -2.625 2.453125 -2.789062 2.734375 -3.03125 C 3.023438 -3.269531 3.296875 -3.601562 3.546875 -4.03125 C 3.804688 -4.457031 4.070312 -5.007812 4.34375 -5.6875 L 14.125 -32.21875 L 20.3125 -32.21875 L 29.75 -5.640625 C 29.96875 -5.003906 30.195312 -4.476562 30.4375 -4.0625 C 30.675781 -3.644531 30.9375 -3.3125 31.21875 -3.0625 C 31.507812 -2.820312 31.816406 -2.648438 32.140625 -2.546875 C 32.460938 -2.453125 32.800781 -2.40625 33.15625 -2.40625 L 33.96875 -2.40625 L 33.96875 0 L 19.078125 0 L 19.078125 -2.40625 L 20.84375 -2.40625 C 21.0625 -2.40625 21.285156 -2.4375 21.515625 -2.5 C 21.753906 -2.5625 21.96875 -2.660156 22.15625 -2.796875 C 22.34375 -2.941406 22.492188 -3.125 22.609375 -3.34375 C 22.722656 -3.5625 22.78125 -3.828125 22.78125 -4.140625 C 22.78125 -4.503906 22.734375 -4.851562 22.640625 -5.1875 C 22.554688 -5.53125 22.472656 -5.828125 22.390625 -6.078125 L 20.796875 -10.59375 Z M 17.515625 -20.75 C 17.359375 -21.269531 17.191406 -21.8125 17.015625 -22.375 C 16.847656 -22.9375 16.679688 -23.507812 16.515625 -24.09375 C 16.347656 -24.6875 16.1875 -25.273438 16.03125 -25.859375 C 15.875 -26.441406 15.738281 -26.992188 15.625 -27.515625 C 15.488281 -27.066406 15.332031 -26.566406 15.15625 -26.015625 C 14.976562 -25.472656 14.789062 -24.914062 14.59375 -24.34375 C 14.394531 -23.769531 14.195312 -23.195312 14 -22.625 C 13.800781 -22.050781 13.613281 -21.5 13.4375 -20.96875 L 10.78125 -13.359375 L 19.890625 -13.359375 Z M 17.515625 -20.75 "/></g></g></g><g fill="#2b3a2e" fill-opacity="1"><g transform="translate(66.659314, 41.860452)"><g><path d="M 1.25 0 L 1.25 -2.40625 L 3.15625 -2.40625 C 3.488281 -2.40625 3.796875 -2.4375 4.078125 -2.5 C 4.359375 -2.5625 4.597656 -2.695312 4.796875 -2.90625 C 5.003906 -3.113281 5.164062 -3.40625 5.28125 -3.78125 C 5.40625 -4.164062 5.46875 -4.679688 5.46875 -5.328125 L 5.46875 -26.90625 C 5.46875 -27.550781 5.40625 -28.0625 5.28125 -28.4375 C 5.164062 -28.820312 5.003906 -29.117188 4.796875 -29.328125 C 4.597656 -29.535156 4.359375 -29.671875 4.078125 -29.734375 C 3.796875 -29.796875 3.488281 -29.828125 3.15625 -29.828125 L 1.25 -29.828125 L 1.25 -32.21875 L 16.828125 -32.21875 L 16.828125 -29.828125 L 14.9375 -29.828125 C 14.625 -29.828125 14.320312 -29.796875 14.03125 -29.734375 C 13.75 -29.671875 13.503906 -29.539062 13.296875 -29.34375 C 13.097656 -29.15625 12.9375 -28.878906 12.8125 -28.515625 C 12.6875 -28.160156 12.625 -27.679688 12.625 -27.078125 L 12.625 -2.75 L 21.015625 -2.75 C 22.078125 -2.75 22.898438 -3.082031 23.484375 -3.75 C 24.078125 -4.425781 24.503906 -5.398438 24.765625 -6.671875 L 25.5 -10.0625 L 28.03125 -10.0625 L 27.703125 0 Z M 1.25 0 "/></g></g></g><g fill="#2b3a2e" fill-opacity="1"><g transform="translate(98.869419, 41.860452)"><g><path d="M 18.3125 -5.328125 C 18.3125 -4.679688 18.367188 -4.164062 18.484375 -3.78125 C 18.597656 -3.40625 18.757812 -3.113281 18.96875 -2.90625 C 19.1875 -2.695312 19.4375 -2.5625 19.71875 -2.5 C 20 -2.4375 20.300781 -2.40625 20.625 -2.40625 L 22.515625 -2.40625 L 22.515625 0 L 6.9375 0 L 6.9375 -2.40625 L 8.828125 -2.40625 C 9.171875 -2.40625 9.476562 -2.4375 9.75 -2.5 C 10.03125 -2.5625 10.273438 -2.695312 10.484375 -2.90625 C 10.691406 -3.113281 10.851562 -3.40625 10.96875 -3.78125 C 11.09375 -4.164062 11.15625 -4.679688 11.15625 -5.328125 L 11.15625 -29.453125 L 7.53125 -29.453125 C 6.851562 -29.453125 6.285156 -29.378906 5.828125 -29.234375 C 5.378906 -29.085938 5.007812 -28.878906 4.71875 -28.609375 C 4.4375 -28.335938 4.222656 -28.003906 4.078125 -27.609375 C 3.941406 -27.210938 3.847656 -26.765625 3.796875 -26.265625 L 3.484375 -23.46875 L 0.4375 -23.46875 L 0.6875 -32.21875 L 28.796875 -32.21875 L 29.015625 -23.46875 L 26 -23.46875 L 25.671875 -26.265625 C 25.609375 -26.765625 25.503906 -27.210938 25.359375 -27.609375 C 25.222656 -28.003906 25.007812 -28.335938 24.71875 -28.609375 C 24.4375 -28.878906 24.066406 -29.085938 23.609375 -29.234375 C 23.160156 -29.378906 22.597656 -29.453125 21.921875 -29.453125 L 18.3125 -29.453125 Z M 18.3125 -5.328125 "/></g></g></g><g fill="#2b3a2e" fill-opacity="1"><g transform="translate(131.035459, 41.860452)"><g><path d="M 12.625 -2.75 L 21.65625 -2.75 C 22.113281 -2.75 22.503906 -2.832031 22.828125 -3 C 23.148438 -3.175781 23.425781 -3.414062 23.65625 -3.71875 C 23.894531 -4.03125 24.082031 -4.394531 24.21875 -4.8125 C 24.363281 -5.226562 24.472656 -5.6875 24.546875 -6.1875 L 24.890625 -8.3125 L 28.03125 -8.3125 L 27.703125 0 L 1.25 0 L 1.25 -2.40625 L 3.15625 -2.40625 C 3.476562 -2.40625 3.773438 -2.429688 4.046875 -2.484375 C 4.328125 -2.546875 4.570312 -2.664062 4.78125 -2.84375 C 5 -3.03125 5.164062 -3.300781 5.28125 -3.65625 C 5.40625 -4.019531 5.46875 -4.5 5.46875 -5.09375 L 5.46875 -26.90625 C 5.46875 -27.550781 5.40625 -28.0625 5.28125 -28.4375 C 5.164062 -28.820312 5.003906 -29.117188 4.796875 -29.328125 C 4.597656 -29.535156 4.359375 -29.671875 4.078125 -29.734375 C 3.796875 -29.796875 3.488281 -29.828125 3.15625 -29.828125 L 1.25 -29.828125 L 1.25 -32.21875 L 26.3125 -32.21875 L 26.484375 -23.90625 L 23.328125 -23.90625 L 23.109375 -26.046875 C 22.992188 -27.148438 22.710938 -27.992188 22.265625 -28.578125 C 21.828125 -29.160156 21.148438 -29.453125 20.234375 -29.453125 L 12.625 -29.453125 L 12.625 -18.171875 L 23.328125 -18.171875 L 23.328125 -15.46875 L 12.625 -15.46875 Z M 12.625 -2.75 "/></g></g></g><g fill="#2b3a2e" fill-opacity="1"><g transform="translate(163.201498, 41.860452)"><g><path d="M 1.25 -2.40625 L 3.15625 -2.40625 C 3.457031 -2.40625 3.75 -2.429688 4.03125 -2.484375 C 4.3125 -2.546875 4.554688 -2.664062 4.765625 -2.84375 C 4.984375 -3.03125 5.15625 -3.300781 5.28125 -3.65625 C 5.40625 -4.019531 5.46875 -4.5 5.46875 -5.09375 L 5.46875 -27.078125 C 5.46875 -27.679688 5.40625 -28.160156 5.28125 -28.515625 C 5.15625 -28.878906 4.984375 -29.15625 4.765625 -29.34375 C 4.554688 -29.539062 4.3125 -29.671875 4.03125 -29.734375 C 3.75 -29.796875 3.457031 -29.828125 3.15625 -29.828125 L 1.25 -29.828125 L 1.25 -32.21875 L 15.796875 -32.21875 C 20.054688 -32.21875 23.179688 -31.503906 25.171875 -30.078125 C 27.160156 -28.648438 28.15625 -26.578125 28.15625 -23.859375 C 28.15625 -22.671875 27.976562 -21.613281 27.625 -20.6875 C 27.269531 -19.757812 26.800781 -18.953125 26.21875 -18.265625 C 25.644531 -17.578125 24.988281 -16.992188 24.25 -16.515625 C 23.519531 -16.035156 22.773438 -15.640625 22.015625 -15.328125 L 27.390625 -6.078125 C 27.765625 -5.429688 28.132812 -4.875 28.5 -4.40625 C 28.863281 -3.945312 29.222656 -3.566406 29.578125 -3.265625 C 29.941406 -2.972656 30.3125 -2.753906 30.6875 -2.609375 C 31.070312 -2.472656 31.476562 -2.40625 31.90625 -2.40625 L 32.078125 -2.40625 L 32.078125 0 L 30.609375 0 C 29.253906 0 28.070312 -0.0507812 27.0625 -0.15625 C 26.0625 -0.257812 25.179688 -0.460938 24.421875 -0.765625 C 23.671875 -1.066406 23.019531 -1.476562 22.46875 -2 C 21.914062 -2.53125 21.40625 -3.210938 20.9375 -4.046875 L 15.578125 -13.984375 L 12.578125 -13.984375 L 12.578125 -5.09375 C 12.578125 -4.5 12.640625 -4.019531 12.765625 -3.65625 C 12.890625 -3.300781 13.054688 -3.03125 13.265625 -2.84375 C 13.484375 -2.664062 13.734375 -2.546875 14.015625 -2.484375 C 14.296875 -2.429688 14.585938 -2.40625 14.890625 -2.40625 L 16.828125 -2.40625 L 16.828125 0 L 1.25 0 Z M 12.578125 -16.609375 L 15.109375 -16.609375 C 16.148438 -16.609375 17.019531 -16.75 17.71875 -17.03125 C 18.414062 -17.3125 18.972656 -17.726562 19.390625 -18.28125 C 19.816406 -18.832031 20.117188 -19.519531 20.296875 -20.34375 C 20.484375 -21.175781 20.578125 -22.144531 20.578125 -23.25 C 20.578125 -24.394531 20.472656 -25.363281 20.265625 -26.15625 C 20.066406 -26.945312 19.742188 -27.59375 19.296875 -28.09375 C 18.859375 -28.601562 18.285156 -28.972656 17.578125 -29.203125 C 16.878906 -29.429688 16.03125 -29.546875 15.03125 -29.546875 L 12.578125 -29.546875 Z M 12.578125 -16.609375 "/></g></g></g><g fill="#2b3a2e" fill-opacity="1"><g transform="translate(197.813173, 41.860452)"><g><path d="M 1.25 -2.40625 L 3.15625 -2.40625 C 3.457031 -2.40625 3.75 -2.429688 4.03125 -2.484375 C 4.3125 -2.546875 4.554688 -2.664062 4.765625 -2.84375 C 4.984375 -3.03125 5.15625 -3.300781 5.28125 -3.65625 C 5.40625 -4.019531 5.46875 -4.5 5.46875 -5.09375 L 5.46875 -27.078125 C 5.46875 -27.679688 5.40625 -28.160156 5.28125 -28.515625 C 5.15625 -28.878906 4.984375 -29.15625 4.765625 -29.34375 C 4.554688 -29.539062 4.3125 -29.671875 4.03125 -29.734375 C 3.75 -29.796875 3.457031 -29.828125 3.15625 -29.828125 L 1.25 -29.828125 L 1.25 -32.21875 L 15.796875 -32.21875 C 20.054688 -32.21875 23.179688 -31.503906 25.171875 -30.078125 C 27.160156 -28.648438 28.15625 -26.578125 28.15625 -23.859375 C 28.15625 -22.671875 27.976562 -21.613281 27.625 -20.6875 C 27.269531 -19.757812 26.800781 -18.953125 26.21875 -18.265625 C 25.644531 -17.578125 24.988281 -16.992188 24.25 -16.515625 C 23.519531 -16.035156 22.773438 -15.640625 22.015625 -15.328125 L 27.390625 -6.078125 C 27.765625 -5.429688 28.132812 -4.875 28.5 -4.40625 C 28.863281 -3.945312 29.222656 -3.566406 29.578125 -3.265625 C 29.941406 -2.972656 30.3125 -2.753906 30.6875 -2.609375 C 31.070312 -2.472656 31.476562 -2.40625 31.90625 -2.40625 L 32.078125 -2.40625 L 32.078125 0 L 30.609375 0 C 29.253906 0 28.070312 -0.0507812 27.0625 -0.15625 C 26.0625 -0.257812 25.179688 -0.460938 24.421875 -0.765625 C 23.671875 -1.066406 23.019531 -1.476562 22.46875 -2 C 21.914062 -2.53125 21.40625 -3.210938 20.9375 -4.046875 L 15.578125 -13.984375 L 12.578125 -13.984375 L 12.578125 -5.09375 C 12.578125 -4.5 12.640625 -4.019531 12.765625 -3.65625 C 12.890625 -3.300781 13.054688 -3.03125 13.265625 -2.84375 C 13.484375 -2.664062 13.734375 -2.546875 14.015625 -2.484375 C 14.296875 -2.429688 14.585938 -2.40625 14.890625 -2.40625 L 16.828125 -2.40625 L 16.828125 0 L 1.25 0 Z M 12.578125 -16.609375 L 15.109375 -16.609375 C 16.148438 -16.609375 17.019531 -16.75 17.71875 -17.03125 C 18.414062 -17.3125 18.972656 -17.726562 19.390625 -18.28125 C 19.816406 -18.832031 20.117188 -19.519531 20.296875 -20.34375 C 20.484375 -21.175781 20.578125 -22.144531 20.578125 -23.25 C 20.578125 -24.394531 20.472656 -25.363281 20.265625 -26.15625 C 20.066406 -26.945312 19.742188 -27.59375 19.296875 -28.09375 C 18.859375 -28.601562 18.285156 -28.972656 17.578125 -29.203125 C 16.878906 -29.429688 16.03125 -29.546875 15.03125 -29.546875 L 12.578125 -29.546875 Z M 12.578125 -16.609375 "/></g></g></g><g fill="#2b3a2e" fill-opacity="1"><g transform="translate(232.424848, 41.860452)"><g><path d="M 9.828125 -10.59375 L 8.53125 -6.71875 C 8.40625 -6.351562 8.28125 -5.921875 8.15625 -5.421875 C 8.03125 -4.929688 7.96875 -4.503906 7.96875 -4.140625 C 7.96875 -3.847656 8.023438 -3.59375 8.140625 -3.375 C 8.265625 -3.15625 8.421875 -2.972656 8.609375 -2.828125 C 8.804688 -2.691406 9.023438 -2.585938 9.265625 -2.515625 C 9.503906 -2.441406 9.757812 -2.40625 10.03125 -2.40625 L 11.921875 -2.40625 L 11.921875 0 L 0.171875 0 L 0.171875 -2.40625 L 0.734375 -2.40625 C 1.128906 -2.40625 1.488281 -2.445312 1.8125 -2.53125 C 2.144531 -2.625 2.453125 -2.789062 2.734375 -3.03125 C 3.023438 -3.269531 3.296875 -3.601562 3.546875 -4.03125 C 3.804688 -4.457031 4.070312 -5.007812 4.34375 -5.6875 L 14.125 -32.21875 L 20.3125 -32.21875 L 29.75 -5.640625 C 29.96875 -5.003906 30.195312 -4.476562 30.4375 -4.0625 C 30.675781 -3.644531 30.9375 -3.3125 31.21875 -3.0625 C 31.507812 -2.820312 31.816406 -2.648438 32.140625 -2.546875 C 32.460938 -2.453125 32.800781 -2.40625 33.15625 -2.40625 L 33.96875 -2.40625 L 33.96875 0 L 19.078125 0 L 19.078125 -2.40625 L 20.84375 -2.40625 C 21.0625 -2.40625 21.285156 -2.4375 21.515625 -2.5 C 21.753906 -2.5625 21.96875 -2.660156 22.15625 -2.796875 C 22.34375 -2.941406 22.492188 -3.125 22.609375 -3.34375 C 22.722656 -3.5625 22.78125 -3.828125 22.78125 -4.140625 C 22.78125 -4.503906 22.734375 -4.851562 22.640625 -5.1875 C 22.554688 -5.53125 22.472656 -5.828125 22.390625 -6.078125 L 20.796875 -10.59375 Z M 17.515625 -20.75 C 17.359375 -21.269531 17.191406 -21.8125 17.015625 -22.375 C 16.847656 -22.9375 16.679688 -23.507812 16.515625 -24.09375 C 16.347656 -24.6875 16.1875 -25.273438 16.03125 -25.859375 C 15.875 -26.441406 15.738281 -26.992188 15.625 -27.515625 C 15.488281 -27.066406 15.332031 -26.566406 15.15625 -26.015625 C 14.976562 -25.472656 14.789062 -24.914062 14.59375 -24.34375 C 14.394531 -23.769531 14.195312 -23.195312 14 -22.625 C 13.800781 -22.050781 13.613281 -21.5 13.4375 -20.96875 L 10.78125 -13.359375 L 19.890625 -13.359375 Z M 17.515625 -20.75 "/></g></g></g><g fill="#2b3a2e" fill-opacity="1"><g transform="translate(269.107612, 41.860452)"><g/></g></g><g fill="#2b3a2e" fill-opacity="1"><g transform="translate(283.537186, 41.860452)"><g><path d="M 26.4375 0 L 8.828125 -24.859375 L 8.828125 -5.328125 C 8.828125 -4.679688 8.890625 -4.164062 9.015625 -3.78125 C 9.140625 -3.40625 9.304688 -3.113281 9.515625 -2.90625 C 9.722656 -2.695312 9.96875 -2.5625 10.25 -2.5 C 10.539062 -2.4375 10.84375 -2.40625 11.15625 -2.40625 L 13.046875 -2.40625 L 13.046875 0 L 1.25 0 L 1.25 -2.40625 L 3.15625 -2.40625 C 3.476562 -2.40625 3.773438 -2.4375 4.046875 -2.5 C 4.328125 -2.5625 4.570312 -2.695312 4.78125 -2.90625 C 5 -3.113281 5.164062 -3.40625 5.28125 -3.78125 C 5.40625 -4.164062 5.46875 -4.679688 5.46875 -5.328125 L 5.46875 -27.078125 C 5.46875 -27.679688 5.40625 -28.160156 5.28125 -28.515625 C 5.15625 -28.878906 4.984375 -29.15625 4.765625 -29.34375 C 4.554688 -29.539062 4.3125 -29.671875 4.03125 -29.734375 C 3.75 -29.796875 3.457031 -29.828125 3.15625 -29.828125 L 1.25 -29.828125 L 1.25 -32.21875 L 11.28125 -32.21875 L 27.21875 -9.6875 L 27.21875 -27.078125 C 27.21875 -27.679688 27.15625 -28.160156 27.03125 -28.515625 C 26.90625 -28.878906 26.734375 -29.15625 26.515625 -29.34375 C 26.304688 -29.539062 26.0625 -29.671875 25.78125 -29.734375 C 25.5 -29.796875 25.203125 -29.828125 24.890625 -29.828125 L 23 -29.828125 L 23 -32.21875 L 34.796875 -32.21875 L 34.796875 -29.828125 L 32.890625 -29.828125 C 32.585938 -29.828125 32.296875 -29.796875 32.015625 -29.734375 C 31.734375 -29.671875 31.484375 -29.535156 31.265625 -29.328125 C 31.054688 -29.117188 30.894531 -28.820312 30.78125 -28.4375 C 30.664062 -28.0625 30.609375 -27.550781 30.609375 -26.90625 L 30.609375 0 Z M 26.4375 0 "/></g></g></g><g fill="#2b3a2e" fill-opacity="1"><g transform="translate(321.806317, 41.860452)"><g><path d="M 9.828125 -10.59375 L 8.53125 -6.71875 C 8.40625 -6.351562 8.28125 -5.921875 8.15625 -5.421875 C 8.03125 -4.929688 7.96875 -4.503906 7.96875 -4.140625 C 7.96875 -3.847656 8.023438 -3.59375 8.140625 -3.375 C 8.265625 -3.15625 8.421875 -2.972656 8.609375 -2.828125 C 8.804688 -2.691406 9.023438 -2.585938 9.265625 -2.515625 C 9.503906 -2.441406 9.757812 -2.40625 10.03125 -2.40625 L 11.921875 -2.40625 L 11.921875 0 L 0.171875 0 L 0.171875 -2.40625 L 0.734375 -2.40625 C 1.128906 -2.40625 1.488281 -2.445312 1.8125 -2.53125 C 2.144531 -2.625 2.453125 -2.789062 2.734375 -3.03125 C 3.023438 -3.269531 3.296875 -3.601562 3.546875 -4.03125 C 3.804688 -4.457031 4.070312 -5.007812 4.34375 -5.6875 L 14.125 -32.21875 L 20.3125 -32.21875 L 29.75 -5.640625 C 29.96875 -5.003906 30.195312 -4.476562 30.4375 -4.0625 C 30.675781 -3.644531 30.9375 -3.3125 31.21875 -3.0625 C 31.507812 -2.820312 31.816406 -2.648438 32.140625 -2.546875 C 32.460938 -2.453125 32.800781 -2.40625 33.15625 -2.40625 L 33.96875 -2.40625 L 33.96875 0 L 19.078125 0 L 19.078125 -2.40625 L 20.84375 -2.40625 C 21.0625 -2.40625 21.285156 -2.4375 21.515625 -2.5 C 21.753906 -2.5625 21.96875 -2.660156 22.15625 -2.796875 C 22.34375 -2.941406 22.492188 -3.125 22.609375 -3.34375 C 22.722656 -3.5625 22.78125 -3.828125 22.78125 -4.140625 C 22.78125 -4.503906 22.734375 -4.851562 22.640625 -5.1875 C 22.554688 -5.53125 22.472656 -5.828125 22.390625 -6.078125 L 20.796875 -10.59375 Z M 17.515625 -20.75 C 17.359375 -21.269531 17.191406 -21.8125 17.015625 -22.375 C 16.847656 -22.9375 16.679688 -23.507812 16.515625 -24.09375 C 16.347656 -24.6875 16.1875 -25.273438 16.03125 -25.859375 C 15.875 -26.441406 15.738281 -26.992188 15.625 -27.515625 C 15.488281 -27.066406 15.332031 -26.566406 15.15625 -26.015625 C 14.976562 -25.472656 14.789062 -24.914062 14.59375 -24.34375 C 14.394531 -23.769531 14.195312 -23.195312 14 -22.625 C 13.800781 -22.050781 13.613281 -21.5 13.4375 -20.96875 L 10.78125 -13.359375 L 19.890625 -13.359375 Z M 17.515625 -20.75 "/></g></g></g><g fill="#2b3a2e" fill-opacity="1"><g transform="translate(358.489082, 41.860452)"><g><path d="M 18.3125 -5.328125 C 18.3125 -4.679688 18.367188 -4.164062 18.484375 -3.78125 C 18.597656 -3.40625 18.757812 -3.113281 18.96875 -2.90625 C 19.1875 -2.695312 19.4375 -2.5625 19.71875 -2.5 C 20 -2.4375 20.300781 -2.40625 20.625 -2.40625 L 22.515625 -2.40625 L 22.515625 0 L 6.9375 0 L 6.9375 -2.40625 L 8.828125 -2.40625 C 9.171875 -2.40625 9.476562 -2.4375 9.75 -2.5 C 10.03125 -2.5625 10.273438 -2.695312 10.484375 -2.90625 C 10.691406 -3.113281 10.851562 -3.40625 10.96875 -3.78125 C 11.09375 -4.164062 11.15625 -4.679688 11.15625 -5.328125 L 11.15625 -29.453125 L 7.53125 -29.453125 C 6.851562 -29.453125 6.285156 -29.378906 5.828125 -29.234375 C 5.378906 -29.085938 5.007812 -28.878906 4.71875 -28.609375 C 4.4375 -28.335938 4.222656 -28.003906 4.078125 -27.609375 C 3.941406 -27.210938 3.847656 -26.765625 3.796875 -26.265625 L 3.484375 -23.46875 L 0.4375 -23.46875 L 0.6875 -32.21875 L 28.796875 -32.21875 L 29.015625 -23.46875 L 26 -23.46875 L 25.671875 -26.265625 C 25.609375 -26.765625 25.503906 -27.210938 25.359375 -27.609375 C 25.222656 -28.003906 25.007812 -28.335938 24.71875 -28.609375 C 24.4375 -28.878906 24.066406 -29.085938 23.609375 -29.234375 C 23.160156 -29.378906 22.597656 -29.453125 21.921875 -29.453125 L 18.3125 -29.453125 Z M 18.3125 -5.328125 "/></g></g></g><g fill="#2b3a2e" fill-opacity="1"><g transform="translate(390.655144, 41.860452)"><g><path d="M 32.984375 -29.828125 L 31.046875 -29.828125 C 30.734375 -29.828125 30.4375 -29.796875 30.15625 -29.734375 C 29.882812 -29.671875 29.640625 -29.535156 29.421875 -29.328125 C 29.210938 -29.117188 29.046875 -28.820312 28.921875 -28.4375 C 28.804688 -28.0625 28.75 -27.550781 28.75 -26.90625 L 28.75 -9.296875 C 28.75 -7.785156 28.53125 -6.425781 28.09375 -5.21875 C 27.664062 -4.019531 26.992188 -3 26.078125 -2.15625 C 25.160156 -1.320312 23.988281 -0.679688 22.5625 -0.234375 C 21.132812 0.210938 19.4375 0.4375 17.46875 0.4375 C 15.5 0.4375 13.738281 0.25 12.1875 -0.125 C 10.644531 -0.5 9.335938 -1.097656 8.265625 -1.921875 C 7.191406 -2.742188 6.367188 -3.800781 5.796875 -5.09375 C 5.234375 -6.394531 4.953125 -7.972656 4.953125 -9.828125 L 4.953125 -27.078125 C 4.953125 -27.679688 4.890625 -28.160156 4.765625 -28.515625 C 4.640625 -28.878906 4.46875 -29.15625 4.25 -29.34375 C 4.039062 -29.539062 3.800781 -29.671875 3.53125 -29.734375 C 3.257812 -29.796875 2.972656 -29.828125 2.671875 -29.828125 L 0.734375 -29.828125 L 0.734375 -32.21875 L 16.28125 -32.21875 L 16.28125 -29.828125 L 14.390625 -29.828125 C 14.078125 -29.828125 13.78125 -29.796875 13.5 -29.734375 C 13.226562 -29.671875 12.984375 -29.535156 12.765625 -29.328125 C 12.554688 -29.117188 12.390625 -28.820312 12.265625 -28.4375 C 12.148438 -28.0625 12.09375 -27.550781 12.09375 -26.90625 L 12.09375 -9.46875 C 12.09375 -8.207031 12.25 -7.144531 12.5625 -6.28125 C 12.882812 -5.425781 13.335938 -4.738281 13.921875 -4.21875 C 14.515625 -3.695312 15.222656 -3.320312 16.046875 -3.09375 C 16.867188 -2.863281 17.789062 -2.75 18.8125 -2.75 C 19.8125 -2.75 20.710938 -2.878906 21.515625 -3.140625 C 22.328125 -3.398438 23.015625 -3.800781 23.578125 -4.34375 C 24.148438 -4.882812 24.585938 -5.570312 24.890625 -6.40625 C 25.203125 -7.25 25.359375 -8.242188 25.359375 -9.390625 L 25.359375 -27.078125 C 25.359375 -27.679688 25.300781 -28.160156 25.1875 -28.515625 C 25.070312 -28.878906 24.90625 -29.15625 24.6875 -29.34375 C 24.476562 -29.539062 24.234375 -29.671875 23.953125 -29.734375 C 23.671875 -29.796875 23.375 -29.828125 23.0625 -29.828125 L 21.171875 -29.828125 L 21.171875 -32.21875 L 32.984375 -32.21875 Z M 32.984375 -29.828125 "/></g></g></g><g fill="#2b3a2e" fill-opacity="1"><g transform="translate(427.073515, 41.860452)"><g><path d="M 1.25 -2.40625 L 3.15625 -2.40625 C 3.457031 -2.40625 3.75 -2.429688 4.03125 -2.484375 C 4.3125 -2.546875 4.554688 -2.664062 4.765625 -2.84375 C 4.984375 -3.03125 5.15625 -3.300781 5.28125 -3.65625 C 5.40625 -4.019531 5.46875 -4.5 5.46875 -5.09375 L 5.46875 -27.078125 C 5.46875 -27.679688 5.40625 -28.160156 5.28125 -28.515625 C 5.15625 -28.878906 4.984375 -29.15625 4.765625 -29.34375 C 4.554688 -29.539062 4.3125 -29.671875 4.03125 -29.734375 C 3.75 -29.796875 3.457031 -29.828125 3.15625 -29.828125 L 1.25 -29.828125 L 1.25 -32.21875 L 15.796875 -32.21875 C 20.054688 -32.21875 23.179688 -31.503906 25.171875 -30.078125 C 27.160156 -28.648438 28.15625 -26.578125 28.15625 -23.859375 C 28.15625 -22.671875 27.976562 -21.613281 27.625 -20.6875 C 27.269531 -19.757812 26.800781 -18.953125 26.21875 -18.265625 C 25.644531 -17.578125 24.988281 -16.992188 24.25 -16.515625 C 23.519531 -16.035156 22.773438 -15.640625 22.015625 -15.328125 L 27.390625 -6.078125 C 27.765625 -5.429688 28.132812 -4.875 28.5 -4.40625 C 28.863281 -3.945312 29.222656 -3.566406 29.578125 -3.265625 C 29.941406 -2.972656 30.3125 -2.753906 30.6875 -2.609375 C 31.070312 -2.472656 31.476562 -2.40625 31.90625 -2.40625 L 32.078125 -2.40625 L 32.078125 0 L 30.609375 0 C 29.253906 0 28.070312 -0.0507812 27.0625 -0.15625 C 26.0625 -0.257812 25.179688 -0.460938 24.421875 -0.765625 C 23.671875 -1.066406 23.019531 -1.476562 22.46875 -2 C 21.914062 -2.53125 21.40625 -3.210938 20.9375 -4.046875 L 15.578125 -13.984375 L 12.578125 -13.984375 L 12.578125 -5.09375 C 12.578125 -4.5 12.640625 -4.019531 12.765625 -3.65625 C 12.890625 -3.300781 13.054688 -3.03125 13.265625 -2.84375 C 13.484375 -2.664062 13.734375 -2.546875 14.015625 -2.484375 C 14.296875 -2.429688 14.585938 -2.40625 14.890625 -2.40625 L 16.828125 -2.40625 L 16.828125 0 L 1.25 0 Z M 12.578125 -16.609375 L 15.109375 -16.609375 C 16.148438 -16.609375 17.019531 -16.75 17.71875 -17.03125 C 18.414062 -17.3125 18.972656 -17.726562 19.390625 -18.28125 C 19.816406 -18.832031 20.117188 -19.519531 20.296875 -20.34375 C 20.484375 -21.175781 20.578125 -22.144531 20.578125 -23.25 C 20.578125 -24.394531 20.472656 -25.363281 20.265625 -26.15625 C 20.066406 -26.945312 19.742188 -27.59375 19.296875 -28.09375 C 18.859375 -28.601562 18.285156 -28.972656 17.578125 -29.203125 C 16.878906 -29.429688 16.03125 -29.546875 15.03125 -29.546875 L 12.578125 -29.546875 Z M 12.578125 -16.609375 "/></g></g></g><g fill="#2b3a2e" fill-opacity="1"><g transform="translate(461.685167, 41.860452)"><g><path d="M 9.828125 -10.59375 L 8.53125 -6.71875 C 8.40625 -6.351562 8.28125 -5.921875 8.15625 -5.421875 C 8.03125 -4.929688 7.96875 -4.503906 7.96875 -4.140625 C 7.96875 -3.847656 8.023438 -3.59375 8.140625 -3.375 C 8.265625 -3.15625 8.421875 -2.972656 8.609375 -2.828125 C 8.804688 -2.691406 9.023438 -2.585938 9.265625 -2.515625 C 9.503906 -2.441406 9.757812 -2.40625 10.03125 -2.40625 L 11.921875 -2.40625 L 11.921875 0 L 0.171875 0 L 0.171875 -2.40625 L 0.734375 -2.40625 C 1.128906 -2.40625 1.488281 -2.445312 1.8125 -2.53125 C 2.144531 -2.625 2.453125 -2.789062 2.734375 -3.03125 C 3.023438 -3.269531 3.296875 -3.601562 3.546875 -4.03125 C 3.804688 -4.457031 4.070312 -5.007812 4.34375 -5.6875 L 14.125 -32.21875 L 20.3125 -32.21875 L 29.75 -5.640625 C 29.96875 -5.003906 30.195312 -4.476562 30.4375 -4.0625 C 30.675781 -3.644531 30.9375 -3.3125 31.21875 -3.0625 C 31.507812 -2.820312 31.816406 -2.648438 32.140625 -2.546875 C 32.460938 -2.453125 32.800781 -2.40625 33.15625 -2.40625 L 33.96875 -2.40625 L 33.96875 0 L 19.078125 0 L 19.078125 -2.40625 L 20.84375 -2.40625 C 21.0625 -2.40625 21.285156 -2.4375 21.515625 -2.5 C 21.753906 -2.5625 21.96875 -2.660156 22.15625 -2.796875 C 22.34375 -2.941406 22.492188 -3.125 22.609375 -3.34375 C 22.722656 -3.5625 22.78125 -3.828125 22.78125 -4.140625 C 22.78125 -4.503906 22.734375 -4.851562 22.640625 -5.1875 C 22.554688 -5.53125 22.472656 -5.828125 22.390625 -6.078125 L 20.796875 -10.59375 Z M 17.515625 -20.75 C 17.359375 -21.269531 17.191406 -21.8125 17.015625 -22.375 C 16.847656 -22.9375 16.679688 -23.507812 16.515625 -24.09375 C 16.347656 -24.6875 16.1875 -25.273438 16.03125 -25.859375 C 15.875 -26.441406 15.738281 -26.992188 15.625 -27.515625 C 15.488281 -27.066406 15.332031 -26.566406 15.15625 -26.015625 C 14.976562 -25.472656 14.789062 -24.914062 14.59375 -24.34375 C 14.394531 -23.769531 14.195312 -23.195312 14 -22.625 C 13.800781 -22.050781 13.613281 -21.5 13.4375 -20.96875 L 10.78125 -13.359375 L 19.890625 -13.359375 Z M 17.515625 -20.75 "/></g></g></g><g fill="#2b3a2e" fill-opacity="1"><g transform="translate(498.367932, 41.860452)"><g><path d="M 1.25 0 L 1.25 -2.40625 L 3.15625 -2.40625 C 3.488281 -2.40625 3.796875 -2.4375 4.078125 -2.5 C 4.359375 -2.5625 4.597656 -2.695312 4.796875 -2.90625 C 5.003906 -3.113281 5.164062 -3.40625 5.28125 -3.78125 C 5.40625 -4.164062 5.46875 -4.679688 5.46875 -5.328125 L 5.46875 -26.90625 C 5.46875 -27.550781 5.40625 -28.0625 5.28125 -28.4375 C 5.164062 -28.820312 5.003906 -29.117188 4.796875 -29.328125 C 4.597656 -29.535156 4.359375 -29.671875 4.078125 -29.734375 C 3.796875 -29.796875 3.488281 -29.828125 3.15625 -29.828125 L 1.25 -29.828125 L 1.25 -32.21875 L 16.828125 -32.21875 L 16.828125 -29.828125 L 14.9375 -29.828125 C 14.625 -29.828125 14.320312 -29.796875 14.03125 -29.734375 C 13.75 -29.671875 13.503906 -29.539062 13.296875 -29.34375 C 13.097656 -29.15625 12.9375 -28.878906 12.8125 -28.515625 C 12.6875 -28.160156 12.625 -27.679688 12.625 -27.078125 L 12.625 -2.75 L 21.015625 -2.75 C 22.078125 -2.75 22.898438 -3.082031 23.484375 -3.75 C 24.078125 -4.425781 24.503906 -5.398438 24.765625 -6.671875 L 25.5 -10.0625 L 28.03125 -10.0625 L 27.703125 0 Z M 1.25 0 "/></g></g></g><g fill="#2b3a2e" fill-opacity="1"><g transform="translate(530.57806, 41.860452)"><g><path d="M 11.921875 0.4375 C 9.890625 0.4375 8.195312 0.25 6.84375 -0.125 C 5.5 -0.507812 4.414062 -1.003906 3.59375 -1.609375 C 2.78125 -2.210938 2.203125 -2.890625 1.859375 -3.640625 C 1.515625 -4.390625 1.34375 -5.128906 1.34375 -5.859375 C 1.34375 -6.640625 1.484375 -7.289062 1.765625 -7.8125 C 2.054688 -8.34375 2.441406 -8.773438 2.921875 -9.109375 C 3.398438 -9.453125 3.941406 -9.695312 4.546875 -9.84375 C 5.160156 -9.988281 5.796875 -10.0625 6.453125 -10.0625 C 6.453125 -8.769531 6.601562 -7.632812 6.90625 -6.65625 C 7.21875 -5.6875 7.644531 -4.875 8.1875 -4.21875 C 8.738281 -3.5625 9.390625 -3.066406 10.140625 -2.734375 C 10.898438 -2.410156 11.726562 -2.25 12.625 -2.25 C 13.507812 -2.25 14.296875 -2.375 14.984375 -2.625 C 15.671875 -2.875 16.253906 -3.21875 16.734375 -3.65625 C 17.222656 -4.09375 17.59375 -4.609375 17.84375 -5.203125 C 18.09375 -5.804688 18.21875 -6.453125 18.21875 -7.140625 C 18.21875 -7.898438 18.0625 -8.578125 17.75 -9.171875 C 17.445312 -9.765625 16.984375 -10.316406 16.359375 -10.828125 C 15.734375 -11.335938 14.945312 -11.820312 14 -12.28125 C 13.050781 -12.75 11.945312 -13.242188 10.6875 -13.765625 C 9.113281 -14.410156 7.785156 -15.078125 6.703125 -15.765625 C 5.628906 -16.453125 4.757812 -17.191406 4.09375 -17.984375 C 3.4375 -18.773438 2.960938 -19.632812 2.671875 -20.5625 C 2.390625 -21.488281 2.25 -22.5 2.25 -23.59375 C 2.25 -24.976562 2.523438 -26.226562 3.078125 -27.34375 C 3.640625 -28.457031 4.410156 -29.410156 5.390625 -30.203125 C 6.378906 -30.992188 7.546875 -31.601562 8.890625 -32.03125 C 10.242188 -32.457031 11.71875 -32.671875 13.3125 -32.671875 C 14.96875 -32.671875 16.394531 -32.535156 17.59375 -32.265625 C 18.800781 -31.992188 19.796875 -31.625 20.578125 -31.15625 C 21.367188 -30.6875 21.957031 -30.128906 22.34375 -29.484375 C 22.726562 -28.847656 22.921875 -28.164062 22.921875 -27.4375 C 22.921875 -26.90625 22.804688 -26.410156 22.578125 -25.953125 C 22.347656 -25.492188 22 -25.097656 21.53125 -24.765625 C 21.070312 -24.429688 20.492188 -24.164062 19.796875 -23.96875 C 19.097656 -23.78125 18.285156 -23.6875 17.359375 -23.6875 C 17.359375 -24.320312 17.273438 -25 17.109375 -25.71875 C 16.941406 -26.445312 16.664062 -27.125 16.28125 -27.75 C 15.894531 -28.375 15.394531 -28.890625 14.78125 -29.296875 C 14.175781 -29.710938 13.441406 -29.921875 12.578125 -29.921875 C 11.972656 -29.921875 11.398438 -29.832031 10.859375 -29.65625 C 10.316406 -29.476562 9.84375 -29.210938 9.4375 -28.859375 C 9.03125 -28.503906 8.707031 -28.066406 8.46875 -27.546875 C 8.238281 -27.023438 8.125 -26.425781 8.125 -25.75 C 8.125 -25.125 8.226562 -24.53125 8.4375 -23.96875 C 8.644531 -23.414062 9.023438 -22.867188 9.578125 -22.328125 C 10.128906 -21.796875 10.882812 -21.257812 11.84375 -20.71875 C 12.800781 -20.1875 14.046875 -19.613281 15.578125 -19 C 17.117188 -18.363281 18.429688 -17.710938 19.515625 -17.046875 C 20.609375 -16.390625 21.503906 -15.679688 22.203125 -14.921875 C 22.898438 -14.171875 23.40625 -13.34375 23.71875 -12.4375 C 24.03125 -11.53125 24.1875 -10.53125 24.1875 -9.4375 C 24.1875 -7.976562 23.898438 -6.640625 23.328125 -5.421875 C 22.753906 -4.210938 21.929688 -3.175781 20.859375 -2.3125 C 19.785156 -1.445312 18.492188 -0.769531 16.984375 -0.28125 C 15.484375 0.195312 13.796875 0.4375 11.921875 0.4375 Z M 11.921875 0.4375 "/></g></g></g></g></g><g transform="matrix(1, 0, 0, 1, 144, 231)"><g clip-path="url(#aed2cde19b)"><g fill="#2b3a2e" fill-opacity="1"><g transform="translate(1.451578, 17.311433)"><g><path d="M 6.84375 -12.671875 C 8.488281 -12.671875 9.78125 -12.28125 10.71875 -11.5 C 11.664062 -10.71875 12.140625 -9.640625 12.140625 -8.265625 C 12.140625 -6.878906 11.664062 -5.796875 10.71875 -5.015625 C 9.78125 -4.234375 8.488281 -3.84375 6.84375 -3.84375 L 3.71875 -3.84375 L 3.71875 0 L 1.90625 0 L 1.90625 -12.671875 Z M 6.796875 -5.421875 C 7.941406 -5.421875 8.816406 -5.660156 9.421875 -6.140625 C 10.023438 -6.628906 10.328125 -7.335938 10.328125 -8.265625 C 10.328125 -9.179688 10.023438 -9.878906 9.421875 -10.359375 C 8.816406 -10.847656 7.941406 -11.09375 6.796875 -11.09375 L 3.71875 -11.09375 L 3.71875 -5.421875 Z M 6.796875 -5.421875 "/></g></g></g><g fill="#2b3a2e" fill-opacity="1"><g transform="translate(29.004632, 17.311433)"><g><path d="M 10.375 0 L 7.640625 -3.890625 C 7.304688 -3.867188 7.039062 -3.859375 6.84375 -3.859375 L 3.71875 -3.859375 L 3.71875 0 L 1.90625 0 L 1.90625 -12.671875 L 6.84375 -12.671875 C 8.488281 -12.671875 9.78125 -12.28125 10.71875 -11.5 C 11.664062 -10.71875 12.140625 -9.640625 12.140625 -8.265625 C 12.140625 -7.285156 11.894531 -6.445312 11.40625 -5.75 C 10.925781 -5.0625 10.238281 -4.5625 9.34375 -4.25 L 12.34375 0 Z M 6.796875 -5.390625 C 7.941406 -5.390625 8.816406 -5.632812 9.421875 -6.125 C 10.023438 -6.625 10.328125 -7.335938 10.328125 -8.265625 C 10.328125 -9.179688 10.023438 -9.878906 9.421875 -10.359375 C 8.816406 -10.847656 7.941406 -11.09375 6.796875 -11.09375 L 3.71875 -11.09375 L 3.71875 -5.390625 Z M 6.796875 -5.390625 "/></g></g></g><g fill="#2b3a2e" fill-opacity="1"><g transform="translate(56.648197, 17.311433)"><g><path d="M 11.09375 -1.578125 L 11.09375 0 L 1.90625 0 L 1.90625 -12.671875 L 10.84375 -12.671875 L 10.84375 -11.09375 L 3.71875 -11.09375 L 3.71875 -7.203125 L 10.0625 -7.203125 L 10.0625 -5.671875 L 3.71875 -5.671875 L 3.71875 -1.578125 Z M 11.09375 -1.578125 "/></g></g></g><g fill="#2b3a2e" fill-opacity="1"><g transform="translate(83.259875, 17.311433)"><g><path d="M 13.65625 0 L 13.640625 -9.234375 L 9.046875 -1.546875 L 8.21875 -1.546875 L 3.640625 -9.1875 L 3.640625 0 L 1.90625 0 L 1.90625 -12.671875 L 3.390625 -12.671875 L 8.671875 -3.765625 L 13.890625 -12.671875 L 15.375 -12.671875 L 15.390625 0 Z M 13.65625 0 "/></g></g></g><g fill="#2b3a2e" fill-opacity="1"><g transform="translate(115.030991, 17.311433)"><g><path d="M 1.90625 -12.671875 L 3.71875 -12.671875 L 3.71875 0 L 1.90625 0 Z M 1.90625 -12.671875 "/></g></g></g><g fill="#2b3a2e" fill-opacity="1"><g transform="translate(135.125506, 17.311433)"><g><path d="M 7.15625 0.140625 C 5.46875 0.140625 4.148438 -0.335938 3.203125 -1.296875 C 2.265625 -2.265625 1.796875 -3.65625 1.796875 -5.46875 L 1.796875 -12.671875 L 3.609375 -12.671875 L 3.609375 -5.546875 C 3.609375 -2.828125 4.796875 -1.46875 7.171875 -1.46875 C 8.328125 -1.46875 9.210938 -1.800781 9.828125 -2.46875 C 10.441406 -3.144531 10.75 -4.171875 10.75 -5.546875 L 10.75 -12.671875 L 12.515625 -12.671875 L 12.515625 -5.46875 C 12.515625 -3.644531 12.039062 -2.253906 11.09375 -1.296875 C 10.15625 -0.335938 8.84375 0.140625 7.15625 0.140625 Z M 7.15625 0.140625 "/></g></g></g><g fill="#2b3a2e" fill-opacity="1"><g transform="translate(163.92768, 17.311433)"><g><path d="M 13.65625 0 L 13.640625 -9.234375 L 9.046875 -1.546875 L 8.21875 -1.546875 L 3.640625 -9.1875 L 3.640625 0 L 1.90625 0 L 1.90625 -12.671875 L 3.390625 -12.671875 L 8.671875 -3.765625 L 13.890625 -12.671875 L 15.375 -12.671875 L 15.390625 0 Z M 13.65625 0 "/></g></g></g><g fill="#2b3a2e" fill-opacity="1"><g transform="translate(195.698796, 17.311433)"><g/></g></g><g fill="#2b3a2e" fill-opacity="1"><g transform="translate(215.051076, 17.311433)"><g><path d="M 5.59375 0.140625 C 4.644531 0.140625 3.722656 -0.00390625 2.828125 -0.296875 C 1.941406 -0.597656 1.25 -0.984375 0.75 -1.453125 L 1.40625 -2.859375 C 1.894531 -2.421875 2.515625 -2.066406 3.265625 -1.796875 C 4.023438 -1.523438 4.800781 -1.390625 5.59375 -1.390625 C 6.644531 -1.390625 7.429688 -1.566406 7.953125 -1.921875 C 8.472656 -2.285156 8.734375 -2.757812 8.734375 -3.34375 C 8.734375 -3.78125 8.585938 -4.132812 8.296875 -4.40625 C 8.015625 -4.675781 7.664062 -4.882812 7.25 -5.03125 C 6.832031 -5.175781 6.242188 -5.335938 5.484375 -5.515625 C 4.535156 -5.753906 3.765625 -5.988281 3.171875 -6.21875 C 2.585938 -6.445312 2.085938 -6.796875 1.671875 -7.265625 C 1.253906 -7.742188 1.046875 -8.390625 1.046875 -9.203125 C 1.046875 -9.878906 1.222656 -10.488281 1.578125 -11.03125 C 1.941406 -11.570312 2.484375 -12.003906 3.203125 -12.328125 C 3.929688 -12.660156 4.832031 -12.828125 5.90625 -12.828125 C 6.65625 -12.828125 7.390625 -12.726562 8.109375 -12.53125 C 8.835938 -12.332031 9.460938 -12.054688 9.984375 -11.703125 L 9.375 -10.25 C 8.84375 -10.582031 8.273438 -10.835938 7.671875 -11.015625 C 7.066406 -11.191406 6.476562 -11.28125 5.90625 -11.28125 C 4.875 -11.28125 4.101562 -11.09375 3.59375 -10.71875 C 3.082031 -10.34375 2.828125 -9.859375 2.828125 -9.265625 C 2.828125 -8.835938 2.96875 -8.488281 3.25 -8.21875 C 3.539062 -7.945312 3.898438 -7.734375 4.328125 -7.578125 C 4.765625 -7.429688 5.347656 -7.269531 6.078125 -7.09375 C 7.035156 -6.863281 7.800781 -6.632812 8.375 -6.40625 C 8.957031 -6.175781 9.457031 -5.828125 9.875 -5.359375 C 10.289062 -4.890625 10.5 -4.253906 10.5 -3.453125 C 10.5 -2.796875 10.316406 -2.191406 9.953125 -1.640625 C 9.597656 -1.085938 9.050781 -0.648438 8.3125 -0.328125 C 7.570312 -0.015625 6.664062 0.140625 5.59375 0.140625 Z M 5.59375 0.140625 "/></g></g></g><g fill="#2b3a2e" fill-opacity="1"><g transform="translate(240.775704, 17.311433)"><g><path d="M 9.984375 -3.171875 L 3.234375 -3.171875 L 1.84375 0 L -0.015625 0 L 5.71875 -12.671875 L 7.515625 -12.671875 L 13.28125 0 L 11.375 0 Z M 9.34375 -4.625 L 6.609375 -10.828125 L 3.875 -4.625 Z M 9.34375 -4.625 "/></g></g></g><g fill="#2b3a2e" fill-opacity="1"><g transform="translate(268.509781, 17.311433)"><g><path d="M 1.90625 -12.671875 L 3.71875 -12.671875 L 3.71875 -1.578125 L 10.578125 -1.578125 L 10.578125 0 L 1.90625 0 Z M 1.90625 -12.671875 "/></g></g></g><g fill="#2b3a2e" fill-opacity="1"><g transform="translate(293.745617, 17.311433)"><g><path d="M 4.421875 -11.09375 L 0.078125 -11.09375 L 0.078125 -12.671875 L 10.5625 -12.671875 L 10.5625 -11.09375 L 6.21875 -11.09375 L 6.21875 0 L 4.421875 0 Z M 4.421875 -11.09375 "/></g></g></g></g></g></svg>