<svg xmlns="http://www.w3.org/2000/svg" xmlns:xlink="http://www.w3.org/1999/xlink" width="1920" zoomAndPan="magnify" viewBox="0 0 1440 899.99999" height="1200" preserveAspectRatio="xMidYMid meet" version="1.0"><defs><clipPath id="e35a685fb8"><path d="M 394.769531 114.789062 L 1045.019531 114.789062 L 1045.019531 765.039062 L 394.769531 765.039062 Z M 394.769531 114.789062 " clip-rule="nonzero"/></clipPath><clipPath id="79eacb0e3d"><path d="M 706.691406 552.316406 L 720 552.316406 L 720 565.816406 L 706.691406 565.816406 Z M 706.691406 552.316406 " clip-rule="nonzero"/></clipPath><clipPath id="193739bd2c"><path d="M 707 552.316406 L 720 552.316406 L 720 565.816406 L 707 565.816406 Z M 707 552.316406 " clip-rule="nonzero"/></clipPath></defs><path fill="#009335" d="M 648.648438 631.394531 C 650.214844 631.851562 651.542969 631.574219 652.632812 630.5625 C 653.71875 629.550781 654.609375 627.859375 655.300781 625.496094 C 655.984375 623.15625 656.140625 621.265625 655.769531 619.824219 C 655.398438 618.386719 654.429688 617.4375 652.863281 616.980469 C 651.292969 616.519531 649.964844 616.796875 648.878906 617.8125 C 647.789062 618.824219 646.902344 620.5 646.21875 622.84375 C 645.527344 625.207031 645.367188 627.109375 645.738281 628.546875 C 646.109375 629.988281 647.078125 630.933594 648.648438 631.394531 Z M 648.648438 631.394531 " fill-opacity="1" fill-rule="nonzero"/><path fill="#009335" d="M 674.308594 647.710938 C 672.785156 647.265625 671.472656 647.546875 670.375 648.554688 C 669.273438 649.566406 668.382812 651.242188 667.699219 653.582031 C 667.007812 655.949219 666.855469 657.851562 667.234375 659.292969 C 667.617188 660.734375 668.570312 661.679688 670.09375 662.125 C 671.640625 662.578125 672.957031 662.296875 674.046875 661.285156 C 675.132812 660.269531 676.023438 658.582031 676.714844 656.21875 C 677.398438 653.878906 677.554688 651.988281 677.183594 650.546875 C 676.816406 649.109375 675.855469 648.164062 674.308594 647.710938 Z M 674.308594 647.710938 " fill-opacity="1" fill-rule="nonzero"/><path fill="#009335" d="M 788.804688 640.730469 L 801.167969 636.046875 L 787.839844 619.867188 Z M 788.804688 640.730469 " fill-opacity="1" fill-rule="nonzero"/><path fill="#009335" d="M 620.78125 602.734375 C 619.640625 602.039062 618.492188 601.722656 617.335938 601.78125 C 616.179688 601.84375 614.964844 602.320312 613.699219 603.203125 C 612.429688 604.089844 611.101562 605.394531 609.710938 607.121094 C 608.320312 608.847656 606.828125 611.019531 605.234375 613.628906 C 603.648438 616.222656 602.40625 618.523438 601.503906 620.535156 C 600.601562 622.546875 600.046875 624.304688 599.839844 625.8125 C 599.636719 627.316406 599.765625 628.609375 600.226562 629.6875 C 600.6875 630.765625 601.507812 631.660156 602.6875 632.382812 C 603.867188 633.101562 605.050781 633.425781 606.238281 633.355469 C 607.425781 633.285156 608.644531 632.816406 609.890625 631.945312 C 611.136719 631.074219 612.445312 629.777344 613.824219 628.054688 C 615.199219 626.332031 616.675781 624.171875 618.257812 621.578125 C 619.851562 618.96875 621.101562 616.648438 622 614.621094 C 622.898438 612.59375 623.453125 610.816406 623.660156 609.28125 C 623.867188 607.75 623.726562 606.453125 623.246094 605.390625 C 622.761719 604.328125 621.941406 603.441406 620.78125 602.734375 Z M 620.78125 602.734375 " fill-opacity="1" fill-rule="nonzero"/><path fill="#009335" d="M 719.894531 273.496094 C 628.132812 273.496094 553.476562 348.148438 553.476562 439.914062 C 553.476562 531.675781 628.132812 606.328125 719.894531 606.328125 C 811.65625 606.328125 886.3125 531.675781 886.3125 439.914062 C 886.3125 348.152344 811.65625 273.496094 719.894531 273.496094 Z M 665.019531 394.730469 C 694.996094 402.644531 709.992188 429.707031 707.8125 457.171875 C 704.691406 451.023438 700.957031 443.484375 697.117188 439.003906 C 690.484375 431.277344 687.492188 427.957031 681.265625 422.949219 C 663.222656 408.453125 657.15625 410.328125 665.019531 394.730469 Z M 594.367188 499.71875 C 585.175781 497.691406 580.503906 490.867188 580.363281 479.800781 C 580.207031 467.398438 583.976562 455.664062 589.558594 444.355469 C 589.226562 449.894531 588.5625 455.4375 588.621094 460.972656 C 588.824219 480.386719 600.816406 489.613281 621.78125 486.730469 C 642.183594 483.929688 645.167969 481.21875 646.714844 462.394531 C 648.785156 437.222656 645.121094 412.347656 641.464844 387.492188 C 641.4375 387.316406 641.457031 387.101562 641.351562 386.972656 C 633.796875 377.441406 638.660156 370.160156 646.4375 363.402344 C 646.699219 363.15625 647.140625 362.773438 647.140625 362.773438 C 647.140625 362.773438 647.472656 363.210938 647.605469 363.402344 C 650.769531 367.992188 654.039062 372.519531 657.042969 377.195312 C 657.921875 378.570312 659.042969 381 658.382812 381.832031 C 652.101562 389.738281 654.667969 398.285156 655.054688 406.945312 C 655.898438 426.089844 657.050781 445.351562 655.679688 464.421875 C 653.28125 497.734375 620.503906 505.5 594.367188 499.71875 Z M 848.964844 477.652344 C 826.964844 483.878906 807.203125 483.609375 786.691406 491.730469 C 767.367188 499.378906 753.78125 495.082031 747.082031 476.652344 C 742.171875 463.128906 740.429688 450.621094 737.351562 436.546875 C 737.015625 435.011719 736.378906 431.992188 735.789062 429.558594 C 735.300781 431.226562 734.777344 432.890625 734.328125 434.570312 C 729.507812 452.574219 722.660156 469.683594 707.839844 483.078125 C 693.238281 496.28125 668.375 504.128906 649.859375 501.050781 C 652.105469 500.199219 653.496094 499.570312 654.957031 499.132812 C 698.804688 485.976562 723.328125 458.253906 729.105469 416.511719 C 729.984375 410.167969 730.339844 403.757812 730.753906 397.375 C 731.324219 388.644531 733.265625 378.421875 735.945312 376.292969 C 740.5625 379.558594 743.96875 382.46875 743.414062 388.113281 C 741.671875 405.871094 741.210938 423.699219 744.808594 441.308594 C 746.296875 448.582031 748.632812 455.902344 751.972656 462.625 C 757.976562 474.699219 768.648438 480.550781 783.4375 479.199219 C 794.515625 478.1875 804.195312 473.839844 813.757812 468.804688 C 804.410156 459.566406 784.765625 452.933594 763.867188 465.445312 C 763.242188 465.859375 761.363281 466.914062 761.363281 466.914062 C 761.363281 466.914062 762.460938 465.339844 762.71875 464.984375 C 766.214844 460.421875 769.320312 455.550781 773.285156 451.355469 C 782.554688 441.554688 795.816406 439.324219 808.765625 444.644531 C 819.394531 449.015625 831.503906 457.398438 842.480469 460.902344 C 850.054688 463.316406 859.429688 464.113281 859.429688 464.113281 C 859.429688 464.113281 857.902344 475.125 848.964844 477.652344 Z M 848.964844 477.652344 " fill-opacity="1" fill-rule="nonzero"/><path fill="#009335" d="M 774.660156 233.84375 C 775.816406 233.851562 776.816406 233.664062 777.652344 233.285156 C 778.488281 232.902344 779.179688 232.316406 779.722656 231.523438 C 780.269531 230.730469 780.6875 229.71875 780.984375 228.488281 C 781.523438 226.226562 781.253906 224.398438 780.179688 223.007812 C 779.105469 221.613281 777.226562 220.597656 774.539062 219.953125 L 763.257812 217.253906 L 760.027344 230.753906 L 770.605469 233.285156 C 772.148438 233.652344 773.5 233.839844 774.660156 233.84375 Z M 774.660156 233.84375 " fill-opacity="1" fill-rule="nonzero"/><path fill="#009335" d="M 877.621094 582 L 858.605469 573.171875 L 868.492188 591.570312 Z M 877.621094 582 " fill-opacity="1" fill-rule="nonzero"/><path fill="#009335" d="M 600.3125 286.378906 C 602.730469 284.574219 604.519531 282.800781 605.683594 281.050781 C 606.851562 279.304688 607.453125 277.554688 607.492188 275.800781 C 607.496094 272.265625 605.980469 268.46875 602.949219 264.410156 C 600.015625 260.484375 596.886719 258.066406 593.566406 257.15625 C 591.898438 256.738281 590.070312 256.84375 588.078125 257.484375 C 586.085938 258.128906 583.882812 259.347656 581.464844 261.15625 L 576.351562 264.976562 L 595.195312 290.203125 Z M 600.3125 286.378906 " fill-opacity="1" fill-rule="nonzero"/><path fill="#009335" d="M 588.648438 578.152344 C 587.675781 577.234375 586.621094 576.6875 585.476562 576.507812 C 584.332031 576.328125 583.046875 576.539062 581.621094 577.140625 C 580.195312 577.742188 578.625 578.742188 576.90625 580.140625 C 575.183594 581.539062 573.273438 583.351562 571.171875 585.574219 C 569.082031 587.78125 567.386719 589.773438 566.085938 591.554688 C 564.785156 593.332031 563.875 594.9375 563.363281 596.367188 C 562.847656 597.796875 562.703125 599.085938 562.929688 600.238281 C 563.160156 601.386719 563.773438 602.4375 564.777344 603.386719 C 565.78125 604.335938 566.871094 604.898438 568.046875 605.078125 C 569.226562 605.257812 570.515625 605.050781 571.914062 604.457031 C 573.3125 603.863281 574.867188 602.867188 576.570312 601.472656 C 578.273438 600.074219 580.167969 598.269531 582.257812 596.0625 C 584.359375 593.839844 586.0625 591.828125 587.363281 590.035156 C 588.667969 588.238281 589.578125 586.613281 590.097656 585.160156 C 590.621094 583.703125 590.753906 582.40625 590.503906 581.265625 C 590.253906 580.125 589.632812 579.085938 588.648438 578.152344 Z M 588.648438 578.152344 " fill-opacity="1" fill-rule="nonzero"/><path fill="#009335" d="M 510.054688 365.976562 C 510.984375 367.59375 512.273438 369.054688 513.925781 370.375 C 515.578125 371.695312 517.550781 372.816406 519.835938 373.730469 C 522.078125 374.632812 524.253906 375.175781 526.359375 375.363281 C 528.46875 375.550781 530.414062 375.382812 532.199219 374.855469 C 533.984375 374.335938 535.558594 373.46875 536.917969 372.269531 C 538.28125 371.066406 539.339844 369.523438 540.09375 367.644531 C 540.863281 365.722656 541.175781 363.851562 541.023438 362.03125 C 540.875 360.207031 540.332031 358.496094 539.398438 356.898438 C 538.46875 355.296875 537.171875 353.839844 535.515625 352.53125 C 533.859375 351.222656 531.90625 350.117188 529.664062 349.214844 C 527.402344 348.308594 525.21875 347.75 523.121094 347.539062 C 521.023438 347.332031 519.085938 347.480469 517.308594 347.980469 C 515.53125 348.484375 513.964844 349.332031 512.605469 350.523438 C 511.246094 351.714844 510.183594 353.269531 509.414062 355.195312 C 508.640625 357.117188 508.324219 358.992188 508.457031 360.820312 C 508.59375 362.648438 509.125 364.367188 510.054688 365.976562 Z M 510.054688 365.976562 " fill-opacity="1" fill-rule="nonzero"/><path fill="#009335" d="M 540.742188 316.699219 C 541.96875 318.421875 543.558594 320.035156 545.503906 321.542969 C 547.414062 323.023438 549.359375 324.140625 551.332031 324.898438 C 553.308594 325.660156 555.222656 326.027344 557.085938 326.015625 C 558.945312 326 560.695312 325.601562 562.335938 324.816406 C 563.976562 324.035156 565.414062 322.84375 566.65625 321.242188 C 567.921875 319.601562 568.734375 317.886719 569.089844 316.09375 C 569.445312 314.304688 569.394531 312.511719 568.933594 310.710938 C 568.476562 308.917969 567.628906 307.164062 566.394531 305.449219 C 565.160156 303.738281 563.585938 302.140625 561.675781 300.660156 C 559.746094 299.167969 557.800781 298.03125 555.839844 297.253906 C 553.878906 296.480469 551.976562 296.089844 550.128906 296.085938 C 548.285156 296.082031 546.542969 296.46875 544.914062 297.242188 C 543.28125 298.015625 541.828125 299.222656 540.5625 300.859375 C 539.292969 302.496094 538.472656 304.214844 538.101562 306.007812 C 537.730469 307.804688 537.773438 309.601562 538.222656 311.40625 C 538.671875 313.210938 539.511719 314.976562 540.742188 316.699219 Z M 540.742188 316.699219 " fill-opacity="1" fill-rule="nonzero"/><g clip-path="url(#e35a685fb8)"><path fill="#009335" d="M 1004.703125 485.050781 L 1045.019531 439.914062 L 1004.703125 394.777344 L 1029.1875 339.421875 L 976.855469 309.007812 L 982.9375 248.789062 L 923.765625 236.042969 L 911.019531 176.871094 L 850.800781 182.953125 L 820.386719 130.621094 L 765.03125 155.105469 L 719.894531 114.789062 L 674.757812 155.105469 L 619.402344 130.621094 L 588.988281 182.953125 L 528.769531 176.871094 L 516.023438 236.042969 L 456.851562 248.789062 L 462.933594 309.007812 L 410.601562 339.421875 L 435.085938 394.777344 L 394.769531 439.914062 L 435.085938 485.050781 L 410.601562 540.40625 L 462.933594 570.816406 L 456.851562 631.035156 L 516.023438 643.785156 L 528.769531 702.957031 L 588.988281 696.875 L 619.402344 749.203125 L 674.757812 724.722656 L 719.894531 765.039062 L 765.03125 724.722656 L 820.386719 749.203125 L 850.800781 696.875 L 911.019531 702.957031 L 923.765625 643.785156 L 982.9375 631.039062 L 976.855469 570.820312 L 1029.183594 540.40625 Z M 901.191406 621.210938 C 852.765625 669.636719 788.378906 696.304688 719.894531 696.304688 C 651.410156 696.304688 587.023438 669.636719 538.597656 621.210938 C 490.171875 572.785156 463.5 508.398438 463.5 439.914062 C 463.5 371.429688 490.171875 307.042969 538.597656 258.617188 C 587.023438 210.191406 651.410156 183.519531 719.894531 183.519531 C 788.378906 183.519531 852.765625 210.191406 901.191406 258.617188 C 949.617188 307.042969 976.289062 371.429688 976.289062 439.914062 C 976.289062 508.398438 949.617188 572.785156 901.191406 621.210938 Z M 901.191406 621.210938 " fill-opacity="1" fill-rule="nonzero"/></g><path fill="#009335" d="M 913.914062 414.359375 C 914.902344 416.210938 916.164062 417.570312 917.6875 418.433594 C 920.804688 420.105469 924.867188 420.5625 929.871094 419.808594 C 934.722656 419.078125 938.332031 417.460938 940.699219 414.964844 C 941.859375 413.691406 942.625 412.03125 943.003906 409.972656 C 943.378906 407.914062 943.339844 405.394531 942.890625 402.410156 L 941.9375 396.09375 L 910.800781 400.792969 L 911.757812 407.109375 C 912.207031 410.089844 912.925781 412.507812 913.914062 414.359375 Z M 913.914062 414.359375 " fill-opacity="1" fill-rule="nonzero"/><path fill="#009335" d="M 719.894531 190.226562 C 582.21875 190.226562 470.210938 302.234375 470.210938 439.914062 C 470.210938 577.589844 582.21875 689.597656 719.894531 689.597656 C 857.570312 689.597656 969.578125 577.589844 969.578125 439.914062 C 969.578125 302.234375 857.570312 190.226562 719.894531 190.226562 Z M 864.066406 255.890625 L 835.972656 293.210938 L 828.828125 287.832031 L 856.921875 250.511719 Z M 806.539062 230.394531 L 810.066406 223.511719 L 843.21875 240.5 L 839.691406 247.382812 L 827.03125 240.894531 L 809.257812 275.585938 L 801.300781 271.507812 L 819.074219 236.816406 Z M 756.199219 208.324219 L 776.378906 213.152344 C 778.078125 213.558594 779.636719 214.007812 781.042969 214.496094 C 782.453125 214.988281 783.71875 215.570312 784.835938 216.238281 C 785.953125 216.910156 786.914062 217.695312 787.714844 218.597656 C 788.515625 219.5 789.148438 220.570312 789.605469 221.816406 C 790.546875 224.316406 790.660156 227.0625 789.941406 230.0625 C 789.175781 233.265625 787.707031 235.652344 785.53125 237.226562 C 783.355469 238.800781 780.636719 239.578125 777.378906 239.554688 L 777.351562 239.65625 C 778.960938 240.65625 780.167969 242.003906 780.980469 243.699219 C 781.792969 245.398438 782.371094 247.507812 782.71875 250.023438 L 784.351562 263.089844 L 775.015625 260.855469 L 773.726562 248.585938 C 773.601562 247.515625 773.371094 246.5 773.03125 245.542969 C 772.695312 244.585938 772.230469 243.730469 771.640625 242.976562 C 771.050781 242.21875 770.359375 241.578125 769.5625 241.058594 C 768.761719 240.535156 767.839844 240.148438 766.785156 239.894531 L 758.324219 237.871094 L 754.027344 255.835938 L 745.332031 253.757812 Z M 734.328125 206 L 734.429688 213.628906 L 708.777344 213.964844 L 708.925781 225.394531 L 732.886719 225.078125 L 732.988281 232.710938 L 709.027344 233.023438 L 709.191406 245.449219 L 735.875 245.101562 L 735.972656 252.699219 L 700.347656 253.160156 L 699.738281 206.453125 Z M 645.691406 223.808594 C 647.050781 221.175781 648.890625 218.980469 651.203125 217.230469 C 653.519531 215.480469 656.277344 214.171875 659.476562 213.304688 C 662.007812 212.613281 664.390625 212.296875 666.621094 212.34375 C 668.851562 212.394531 671.011719 212.839844 673.101562 213.679688 C 675.578125 214.628906 677.578125 215.933594 679.101562 217.59375 C 680.625 219.257812 681.859375 221.28125 682.792969 223.675781 L 674.097656 226.039062 C 673.574219 224.820312 672.90625 223.773438 672.082031 222.902344 C 671.261719 222.027344 670.308594 221.355469 669.226562 220.886719 C 668.144531 220.417969 666.953125 220.15625 665.652344 220.105469 C 664.351562 220.050781 662.964844 220.226562 661.5 220.625 C 659.65625 221.125 658.070312 221.929688 656.738281 223.042969 C 655.40625 224.15625 654.386719 225.539062 653.675781 227.183594 C 652.96875 228.835938 652.589844 230.730469 652.539062 232.878906 C 652.492188 235.027344 652.816406 237.390625 653.515625 239.964844 C 654.210938 242.519531 655.117188 244.714844 656.234375 246.542969 C 657.351562 248.375 658.621094 249.828125 660.042969 250.894531 C 661.46875 251.960938 663.027344 252.640625 664.730469 252.929688 C 666.429688 253.21875 668.214844 253.109375 670.082031 252.601562 C 673.078125 251.789062 675.277344 250.386719 676.683594 248.394531 C 678.085938 246.402344 678.578125 243.9375 678.160156 241 L 686.792969 238.65625 C 687.203125 241.308594 687.195312 243.769531 686.773438 246.03125 C 686.351562 248.292969 685.460938 250.355469 684.109375 252.226562 C 682.742188 254.125 681.074219 255.699219 679.113281 256.949219 C 677.152344 258.195312 674.824219 259.183594 672.136719 259.917969 C 668.941406 260.785156 665.890625 261.058594 662.988281 260.738281 C 660.085938 260.417969 657.40625 259.46875 654.953125 257.894531 C 652.46875 256.304688 650.375 254.21875 648.675781 251.640625 C 646.972656 249.058594 645.632812 245.972656 644.65625 242.371094 C 642.71875 235.242188 643.0625 229.054688 645.691406 223.808594 Z M 576.953125 255 C 583.445312 250.152344 589.464844 248.03125 595.019531 248.636719 C 600.574219 249.242188 605.679688 252.660156 610.335938 258.894531 C 619.757812 271.507812 617.953125 282.683594 604.914062 292.421875 L 592.578125 301.640625 L 564.617188 264.21875 Z M 530.226562 304.648438 C 531 301.753906 532.425781 298.957031 534.511719 296.261719 C 536.585938 293.589844 538.917969 291.523438 541.515625 290.070312 C 544.109375 288.617188 546.835938 287.765625 549.691406 287.515625 C 552.550781 287.269531 555.472656 287.632812 558.472656 288.617188 C 561.464844 289.597656 564.402344 291.199219 567.277344 293.425781 C 570.117188 295.625 572.390625 298.039062 574.09375 300.667969 C 575.796875 303.300781 576.898438 306.03125 577.398438 308.863281 C 577.898438 311.695312 577.765625 314.554688 577 317.441406 C 576.234375 320.324219 574.800781 323.125 572.703125 325.835938 C 570.617188 328.53125 568.265625 330.617188 565.648438 332.097656 C 563.03125 333.582031 560.285156 334.445312 557.414062 334.699219 C 554.542969 334.949219 551.613281 334.578125 548.621094 333.585938 C 545.632812 332.597656 542.71875 331.003906 539.882812 328.804688 C 537.003906 326.578125 534.71875 324.136719 533.019531 321.480469 C 531.320312 318.828125 530.234375 316.082031 529.769531 313.246094 C 529.300781 310.410156 529.453125 307.542969 530.226562 304.648438 Z M 502.335938 352.429688 C 503.597656 349.292969 505.273438 346.664062 507.375 344.554688 C 509.472656 342.445312 511.859375 340.878906 514.539062 339.859375 C 517.21875 338.835938 520.132812 338.386719 523.28125 338.511719 C 526.433594 338.632812 529.695312 339.371094 533.070312 340.726562 C 536.402344 342.0625 539.25 343.757812 541.609375 345.820312 C 543.96875 347.882812 545.777344 350.210938 547.03125 352.796875 C 548.289062 355.382812 548.945312 358.167969 549 361.15625 C 549.054688 364.140625 548.445312 367.226562 547.167969 370.410156 C 545.902344 373.570312 544.210938 376.222656 542.101562 378.363281 C 539.988281 380.503906 537.589844 382.089844 534.894531 383.117188 C 532.199219 384.144531 529.28125 384.59375 526.136719 384.460938 C 522.988281 384.328125 519.75 383.59375 516.417969 382.257812 C 513.039062 380.902344 510.171875 379.183594 507.808594 377.09375 C 505.449219 375.007812 503.652344 372.664062 502.429688 370.0625 C 501.203125 367.464844 500.5625 364.664062 500.511719 361.667969 C 500.460938 358.671875 501.070312 355.59375 502.335938 352.429688 Z M 490.523438 392.050781 L 498.085938 393.054688 L 494.96875 416.464844 L 507.257812 418.101562 L 509.929688 398.011719 L 517.496094 399.019531 L 514.820312 419.105469 L 533.714844 421.621094 L 532.535156 430.484375 L 486.226562 424.324219 Z M 533.300781 576.941406 L 528.371094 569.726562 L 557.195312 550.039062 C 555.71875 549.429688 554.300781 548.527344 552.9375 547.324219 C 551.574219 546.125 550.171875 544.46875 548.730469 542.359375 L 554.320312 538.542969 C 556.527344 541.773438 558.808594 543.871094 561.171875 544.839844 C 563.53125 545.804688 566.050781 545.71875 568.734375 544.585938 L 572.53125 550.144531 Z M 573.394531 612.488281 C 568.644531 613.574219 564.222656 612.175781 560.125 608.300781 C 556.0625 604.457031 554.425781 600.144531 555.210938 595.359375 C 556 590.574219 559.152344 585.265625 564.675781 579.429688 C 570.148438 573.644531 575.273438 570.199219 580.054688 569.097656 C 584.835938 567.996094 589.257812 569.367188 593.320312 573.210938 C 597.417969 577.089844 599.042969 581.4375 598.203125 586.265625 C 597.359375 591.09375 594.199219 596.398438 588.726562 602.183594 C 583.253906 607.96875 578.144531 611.40625 573.394531 612.488281 Z M 625.863281 626.222656 C 621.714844 633.019531 617.429688 637.441406 613.011719 639.492188 C 608.589844 641.539062 603.976562 641.097656 599.164062 638.15625 C 594.386719 635.246094 591.886719 631.367188 591.660156 626.523438 C 591.433594 621.679688 593.414062 615.828125 597.597656 608.972656 C 601.75 602.175781 606.046875 597.738281 610.492188 595.667969 C 614.941406 593.59375 619.550781 594.015625 624.324219 596.925781 C 629.140625 599.867188 631.636719 603.78125 631.816406 608.679688 C 631.996094 613.574219 630.011719 619.421875 625.863281 626.222656 Z M 683.175781 658.109375 C 682.632812 659.964844 681.894531 661.550781 680.953125 662.875 C 680.015625 664.195312 678.925781 665.226562 677.671875 665.980469 C 676.421875 666.726562 675.039062 667.179688 673.515625 667.335938 C 671.996094 667.488281 670.398438 667.324219 668.71875 666.832031 C 666.996094 666.328125 665.539062 665.609375 664.351562 664.671875 C 663.160156 663.738281 662.246094 662.617188 661.605469 661.316406 C 660.96875 660.015625 660.609375 658.554688 660.53125 656.9375 C 660.453125 655.320312 660.6875 653.574219 661.238281 651.695312 C 661.78125 649.839844 662.519531 648.25 663.457031 646.929688 C 664.394531 645.609375 665.484375 644.574219 666.722656 643.820312 C 667.964844 643.066406 669.335938 642.617188 670.839844 642.46875 C 672.347656 642.324219 673.960938 642.5 675.683594 643.003906 C 677.363281 643.496094 678.800781 644.214844 680 645.164062 C 681.195312 646.113281 682.121094 647.234375 682.773438 648.53125 C 683.425781 649.824219 683.789062 651.285156 683.867188 652.914062 C 683.941406 654.542969 683.710938 656.273438 683.175781 658.109375 Z M 644.019531 658.78125 L 638.753906 657.242188 L 678.933594 620.320312 L 684.171875 621.851562 Z M 639.109375 626.179688 C 639.042969 624.5625 639.28125 622.828125 639.824219 620.972656 C 640.359375 619.140625 641.09375 617.554688 642.023438 616.21875 C 642.953125 614.886719 644.035156 613.847656 645.269531 613.105469 C 646.507812 612.363281 647.878906 611.914062 649.390625 611.757812 C 650.898438 611.597656 652.515625 611.769531 654.238281 612.273438 C 655.9375 612.769531 657.382812 613.492188 658.566406 614.4375 C 659.753906 615.382812 660.671875 616.503906 661.324219 617.800781 C 661.976562 619.09375 662.335938 620.554688 662.402344 622.179688 C 662.464844 623.804688 662.230469 625.535156 661.695312 627.367188 C 661.152344 629.222656 660.417969 630.8125 659.492188 632.136719 C 658.5625 633.460938 657.476562 634.496094 656.226562 635.246094 C 654.976562 635.996094 653.597656 636.445312 652.089844 636.589844 C 650.585938 636.738281 648.980469 636.566406 647.28125 636.066406 C 645.558594 635.5625 644.101562 634.84375 642.910156 633.910156 C 641.722656 632.972656 640.808594 631.855469 640.167969 630.550781 C 639.53125 629.25 639.179688 627.792969 639.109375 626.179688 Z M 546.769531 439.914062 C 546.769531 344.453125 624.433594 266.789062 719.894531 266.789062 C 815.355469 266.789062 893.019531 344.453125 893.019531 439.914062 C 893.019531 535.375 815.355469 613.039062 719.894531 613.039062 C 624.433594 613.039062 546.769531 535.375 546.769531 439.914062 Z M 756.320312 668.550781 L 753.945312 647.9375 L 733.914062 650.246094 L 736.289062 670.859375 L 727.402344 671.882812 L 722.058594 625.472656 L 730.941406 624.453125 L 733.046875 642.734375 L 753.078125 640.425781 L 750.972656 622.144531 L 759.855469 621.121094 L 765.203125 667.53125 Z M 813.886719 651.679688 L 805.683594 642.015625 L 789.378906 648.191406 L 789.800781 660.808594 L 781.4375 663.976562 L 780.578125 614.347656 L 789.714844 610.886719 L 822.667969 648.355469 Z M 836.3125 640.328125 L 810.5 601.394531 L 817.953125 596.453125 L 839.472656 628.910156 L 857.257812 617.121094 L 861.550781 623.597656 Z M 895.84375 590.601562 L 884.269531 585.429688 L 872.238281 598.050781 L 878.070312 609.242188 L 871.902344 615.714844 L 849.671875 571.332031 L 856.414062 564.261719 L 902.328125 583.804688 Z M 911.09375 570.804688 L 871.082031 546.699219 L 875.695312 539.039062 L 909.054688 559.136719 L 920.066406 540.859375 L 926.722656 544.871094 Z M 950.445312 401.339844 C 951.65625 409.351562 950.679688 415.664062 947.523438 420.269531 C 944.367188 424.878906 938.941406 427.761719 931.25 428.925781 C 915.679688 431.273438 906.683594 424.402344 904.253906 408.308594 L 901.957031 393.082031 L 948.148438 386.113281 Z M 941.9375 364.828125 L 934.917969 367.816406 L 924.867188 344.214844 L 914.351562 348.691406 L 923.738281 370.738281 L 916.71875 373.726562 L 907.332031 351.679688 L 895.894531 356.546875 L 906.347656 381.105469 L 899.359375 384.078125 L 885.40625 351.296875 L 928.386719 333 Z M 917.40625 314.914062 L 878.542969 340.835938 L 873.582031 333.394531 L 912.445312 307.476562 Z M 896.589844 297.847656 L 880.449219 280.609375 L 871.402344 289.078125 L 885.253906 303.875 L 879.683594 309.089844 L 865.832031 294.292969 L 851.917969 307.320312 L 845.808594 300.792969 L 879.90625 268.867188 L 902.160156 292.632812 Z M 896.589844 297.847656 " fill-opacity="1" fill-rule="nonzero"/><g clip-path="url(#79eacb0e3d)"><path fill="#009335" d="M 719.992188 558.964844 C 719.992188 559.402344 719.949219 559.835938 719.863281 560.261719 C 719.777344 560.691406 719.652344 561.105469 719.484375 561.511719 C 719.320312 561.914062 719.113281 562.296875 718.871094 562.660156 C 718.628906 563.023438 718.351562 563.359375 718.042969 563.667969 C 717.734375 563.976562 717.398438 564.25 717.035156 564.496094 C 716.671875 564.738281 716.289062 564.941406 715.886719 565.109375 C 715.484375 565.277344 715.066406 565.402344 714.640625 565.488281 C 714.210938 565.574219 713.777344 565.617188 713.339844 565.617188 C 712.90625 565.617188 712.472656 565.574219 712.042969 565.488281 C 711.617188 565.402344 711.199219 565.277344 710.796875 565.109375 C 710.394531 564.941406 710.011719 564.738281 709.648438 564.496094 C 709.285156 564.25 708.949219 563.976562 708.640625 563.667969 C 708.332031 563.359375 708.054688 563.023438 707.8125 562.660156 C 707.570312 562.296875 707.363281 561.914062 707.199219 561.511719 C 707.03125 561.105469 706.902344 560.691406 706.820312 560.261719 C 706.734375 559.835938 706.691406 559.402344 706.691406 558.964844 C 706.691406 558.527344 706.734375 558.097656 706.820312 557.667969 C 706.902344 557.238281 707.03125 556.824219 707.199219 556.417969 C 707.363281 556.015625 707.570312 555.632812 707.8125 555.269531 C 708.054688 554.90625 708.332031 554.570312 708.640625 554.261719 C 708.949219 553.953125 709.285156 553.679688 709.648438 553.433594 C 710.011719 553.191406 710.394531 552.988281 710.796875 552.820312 C 711.199219 552.652344 711.617188 552.527344 712.042969 552.441406 C 712.472656 552.355469 712.90625 552.316406 713.339844 552.316406 C 713.777344 552.316406 714.210938 552.355469 714.640625 552.441406 C 715.066406 552.527344 715.484375 552.652344 715.886719 552.820312 C 716.289062 552.988281 716.671875 553.191406 717.035156 553.433594 C 717.398438 553.679688 717.734375 553.953125 718.042969 554.261719 C 718.351562 554.570312 718.628906 554.90625 718.871094 555.269531 C 719.113281 555.632812 719.320312 556.015625 719.484375 556.417969 C 719.652344 556.824219 719.777344 557.238281 719.863281 557.667969 C 719.949219 558.097656 719.992188 558.527344 719.992188 558.964844 Z M 719.992188 558.964844 " fill-opacity="1" fill-rule="nonzero"/></g><g clip-path="url(#193739bd2c)"><path fill="#009335" d="M 713.464844 565.003906 C 713.414062 565.003906 713.371094 564.964844 713.371094 564.914062 C 713.367188 564.859375 713.410156 564.816406 713.460938 564.816406 L 713.507812 564.816406 C 713.507812 564.816406 713.507812 564.816406 713.511719 564.816406 C 713.5625 564.816406 713.601562 564.855469 713.605469 564.90625 C 713.605469 564.957031 713.566406 565.003906 713.511719 565.003906 Z M 713.183594 565.003906 C 713.183594 565.003906 713.179688 565.003906 713.179688 565.003906 L 713.132812 565.003906 C 713.082031 565 713.039062 564.957031 713.042969 564.90625 C 713.042969 564.851562 713.089844 564.8125 713.140625 564.816406 L 713.183594 564.816406 C 713.238281 564.816406 713.277344 564.859375 713.277344 564.914062 C 713.277344 564.964844 713.234375 565.003906 713.183594 565.003906 Z M 713.789062 564.988281 C 713.742188 564.988281 713.699219 564.953125 713.695312 564.902344 C 713.691406 564.851562 713.730469 564.804688 713.785156 564.800781 L 713.828125 564.796875 C 713.882812 564.792969 713.925781 564.832031 713.929688 564.882812 C 713.933594 564.9375 713.898438 564.980469 713.84375 564.984375 L 713.796875 564.988281 C 713.796875 564.988281 713.792969 564.988281 713.789062 564.988281 Z M 712.855469 564.988281 C 712.851562 564.988281 712.851562 564.988281 712.847656 564.984375 L 712.800781 564.980469 C 712.75 564.976562 712.710938 564.933594 712.714844 564.878906 C 712.71875 564.828125 712.765625 564.789062 712.816406 564.796875 L 712.863281 564.800781 C 712.914062 564.804688 712.953125 564.847656 712.949219 564.898438 C 712.945312 564.949219 712.902344 564.988281 712.855469 564.988281 Z M 714.117188 564.957031 C 714.070312 564.957031 714.03125 564.921875 714.023438 564.875 C 714.015625 564.824219 714.054688 564.777344 714.105469 564.769531 L 714.148438 564.761719 C 714.203125 564.757812 714.25 564.792969 714.257812 564.84375 C 714.261719 564.894531 714.226562 564.941406 714.175781 564.949219 L 714.128906 564.957031 C 714.125 564.957031 714.121094 564.957031 714.117188 564.957031 Z M 712.53125 564.949219 C 712.527344 564.949219 712.523438 564.949219 712.515625 564.949219 L 712.46875 564.945312 C 712.417969 564.9375 712.382812 564.886719 712.390625 564.835938 C 712.398438 564.785156 712.445312 564.75 712.496094 564.757812 L 712.542969 564.765625 C 712.59375 564.769531 712.628906 564.816406 712.625 564.871094 C 712.617188 564.917969 712.578125 564.949219 712.53125 564.949219 Z M 714.441406 564.90625 C 714.394531 564.90625 714.355469 564.875 714.347656 564.828125 C 714.339844 564.777344 714.371094 564.726562 714.421875 564.71875 L 714.46875 564.710938 C 714.519531 564.699219 714.570312 564.734375 714.578125 564.785156 C 714.589844 564.835938 714.554688 564.882812 714.503906 564.894531 L 714.457031 564.902344 C 714.453125 564.90625 714.445312 564.90625 714.441406 564.90625 Z M 712.207031 564.898438 C 712.199219 564.898438 712.195312 564.898438 712.1875 564.894531 L 712.140625 564.886719 C 712.089844 564.875 712.058594 564.828125 712.070312 564.777344 C 712.078125 564.726562 712.128906 564.691406 712.179688 564.703125 L 712.222656 564.710938 C 712.273438 564.722656 712.308594 564.769531 712.300781 564.820312 C 712.289062 564.867188 712.25 564.898438 712.207031 564.898438 Z M 714.761719 564.835938 C 714.71875 564.835938 714.679688 564.808594 714.667969 564.765625 C 714.65625 564.714844 714.6875 564.664062 714.738281 564.652344 L 714.78125 564.640625 C 714.832031 564.625 714.882812 564.65625 714.898438 564.707031 C 714.910156 564.757812 714.878906 564.808594 714.828125 564.820312 L 714.78125 564.832031 C 714.773438 564.835938 714.769531 564.835938 714.761719 564.835938 Z M 711.886719 564.828125 C 711.878906 564.828125 711.871094 564.824219 711.863281 564.824219 L 711.816406 564.8125 C 711.769531 564.800781 711.738281 564.746094 711.75 564.699219 C 711.765625 564.648438 711.816406 564.617188 711.867188 564.628906 L 711.910156 564.640625 C 711.960938 564.652344 711.992188 564.707031 711.976562 564.753906 C 711.96875 564.796875 711.929688 564.828125 711.886719 564.828125 Z M 715.078125 564.75 C 715.035156 564.75 715 564.722656 714.988281 564.683594 C 714.972656 564.632812 715 564.578125 715.050781 564.566406 L 715.09375 564.550781 C 715.140625 564.535156 715.195312 564.5625 715.210938 564.613281 C 715.226562 564.664062 715.199219 564.714844 715.148438 564.730469 L 715.105469 564.746094 C 715.09375 564.746094 715.085938 564.75 715.078125 564.75 Z M 711.570312 564.738281 C 711.5625 564.738281 711.554688 564.738281 711.542969 564.734375 L 711.5 564.71875 C 711.449219 564.703125 711.421875 564.652344 711.4375 564.601562 C 711.453125 564.550781 711.507812 564.523438 711.554688 564.539062 L 711.597656 564.554688 C 711.648438 564.570312 711.675781 564.621094 711.660156 564.671875 C 711.648438 564.710938 711.613281 564.738281 711.570312 564.738281 Z M 715.386719 564.644531 C 715.347656 564.644531 715.3125 564.621094 715.296875 564.582031 C 715.28125 564.535156 715.304688 564.480469 715.355469 564.460938 L 715.398438 564.445312 C 715.445312 564.429688 715.5 564.453125 715.519531 564.5 C 715.539062 564.550781 715.511719 564.605469 715.464844 564.621094 L 715.417969 564.640625 C 715.410156 564.644531 715.398438 564.644531 715.386719 564.644531 Z M 711.261719 564.632812 C 711.25 564.632812 711.238281 564.628906 711.226562 564.625 L 711.183594 564.609375 C 711.132812 564.589844 711.109375 564.535156 711.128906 564.488281 C 711.148438 564.4375 711.203125 564.414062 711.25 564.433594 L 711.292969 564.449219 C 711.34375 564.46875 711.367188 564.523438 711.347656 564.570312 C 711.335938 564.609375 711.296875 564.632812 711.261719 564.632812 Z M 715.691406 564.523438 C 715.652344 564.523438 715.621094 564.503906 715.605469 564.46875 C 715.585938 564.417969 715.605469 564.363281 715.652344 564.34375 L 715.695312 564.324219 C 715.742188 564.304688 715.800781 564.328125 715.820312 564.375 C 715.839844 564.421875 715.820312 564.476562 715.769531 564.496094 L 715.726562 564.515625 C 715.714844 564.523438 715.703125 564.523438 715.691406 564.523438 Z M 710.957031 564.507812 C 710.945312 564.507812 710.929688 564.507812 710.917969 564.5 L 710.875 564.480469 C 710.828125 564.460938 710.804688 564.402344 710.828125 564.355469 C 710.847656 564.308594 710.90625 564.289062 710.953125 564.308594 L 710.992188 564.328125 C 711.042969 564.347656 711.0625 564.40625 711.042969 564.453125 C 711.027344 564.488281 710.992188 564.507812 710.957031 564.507812 Z M 715.988281 564.386719 C 715.953125 564.386719 715.917969 564.367188 715.902344 564.332031 C 715.878906 564.289062 715.898438 564.230469 715.945312 564.207031 L 715.988281 564.1875 C 716.03125 564.164062 716.089844 564.183594 716.113281 564.230469 C 716.136719 564.273438 716.117188 564.332031 716.070312 564.355469 L 716.027344 564.375 C 716.015625 564.382812 716 564.386719 715.988281 564.386719 Z M 710.660156 564.367188 C 710.644531 564.367188 710.628906 564.367188 710.617188 564.359375 L 710.582031 564.339844 C 710.535156 564.316406 710.515625 564.257812 710.539062 564.210938 C 710.5625 564.167969 710.613281 564.144531 710.660156 564.167969 L 710.703125 564.191406 C 710.75 564.214844 710.765625 564.269531 710.742188 564.316406 C 710.726562 564.351562 710.695312 564.367188 710.660156 564.367188 Z M 716.277344 564.234375 C 716.242188 564.234375 716.210938 564.214844 716.195312 564.183594 C 716.167969 564.140625 716.183594 564.082031 716.230469 564.058594 L 716.269531 564.035156 C 716.316406 564.007812 716.371094 564.023438 716.398438 564.070312 C 716.425781 564.113281 716.410156 564.171875 716.363281 564.195312 L 716.324219 564.21875 C 716.308594 564.230469 716.292969 564.234375 716.277344 564.234375 Z M 710.371094 564.210938 C 710.355469 564.210938 710.339844 564.207031 710.324219 564.199219 L 710.28125 564.175781 C 710.238281 564.148438 710.222656 564.089844 710.25 564.046875 C 710.277344 564 710.332031 563.988281 710.378906 564.011719 L 710.417969 564.035156 C 710.464844 564.0625 710.476562 564.121094 710.453125 564.164062 C 710.433594 564.195312 710.402344 564.210938 710.371094 564.210938 Z M 716.554688 564.0625 C 716.523438 564.0625 716.496094 564.046875 716.476562 564.019531 C 716.449219 563.976562 716.460938 563.917969 716.503906 563.890625 L 716.542969 563.867188 C 716.585938 563.835938 716.644531 563.847656 716.671875 563.890625 C 716.703125 563.9375 716.691406 563.996094 716.648438 564.023438 L 716.605469 564.046875 C 716.589844 564.058594 716.574219 564.0625 716.554688 564.0625 Z M 710.089844 564.039062 C 710.074219 564.039062 710.054688 564.035156 710.039062 564.023438 L 710 564 C 709.957031 563.96875 709.945312 563.910156 709.972656 563.867188 C 710.003906 563.824219 710.0625 563.8125 710.105469 563.84375 L 710.144531 563.867188 C 710.1875 563.894531 710.199219 563.953125 710.171875 564 C 710.152344 564.023438 710.121094 564.039062 710.089844 564.039062 Z M 716.828125 563.878906 C 716.796875 563.878906 716.769531 563.867188 716.75 563.839844 C 716.71875 563.796875 716.730469 563.738281 716.769531 563.707031 L 716.808594 563.683594 C 716.851562 563.652344 716.910156 563.660156 716.941406 563.703125 C 716.96875 563.742188 716.960938 563.800781 716.917969 563.832031 L 716.882812 563.859375 C 716.863281 563.875 716.84375 563.878906 716.828125 563.878906 Z M 709.820312 563.851562 C 709.800781 563.851562 709.78125 563.847656 709.765625 563.835938 L 709.726562 563.808594 C 709.6875 563.777344 709.679688 563.71875 709.710938 563.675781 C 709.738281 563.632812 709.800781 563.625 709.839844 563.65625 L 709.878906 563.683594 C 709.917969 563.714844 709.929688 563.773438 709.898438 563.816406 C 709.878906 563.839844 709.851562 563.851562 709.820312 563.851562 Z M 717.085938 563.679688 C 717.058594 563.679688 717.03125 563.667969 717.011719 563.644531 C 716.980469 563.605469 716.988281 563.546875 717.027344 563.511719 L 717.0625 563.484375 C 717.101562 563.449219 717.160156 563.457031 717.195312 563.496094 C 717.226562 563.535156 717.222656 563.597656 717.183594 563.628906 L 717.144531 563.660156 C 717.128906 563.671875 717.105469 563.679688 717.085938 563.679688 Z M 709.5625 563.652344 C 709.542969 563.652344 709.519531 563.644531 709.503906 563.628906 L 709.46875 563.601562 C 709.425781 563.566406 709.421875 563.507812 709.457031 563.46875 C 709.488281 563.429688 709.546875 563.421875 709.585938 563.457031 L 709.625 563.484375 C 709.664062 563.519531 709.667969 563.578125 709.636719 563.617188 C 709.617188 563.640625 709.589844 563.652344 709.5625 563.652344 Z M 717.335938 563.464844 C 717.308594 563.464844 717.285156 563.457031 717.265625 563.4375 C 717.230469 563.398438 717.234375 563.335938 717.273438 563.304688 L 717.304688 563.273438 C 717.34375 563.238281 717.402344 563.238281 717.4375 563.277344 C 717.472656 563.316406 717.472656 563.375 717.433594 563.410156 L 717.398438 563.441406 C 717.378906 563.457031 717.355469 563.464844 717.335938 563.464844 Z M 709.316406 563.4375 C 709.292969 563.4375 709.269531 563.429688 709.253906 563.410156 L 709.21875 563.378906 C 709.179688 563.34375 709.175781 563.285156 709.210938 563.246094 C 709.246094 563.210938 709.308594 563.207031 709.34375 563.242188 L 709.378906 563.273438 C 709.417969 563.308594 709.421875 563.367188 709.386719 563.40625 C 709.367188 563.425781 709.339844 563.4375 709.316406 563.4375 Z M 717.570312 563.238281 C 717.546875 563.238281 717.523438 563.230469 717.503906 563.214844 C 717.46875 563.175781 717.46875 563.117188 717.503906 563.082031 L 717.535156 563.046875 C 717.574219 563.007812 717.632812 563.007812 717.667969 563.046875 C 717.707031 563.082031 717.707031 563.140625 717.671875 563.179688 L 717.636719 563.210938 C 717.621094 563.230469 717.59375 563.238281 717.570312 563.238281 Z M 709.082031 563.207031 C 709.058594 563.207031 709.03125 563.199219 709.015625 563.179688 L 708.980469 563.144531 C 708.945312 563.109375 708.945312 563.050781 708.984375 563.011719 C 709.019531 562.976562 709.082031 562.976562 709.117188 563.015625 L 709.148438 563.050781 C 709.183594 563.085938 709.183594 563.144531 709.148438 563.179688 C 709.128906 563.199219 709.105469 563.207031 709.082031 563.207031 Z M 717.796875 563 C 717.773438 563 717.75 562.992188 717.734375 562.976562 C 717.695312 562.945312 717.691406 562.882812 717.722656 562.84375 L 717.753906 562.808594 C 717.789062 562.769531 717.847656 562.765625 717.886719 562.800781 C 717.925781 562.835938 717.929688 562.894531 717.898438 562.933594 L 717.867188 562.96875 C 717.847656 562.988281 717.820312 563 717.796875 563 Z M 708.859375 562.96875 C 708.832031 562.96875 708.808594 562.957031 708.789062 562.933594 L 708.757812 562.898438 C 708.722656 562.859375 708.726562 562.800781 708.765625 562.765625 C 708.804688 562.734375 708.867188 562.738281 708.898438 562.777344 L 708.929688 562.8125 C 708.964844 562.851562 708.960938 562.910156 708.921875 562.945312 C 708.902344 562.960938 708.882812 562.96875 708.859375 562.96875 Z M 718.003906 562.75 C 717.984375 562.75 717.964844 562.742188 717.945312 562.730469 C 717.90625 562.695312 717.898438 562.636719 717.933594 562.597656 L 717.960938 562.558594 C 717.992188 562.519531 718.050781 562.511719 718.09375 562.542969 C 718.132812 562.578125 718.140625 562.636719 718.109375 562.675781 L 718.078125 562.714844 C 718.0625 562.738281 718.035156 562.75 718.003906 562.75 Z M 708.652344 562.714844 C 708.621094 562.714844 708.59375 562.703125 708.578125 562.679688 L 708.546875 562.640625 C 708.515625 562.601562 708.523438 562.542969 708.566406 562.511719 C 708.605469 562.476562 708.664062 562.484375 708.695312 562.527344 L 708.726562 562.5625 C 708.757812 562.605469 708.75 562.664062 708.707031 562.695312 C 708.691406 562.707031 708.671875 562.714844 708.652344 562.714844 Z M 718.203125 562.488281 C 718.183594 562.488281 718.164062 562.480469 718.148438 562.46875 C 718.105469 562.441406 718.09375 562.382812 718.125 562.339844 L 718.152344 562.300781 C 718.179688 562.257812 718.238281 562.246094 718.28125 562.277344 C 718.324219 562.308594 718.335938 562.367188 718.304688 562.40625 L 718.277344 562.445312 C 718.261719 562.472656 718.230469 562.488281 718.203125 562.488281 Z M 708.457031 562.453125 C 708.425781 562.453125 708.398438 562.4375 708.378906 562.410156 L 708.351562 562.371094 C 708.324219 562.328125 708.335938 562.269531 708.378906 562.242188 C 708.421875 562.210938 708.476562 562.222656 708.507812 562.265625 L 708.535156 562.304688 C 708.5625 562.347656 708.554688 562.40625 708.511719 562.433594 C 708.492188 562.445312 708.476562 562.453125 708.457031 562.453125 Z M 718.382812 562.214844 C 718.367188 562.214844 718.347656 562.210938 718.332031 562.199219 C 718.289062 562.171875 718.277344 562.113281 718.304688 562.070312 L 718.328125 562.03125 C 718.355469 561.988281 718.414062 561.972656 718.457031 562 C 718.503906 562.027344 718.515625 562.085938 718.488281 562.128906 L 718.464844 562.171875 C 718.445312 562.199219 718.414062 562.214844 718.382812 562.214844 Z M 708.277344 562.179688 C 708.246094 562.179688 708.214844 562.164062 708.195312 562.132812 L 708.171875 562.09375 C 708.144531 562.046875 708.160156 561.992188 708.203125 561.964844 C 708.25 561.9375 708.304688 561.949219 708.332031 561.996094 L 708.355469 562.035156 C 708.382812 562.078125 708.371094 562.136719 708.328125 562.164062 C 708.3125 562.171875 708.292969 562.179688 708.277344 562.179688 Z M 718.550781 561.929688 C 718.535156 561.929688 718.519531 561.925781 718.503906 561.917969 C 718.460938 561.894531 718.441406 561.835938 718.46875 561.792969 L 718.492188 561.75 C 718.515625 561.707031 718.570312 561.6875 718.617188 561.714844 C 718.664062 561.738281 718.679688 561.796875 718.65625 561.839844 L 718.632812 561.882812 C 718.617188 561.914062 718.582031 561.929688 718.550781 561.929688 Z M 708.113281 561.894531 C 708.078125 561.894531 708.046875 561.878906 708.03125 561.847656 L 708.007812 561.804688 C 707.984375 561.757812 708 561.699219 708.046875 561.675781 C 708.09375 561.652344 708.148438 561.671875 708.175781 561.714844 L 708.195312 561.757812 C 708.21875 561.800781 708.203125 561.859375 708.15625 561.882812 C 708.144531 561.890625 708.128906 561.894531 708.113281 561.894531 Z M 718.699219 561.640625 C 718.6875 561.640625 718.671875 561.636719 718.660156 561.628906 C 718.613281 561.609375 718.59375 561.550781 718.617188 561.503906 L 718.636719 561.464844 C 718.660156 561.417969 718.714844 561.398438 718.761719 561.417969 C 718.808594 561.441406 718.828125 561.496094 718.804688 561.542969 L 718.785156 561.585938 C 718.769531 561.621094 718.734375 561.640625 718.699219 561.640625 Z M 707.964844 561.601562 C 707.929688 561.601562 707.894531 561.582031 707.878906 561.550781 L 707.859375 561.507812 C 707.839844 561.460938 707.859375 561.402344 707.90625 561.382812 C 707.953125 561.359375 708.007812 561.378906 708.03125 561.429688 L 708.050781 561.46875 C 708.070312 561.515625 708.050781 561.574219 708.003906 561.59375 C 707.992188 561.601562 707.976562 561.601562 707.964844 561.601562 Z M 718.835938 561.339844 C 718.824219 561.339844 718.8125 561.339844 718.800781 561.332031 C 718.75 561.3125 718.730469 561.257812 718.75 561.210938 L 718.765625 561.167969 C 718.785156 561.121094 718.839844 561.097656 718.890625 561.117188 C 718.9375 561.136719 718.960938 561.191406 718.941406 561.238281 L 718.921875 561.28125 C 718.90625 561.320312 718.871094 561.339844 718.835938 561.339844 Z M 707.832031 561.304688 C 707.796875 561.304688 707.761719 561.28125 707.746094 561.246094 L 707.726562 561.203125 C 707.710938 561.152344 707.734375 561.097656 707.78125 561.078125 C 707.828125 561.058594 707.882812 561.082031 707.902344 561.132812 L 707.921875 561.175781 C 707.941406 561.222656 707.917969 561.277344 707.867188 561.296875 C 707.855469 561.300781 707.84375 561.304688 707.832031 561.304688 Z M 718.953125 561.035156 C 718.941406 561.035156 718.933594 561.03125 718.921875 561.027344 C 718.871094 561.011719 718.847656 560.957031 718.863281 560.910156 L 718.878906 560.863281 C 718.894531 560.816406 718.949219 560.789062 719 560.804688 C 719.046875 560.824219 719.074219 560.875 719.058594 560.925781 L 719.042969 560.972656 C 719.027344 561.007812 718.992188 561.035156 718.953125 561.035156 Z M 707.71875 560.996094 C 707.679688 560.996094 707.640625 560.972656 707.628906 560.933594 L 707.613281 560.890625 C 707.597656 560.839844 707.625 560.785156 707.671875 560.769531 C 707.722656 560.753906 707.777344 560.78125 707.792969 560.828125 L 707.804688 560.871094 C 707.824219 560.921875 707.796875 560.976562 707.75 560.992188 C 707.738281 560.996094 707.726562 560.996094 707.71875 560.996094 Z M 719.054688 560.722656 C 719.042969 560.722656 719.035156 560.71875 719.027344 560.71875 C 718.976562 560.703125 718.949219 560.652344 718.964844 560.601562 L 718.976562 560.558594 C 718.988281 560.507812 719.042969 560.476562 719.089844 560.492188 C 719.140625 560.507812 719.171875 560.558594 719.15625 560.609375 L 719.144531 560.652344 C 719.132812 560.695312 719.09375 560.722656 719.054688 560.722656 Z M 707.621094 560.683594 C 707.578125 560.683594 707.539062 560.65625 707.527344 560.617188 L 707.515625 560.570312 C 707.503906 560.519531 707.53125 560.46875 707.582031 560.457031 C 707.632812 560.441406 707.683594 560.472656 707.699219 560.519531 L 707.710938 560.566406 C 707.722656 560.613281 707.695312 560.667969 707.644531 560.679688 C 707.636719 560.683594 707.628906 560.683594 707.621094 560.683594 Z M 719.136719 560.40625 C 719.128906 560.40625 719.121094 560.402344 719.113281 560.402344 C 719.0625 560.390625 719.03125 560.339844 719.042969 560.289062 L 719.054688 560.246094 C 719.066406 560.195312 719.117188 560.160156 719.167969 560.171875 C 719.21875 560.183594 719.25 560.234375 719.238281 560.285156 L 719.226562 560.332031 C 719.21875 560.375 719.179688 560.40625 719.136719 560.40625 Z M 707.539062 560.367188 C 707.496094 560.367188 707.457031 560.335938 707.449219 560.292969 L 707.4375 560.246094 C 707.425781 560.195312 707.457031 560.148438 707.507812 560.136719 C 707.558594 560.125 707.609375 560.15625 707.621094 560.207031 L 707.628906 560.253906 C 707.640625 560.304688 707.609375 560.355469 707.558594 560.367188 C 707.550781 560.367188 707.546875 560.367188 707.539062 560.367188 Z M 719.199219 560.082031 C 719.195312 560.082031 719.191406 560.082031 719.183594 560.082031 C 719.132812 560.074219 719.097656 560.023438 719.109375 559.972656 L 719.117188 559.929688 C 719.125 559.875 719.171875 559.84375 719.222656 559.851562 C 719.277344 559.859375 719.308594 559.90625 719.300781 559.957031 L 719.292969 560.003906 C 719.285156 560.050781 719.246094 560.082031 719.199219 560.082031 Z M 707.476562 560.046875 C 707.429688 560.046875 707.390625 560.011719 707.382812 559.96875 L 707.375 559.921875 C 707.367188 559.867188 707.402344 559.820312 707.453125 559.8125 C 707.503906 559.804688 707.554688 559.839844 707.5625 559.890625 L 707.570312 559.9375 C 707.578125 559.988281 707.542969 560.035156 707.492188 560.042969 C 707.484375 560.046875 707.480469 560.046875 707.476562 560.046875 Z M 719.25 559.757812 C 719.246094 559.757812 719.242188 559.757812 719.238281 559.757812 C 719.183594 559.753906 719.148438 559.707031 719.15625 559.65625 L 719.160156 559.609375 C 719.164062 559.558594 719.210938 559.519531 719.261719 559.527344 C 719.316406 559.53125 719.351562 559.578125 719.347656 559.628906 L 719.339844 559.675781 C 719.335938 559.722656 719.296875 559.757812 719.25 559.757812 Z M 707.429688 559.722656 C 707.382812 559.722656 707.34375 559.6875 707.335938 559.636719 L 707.332031 559.589844 C 707.328125 559.539062 707.363281 559.492188 707.417969 559.488281 C 707.46875 559.484375 707.515625 559.519531 707.519531 559.570312 L 707.523438 559.617188 C 707.53125 559.667969 707.492188 559.714844 707.441406 559.722656 C 707.4375 559.722656 707.433594 559.722656 707.429688 559.722656 Z M 719.277344 559.433594 C 719.273438 559.433594 719.273438 559.433594 719.269531 559.433594 C 719.21875 559.429688 719.179688 559.382812 719.183594 559.332031 L 719.1875 559.289062 C 719.1875 559.234375 719.234375 559.195312 719.285156 559.199219 C 719.335938 559.203125 719.375 559.246094 719.375 559.296875 L 719.371094 559.34375 C 719.367188 559.394531 719.328125 559.433594 719.277344 559.433594 Z M 707.402344 559.394531 C 707.355469 559.394531 707.3125 559.355469 707.308594 559.304688 L 707.308594 559.257812 C 707.304688 559.207031 707.34375 559.164062 707.398438 559.160156 C 707.449219 559.15625 707.492188 559.199219 707.496094 559.25 L 707.496094 559.296875 C 707.5 559.347656 707.460938 559.390625 707.410156 559.394531 C 707.40625 559.394531 707.40625 559.394531 707.402344 559.394531 Z M 719.289062 559.105469 C 719.234375 559.105469 719.195312 559.0625 719.195312 559.011719 L 719.195312 558.949219 C 719.195312 558.894531 719.238281 558.855469 719.289062 558.855469 C 719.339844 558.855469 719.382812 558.894531 719.382812 558.949219 L 719.382812 559.011719 C 719.382812 559.0625 719.339844 559.105469 719.289062 559.105469 Z M 707.394531 559.0625 C 707.34375 559.0625 707.300781 559.027344 707.300781 558.972656 L 707.300781 558.925781 C 707.300781 558.875 707.339844 558.835938 707.394531 558.832031 C 707.445312 558.832031 707.488281 558.875 707.488281 558.925781 L 707.488281 558.964844 C 707.488281 559.015625 707.445312 559.0625 707.394531 559.0625 Z M 719.28125 558.761719 C 719.230469 558.761719 719.191406 558.722656 719.1875 558.671875 L 719.183594 558.625 C 719.183594 558.574219 719.222656 558.53125 719.273438 558.527344 C 719.324219 558.523438 719.371094 558.5625 719.371094 558.613281 L 719.375 558.664062 C 719.378906 558.714844 719.335938 558.757812 719.285156 558.761719 C 719.285156 558.761719 719.28125 558.761719 719.28125 558.761719 Z M 707.402344 558.738281 C 707.402344 558.738281 707.398438 558.738281 707.398438 558.738281 C 707.347656 558.738281 707.304688 558.691406 707.308594 558.640625 L 707.3125 558.59375 C 707.316406 558.542969 707.359375 558.503906 707.410156 558.503906 C 707.464844 558.507812 707.503906 558.554688 707.5 558.605469 L 707.496094 558.652344 C 707.492188 558.703125 707.453125 558.738281 707.402344 558.738281 Z M 719.257812 558.433594 C 719.210938 558.433594 719.167969 558.398438 719.164062 558.351562 L 719.15625 558.304688 C 719.152344 558.253906 719.191406 558.207031 719.242188 558.199219 C 719.292969 558.195312 719.339844 558.230469 719.34375 558.285156 L 719.351562 558.332031 C 719.355469 558.382812 719.316406 558.429688 719.265625 558.433594 C 719.261719 558.433594 719.261719 558.433594 719.257812 558.433594 Z M 707.429688 558.414062 C 707.425781 558.414062 707.421875 558.414062 707.417969 558.414062 C 707.367188 558.40625 707.332031 558.359375 707.335938 558.308594 L 707.339844 558.261719 C 707.347656 558.210938 707.394531 558.171875 707.445312 558.179688 C 707.496094 558.1875 707.535156 558.230469 707.527344 558.285156 L 707.523438 558.328125 C 707.515625 558.378906 707.476562 558.414062 707.429688 558.414062 Z M 719.214844 558.109375 C 719.167969 558.109375 719.128906 558.078125 719.121094 558.03125 L 719.113281 557.984375 C 719.105469 557.933594 719.140625 557.886719 719.191406 557.875 C 719.242188 557.867188 719.289062 557.902344 719.296875 557.953125 L 719.304688 558 C 719.316406 558.050781 719.28125 558.101562 719.226562 558.109375 C 719.222656 558.109375 719.21875 558.109375 719.214844 558.109375 Z M 707.472656 558.089844 C 707.46875 558.089844 707.464844 558.089844 707.457031 558.085938 C 707.40625 558.078125 707.371094 558.03125 707.378906 557.980469 L 707.386719 557.933594 C 707.398438 557.882812 707.445312 557.847656 707.496094 557.855469 C 707.546875 557.863281 707.582031 557.914062 707.574219 557.964844 L 707.566406 558.011719 C 707.558594 558.054688 707.519531 558.089844 707.472656 558.089844 Z M 719.152344 557.789062 C 719.109375 557.789062 719.070312 557.757812 719.0625 557.714844 L 719.050781 557.667969 C 719.039062 557.617188 719.070312 557.566406 719.121094 557.554688 C 719.171875 557.546875 719.222656 557.578125 719.234375 557.628906 L 719.246094 557.675781 C 719.253906 557.722656 719.222656 557.773438 719.171875 557.785156 C 719.164062 557.785156 719.160156 557.789062 719.152344 557.789062 Z M 707.535156 557.765625 C 707.527344 557.765625 707.523438 557.765625 707.515625 557.765625 C 707.464844 557.753906 707.433594 557.703125 707.445312 557.652344 L 707.453125 557.605469 C 707.464844 557.554688 707.515625 557.523438 707.566406 557.535156 C 707.617188 557.546875 707.648438 557.597656 707.636719 557.648438 L 707.625 557.695312 C 707.617188 557.738281 707.578125 557.765625 707.535156 557.765625 Z M 719.074219 557.46875 C 719.03125 557.46875 718.996094 557.441406 718.984375 557.402344 L 718.972656 557.355469 C 718.957031 557.304688 718.984375 557.253906 719.035156 557.238281 C 719.085938 557.226562 719.136719 557.253906 719.152344 557.304688 L 719.164062 557.351562 C 719.179688 557.402344 719.148438 557.453125 719.097656 557.464844 C 719.089844 557.46875 719.082031 557.46875 719.074219 557.46875 Z M 707.613281 557.449219 C 707.605469 557.449219 707.597656 557.449219 707.589844 557.445312 C 707.539062 557.433594 707.511719 557.378906 707.523438 557.328125 L 707.539062 557.285156 C 707.550781 557.234375 707.605469 557.207031 707.652344 557.21875 C 707.703125 557.234375 707.734375 557.285156 707.71875 557.335938 L 707.707031 557.378906 C 707.695312 557.421875 707.65625 557.449219 707.613281 557.449219 Z M 718.976562 557.15625 C 718.9375 557.15625 718.902344 557.132812 718.890625 557.09375 L 718.875 557.050781 C 718.855469 557 718.882812 556.945312 718.933594 556.929688 C 718.980469 556.914062 719.035156 556.9375 719.050781 556.988281 L 719.066406 557.03125 C 719.082031 557.082031 719.058594 557.136719 719.007812 557.152344 C 719 557.15625 718.988281 557.15625 718.976562 557.15625 Z M 707.710938 557.136719 C 707.703125 557.136719 707.691406 557.136719 707.683594 557.132812 C 707.632812 557.113281 707.605469 557.0625 707.625 557.011719 L 707.640625 556.96875 C 707.65625 556.917969 707.710938 556.890625 707.757812 556.910156 C 707.808594 556.925781 707.832031 556.980469 707.816406 557.03125 L 707.800781 557.074219 C 707.789062 557.113281 707.75 557.136719 707.710938 557.136719 Z M 718.863281 556.847656 C 718.828125 556.847656 718.792969 556.828125 718.777344 556.789062 L 718.761719 556.746094 C 718.742188 556.699219 718.765625 556.644531 718.8125 556.625 C 718.859375 556.605469 718.914062 556.628906 718.933594 556.675781 L 718.953125 556.71875 C 718.972656 556.769531 718.949219 556.824219 718.898438 556.84375 C 718.886719 556.847656 718.875 556.847656 718.863281 556.847656 Z M 707.828125 556.828125 C 707.816406 556.828125 707.804688 556.828125 707.792969 556.820312 C 707.742188 556.800781 707.71875 556.746094 707.738281 556.699219 L 707.757812 556.65625 C 707.777344 556.605469 707.832031 556.585938 707.878906 556.605469 C 707.929688 556.625 707.953125 556.679688 707.929688 556.726562 L 707.914062 556.769531 C 707.898438 556.808594 707.863281 556.828125 707.828125 556.828125 Z M 718.734375 556.550781 C 718.699219 556.550781 718.664062 556.527344 718.648438 556.496094 L 718.628906 556.453125 C 718.609375 556.40625 718.628906 556.351562 718.675781 556.328125 C 718.722656 556.304688 718.777344 556.324219 718.800781 556.371094 L 718.820312 556.414062 C 718.84375 556.460938 718.820312 556.519531 718.773438 556.539062 C 718.761719 556.546875 718.75 556.550781 718.734375 556.550781 Z M 707.957031 556.527344 C 707.945312 556.527344 707.929688 556.523438 707.917969 556.519531 C 707.871094 556.496094 707.851562 556.441406 707.875 556.394531 L 707.894531 556.351562 C 707.917969 556.304688 707.972656 556.285156 708.019531 556.308594 C 708.066406 556.328125 708.085938 556.386719 708.0625 556.433594 L 708.042969 556.472656 C 708.027344 556.507812 707.992188 556.527344 707.957031 556.527344 Z M 718.589844 556.257812 C 718.554688 556.257812 718.523438 556.238281 718.503906 556.207031 L 718.484375 556.167969 C 718.457031 556.121094 718.476562 556.0625 718.519531 556.039062 C 718.566406 556.015625 718.625 556.03125 718.648438 556.078125 L 718.671875 556.117188 C 718.695312 556.164062 718.679688 556.222656 718.632812 556.246094 C 718.617188 556.253906 718.601562 556.257812 718.589844 556.257812 Z M 708.105469 556.234375 C 708.089844 556.234375 708.074219 556.230469 708.0625 556.222656 C 708.015625 556.199219 708 556.140625 708.023438 556.097656 L 708.046875 556.054688 C 708.070312 556.007812 708.128906 555.992188 708.175781 556.015625 C 708.21875 556.042969 708.234375 556.101562 708.210938 556.144531 L 708.1875 556.1875 C 708.171875 556.21875 708.140625 556.234375 708.105469 556.234375 Z M 718.425781 555.972656 C 718.394531 555.972656 718.363281 555.957031 718.347656 555.925781 L 718.320312 555.886719 C 718.292969 555.84375 718.308594 555.785156 718.351562 555.757812 C 718.398438 555.730469 718.453125 555.746094 718.480469 555.789062 L 718.507812 555.828125 C 718.535156 555.875 718.519531 555.933594 718.476562 555.957031 C 718.460938 555.96875 718.441406 555.972656 718.425781 555.972656 Z M 708.269531 555.949219 C 708.253906 555.949219 708.238281 555.945312 708.222656 555.9375 C 708.175781 555.910156 708.164062 555.851562 708.191406 555.808594 L 708.214844 555.765625 C 708.242188 555.722656 708.300781 555.710938 708.34375 555.738281 C 708.390625 555.765625 708.402344 555.824219 708.375 555.867188 L 708.351562 555.90625 C 708.332031 555.933594 708.300781 555.949219 708.269531 555.949219 Z M 718.25 555.699219 C 718.21875 555.699219 718.1875 555.683594 718.171875 555.65625 L 718.144531 555.621094 C 718.117188 555.578125 718.125 555.519531 718.167969 555.488281 C 718.210938 555.457031 718.269531 555.46875 718.300781 555.511719 L 718.328125 555.550781 C 718.355469 555.59375 718.34375 555.652344 718.300781 555.679688 C 718.285156 555.691406 718.265625 555.699219 718.25 555.699219 Z M 708.449219 555.675781 C 708.429688 555.675781 708.414062 555.671875 708.394531 555.660156 C 708.351562 555.628906 708.34375 555.570312 708.371094 555.527344 L 708.398438 555.488281 C 708.429688 555.445312 708.488281 555.4375 708.53125 555.46875 C 708.574219 555.496094 708.582031 555.554688 708.554688 555.597656 L 708.527344 555.636719 C 708.507812 555.664062 708.480469 555.675781 708.449219 555.675781 Z M 718.054688 555.433594 C 718.027344 555.433594 718 555.421875 717.980469 555.394531 L 717.953125 555.359375 C 717.921875 555.320312 717.929688 555.261719 717.96875 555.226562 C 718.011719 555.195312 718.070312 555.203125 718.101562 555.242188 L 718.128906 555.28125 C 718.160156 555.324219 718.152344 555.382812 718.113281 555.414062 C 718.097656 555.425781 718.074219 555.433594 718.054688 555.433594 Z M 708.644531 555.410156 C 708.625 555.410156 708.601562 555.40625 708.585938 555.390625 C 708.546875 555.359375 708.539062 555.300781 708.570312 555.261719 L 708.597656 555.222656 C 708.632812 555.183594 708.691406 555.175781 708.730469 555.207031 C 708.773438 555.238281 708.777344 555.300781 708.746094 555.339844 L 708.71875 555.375 C 708.699219 555.398438 708.671875 555.410156 708.644531 555.410156 Z M 717.847656 555.179688 C 717.820312 555.179688 717.796875 555.167969 717.777344 555.148438 L 717.746094 555.113281 C 717.714844 555.074219 717.71875 555.011719 717.757812 554.980469 C 717.796875 554.945312 717.855469 554.949219 717.890625 554.988281 L 717.917969 555.019531 C 717.949219 555.058594 717.949219 555.121094 717.910156 555.152344 C 717.890625 555.171875 717.867188 555.179688 717.847656 555.179688 Z M 708.851562 555.160156 C 708.828125 555.160156 708.808594 555.152344 708.789062 555.136719 C 708.75 555.101562 708.746094 555.042969 708.78125 555.003906 L 708.8125 554.96875 C 708.847656 554.929688 708.90625 554.925781 708.945312 554.960938 C 708.984375 554.992188 708.988281 555.054688 708.953125 555.09375 L 708.921875 555.125 C 708.902344 555.148438 708.878906 555.160156 708.851562 555.160156 Z M 717.628906 554.9375 C 717.605469 554.9375 717.578125 554.925781 717.5625 554.90625 L 717.527344 554.875 C 717.492188 554.835938 717.492188 554.777344 717.53125 554.742188 C 717.566406 554.707031 717.625 554.707031 717.664062 554.742188 L 717.695312 554.777344 C 717.734375 554.816406 717.730469 554.875 717.695312 554.910156 C 717.675781 554.929688 717.652344 554.9375 717.628906 554.9375 Z M 709.074219 554.917969 C 709.050781 554.917969 709.027344 554.910156 709.007812 554.890625 C 708.972656 554.855469 708.96875 554.796875 709.007812 554.757812 L 709.039062 554.722656 C 709.074219 554.6875 709.136719 554.6875 709.171875 554.722656 C 709.210938 554.757812 709.210938 554.820312 709.171875 554.855469 L 709.140625 554.890625 C 709.121094 554.90625 709.097656 554.917969 709.074219 554.917969 Z M 717.394531 554.707031 C 717.371094 554.707031 717.347656 554.699219 717.332031 554.683594 L 717.296875 554.652344 C 717.257812 554.617188 717.257812 554.554688 717.292969 554.519531 C 717.328125 554.480469 717.386719 554.476562 717.425781 554.511719 L 717.460938 554.542969 C 717.496094 554.578125 717.5 554.640625 717.464844 554.675781 C 717.445312 554.695312 717.421875 554.707031 717.394531 554.707031 Z M 709.308594 554.6875 C 709.28125 554.6875 709.257812 554.679688 709.238281 554.660156 C 709.203125 554.621094 709.207031 554.5625 709.246094 554.527344 L 709.277344 554.492188 C 709.316406 554.457031 709.378906 554.460938 709.410156 554.5 C 709.445312 554.539062 709.445312 554.597656 709.40625 554.632812 L 709.371094 554.664062 C 709.355469 554.679688 709.332031 554.6875 709.308594 554.6875 Z M 717.148438 554.492188 C 717.128906 554.492188 717.105469 554.484375 717.089844 554.46875 L 717.054688 554.4375 C 717.011719 554.40625 717.007812 554.347656 717.039062 554.308594 C 717.074219 554.265625 717.132812 554.261719 717.171875 554.292969 L 717.210938 554.324219 C 717.25 554.355469 717.253906 554.417969 717.222656 554.457031 C 717.203125 554.480469 717.175781 554.492188 717.148438 554.492188 Z M 709.554688 554.472656 C 709.527344 554.472656 709.5 554.460938 709.480469 554.4375 C 709.449219 554.398438 709.453125 554.339844 709.496094 554.304688 L 709.53125 554.277344 C 709.570312 554.242188 709.628906 554.25 709.664062 554.289062 C 709.695312 554.332031 709.691406 554.390625 709.648438 554.421875 L 709.613281 554.453125 C 709.597656 554.464844 709.574219 554.472656 709.554688 554.472656 Z M 716.890625 554.289062 C 716.871094 554.289062 716.851562 554.28125 716.835938 554.269531 L 716.796875 554.242188 C 716.757812 554.210938 716.746094 554.152344 716.777344 554.109375 C 716.808594 554.066406 716.867188 554.058594 716.910156 554.089844 L 716.949219 554.117188 C 716.988281 554.148438 717 554.207031 716.96875 554.25 C 716.949219 554.273438 716.921875 554.289062 716.890625 554.289062 Z M 709.8125 554.273438 C 709.785156 554.273438 709.753906 554.257812 709.738281 554.234375 C 709.707031 554.191406 709.714844 554.132812 709.757812 554.101562 L 709.796875 554.074219 C 709.835938 554.042969 709.894531 554.054688 709.925781 554.09375 C 709.957031 554.136719 709.949219 554.195312 709.90625 554.226562 L 709.867188 554.253906 C 709.851562 554.265625 709.832031 554.273438 709.8125 554.273438 Z M 716.625 554.097656 C 716.605469 554.097656 716.589844 554.09375 716.570312 554.082031 L 716.535156 554.058594 C 716.488281 554.03125 716.476562 553.972656 716.507812 553.925781 C 716.535156 553.882812 716.59375 553.871094 716.636719 553.898438 L 716.675781 553.925781 C 716.71875 553.953125 716.730469 554.011719 716.703125 554.054688 C 716.683594 554.082031 716.652344 554.097656 716.625 554.097656 Z M 710.082031 554.085938 C 710.050781 554.085938 710.019531 554.070312 710.003906 554.042969 C 709.972656 554 709.984375 553.941406 710.03125 553.910156 L 710.070312 553.886719 C 710.113281 553.859375 710.171875 553.871094 710.199219 553.914062 C 710.226562 553.957031 710.214844 554.015625 710.171875 554.042969 L 710.132812 554.070312 C 710.117188 554.078125 710.097656 554.085938 710.082031 554.085938 Z M 716.34375 553.925781 C 716.328125 553.925781 716.3125 553.921875 716.296875 553.914062 L 716.257812 553.890625 C 716.214844 553.863281 716.199219 553.804688 716.222656 553.761719 C 716.25 553.714844 716.304688 553.699219 716.351562 553.726562 L 716.394531 553.75 C 716.4375 553.777344 716.453125 553.832031 716.425781 553.878906 C 716.410156 553.910156 716.378906 553.925781 716.34375 553.925781 Z M 710.359375 553.914062 C 710.328125 553.914062 710.296875 553.894531 710.277344 553.867188 C 710.253906 553.820312 710.265625 553.761719 710.3125 553.738281 L 710.351562 553.714844 C 710.398438 553.6875 710.457031 553.703125 710.480469 553.75 C 710.507812 553.792969 710.492188 553.851562 710.445312 553.875 L 710.40625 553.898438 C 710.390625 553.910156 710.375 553.914062 710.359375 553.914062 Z M 716.058594 553.765625 C 716.042969 553.765625 716.027344 553.765625 716.015625 553.757812 L 715.972656 553.734375 C 715.929688 553.710938 715.910156 553.65625 715.933594 553.609375 C 715.957031 553.5625 716.011719 553.542969 716.058594 553.566406 L 716.101562 553.589844 C 716.148438 553.613281 716.164062 553.667969 716.140625 553.714844 C 716.125 553.75 716.09375 553.765625 716.058594 553.765625 Z M 710.648438 553.757812 C 710.613281 553.757812 710.578125 553.738281 710.5625 553.703125 C 710.539062 553.660156 710.558594 553.601562 710.605469 553.578125 L 710.648438 553.558594 C 710.691406 553.535156 710.75 553.550781 710.773438 553.597656 C 710.796875 553.644531 710.777344 553.703125 710.730469 553.726562 L 710.691406 553.746094 C 710.675781 553.753906 710.660156 553.757812 710.648438 553.757812 Z M 715.761719 553.625 C 715.75 553.625 715.738281 553.621094 715.722656 553.617188 L 715.679688 553.597656 C 715.632812 553.578125 715.613281 553.523438 715.632812 553.472656 C 715.652344 553.425781 715.710938 553.40625 715.757812 553.425781 L 715.800781 553.445312 C 715.847656 553.464844 715.867188 553.523438 715.847656 553.570312 C 715.832031 553.605469 715.796875 553.625 715.761719 553.625 Z M 710.941406 553.617188 C 710.90625 553.617188 710.871094 553.59375 710.855469 553.558594 C 710.835938 553.511719 710.855469 553.457031 710.902344 553.4375 L 710.949219 553.417969 C 710.996094 553.398438 711.050781 553.417969 711.070312 553.464844 C 711.089844 553.515625 711.070312 553.570312 711.023438 553.589844 L 710.980469 553.609375 C 710.96875 553.613281 710.953125 553.617188 710.941406 553.617188 Z M 715.457031 553.5 C 715.449219 553.5 715.4375 553.496094 715.425781 553.492188 L 715.382812 553.476562 C 715.332031 553.460938 715.308594 553.40625 715.328125 553.355469 C 715.34375 553.308594 715.398438 553.28125 715.449219 553.300781 L 715.492188 553.316406 C 715.539062 553.335938 715.566406 553.390625 715.546875 553.4375 C 715.53125 553.476562 715.496094 553.5 715.457031 553.5 Z M 711.246094 553.492188 C 711.207031 553.492188 711.171875 553.46875 711.15625 553.429688 C 711.136719 553.382812 711.164062 553.328125 711.210938 553.308594 L 711.257812 553.292969 C 711.304688 553.277344 711.359375 553.300781 711.375 553.347656 C 711.394531 553.398438 711.371094 553.453125 711.320312 553.46875 L 711.277344 553.484375 C 711.265625 553.488281 711.253906 553.492188 711.246094 553.492188 Z M 715.148438 553.390625 C 715.140625 553.390625 715.128906 553.390625 715.121094 553.386719 L 715.074219 553.371094 C 715.027344 553.359375 715 553.304688 715.015625 553.253906 C 715.027344 553.207031 715.082031 553.179688 715.132812 553.195312 L 715.175781 553.207031 C 715.226562 553.222656 715.253906 553.277344 715.238281 553.324219 C 715.226562 553.367188 715.1875 553.390625 715.148438 553.390625 Z M 711.554688 553.386719 C 711.515625 553.386719 711.476562 553.359375 711.464844 553.320312 C 711.449219 553.269531 711.476562 553.21875 711.527344 553.203125 L 711.570312 553.1875 C 711.621094 553.171875 711.671875 553.199219 711.6875 553.25 C 711.703125 553.300781 711.675781 553.351562 711.625 553.367188 L 711.582031 553.378906 C 711.574219 553.382812 711.5625 553.386719 711.554688 553.386719 Z M 714.832031 553.300781 C 714.824219 553.300781 714.816406 553.300781 714.808594 553.296875 L 714.765625 553.285156 C 714.714844 553.273438 714.683594 553.222656 714.695312 553.171875 C 714.710938 553.121094 714.761719 553.089844 714.8125 553.105469 L 714.855469 553.117188 C 714.90625 553.128906 714.9375 553.179688 714.925781 553.230469 C 714.914062 553.273438 714.875 553.300781 714.832031 553.300781 Z M 711.867188 553.296875 C 711.828125 553.296875 711.789062 553.265625 711.777344 553.226562 C 711.765625 553.175781 711.796875 553.125 711.847656 553.109375 L 711.890625 553.097656 C 711.941406 553.085938 711.992188 553.117188 712.007812 553.167969 C 712.019531 553.21875 711.988281 553.269531 711.9375 553.28125 L 711.890625 553.292969 C 711.882812 553.292969 711.875 553.296875 711.867188 553.296875 Z M 714.515625 553.226562 C 714.507812 553.226562 714.5 553.226562 714.496094 553.226562 L 714.449219 553.214844 C 714.398438 553.207031 714.367188 553.15625 714.375 553.105469 C 714.386719 553.054688 714.433594 553.023438 714.484375 553.03125 L 714.53125 553.039062 C 714.582031 553.050781 714.617188 553.101562 714.605469 553.152344 C 714.597656 553.195312 714.558594 553.226562 714.515625 553.226562 Z M 712.1875 553.222656 C 712.144531 553.222656 712.105469 553.191406 712.097656 553.148438 C 712.085938 553.097656 712.121094 553.046875 712.171875 553.039062 L 712.21875 553.027344 C 712.269531 553.019531 712.316406 553.050781 712.328125 553.101562 C 712.335938 553.152344 712.304688 553.203125 712.253906 553.210938 L 712.207031 553.222656 C 712.199219 553.222656 712.195312 553.222656 712.1875 553.222656 Z M 714.191406 553.171875 C 714.1875 553.171875 714.183594 553.171875 714.179688 553.171875 L 714.132812 553.164062 C 714.082031 553.15625 714.042969 553.109375 714.050781 553.058594 C 714.058594 553.007812 714.105469 552.972656 714.15625 552.976562 L 714.203125 552.984375 C 714.257812 552.992188 714.292969 553.039062 714.285156 553.089844 C 714.277344 553.136719 714.238281 553.171875 714.191406 553.171875 Z M 712.511719 553.167969 C 712.464844 553.167969 712.425781 553.136719 712.417969 553.089844 C 712.410156 553.035156 712.449219 552.988281 712.5 552.980469 L 712.546875 552.976562 C 712.597656 552.96875 712.644531 553.003906 712.652344 553.058594 C 712.65625 553.109375 712.621094 553.15625 712.570312 553.164062 L 712.523438 553.167969 C 712.519531 553.167969 712.515625 553.167969 712.511719 553.167969 Z M 713.867188 553.132812 C 713.863281 553.132812 713.859375 553.132812 713.855469 553.132812 L 713.8125 553.128906 C 713.761719 553.125 713.722656 553.082031 713.726562 553.027344 C 713.730469 552.976562 713.773438 552.9375 713.828125 552.941406 L 713.875 552.945312 C 713.925781 552.953125 713.964844 552.996094 713.960938 553.046875 C 713.953125 553.097656 713.914062 553.132812 713.867188 553.132812 Z M 712.835938 553.132812 C 712.789062 553.132812 712.746094 553.09375 712.742188 553.046875 C 712.738281 552.996094 712.777344 552.949219 712.828125 552.945312 L 712.875 552.941406 C 712.929688 552.9375 712.972656 552.976562 712.976562 553.027344 C 712.980469 553.078125 712.941406 553.125 712.890625 553.128906 L 712.84375 553.132812 C 712.84375 553.132812 712.839844 553.132812 712.835938 553.132812 Z M 713.539062 553.113281 C 713.539062 553.113281 713.535156 553.113281 713.535156 553.113281 L 713.488281 553.113281 C 713.4375 553.113281 713.398438 553.070312 713.398438 553.015625 C 713.398438 552.964844 713.441406 552.921875 713.496094 552.925781 L 713.542969 552.925781 C 713.59375 552.929688 713.632812 552.972656 713.632812 553.023438 C 713.632812 553.074219 713.589844 553.113281 713.539062 553.113281 Z M 713.164062 553.113281 C 713.113281 553.113281 713.070312 553.074219 713.070312 553.023438 C 713.070312 552.972656 713.109375 552.929688 713.160156 552.925781 L 713.210938 552.925781 C 713.261719 552.921875 713.304688 552.964844 713.304688 553.015625 C 713.304688 553.070312 713.265625 553.113281 713.214844 553.113281 L 713.167969 553.113281 C 713.167969 553.113281 713.164062 553.113281 713.164062 553.113281 Z M 713.164062 553.113281 " fill-opacity="1" fill-rule="nonzero"/></g></svg>