<svg xmlns="http://www.w3.org/2000/svg" xmlns:xlink="http://www.w3.org/1999/xlink" width="1920" zoomAndPan="magnify" viewBox="0 0 1440 899.99999" height="1200" preserveAspectRatio="xMidYMid meet" version="1.0"><defs><clipPath id="8150acb8c1"><path d="M 534.664062 392.207031 L 548.914062 392.207031 L 548.914062 406.457031 L 534.664062 406.457031 Z M 534.664062 392.207031 " clip-rule="nonzero"/></clipPath></defs><path fill="#50b559" d="M 752.15625 82.628906 C 758.605469 94.273438 774.472656 96.359375 783.714844 86.785156 C 803.855469 65.90625 839.097656 75.351562 846.105469 103.5 C 849.316406 116.414062 864.105469 122.539062 875.507812 115.679688 C 900.367188 100.730469 931.96875 118.972656 931.449219 147.976562 C 931.210938 161.28125 943.90625 171.027344 956.699219 167.351562 C 984.578125 159.34375 1010.378906 185.144531 1002.371094 213.027344 C 998.699219 225.816406 1008.441406 238.515625 1021.746094 238.277344 C 1050.75 237.757812 1068.996094 269.355469 1054.042969 294.214844 C 1047.183594 305.617188 1053.308594 320.40625 1066.222656 323.621094 C 1094.375 330.625 1103.816406 365.871094 1082.941406 386.011719 C 1073.363281 395.25 1075.453125 411.121094 1087.09375 417.566406 C 1112.472656 431.617188 1112.472656 468.105469 1087.09375 482.160156 C 1075.453125 488.605469 1073.363281 504.472656 1082.941406 513.714844 C 1103.816406 533.855469 1094.375 569.097656 1066.222656 576.105469 C 1053.308594 579.316406 1047.183594 594.105469 1054.042969 605.507812 C 1068.996094 630.367188 1050.75 661.96875 1021.746094 661.449219 C 1008.441406 661.210938 998.699219 673.90625 1002.371094 686.699219 C 1010.378906 714.578125 984.578125 740.378906 956.699219 732.371094 C 943.90625 728.699219 931.210938 738.441406 931.449219 751.746094 C 931.96875 780.75 900.367188 798.996094 875.507812 784.042969 C 864.105469 777.183594 849.316406 783.308594 846.105469 796.222656 C 839.097656 824.375 803.855469 833.816406 783.714844 812.941406 C 774.472656 803.363281 758.605469 805.453125 752.15625 817.09375 C 738.105469 842.472656 701.617188 842.472656 687.566406 817.09375 C 681.121094 805.453125 665.25 803.363281 656.011719 812.941406 C 635.867188 833.816406 600.625 824.375 593.621094 796.222656 C 590.40625 783.308594 575.617188 777.183594 564.214844 784.042969 C 539.355469 798.996094 507.757812 780.75 508.277344 751.746094 C 508.515625 738.441406 495.816406 728.699219 483.027344 732.371094 C 455.144531 740.378906 429.34375 714.578125 437.351562 686.699219 C 441.027344 673.90625 431.28125 661.210938 417.976562 661.449219 C 388.972656 661.96875 370.730469 630.367188 385.679688 605.507812 C 392.539062 594.105469 386.414062 579.316406 373.5 576.105469 C 345.351562 569.097656 335.90625 533.855469 356.785156 513.714844 C 366.359375 504.472656 364.273438 488.605469 352.628906 482.160156 C 327.25 468.105469 327.25 431.617188 352.628906 417.566406 C 364.273438 411.121094 366.359375 395.25 356.785156 386.011719 C 335.90625 365.867188 345.351562 330.625 373.5 323.621094 C 386.414062 320.40625 392.539062 305.617188 385.679688 294.214844 C 370.730469 269.355469 388.972656 237.757812 417.976562 238.277344 C 431.28125 238.515625 441.027344 225.816406 437.351562 213.027344 C 429.34375 185.144531 455.144531 159.34375 483.027344 167.351562 C 495.816406 171.027344 508.515625 161.28125 508.277344 147.976562 C 507.757812 118.972656 539.355469 100.730469 564.214844 115.679688 C 575.617188 122.539062 590.40625 116.414062 593.621094 103.5 C 600.625 75.351562 635.867188 65.90625 656.011719 86.785156 C 665.25 96.359375 681.121094 94.273438 687.566406 82.628906 C 701.617188 57.25 738.105469 57.25 752.15625 82.628906 Z M 752.15625 82.628906 " fill-opacity="1" fill-rule="nonzero"/><path fill="#fffaf3" d="M 748.386719 333.050781 C 748.386719 368.386719 719.863281 397.035156 719.863281 397.035156 C 719.863281 397.035156 691.335938 368.386719 691.335938 333.050781 C 691.335938 297.710938 719.863281 269.066406 719.863281 269.066406 C 719.863281 269.066406 748.386719 297.710938 748.386719 333.050781 Z M 748.386719 333.050781 " fill-opacity="1" fill-rule="nonzero"/><path fill="#fffaf3" d="M 785.277344 425.269531 C 760.289062 450.257812 719.863281 450.34375 719.863281 450.34375 C 719.863281 450.34375 719.949219 409.914062 744.933594 384.929688 C 769.921875 359.941406 810.347656 359.855469 810.347656 359.855469 C 810.347656 359.855469 810.265625 400.28125 785.277344 425.269531 Z M 785.277344 425.269531 " fill-opacity="1" fill-rule="nonzero"/><path fill="#fffaf3" d="M 785.277344 505.5625 C 760.289062 530.550781 719.863281 530.636719 719.863281 530.636719 C 719.863281 530.636719 719.949219 490.207031 744.933594 465.222656 C 769.921875 440.234375 810.347656 440.148438 810.347656 440.148438 C 810.347656 440.148438 810.265625 480.574219 785.277344 505.5625 Z M 785.277344 505.5625 " fill-opacity="1" fill-rule="nonzero"/><path fill="#fffaf3" d="M 785.277344 585.855469 C 760.289062 610.84375 719.863281 610.929688 719.863281 610.929688 C 719.863281 610.929688 719.949219 570.503906 744.933594 545.515625 C 769.921875 520.527344 810.347656 520.441406 810.347656 520.441406 C 810.347656 520.441406 810.265625 560.867188 785.277344 585.855469 Z M 785.277344 585.855469 " fill-opacity="1" fill-rule="nonzero"/><path fill="#fffaf3" d="M 654.449219 425.269531 C 679.433594 450.257812 719.863281 450.34375 719.863281 450.34375 C 719.863281 450.34375 719.777344 409.914062 694.789062 384.929688 C 669.800781 359.941406 629.375 359.855469 629.375 359.855469 C 629.375 359.855469 629.460938 400.28125 654.449219 425.269531 Z M 654.449219 425.269531 " fill-opacity="1" fill-rule="nonzero"/><path fill="#fffaf3" d="M 654.449219 505.5625 C 679.433594 530.550781 719.863281 530.636719 719.863281 530.636719 C 719.863281 530.636719 719.777344 490.207031 694.789062 465.222656 C 669.800781 440.234375 629.375 440.148438 629.375 440.148438 C 629.375 440.148438 629.460938 480.574219 654.449219 505.5625 Z M 654.449219 505.5625 " fill-opacity="1" fill-rule="nonzero"/><path fill="#fffaf3" d="M 654.449219 585.855469 C 679.433594 610.84375 719.863281 610.929688 719.863281 610.929688 C 719.863281 610.929688 719.777344 570.503906 694.789062 545.515625 C 669.800781 520.527344 629.375 520.441406 629.375 520.441406 C 629.375 520.441406 629.460938 560.867188 654.449219 585.855469 Z M 654.449219 585.855469 " fill-opacity="1" fill-rule="nonzero"/><path fill="#fffaf3" d="M 485.546875 349.167969 C 486.617188 346.671875 487.292969 344.101562 487.566406 341.445312 C 487.847656 338.792969 487.695312 336.585938 487.117188 334.824219 L 480.773438 332.101562 L 475.976562 343.292969 L 468.886719 340.253906 L 477.449219 320.28125 L 494.296875 327.503906 C 495.75 331.003906 496.34375 335 496.085938 339.496094 C 495.828125 343.992188 494.78125 348.378906 492.949219 352.648438 C 489.75 360.109375 485.226562 364.957031 479.378906 367.199219 C 473.527344 369.4375 466.808594 368.929688 459.21875 365.675781 C 451.671875 362.441406 446.753906 357.945312 444.457031 352.1875 C 442.167969 346.429688 442.640625 339.769531 445.886719 332.199219 C 450.496094 321.445312 457.410156 316.308594 466.621094 316.796875 L 465.496094 326.785156 C 462.765625 326.746094 460.367188 327.488281 458.300781 329.015625 C 456.238281 330.542969 454.613281 332.683594 453.433594 335.4375 C 451.5 339.945312 451.394531 343.957031 453.125 347.472656 C 454.851562 350.984375 458.265625 353.832031 463.359375 356.019531 C 468.542969 358.238281 473.066406 358.75 476.933594 357.542969 C 480.796875 356.339844 483.671875 353.546875 485.546875 349.167969 Z M 485.546875 349.167969 " fill-opacity="1" fill-rule="nonzero"/><path fill="#fffaf3" d="M 512.894531 312.988281 L 473.34375 282.625 L 479.703125 274.34375 L 512.851562 299.796875 L 529.144531 278.574219 L 535.546875 283.488281 Z M 512.894531 312.988281 " fill-opacity="1" fill-rule="nonzero"/><path fill="#fffaf3" d="M 565.1875 257.539062 C 559.832031 261.832031 554.683594 263.8125 549.742188 263.476562 C 544.804688 263.140625 540.386719 260.542969 536.492188 255.683594 L 516.996094 231.355469 L 525.140625 224.824219 L 544.128906 248.519531 C 546.59375 251.59375 549.195312 253.339844 551.933594 253.761719 C 554.675781 254.179688 557.460938 253.253906 560.296875 250.980469 C 563.207031 248.652344 564.773438 246.027344 565.003906 243.105469 C 565.234375 240.183594 564.101562 237.167969 561.609375 234.058594 L 542.84375 210.640625 L 550.988281 204.113281 L 570.152344 228.027344 C 574.109375 232.960938 575.648438 238.007812 574.777344 243.164062 C 573.90625 248.320312 570.710938 253.113281 565.1875 257.539062 Z M 565.1875 257.539062 " fill-opacity="1" fill-rule="nonzero"/><path fill="#fffaf3" d="M 603.101562 185.054688 L 620.667969 222.976562 L 611.195312 227.363281 L 593.628906 189.445312 L 579.019531 196.210938 L 575.625 188.890625 L 614.351562 170.949219 L 617.742188 178.269531 Z M 603.101562 185.054688 " fill-opacity="1" fill-rule="nonzero"/><path fill="#fffaf3" d="M 651.910156 211.015625 L 642.09375 162.128906 L 680.535156 154.40625 L 682.125 162.316406 L 653.917969 167.984375 L 656.382812 180.265625 L 682.476562 175.023438 L 684.0625 182.9375 L 657.972656 188.175781 L 660.558594 201.046875 L 690.1875 195.097656 L 691.777344 203.007812 Z M 651.910156 211.015625 " fill-opacity="1" fill-rule="nonzero"/><path fill="#fffaf3" d="M 741.355469 203.117188 L 721.558594 163.691406 C 721.796875 167.433594 721.859375 170.4375 721.75 172.699219 L 720.292969 202.070312 L 711.03125 201.613281 L 713.5 151.8125 L 725.414062 152.402344 L 745.515625 192.160156 C 745.265625 188.582031 745.214844 185.332031 745.359375 182.410156 L 746.796875 153.460938 L 756.058594 153.921875 L 753.585938 203.722656 Z M 741.355469 203.117188 " fill-opacity="1" fill-rule="nonzero"/><path fill="#fffaf3" d="M 833.050781 183.46875 L 826.675781 197.519531 L 849.910156 208.0625 L 846.578125 215.410156 L 823.34375 204.867188 L 815.78125 221.527344 L 806.277344 217.214844 L 826.878906 171.808594 L 860.363281 187 L 857.027344 194.347656 Z M 833.050781 183.46875 " fill-opacity="1" fill-rule="nonzero"/><path fill="#fffaf3" d="M 883.152344 263.417969 L 885.789062 241.382812 L 876.175781 233.800781 L 864.453125 248.667969 L 856.253906 242.203125 L 887.128906 203.050781 L 906.691406 218.476562 C 911.359375 222.160156 914.171875 226.003906 915.125 230.015625 C 916.078125 234.027344 915.070312 237.914062 912.105469 241.675781 C 909.941406 244.417969 907.296875 246.171875 904.171875 246.933594 C 901.046875 247.699219 897.910156 247.351562 894.761719 245.890625 L 892.378906 270.691406 Z M 903.589844 235.5 C 906.554688 231.738281 905.628906 227.960938 900.8125 224.164062 L 890.308594 215.878906 L 881.191406 227.4375 L 891.917969 235.898438 C 894.214844 237.707031 896.367188 238.5625 898.371094 238.460938 C 900.375 238.359375 902.113281 237.371094 903.589844 235.5 Z M 903.589844 235.5 " fill-opacity="1" fill-rule="nonzero"/><path fill="#fffaf3" d="M 904.519531 283.933594 L 944.066406 253.5625 L 967.949219 284.664062 L 961.546875 289.578125 L 944.023438 266.757812 L 934.089844 274.386719 L 950.296875 295.496094 L 943.898438 300.410156 L 927.691406 279.304688 L 917.277344 287.300781 L 935.683594 311.269531 L 929.28125 316.183594 Z M 904.519531 283.933594 " fill-opacity="1" fill-rule="nonzero"/><path fill="#fffaf3" d="M 938.9375 332.96875 L 984.609375 312.964844 L 1000.339844 348.882812 L 992.949219 352.121094 L 981.410156 325.765625 L 969.933594 330.792969 L 980.609375 355.167969 L 973.21875 358.40625 L 962.542969 334.027344 L 950.515625 339.292969 L 962.640625 366.980469 L 955.25 370.214844 Z M 938.9375 332.96875 " fill-opacity="1" fill-rule="nonzero"/><path fill="#fffaf3" d="M 452.816406 563.703125 C 453.902344 566.253906 455.324219 568.570312 457.085938 570.648438 C 458.847656 572.730469 460.585938 574.175781 462.296875 574.996094 L 468.785156 572.234375 L 463.914062 560.789062 L 471.167969 557.703125 L 479.859375 578.132812 L 462.625 585.464844 C 459.015625 584.066406 455.644531 581.683594 452.507812 578.3125 C 449.371094 574.945312 446.875 571.078125 445.015625 566.707031 C 441.769531 559.078125 441.386719 552.3125 443.867188 546.410156 C 446.34375 540.507812 451.46875 535.90625 459.230469 532.601562 C 466.949219 529.316406 473.746094 528.863281 479.617188 531.238281 C 485.484375 533.613281 490.066406 538.671875 493.359375 546.414062 C 498.042969 557.414062 496.949219 566.148438 490.082031 572.605469 L 483.503906 564.714844 C 485.460938 562.730469 486.605469 560.433594 486.941406 557.828125 C 487.273438 555.226562 486.839844 552.515625 485.640625 549.699219 C 483.679688 545.082031 480.789062 542.175781 476.976562 540.96875 C 473.160156 539.761719 468.648438 540.265625 463.4375 542.484375 C 458.132812 544.738281 454.5625 547.71875 452.71875 551.425781 C 450.878906 555.128906 450.910156 559.222656 452.816406 563.703125 Z M 452.816406 563.703125 " fill-opacity="1" fill-rule="nonzero"/><path fill="#fffaf3" d="M 472.171875 616.28125 L 512.683594 585.382812 L 519.152344 593.867188 L 485.199219 619.761719 L 501.773438 641.5 L 495.21875 646.5 Z M 472.171875 616.28125 " fill-opacity="1" fill-rule="nonzero"/><path fill="#fffaf3" d="M 531.925781 681.882812 C 526.46875 677.476562 523.367188 672.769531 522.621094 667.769531 C 521.875 662.765625 523.5 657.789062 527.5 652.835938 L 547.515625 628.054688 L 555.816406 634.757812 L 536.320312 658.890625 C 533.792969 662.023438 532.617188 665.003906 532.796875 667.828125 C 532.980469 670.65625 534.511719 673.234375 537.402344 675.566406 C 540.363281 677.960938 543.328125 678.953125 546.292969 678.542969 C 549.257812 678.132812 552.019531 676.34375 554.578125 673.175781 L 573.847656 649.320312 L 582.144531 656.023438 L 562.46875 680.382812 C 558.410156 685.410156 553.710938 688.050781 548.375 688.3125 C 543.035156 688.570312 537.554688 686.429688 531.925781 681.882812 Z M 531.925781 681.882812 " fill-opacity="1" fill-rule="nonzero"/><path fill="#fffaf3" d="M 616.585938 683.316406 L 598.46875 721.988281 L 588.808594 717.460938 L 606.929688 678.792969 L 592.03125 671.8125 L 595.527344 664.34375 L 635.015625 682.847656 L 631.519531 690.3125 Z M 616.585938 683.316406 " fill-opacity="1" fill-rule="nonzero"/><path fill="#fffaf3" d="M 640.242188 737.636719 L 650.5 687.730469 L 689.742188 695.796875 L 688.082031 703.871094 L 659.289062 697.953125 L 656.710938 710.492188 L 683.34375 715.96875 L 681.683594 724.042969 L 655.050781 718.566406 L 652.347656 731.707031 L 682.597656 737.925781 L 680.9375 746 Z M 640.242188 737.636719 " fill-opacity="1" fill-rule="nonzero"/><path fill="#fffaf3" d="M 742.542969 747.007812 L 718.621094 708.796875 C 719.222656 712.585938 719.578125 715.632812 719.679688 717.945312 L 721.011719 747.964844 L 711.550781 748.382812 L 709.285156 697.484375 L 721.460938 696.945312 L 745.722656 735.464844 C 745.128906 731.847656 744.761719 728.542969 744.628906 725.558594 L 743.316406 695.972656 L 752.78125 695.550781 L 755.042969 746.449219 Z M 742.542969 747.007812 " fill-opacity="1" fill-rule="nonzero"/><path fill="#fffaf3" d="M 817.441406 685.800781 L 823.875 700.195312 L 847.675781 689.558594 L 851.039062 697.085938 L 827.238281 707.722656 L 834.863281 724.789062 L 825.125 729.140625 L 804.339844 682.625 L 838.640625 667.300781 L 842.003906 674.828125 Z M 817.441406 685.800781 " fill-opacity="1" fill-rule="nonzero"/><path fill="#fffaf3" d="M 913.144531 676.875 L 891.929688 668.878906 L 882.058594 676.566406 L 893.945312 691.828125 L 885.527344 698.382812 L 854.222656 658.1875 L 874.308594 642.542969 C 879.101562 638.8125 883.605469 636.964844 887.816406 636.996094 C 892.027344 637.03125 895.640625 638.980469 898.644531 642.839844 C 900.835938 645.65625 901.929688 648.707031 901.925781 651.996094 C 901.921875 655.285156 900.808594 658.3125 898.59375 661.074219 L 922.617188 669.5 Z M 890.4375 649.78125 C 887.433594 645.921875 883.457031 645.914062 878.511719 649.765625 L 867.726562 658.164062 L 876.96875 670.03125 L 887.984375 661.457031 C 890.339844 659.621094 891.714844 657.695312 892.101562 655.683594 C 892.488281 653.667969 891.9375 651.703125 890.4375 649.78125 Z M 890.4375 649.78125 " fill-opacity="1" fill-rule="nonzero"/><path fill="#fffaf3" d="M 942.894531 648.261719 L 902.691406 616.964844 L 927.304688 585.351562 L 933.808594 590.414062 L 915.75 613.613281 L 925.851562 621.476562 L 942.554688 600.019531 L 949.058594 605.085938 L 932.355469 626.539062 L 942.941406 634.78125 L 961.910156 610.414062 L 968.417969 615.480469 Z M 942.894531 648.261719 " fill-opacity="1" fill-rule="nonzero"/><path fill="#fffaf3" d="M 983.921875 589.203125 L 937.398438 568.429688 L 953.734375 531.847656 L 961.261719 535.207031 L 949.277344 562.050781 L 960.964844 567.269531 L 972.050781 542.441406 L 979.578125 545.800781 L 968.492188 570.632812 L 980.742188 576.101562 L 993.332031 547.902344 L 1000.859375 551.265625 Z M 983.921875 589.203125 " fill-opacity="1" fill-rule="nonzero"/><path fill="#fffaf3" d="M 465.007812 449.863281 C 465.007812 450.75 464.921875 451.628906 464.75 452.5 C 464.574219 453.371094 464.320312 454.21875 463.980469 455.039062 C 463.640625 455.859375 463.222656 456.636719 462.730469 457.375 C 462.234375 458.113281 461.675781 458.796875 461.046875 459.425781 C 460.417969 460.054688 459.734375 460.613281 458.996094 461.109375 C 458.257812 461.601562 457.480469 462.019531 456.660156 462.359375 C 455.839844 462.699219 454.992188 462.953125 454.121094 463.128906 C 453.25 463.300781 452.371094 463.386719 451.484375 463.386719 C 450.59375 463.386719 449.714844 463.300781 448.84375 463.128906 C 447.972656 462.953125 447.125 462.699219 446.304688 462.359375 C 445.484375 462.019531 444.707031 461.601562 443.96875 461.109375 C 443.230469 460.613281 442.546875 460.054688 441.917969 459.425781 C 441.289062 458.796875 440.730469 458.113281 440.234375 457.375 C 439.742188 456.636719 439.324219 455.859375 438.984375 455.039062 C 438.644531 454.21875 438.390625 453.371094 438.214844 452.5 C 438.042969 451.628906 437.957031 450.75 437.957031 449.863281 C 437.957031 448.972656 438.042969 448.09375 438.214844 447.222656 C 438.390625 446.351562 438.644531 445.507812 438.984375 444.6875 C 439.324219 443.867188 439.742188 443.085938 440.234375 442.347656 C 440.730469 441.609375 441.289062 440.925781 441.917969 440.296875 C 442.546875 439.667969 443.230469 439.109375 443.96875 438.617188 C 444.707031 438.121094 445.484375 437.707031 446.304688 437.367188 C 447.125 437.027344 447.972656 436.769531 448.84375 436.597656 C 449.714844 436.421875 450.59375 436.335938 451.484375 436.335938 C 452.371094 436.335938 453.25 436.421875 454.121094 436.597656 C 454.992188 436.769531 455.839844 437.027344 456.660156 437.367188 C 457.480469 437.707031 458.257812 438.121094 458.996094 438.617188 C 459.734375 439.109375 460.417969 439.667969 461.046875 440.296875 C 461.675781 440.925781 462.234375 441.609375 462.730469 442.347656 C 463.222656 443.085938 463.640625 443.867188 463.980469 444.6875 C 464.320312 445.507812 464.574219 446.351562 464.75 447.222656 C 464.921875 448.09375 465.007812 448.972656 465.007812 449.863281 Z M 465.007812 449.863281 " fill-opacity="1" fill-rule="nonzero"/><path fill="#fffaf3" d="M 1001.769531 449.863281 C 1001.769531 450.75 1001.679688 451.628906 1001.507812 452.5 C 1001.335938 453.371094 1001.078125 454.21875 1000.738281 455.039062 C 1000.398438 455.859375 999.980469 456.636719 999.488281 457.375 C 998.996094 458.113281 998.433594 458.796875 997.804688 459.425781 C 997.179688 460.054688 996.496094 460.613281 995.757812 461.109375 C 995.019531 461.601562 994.238281 462.019531 993.417969 462.359375 C 992.597656 462.699219 991.75 462.953125 990.878906 463.128906 C 990.007812 463.300781 989.128906 463.386719 988.242188 463.386719 C 987.355469 463.386719 986.472656 463.300781 985.601562 463.128906 C 984.730469 462.953125 983.886719 462.699219 983.066406 462.359375 C 982.246094 462.019531 981.464844 461.601562 980.726562 461.109375 C 979.988281 460.613281 979.304688 460.054688 978.675781 459.425781 C 978.050781 458.796875 977.488281 458.113281 976.996094 457.375 C 976.5 456.636719 976.085938 455.859375 975.746094 455.039062 C 975.40625 454.21875 975.148438 453.371094 974.976562 452.5 C 974.800781 451.628906 974.714844 450.75 974.714844 449.863281 C 974.714844 448.972656 974.800781 448.09375 974.976562 447.222656 C 975.148438 446.351562 975.40625 445.507812 975.746094 444.6875 C 976.085938 443.867188 976.5 443.085938 976.996094 442.347656 C 977.488281 441.609375 978.050781 440.925781 978.675781 440.296875 C 979.304688 439.667969 979.988281 439.109375 980.726562 438.617188 C 981.464844 438.121094 982.246094 437.707031 983.066406 437.367188 C 983.886719 437.027344 984.730469 436.769531 985.601562 436.597656 C 986.472656 436.421875 987.355469 436.335938 988.242188 436.335938 C 989.128906 436.335938 990.007812 436.421875 990.878906 436.597656 C 991.75 436.769531 992.597656 437.027344 993.417969 437.367188 C 994.238281 437.707031 995.019531 438.121094 995.757812 438.617188 C 996.496094 439.109375 997.179688 439.667969 997.804688 440.296875 C 998.433594 440.925781 998.996094 441.609375 999.488281 442.347656 C 999.980469 443.085938 1000.398438 443.867188 1000.738281 444.6875 C 1001.078125 445.507812 1001.335938 446.351562 1001.507812 447.222656 C 1001.679688 448.09375 1001.769531 448.972656 1001.769531 449.863281 Z M 1001.769531 449.863281 " fill-opacity="1" fill-rule="nonzero"/><g clip-path="url(#8150acb8c1)"><path fill="#50b559" d="M 549.21875 399.484375 C 549.21875 399.964844 549.171875 400.4375 549.078125 400.90625 C 548.984375 401.375 548.847656 401.828125 548.664062 402.269531 C 548.480469 402.710938 548.257812 403.132812 547.992188 403.527344 C 547.726562 403.925781 547.425781 404.292969 547.085938 404.632812 C 546.75 404.96875 546.382812 405.269531 545.984375 405.535156 C 545.585938 405.800781 545.167969 406.027344 544.726562 406.210938 C 544.285156 406.390625 543.828125 406.53125 543.359375 406.625 C 542.890625 406.714844 542.417969 406.761719 541.941406 406.761719 C 541.464844 406.761719 540.988281 406.714844 540.519531 406.625 C 540.050781 406.53125 539.597656 406.390625 539.15625 406.210938 C 538.714844 406.027344 538.296875 405.800781 537.898438 405.535156 C 537.5 405.269531 537.132812 404.96875 536.796875 404.632812 C 536.457031 404.292969 536.15625 403.925781 535.890625 403.527344 C 535.625 403.132812 535.402344 402.710938 535.21875 402.269531 C 535.035156 401.828125 534.898438 401.375 534.804688 400.90625 C 534.710938 400.4375 534.664062 399.964844 534.664062 399.484375 C 534.664062 399.007812 534.710938 398.535156 534.804688 398.066406 C 534.898438 397.597656 535.035156 397.140625 535.21875 396.699219 C 535.402344 396.257812 535.625 395.839844 535.890625 395.441406 C 536.15625 395.046875 536.457031 394.675781 536.796875 394.339844 C 537.132812 394 537.5 393.699219 537.898438 393.433594 C 538.296875 393.167969 538.714844 392.945312 539.15625 392.761719 C 539.597656 392.578125 540.050781 392.441406 540.519531 392.347656 C 540.988281 392.253906 541.464844 392.207031 541.941406 392.207031 C 542.417969 392.207031 542.890625 392.253906 543.359375 392.347656 C 543.828125 392.441406 544.285156 392.578125 544.726562 392.761719 C 545.167969 392.945312 545.585938 393.167969 545.984375 393.433594 C 546.382812 393.699219 546.75 394 547.085938 394.339844 C 547.425781 394.675781 547.726562 395.046875 547.992188 395.441406 C 548.257812 395.839844 548.480469 396.257812 548.664062 396.699219 C 548.847656 397.140625 548.984375 397.597656 549.078125 398.066406 C 549.171875 398.535156 549.21875 399.007812 549.21875 399.484375 Z M 549.21875 399.484375 " fill-opacity="1" fill-rule="nonzero"/></g></svg>