<svg xmlns="http://www.w3.org/2000/svg" xmlns:xlink="http://www.w3.org/1999/xlink" width="1920" zoomAndPan="magnify" viewBox="0 0 1440 899.99999" height="1200" preserveAspectRatio="xMidYMid meet" version="1.0"><defs><clipPath id="d09272094b"><path d="M 422.535156 152.535156 L 1017.285156 152.535156 L 1017.285156 747.285156 L 422.535156 747.285156 Z M 422.535156 152.535156 " clip-rule="nonzero"/></clipPath></defs><path fill="#231f20" d="M 650.46875 530.339844 L 619.671875 530.339844 L 619.671875 524.230469 L 634.207031 508.734375 C 635.875 506.984375 637.351562 505.082031 638.632812 503.027344 C 639.535156 501.617188 640.015625 500.074219 640.070312 498.398438 C 640.117188 497.546875 640.011719 496.714844 639.75 495.90625 C 639.492188 495.09375 639.09375 494.355469 638.554688 493.691406 C 638 493.097656 637.34375 492.652344 636.585938 492.351562 C 635.832031 492.054688 635.046875 491.929688 634.234375 491.980469 C 633.324219 491.9375 632.449219 492.097656 631.609375 492.464844 C 630.773438 492.832031 630.058594 493.363281 629.46875 494.058594 C 628.859375 494.839844 628.402344 495.699219 628.105469 496.644531 C 627.804688 497.585938 627.679688 498.550781 627.722656 499.539062 L 618.773438 499.539062 C 618.746094 496.859375 619.398438 494.363281 620.734375 492.039062 C 622.066406 489.730469 623.914062 487.957031 626.273438 486.71875 C 628.816406 485.382812 631.523438 484.738281 634.390625 484.789062 C 636.332031 484.667969 638.230469 484.894531 640.089844 485.46875 C 641.945312 486.042969 643.644531 486.925781 645.175781 488.121094 C 645.828125 488.710938 646.40625 489.367188 646.910156 490.089844 C 647.414062 490.808594 647.832031 491.578125 648.164062 492.390625 C 648.496094 493.207031 648.734375 494.046875 648.878906 494.917969 C 649.023438 495.785156 649.070312 496.65625 649.019531 497.535156 C 648.980469 499.933594 648.40625 502.199219 647.289062 504.324219 C 645.671875 507.273438 643.699219 509.957031 641.363281 512.378906 L 631.148438 523.148438 L 650.46875 523.148438 Z M 650.46875 530.339844 " fill-opacity="1" fill-rule="nonzero"/><path fill="#231f20" d="M 693.050781 530.339844 L 662.25 530.339844 L 662.25 524.230469 L 676.785156 508.734375 C 678.457031 506.984375 679.929688 505.082031 681.214844 503.027344 C 682.117188 501.617188 682.59375 500.074219 682.648438 498.398438 C 682.699219 497.546875 682.59375 496.714844 682.332031 495.90625 C 682.070312 495.09375 681.671875 494.355469 681.136719 493.691406 C 680.582031 493.097656 679.925781 492.652344 679.167969 492.351562 C 678.414062 492.054688 677.628906 491.929688 676.816406 491.980469 C 675.902344 491.9375 675.027344 492.097656 674.191406 492.464844 C 673.351562 492.832031 672.640625 493.363281 672.046875 494.058594 C 671.441406 494.839844 670.984375 495.699219 670.683594 496.644531 C 670.386719 497.585938 670.257812 498.550781 670.304688 499.539062 L 661.355469 499.539062 C 661.328125 496.859375 661.980469 494.363281 663.316406 492.039062 C 664.648438 489.730469 666.496094 487.957031 668.855469 486.71875 C 671.398438 485.382812 674.101562 484.738281 676.972656 484.789062 C 678.914062 484.667969 680.8125 484.894531 682.671875 485.46875 C 684.527344 486.042969 686.222656 486.925781 687.757812 488.121094 C 688.410156 488.710938 688.988281 489.367188 689.492188 490.089844 C 689.996094 490.808594 690.414062 491.578125 690.746094 492.390625 C 691.078125 493.207031 691.316406 494.046875 691.460938 494.917969 C 691.605469 495.785156 691.652344 496.65625 691.597656 497.535156 C 691.5625 499.933594 690.988281 502.199219 689.871094 504.324219 C 688.253906 507.273438 686.28125 509.957031 683.945312 512.378906 L 673.730469 523.148438 L 693.050781 523.148438 Z M 693.050781 530.339844 " fill-opacity="1" fill-rule="nonzero"/><path fill="#231f20" d="M 735.074219 511.761719 C 735.242188 514.285156 734.996094 516.769531 734.335938 519.210938 C 733.675781 521.652344 732.636719 523.921875 731.21875 526.015625 C 730.859375 526.402344 730.484375 526.769531 730.089844 527.117188 C 729.691406 527.464844 729.28125 527.792969 728.851562 528.097656 C 728.421875 528.402344 727.976562 528.6875 727.519531 528.945312 C 727.0625 529.207031 726.59375 529.441406 726.109375 529.652344 C 725.628906 529.863281 725.136719 530.050781 724.632812 530.214844 C 724.132812 530.375 723.625 530.507812 723.109375 530.617188 C 722.59375 530.726562 722.074219 530.8125 721.550781 530.867188 C 721.027344 530.921875 720.5 530.953125 719.976562 530.953125 C 719.449219 530.957031 718.921875 530.933594 718.398438 530.878906 C 717.875 530.828125 717.355469 530.75 716.839844 530.644531 C 716.320312 530.539062 715.8125 530.410156 715.308594 530.25 C 714.808594 530.09375 714.3125 529.910156 713.832031 529.703125 C 713.347656 529.496094 712.875 529.265625 712.414062 529.007812 C 711.953125 528.75 711.507812 528.472656 711.074219 528.171875 C 710.644531 527.867188 710.230469 527.546875 709.832031 527.203125 C 709.433594 526.855469 709.054688 526.492188 708.691406 526.109375 C 707.269531 524.082031 706.214844 521.878906 705.53125 519.5 C 704.851562 517.121094 704.574219 514.695312 704.707031 512.222656 L 704.707031 503.949219 C 704.707031 497.675781 706.011719 492.914062 708.613281 489.664062 C 708.972656 489.28125 709.347656 488.917969 709.746094 488.574219 C 710.140625 488.230469 710.554688 487.90625 710.984375 487.605469 C 711.414062 487.300781 711.855469 487.023438 712.316406 486.765625 C 712.773438 486.507812 713.242188 486.277344 713.722656 486.066406 C 714.207031 485.859375 714.695312 485.671875 715.195312 485.515625 C 715.699219 485.355469 716.203125 485.222656 716.71875 485.113281 C 717.230469 485.007812 717.75 484.925781 718.273438 484.871094 C 718.792969 484.816406 719.320312 484.789062 719.84375 484.789062 C 720.367188 484.789062 720.890625 484.8125 721.414062 484.867188 C 721.9375 484.917969 722.457031 484.996094 722.96875 485.101562 C 723.484375 485.207031 723.992188 485.339844 724.492188 485.496094 C 724.992188 485.652344 725.484375 485.835938 725.96875 486.042969 C 726.449219 486.25 726.921875 486.480469 727.378906 486.734375 C 727.839844 486.988281 728.285156 487.265625 728.714844 487.566406 C 729.144531 487.867188 729.558594 488.191406 729.957031 488.53125 C 730.355469 488.875 730.734375 489.238281 731.09375 489.617188 C 732.519531 491.640625 733.570312 493.839844 734.253906 496.21875 C 734.933594 498.597656 735.210938 501.019531 735.074219 503.488281 Z M 726.15625 502.671875 C 726.351562 499.828125 725.84375 497.113281 724.628906 494.535156 C 724.390625 494.121094 724.097656 493.75 723.753906 493.417969 C 723.410156 493.085938 723.027344 492.808594 722.605469 492.582031 C 722.1875 492.359375 721.742188 492.195312 721.277344 492.09375 C 720.808594 491.992188 720.339844 491.953125 719.863281 491.984375 C 719.402344 491.953125 718.945312 491.988281 718.492188 492.085938 C 718.042969 492.179688 717.609375 492.335938 717.203125 492.550781 C 716.792969 492.761719 716.417969 493.027344 716.082031 493.34375 C 715.746094 493.660156 715.457031 494.015625 715.21875 494.410156 C 714.03125 496.800781 713.5 499.328125 713.628906 501.992188 L 713.628906 512.925781 C 713.453125 515.773438 713.949219 518.496094 715.125 521.097656 C 715.355469 521.527344 715.640625 521.914062 715.980469 522.261719 C 716.324219 522.609375 716.707031 522.898438 717.132812 523.136719 C 717.558594 523.371094 718.007812 523.546875 718.480469 523.652344 C 718.957031 523.761719 719.4375 523.800781 719.921875 523.769531 C 720.398438 523.800781 720.867188 523.769531 721.332031 523.667969 C 721.796875 523.566406 722.238281 523.402344 722.65625 523.175781 C 723.074219 522.945312 723.453125 522.667969 723.789062 522.332031 C 724.128906 521.996094 724.414062 521.621094 724.644531 521.207031 C 725.785156 518.714844 726.289062 516.097656 726.15625 513.363281 Z M 726.15625 502.671875 " fill-opacity="1" fill-rule="nonzero"/><path fill="#231f20" d="M 777.65625 511.761719 C 777.824219 514.285156 777.578125 516.769531 776.917969 519.210938 C 776.257812 521.652344 775.21875 523.921875 773.800781 526.015625 C 773.441406 526.402344 773.066406 526.769531 772.667969 527.117188 C 772.273438 527.464844 771.859375 527.792969 771.433594 528.097656 C 771.003906 528.402344 770.558594 528.683594 770.101562 528.945312 C 769.644531 529.207031 769.171875 529.441406 768.691406 529.652344 C 768.207031 529.863281 767.714844 530.050781 767.214844 530.214844 C 766.714844 530.375 766.207031 530.507812 765.691406 530.617188 C 765.175781 530.726562 764.65625 530.8125 764.132812 530.867188 C 763.609375 530.921875 763.082031 530.953125 762.554688 530.953125 C 762.03125 530.957031 761.503906 530.933594 760.980469 530.878906 C 760.457031 530.828125 759.933594 530.75 759.417969 530.644531 C 758.902344 530.539062 758.394531 530.410156 757.890625 530.25 C 757.386719 530.09375 756.894531 529.910156 756.410156 529.703125 C 755.925781 529.496094 755.453125 529.265625 754.996094 529.007812 C 754.535156 528.75 754.089844 528.472656 753.65625 528.171875 C 753.226562 527.867188 752.808594 527.546875 752.410156 527.203125 C 752.011719 526.855469 751.632812 526.492188 751.273438 526.109375 C 749.847656 524.082031 748.796875 521.878906 748.113281 519.5 C 747.429688 517.121094 747.15625 514.695312 747.289062 512.222656 L 747.289062 503.949219 C 747.289062 497.675781 748.589844 492.914062 751.191406 489.664062 C 751.550781 489.28125 751.929688 488.917969 752.328125 488.574219 C 752.722656 488.230469 753.136719 487.90625 753.566406 487.605469 C 753.996094 487.300781 754.4375 487.023438 754.894531 486.765625 C 755.355469 486.507812 755.824219 486.277344 756.304688 486.066406 C 756.785156 485.859375 757.277344 485.671875 757.777344 485.515625 C 758.277344 485.355469 758.785156 485.222656 759.300781 485.113281 C 759.8125 485.007812 760.332031 484.925781 760.855469 484.871094 C 761.375 484.816406 761.898438 484.789062 762.425781 484.789062 C 762.949219 484.789062 763.472656 484.8125 763.996094 484.867188 C 764.519531 484.917969 765.035156 484.996094 765.550781 485.101562 C 766.066406 485.207031 766.574219 485.339844 767.074219 485.496094 C 767.574219 485.652344 768.066406 485.835938 768.550781 486.042969 C 769.03125 486.25 769.503906 486.480469 769.960938 486.734375 C 770.421875 486.988281 770.863281 487.265625 771.296875 487.566406 C 771.726562 487.867188 772.140625 488.191406 772.539062 488.53125 C 772.9375 488.875 773.316406 489.238281 773.675781 489.617188 C 775.097656 491.640625 776.152344 493.839844 776.832031 496.21875 C 777.515625 498.597656 777.789062 501.019531 777.65625 503.488281 Z M 768.738281 502.671875 C 768.933594 499.828125 768.425781 497.113281 767.210938 494.535156 C 766.96875 494.121094 766.679688 493.75 766.335938 493.417969 C 765.992188 493.085938 765.609375 492.808594 765.1875 492.582031 C 764.765625 492.359375 764.324219 492.195312 763.855469 492.09375 C 763.390625 491.992188 762.917969 491.953125 762.441406 491.984375 C 761.980469 491.953125 761.527344 491.988281 761.074219 492.085938 C 760.621094 492.179688 760.191406 492.335938 759.78125 492.550781 C 759.371094 492.761719 759 493.027344 758.664062 493.34375 C 758.324219 493.660156 758.039062 494.015625 757.796875 494.410156 C 756.613281 496.800781 756.082031 499.328125 756.207031 501.992188 L 756.207031 512.925781 C 756.03125 515.773438 756.53125 518.496094 757.703125 521.097656 C 757.933594 521.527344 758.222656 521.914062 758.5625 522.261719 C 758.90625 522.609375 759.289062 522.898438 759.714844 523.136719 C 760.136719 523.371094 760.589844 523.546875 761.0625 523.652344 C 761.539062 523.761719 762.015625 523.800781 762.503906 523.769531 C 762.976562 523.800781 763.449219 523.769531 763.914062 523.667969 C 764.378906 523.566406 764.820312 523.402344 765.238281 523.175781 C 765.65625 522.945312 766.03125 522.667969 766.371094 522.332031 C 766.710938 521.996094 766.992188 521.621094 767.226562 521.207031 C 768.367188 518.714844 768.871094 516.097656 768.738281 513.363281 Z M 768.738281 502.671875 " fill-opacity="1" fill-rule="nonzero"/><path fill="#231f20" d="M 820.238281 511.761719 C 820.40625 514.285156 820.160156 516.769531 819.496094 519.210938 C 818.835938 521.652344 817.796875 523.921875 816.378906 526.015625 C 816.023438 526.402344 815.644531 526.769531 815.25 527.117188 C 814.855469 527.464844 814.441406 527.792969 814.011719 528.097656 C 813.582031 528.402344 813.140625 528.683594 812.683594 528.945312 C 812.222656 529.207031 811.753906 529.441406 811.273438 529.652344 C 810.789062 529.863281 810.296875 530.050781 809.796875 530.214844 C 809.292969 530.375 808.785156 530.507812 808.269531 530.617188 C 807.757812 530.726562 807.238281 530.8125 806.710938 530.867188 C 806.1875 530.921875 805.664062 530.953125 805.136719 530.953125 C 804.609375 530.957031 804.085938 530.933594 803.5625 530.878906 C 803.035156 530.828125 802.515625 530.75 802 530.644531 C 801.484375 530.539062 800.976562 530.410156 800.472656 530.25 C 799.96875 530.09375 799.476562 529.910156 798.992188 529.703125 C 798.507812 529.496094 798.035156 529.265625 797.574219 529.007812 C 797.117188 528.75 796.667969 528.472656 796.238281 528.171875 C 795.804688 527.867188 795.390625 527.546875 794.992188 527.203125 C 794.59375 526.855469 794.214844 526.492188 793.855469 526.109375 C 792.429688 524.082031 791.378906 521.878906 790.695312 519.5 C 790.011719 517.121094 789.738281 514.695312 789.871094 512.222656 L 789.871094 503.949219 C 789.871094 497.675781 791.171875 492.914062 793.773438 489.664062 C 794.132812 489.28125 794.511719 488.917969 794.90625 488.574219 C 795.304688 488.230469 795.71875 487.90625 796.144531 487.605469 C 796.574219 487.300781 797.019531 487.023438 797.476562 486.765625 C 797.933594 486.507812 798.40625 486.277344 798.886719 486.066406 C 799.367188 485.859375 799.859375 485.671875 800.359375 485.515625 C 800.859375 485.355469 801.367188 485.222656 801.878906 485.113281 C 802.394531 485.007812 802.914062 484.925781 803.433594 484.871094 C 803.957031 484.816406 804.480469 484.789062 805.003906 484.789062 C 805.53125 484.789062 806.054688 484.8125 806.578125 484.867188 C 807.097656 484.917969 807.617188 484.996094 808.132812 485.101562 C 808.644531 485.207031 809.152344 485.339844 809.65625 485.496094 C 810.15625 485.652344 810.648438 485.835938 811.128906 486.042969 C 811.613281 486.25 812.082031 486.480469 812.542969 486.734375 C 813 486.988281 813.445312 487.265625 813.875 487.566406 C 814.308594 487.867188 814.722656 488.191406 815.117188 488.53125 C 815.515625 488.875 815.894531 489.238281 816.257812 489.617188 C 817.679688 491.640625 818.734375 493.839844 819.414062 496.21875 C 820.097656 498.597656 820.371094 501.019531 820.238281 503.488281 Z M 811.320312 502.671875 C 811.515625 499.828125 811.007812 497.113281 809.792969 494.535156 C 809.550781 494.121094 809.257812 493.75 808.914062 493.417969 C 808.570312 493.085938 808.1875 492.808594 807.769531 492.582031 C 807.347656 492.359375 806.902344 492.195312 806.4375 492.09375 C 805.972656 491.992188 805.5 491.953125 805.023438 491.984375 C 804.5625 491.953125 804.105469 491.988281 803.65625 492.085938 C 803.203125 492.179688 802.773438 492.335938 802.363281 492.550781 C 801.953125 492.761719 801.582031 493.027344 801.242188 493.34375 C 800.90625 493.660156 800.617188 494.015625 800.378906 494.410156 C 799.191406 496.800781 798.664062 499.328125 798.789062 501.992188 L 798.789062 512.925781 C 798.613281 515.773438 799.113281 518.496094 800.285156 521.097656 C 800.515625 521.527344 800.800781 521.914062 801.144531 522.261719 C 801.484375 522.609375 801.871094 522.898438 802.292969 523.136719 C 802.71875 523.371094 803.167969 523.546875 803.644531 523.652344 C 804.117188 523.761719 804.597656 523.800781 805.085938 523.769531 C 805.558594 523.800781 806.027344 523.769531 806.492188 523.667969 C 806.957031 523.566406 807.398438 523.402344 807.816406 523.175781 C 808.234375 522.945312 808.613281 522.667969 808.953125 522.332031 C 809.289062 521.996094 809.574219 521.621094 809.804688 521.207031 C 810.949219 518.714844 811.453125 516.097656 811.320312 513.363281 Z M 811.320312 502.671875 " fill-opacity="1" fill-rule="nonzero"/><path fill="#231f20" d="M 625.027344 378.25 L 625.027344 371.722656 L 664.144531 371.722656 L 664.144531 378.25 L 646.199219 380.066406 L 642.628906 380.066406 Z M 646.191406 443.085938 L 664.136719 444.90625 L 664.136719 451.417969 L 625.027344 451.417969 L 625.027344 444.90625 L 642.628906 443.085938 Z M 634.359375 409.332031 C 634.359375 396.839844 634.359375 384.226562 633.996094 371.734375 L 655.089844 371.734375 C 654.726562 383.984375 654.726562 396.597656 654.726562 409.332031 L 654.726562 413.734375 C 654.726562 426.320312 654.726562 438.925781 655.089844 451.417969 L 633.996094 451.417969 C 634.359375 439.167969 634.359375 426.554688 634.359375 413.820312 Z M 634.359375 409.332031 " fill-opacity="1" fill-rule="nonzero"/><path fill="#231f20" d="M 711.792969 434.917969 C 711.792969 428.519531 708.636719 425.613281 701.328125 422.367188 L 696.199219 420.023438 C 681.902344 413.507812 673.675781 406.300781 673.675781 392.878906 C 673.675781 378.316406 685.441406 369.476562 703.816406 369.476562 C 707.851562 369.40625 711.816406 369.894531 715.710938 370.941406 C 719.609375 371.988281 723.28125 373.558594 726.738281 375.644531 L 725.746094 392.636719 L 714.621094 392.636719 L 711.664062 374.324219 L 721.433594 377.800781 L 721.433594 383.859375 C 714.96875 379.175781 710.394531 376.675781 704.140625 376.675781 C 697.214844 376.675781 691.636719 381.054688 691.636719 387.703125 C 691.636719 394.117188 695.472656 397.46875 702.664062 400.6875 L 708.347656 403.296875 C 723.832031 410.269531 730.195312 416.957031 730.195312 429.230469 C 730.195312 443.542969 719.242188 453.675781 698.5 453.675781 C 689.410156 453.675781 679.15625 451.640625 672.164062 447.335938 L 672.890625 429.304688 L 684.195312 429.304688 L 687.347656 448.945312 L 677.976562 445.988281 L 677.976562 440.160156 C 685.667969 444.304688 690.667969 446.46875 698.484375 446.46875 C 707.128906 446.472656 711.792969 441.488281 711.792969 434.917969 Z M 711.792969 434.917969 " fill-opacity="1" fill-rule="nonzero"/><path fill="#231f20" d="M 814.789062 411.574219 C 814.789062 439.542969 796.339844 453.675781 776.3125 453.675781 C 756.289062 453.675781 737.800781 439.84375 737.800781 411.574219 C 737.800781 383.609375 756.410156 369.476562 776.3125 369.476562 C 796.214844 369.476562 814.789062 383.3125 814.789062 411.574219 Z M 776.308594 446.644531 C 788.507812 446.644531 793.300781 431.691406 793.300781 411.570312 C 793.300781 391.542969 788.507812 376.414062 776.308594 376.414062 C 764.105469 376.414062 759.277344 391.542969 759.277344 411.570312 C 759.292969 431.695312 764.113281 446.644531 776.308594 446.644531 Z M 776.308594 446.644531 " fill-opacity="1" fill-rule="nonzero"/><g clip-path="url(#d09272094b)"><path fill="#231f20" d="M 719.910156 747.332031 C 715.039062 747.332031 710.175781 747.210938 705.3125 746.972656 C 700.453125 746.734375 695.601562 746.378906 690.753906 745.898438 C 685.910156 745.421875 681.082031 744.828125 676.265625 744.113281 C 671.453125 743.398438 666.65625 742.566406 661.882812 741.617188 C 657.109375 740.667969 652.363281 739.601562 647.640625 738.417969 C 642.917969 737.234375 638.230469 735.9375 633.570312 734.523438 C 628.914062 733.113281 624.292969 731.585938 619.710938 729.945312 C 615.125 728.304688 610.585938 726.554688 606.089844 724.691406 C 601.59375 722.828125 597.144531 720.859375 592.742188 718.777344 C 588.34375 716.695312 583.996094 714.507812 579.703125 712.210938 C 575.410156 709.917969 571.175781 707.519531 567 705.015625 C 562.828125 702.515625 558.714844 699.910156 554.667969 697.207031 C 550.621094 694.503906 546.644531 691.699219 542.734375 688.800781 C 538.824219 685.902344 534.988281 682.90625 531.222656 679.820312 C 527.460938 676.730469 523.777344 673.554688 520.171875 670.285156 C 516.5625 667.015625 513.039062 663.660156 509.597656 660.21875 C 506.15625 656.777344 502.800781 653.253906 499.53125 649.644531 C 496.261719 646.039062 493.085938 642.355469 489.996094 638.59375 C 486.910156 634.828125 483.914062 630.992188 481.015625 627.082031 C 478.117188 623.171875 475.3125 619.195312 472.609375 615.148438 C 469.90625 611.101562 467.300781 606.988281 464.800781 602.816406 C 462.296875 598.640625 459.898438 594.40625 457.605469 590.113281 C 455.308594 585.820312 453.121094 581.472656 451.039062 577.074219 C 448.960938 572.671875 446.988281 568.222656 445.125 563.726562 C 443.261719 559.230469 441.511719 554.691406 439.871094 550.105469 C 438.230469 545.523438 436.703125 540.902344 435.292969 536.246094 C 433.878906 531.589844 432.582031 526.898438 431.398438 522.175781 C 430.214844 517.453125 429.148438 512.707031 428.199219 507.933594 C 427.25 503.160156 426.417969 498.363281 425.703125 493.550781 C 424.988281 488.734375 424.394531 483.90625 423.917969 479.0625 C 423.4375 474.21875 423.082031 469.363281 422.84375 464.503906 C 422.605469 459.640625 422.484375 454.777344 422.484375 449.910156 C 422.484375 445.039062 422.605469 440.175781 422.84375 435.3125 C 423.082031 430.453125 423.4375 425.601562 423.917969 420.753906 C 424.394531 415.910156 424.988281 411.082031 425.703125 406.265625 C 426.417969 401.453125 427.25 396.65625 428.199219 391.882812 C 429.148438 387.109375 430.214844 382.363281 431.398438 377.640625 C 432.582031 372.917969 433.878906 368.230469 435.292969 363.570312 C 436.703125 358.914062 438.230469 354.292969 439.871094 349.710938 C 441.511719 345.125 443.261719 340.585938 445.125 336.089844 C 446.988281 331.59375 448.960938 327.144531 451.039062 322.742188 C 453.121094 318.34375 455.308594 313.996094 457.605469 309.703125 C 459.898438 305.410156 462.296875 301.175781 464.800781 297 C 467.300781 292.828125 469.90625 288.714844 472.609375 284.667969 C 475.3125 280.621094 478.117188 276.644531 481.015625 272.734375 C 483.914062 268.824219 486.910156 264.988281 489.996094 261.222656 C 493.085938 257.460938 496.261719 253.777344 499.53125 250.171875 C 502.800781 246.5625 506.15625 243.039062 509.597656 239.597656 C 513.039062 236.15625 516.5625 232.800781 520.171875 229.53125 C 523.777344 226.261719 527.460938 223.085938 531.222656 219.996094 C 534.988281 216.910156 538.824219 213.914062 542.734375 211.015625 C 546.644531 208.117188 550.621094 205.3125 554.667969 202.609375 C 558.714844 199.90625 562.828125 197.300781 567 194.800781 C 571.175781 192.296875 575.410156 189.898438 579.703125 187.605469 C 583.996094 185.308594 588.34375 183.121094 592.742188 181.039062 C 597.144531 178.960938 601.59375 176.988281 606.089844 175.125 C 610.585938 173.261719 615.125 171.511719 619.710938 169.871094 C 624.292969 168.230469 628.914062 166.703125 633.570312 165.292969 C 638.230469 163.878906 642.917969 162.582031 647.640625 161.398438 C 652.363281 160.214844 657.109375 159.148438 661.882812 158.199219 C 666.65625 157.25 671.453125 156.417969 676.265625 155.703125 C 681.082031 154.988281 685.910156 154.394531 690.753906 153.917969 C 695.601562 153.441406 700.453125 153.082031 705.3125 152.84375 C 710.175781 152.605469 715.039062 152.484375 719.910156 152.484375 C 724.777344 152.484375 729.640625 152.605469 734.503906 152.84375 C 739.363281 153.082031 744.21875 153.441406 749.0625 153.917969 C 753.90625 154.394531 758.734375 154.988281 763.550781 155.703125 C 768.363281 156.417969 773.160156 157.25 777.933594 158.199219 C 782.707031 159.148438 787.453125 160.214844 792.175781 161.398438 C 796.898438 162.582031 801.585938 163.878906 806.246094 165.292969 C 810.902344 166.703125 815.523438 168.230469 820.105469 169.871094 C 824.691406 171.511719 829.230469 173.261719 833.726562 175.125 C 838.222656 176.988281 842.671875 178.960938 847.074219 181.039062 C 851.472656 183.121094 855.820312 185.308594 860.113281 187.605469 C 864.40625 189.898438 868.640625 192.296875 872.816406 194.800781 C 876.988281 197.300781 881.101562 199.90625 885.148438 202.609375 C 889.195312 205.3125 893.171875 208.117188 897.082031 211.015625 C 900.992188 213.914062 904.828125 216.910156 908.59375 219.996094 C 912.355469 223.085938 916.039062 226.261719 919.644531 229.53125 C 923.253906 232.800781 926.777344 236.15625 930.21875 239.597656 C 933.660156 243.039062 937.015625 246.5625 940.285156 250.171875 C 943.554688 253.777344 946.730469 257.460938 949.820312 261.222656 C 952.90625 264.988281 955.902344 268.824219 958.800781 272.734375 C 961.699219 276.644531 964.503906 280.621094 967.207031 284.667969 C 969.910156 288.714844 972.515625 292.828125 975.015625 297 C 977.519531 301.175781 979.917969 305.410156 982.210938 309.703125 C 984.507812 313.996094 986.695312 318.34375 988.777344 322.742188 C 990.855469 327.144531 992.828125 331.59375 994.691406 336.089844 C 996.554688 340.585938 998.304688 345.125 999.945312 349.710938 C 1001.585938 354.292969 1003.113281 358.914062 1004.523438 363.570312 C 1005.9375 368.230469 1007.234375 372.917969 1008.417969 377.640625 C 1009.601562 382.363281 1010.667969 387.109375 1011.617188 391.882812 C 1012.566406 396.65625 1013.398438 401.453125 1014.113281 406.265625 C 1014.828125 411.082031 1015.421875 415.910156 1015.898438 420.753906 C 1016.378906 425.601562 1016.734375 430.453125 1016.972656 435.3125 C 1017.210938 440.175781 1017.332031 445.039062 1017.332031 449.910156 C 1017.328125 454.773438 1017.203125 459.636719 1016.957031 464.496094 C 1016.714844 469.355469 1016.351562 474.207031 1015.871094 479.050781 C 1015.386719 483.894531 1014.789062 488.71875 1014.070312 493.53125 C 1013.351562 498.34375 1012.515625 503.136719 1011.5625 507.910156 C 1010.609375 512.679688 1009.539062 517.425781 1008.351562 522.144531 C 1007.167969 526.867188 1005.867188 531.554688 1004.449219 536.207031 C 1003.035156 540.863281 1001.503906 545.480469 999.863281 550.0625 C 998.222656 554.644531 996.46875 559.179688 994.601562 563.675781 C 992.738281 568.171875 990.765625 572.617188 988.679688 577.015625 C 986.597656 581.410156 984.410156 585.757812 982.113281 590.046875 C 979.820312 594.335938 977.417969 598.570312 974.914062 602.742188 C 972.414062 606.914062 969.808594 611.023438 967.105469 615.070312 C 964.398438 619.113281 961.597656 623.089844 958.699219 627 C 955.796875 630.90625 952.804688 634.742188 949.71875 638.5 C 946.628906 642.261719 943.453125 645.945312 940.183594 649.550781 C 936.914062 653.15625 933.5625 656.679688 930.121094 660.121094 C 926.679688 663.5625 923.15625 666.914062 919.550781 670.183594 C 915.945312 673.453125 912.261719 676.628906 908.503906 679.71875 C 904.742188 682.804688 900.90625 685.796875 897 688.699219 C 893.089844 691.597656 889.113281 694.398438 885.070312 697.105469 C 881.023438 699.808594 876.914062 702.414062 872.742188 704.914062 C 868.570312 707.417969 864.335938 709.820312 860.046875 712.113281 C 855.757812 714.410156 851.410156 716.597656 847.015625 718.679688 C 842.617188 720.765625 838.171875 722.738281 833.675781 724.601562 C 829.179688 726.46875 824.644531 728.222656 820.0625 729.863281 C 815.480469 731.503906 810.863281 733.035156 806.207031 734.449219 C 801.554688 735.867188 796.867188 737.167969 792.144531 738.351562 C 787.425781 739.539062 782.679688 740.609375 777.910156 741.5625 C 773.136719 742.515625 768.34375 743.351562 763.53125 744.070312 C 758.71875 744.789062 753.894531 745.386719 749.050781 745.871094 C 744.207031 746.351562 739.355469 746.714844 734.496094 746.957031 C 729.636719 747.203125 724.773438 747.328125 719.910156 747.332031 Z M 719.910156 161.804688 C 715.191406 161.804688 710.480469 161.921875 705.773438 162.152344 C 701.0625 162.386719 696.363281 162.730469 691.667969 163.195312 C 686.976562 163.65625 682.300781 164.234375 677.636719 164.925781 C 672.972656 165.617188 668.328125 166.421875 663.703125 167.34375 C 659.078125 168.261719 654.480469 169.292969 649.90625 170.441406 C 645.332031 171.585938 640.789062 172.84375 636.277344 174.210938 C 631.765625 175.582031 627.289062 177.058594 622.851562 178.648438 C 618.410156 180.234375 614.011719 181.933594 609.65625 183.738281 C 605.300781 185.542969 600.992188 187.453125 596.730469 189.46875 C 592.464844 191.484375 588.257812 193.601562 584.097656 195.824219 C 579.941406 198.046875 575.839844 200.371094 571.792969 202.796875 C 567.75 205.21875 563.769531 207.742188 559.847656 210.359375 C 555.925781 212.980469 552.074219 215.695312 548.285156 218.503906 C 544.5 221.3125 540.78125 224.210938 537.136719 227.203125 C 533.492188 230.195312 529.925781 233.273438 526.429688 236.4375 C 522.9375 239.605469 519.523438 242.855469 516.191406 246.191406 C 512.855469 249.523438 509.605469 252.9375 506.4375 256.429688 C 503.273438 259.925781 500.195312 263.492188 497.203125 267.136719 C 494.210938 270.785156 491.3125 274.5 488.503906 278.285156 C 485.695312 282.074219 482.980469 285.925781 480.359375 289.847656 C 477.742188 293.769531 475.21875 297.75 472.796875 301.792969 C 470.371094 305.839844 468.046875 309.941406 465.824219 314.097656 C 463.601562 318.257812 461.484375 322.464844 459.46875 326.730469 C 457.453125 330.992188 455.542969 335.300781 453.738281 339.65625 C 451.933594 344.011719 450.234375 348.410156 448.648438 352.851562 C 447.058594 357.289062 445.582031 361.765625 444.210938 366.277344 C 442.84375 370.789062 441.585938 375.332031 440.441406 379.90625 C 439.292969 384.480469 438.261719 389.078125 437.34375 393.703125 C 436.421875 398.328125 435.617188 402.972656 434.925781 407.636719 C 434.234375 412.300781 433.65625 416.976562 433.195312 421.667969 C 432.730469 426.363281 432.386719 431.0625 432.152344 435.773438 C 431.921875 440.480469 431.804688 445.195312 431.804688 449.910156 C 431.804688 454.625 431.921875 459.335938 432.152344 464.042969 C 432.386719 468.753906 432.730469 473.453125 433.195312 478.148438 C 433.65625 482.839844 434.234375 487.519531 434.925781 492.183594 C 435.617188 496.847656 436.421875 501.488281 437.34375 506.113281 C 438.261719 510.738281 439.292969 515.335938 440.441406 519.910156 C 441.585938 524.484375 442.84375 529.027344 444.210938 533.539062 C 445.582031 538.050781 447.058594 542.527344 448.648438 546.96875 C 450.234375 551.40625 451.933594 555.804688 453.738281 560.160156 C 455.542969 564.515625 457.453125 568.824219 459.46875 573.085938 C 461.484375 577.351562 463.601562 581.558594 465.824219 585.71875 C 468.046875 589.875 470.371094 593.976562 472.796875 598.023438 C 475.21875 602.066406 477.742188 606.046875 480.359375 609.96875 C 482.980469 613.890625 485.695312 617.742188 488.503906 621.53125 C 491.3125 625.316406 494.210938 629.035156 497.203125 632.679688 C 500.195312 636.324219 503.273438 639.890625 506.4375 643.386719 C 509.605469 646.878906 512.855469 650.292969 516.191406 653.628906 C 519.523438 656.960938 522.9375 660.210938 526.429688 663.378906 C 529.925781 666.542969 533.492188 669.621094 537.136719 672.613281 C 540.78125 675.605469 544.5 678.503906 548.285156 681.3125 C 552.074219 684.121094 555.925781 686.835938 559.847656 689.457031 C 563.769531 692.074219 567.75 694.597656 571.792969 697.023438 C 575.839844 699.445312 579.941406 701.769531 584.097656 703.992188 C 588.257812 706.214844 592.464844 708.332031 596.730469 710.347656 C 600.992188 712.367188 605.300781 714.273438 609.65625 716.078125 C 614.011719 717.882812 618.410156 719.582031 622.851562 721.167969 C 627.289062 722.757812 631.765625 724.234375 636.277344 725.605469 C 640.789062 726.972656 645.332031 728.230469 649.90625 729.375 C 654.480469 730.523438 659.078125 731.554688 663.703125 732.472656 C 668.328125 733.394531 672.972656 734.199219 677.636719 734.890625 C 682.300781 735.582031 686.976562 736.160156 691.667969 736.621094 C 696.363281 737.085938 701.0625 737.433594 705.773438 737.664062 C 710.480469 737.894531 715.191406 738.011719 719.910156 738.011719 C 724.625 738.011719 729.335938 737.894531 734.042969 737.664062 C 738.753906 737.433594 743.453125 737.085938 748.148438 736.621094 C 752.839844 736.160156 757.515625 735.582031 762.179688 734.890625 C 766.84375 734.199219 771.488281 733.394531 776.113281 732.472656 C 780.738281 731.554688 785.335938 730.523438 789.910156 729.375 C 794.484375 728.230469 799.027344 726.972656 803.539062 725.605469 C 808.050781 724.234375 812.527344 722.757812 816.964844 721.167969 C 821.40625 719.582031 825.804688 717.882812 830.160156 716.078125 C 834.515625 714.273438 838.824219 712.363281 843.085938 710.347656 C 847.351562 708.332031 851.558594 706.214844 855.71875 703.992188 C 859.875 701.769531 863.976562 699.445312 868.023438 697.023438 C 872.066406 694.597656 876.046875 692.074219 879.96875 689.457031 C 883.890625 686.835938 887.742188 684.121094 891.53125 681.3125 C 895.316406 678.503906 899.035156 675.605469 902.679688 672.613281 C 906.324219 669.621094 909.890625 666.542969 913.386719 663.378906 C 916.878906 660.210938 920.292969 656.960938 923.628906 653.628906 C 926.960938 650.292969 930.210938 646.878906 933.378906 643.386719 C 936.542969 639.890625 939.621094 636.324219 942.613281 632.679688 C 945.605469 629.035156 948.503906 625.316406 951.3125 621.53125 C 954.121094 617.742188 956.835938 613.890625 959.457031 609.96875 C 962.074219 606.046875 964.597656 602.066406 967.019531 598.023438 C 969.445312 593.976562 971.769531 589.875 973.992188 585.71875 C 976.214844 581.558594 978.332031 577.351562 980.347656 573.085938 C 982.363281 568.824219 984.273438 564.515625 986.078125 560.160156 C 987.882812 555.804688 989.582031 551.40625 991.167969 546.96875 C 992.757812 542.527344 994.234375 538.050781 995.605469 533.539062 C 996.972656 529.027344 998.230469 524.484375 999.375 519.910156 C 1000.523438 515.335938 1001.554688 510.738281 1002.472656 506.113281 C 1003.394531 501.488281 1004.199219 496.84375 1004.890625 492.183594 C 1005.582031 487.519531 1006.160156 482.839844 1006.621094 478.148438 C 1007.085938 473.453125 1007.433594 468.753906 1007.664062 464.042969 C 1007.894531 459.335938 1008.011719 454.625 1008.011719 449.910156 C 1008.003906 445.195312 1007.882812 440.484375 1007.648438 435.777344 C 1007.410156 431.070312 1007.058594 426.371094 1006.59375 421.679688 C 1006.125 416.988281 1005.546875 412.3125 1004.847656 407.652344 C 1004.152344 402.988281 1003.34375 398.347656 1002.421875 393.726562 C 1001.496094 389.101562 1000.460938 384.507812 999.3125 379.933594 C 998.164062 375.363281 996.902344 370.824219 995.53125 366.3125 C 994.160156 361.804688 992.679688 357.332031 991.089844 352.894531 C 989.496094 348.457031 987.796875 344.0625 985.992188 339.707031 C 984.1875 335.351562 982.273438 331.046875 980.257812 326.785156 C 978.238281 322.527344 976.117188 318.320312 973.894531 314.164062 C 971.671875 310.007812 969.347656 305.90625 966.921875 301.867188 C 964.5 297.824219 961.976562 293.84375 959.355469 289.925781 C 956.734375 286.007812 954.023438 282.152344 951.214844 278.367188 C 948.40625 274.582031 945.503906 270.871094 942.515625 267.226562 C 939.523438 263.582031 936.445312 260.015625 933.28125 256.523438 C 930.113281 253.03125 926.863281 249.617188 923.53125 246.285156 C 920.199219 242.953125 916.785156 239.703125 913.292969 236.535156 C 909.800781 233.371094 906.234375 230.292969 902.589844 227.300781 C 898.949219 224.3125 895.234375 221.410156 891.449219 218.601562 C 887.664062 215.792969 883.808594 213.082031 879.890625 210.460938 C 875.972656 207.839844 871.992188 205.320312 867.953125 202.894531 C 863.910156 200.46875 859.808594 198.144531 855.652344 195.921875 C 851.5 193.699219 847.289062 191.578125 843.03125 189.558594 C 838.769531 187.542969 834.464844 185.628906 830.109375 183.824219 C 825.753906 182.019531 821.359375 180.320312 816.921875 178.726562 C 812.488281 177.136719 808.011719 175.65625 803.503906 174.285156 C 798.992188 172.914062 794.453125 171.652344 789.882812 170.503906 C 785.3125 169.355469 780.714844 168.320312 776.089844 167.394531 C 771.46875 166.472656 766.828125 165.664062 762.164062 164.96875 C 757.503906 164.269531 752.828125 163.691406 748.136719 163.222656 C 743.445312 162.757812 738.746094 162.40625 734.039062 162.167969 C 729.332031 161.933594 724.621094 161.8125 719.910156 161.804688 Z M 719.910156 161.804688 " fill-opacity="1" fill-rule="nonzero"/></g><path fill="#231f20" d="M 719.910156 645 C 716.714844 645 713.523438 644.921875 710.335938 644.765625 C 707.148438 644.609375 703.964844 644.375 700.785156 644.0625 C 697.609375 643.75 694.441406 643.359375 691.28125 642.890625 C 688.125 642.421875 684.980469 641.875 681.847656 641.253906 C 678.714844 640.628906 675.601562 639.929688 672.503906 639.15625 C 669.40625 638.378906 666.332031 637.527344 663.277344 636.601562 C 660.21875 635.671875 657.191406 634.671875 654.183594 633.597656 C 651.175781 632.519531 648.199219 631.371094 645.25 630.152344 C 642.300781 628.929688 639.382812 627.636719 636.496094 626.269531 C 633.609375 624.90625 630.757812 623.46875 627.941406 621.964844 C 625.125 620.460938 622.347656 618.886719 619.609375 617.246094 C 616.871094 615.605469 614.175781 613.894531 611.519531 612.121094 C 608.867188 610.347656 606.257812 608.511719 603.691406 606.609375 C 601.128906 604.707031 598.609375 602.742188 596.144531 600.71875 C 593.675781 598.691406 591.257812 596.605469 588.890625 594.460938 C 586.527344 592.320312 584.214844 590.117188 581.957031 587.859375 C 579.699219 585.601562 577.5 583.289062 575.355469 580.925781 C 573.210938 578.558594 571.125 576.140625 569.097656 573.675781 C 567.074219 571.207031 565.109375 568.691406 563.207031 566.125 C 561.304688 563.558594 559.46875 560.949219 557.695312 558.296875 C 555.921875 555.640625 554.214844 552.945312 552.570312 550.207031 C 550.929688 547.46875 549.355469 544.691406 547.851562 541.875 C 546.347656 539.058594 544.910156 536.207031 543.546875 533.320312 C 542.179688 530.433594 540.886719 527.515625 539.664062 524.566406 C 538.445312 521.617188 537.296875 518.640625 536.21875 515.632812 C 535.144531 512.625 534.144531 509.597656 533.214844 506.539062 C 532.289062 503.484375 531.4375 500.410156 530.660156 497.3125 C 529.886719 494.214844 529.1875 491.101562 528.5625 487.96875 C 527.941406 484.835938 527.394531 481.691406 526.925781 478.535156 C 526.457031 475.375 526.066406 472.207031 525.753906 469.03125 C 525.441406 465.851562 525.207031 462.671875 525.050781 459.480469 C 524.894531 456.292969 524.816406 453.101562 524.816406 449.910156 C 524.816406 446.714844 524.894531 443.523438 525.050781 440.335938 C 525.207031 437.148438 525.441406 433.964844 525.753906 430.785156 C 526.066406 427.609375 526.457031 424.441406 526.925781 421.28125 C 527.394531 418.125 527.941406 414.980469 528.5625 411.847656 C 529.1875 408.714844 529.886719 405.601562 530.660156 402.503906 C 531.4375 399.40625 532.289062 396.332031 533.214844 393.277344 C 534.144531 390.21875 535.144531 387.191406 536.21875 384.183594 C 537.296875 381.175781 538.445312 378.199219 539.664062 375.25 C 540.886719 372.300781 542.179688 369.382812 543.546875 366.496094 C 544.910156 363.609375 546.347656 360.757812 547.851562 357.941406 C 549.355469 355.125 550.929688 352.347656 552.570312 349.609375 C 554.214844 346.871094 555.921875 344.175781 557.695312 341.519531 C 559.46875 338.867188 561.304688 336.257812 563.207031 333.691406 C 565.109375 331.128906 567.074219 328.609375 569.097656 326.144531 C 571.125 323.675781 573.210938 321.257812 575.355469 318.890625 C 577.5 316.527344 579.699219 314.214844 581.957031 311.957031 C 584.214844 309.699219 586.527344 307.5 588.890625 305.355469 C 591.257812 303.210938 593.675781 301.125 596.144531 299.097656 C 598.609375 297.074219 601.128906 295.109375 603.691406 293.207031 C 606.257812 291.304688 608.867188 289.46875 611.519531 287.695312 C 614.175781 285.921875 616.871094 284.214844 619.609375 282.570312 C 622.347656 280.929688 625.125 279.355469 627.941406 277.851562 C 630.757812 276.347656 633.609375 274.910156 636.496094 273.546875 C 639.382812 272.179688 642.300781 270.886719 645.25 269.664062 C 648.199219 268.445312 651.175781 267.296875 654.183594 266.21875 C 657.191406 265.144531 660.21875 264.144531 663.277344 263.214844 C 666.332031 262.289062 669.40625 261.4375 672.503906 260.660156 C 675.601562 259.886719 678.714844 259.1875 681.847656 258.5625 C 684.980469 257.941406 688.125 257.394531 691.28125 256.925781 C 694.441406 256.457031 697.609375 256.066406 700.785156 255.753906 C 703.964844 255.441406 707.148438 255.207031 710.335938 255.050781 C 713.523438 254.894531 716.714844 254.816406 719.910156 254.816406 C 723.101562 254.816406 726.292969 254.894531 729.480469 255.050781 C 732.671875 255.207031 735.851562 255.441406 739.03125 255.753906 C 742.207031 256.066406 745.375 256.457031 748.535156 256.925781 C 751.691406 257.394531 754.835938 257.941406 757.96875 258.5625 C 761.101562 259.1875 764.214844 259.886719 767.3125 260.660156 C 770.410156 261.4375 773.484375 262.289062 776.539062 263.214844 C 779.597656 264.144531 782.625 265.144531 785.632812 266.21875 C 788.640625 267.296875 791.617188 268.445312 794.566406 269.664062 C 797.515625 270.886719 800.433594 272.179688 803.320312 273.546875 C 806.207031 274.910156 809.058594 276.347656 811.875 277.851562 C 814.691406 279.355469 817.46875 280.929688 820.207031 282.570312 C 822.945312 284.214844 825.640625 285.921875 828.296875 287.695312 C 830.949219 289.46875 833.558594 291.304688 836.125 293.207031 C 838.691406 295.109375 841.207031 297.074219 843.675781 299.097656 C 846.140625 301.125 848.558594 303.210938 850.925781 305.355469 C 853.289062 307.5 855.601562 309.699219 857.859375 311.957031 C 860.117188 314.214844 862.316406 316.527344 864.460938 318.890625 C 866.605469 321.257812 868.691406 323.675781 870.71875 326.144531 C 872.742188 328.609375 874.707031 331.128906 876.609375 333.691406 C 878.511719 336.257812 880.347656 338.867188 882.121094 341.519531 C 883.894531 344.175781 885.605469 346.871094 887.246094 349.609375 C 888.886719 352.347656 890.460938 355.125 891.964844 357.941406 C 893.46875 360.757812 894.90625 363.609375 896.269531 366.496094 C 897.636719 369.382812 898.929688 372.300781 900.152344 375.25 C 901.371094 378.199219 902.519531 381.175781 903.597656 384.183594 C 904.671875 387.191406 905.671875 390.21875 906.601562 393.277344 C 907.527344 396.332031 908.378906 399.40625 909.15625 402.503906 C 909.929688 405.601562 910.628906 408.714844 911.253906 411.847656 C 911.875 414.980469 912.421875 418.125 912.890625 421.28125 C 913.359375 424.441406 913.75 427.609375 914.0625 430.785156 C 914.375 433.964844 914.609375 437.148438 914.765625 440.335938 C 914.921875 443.523438 915 446.714844 915 449.910156 C 914.996094 453.101562 914.914062 456.289062 914.753906 459.476562 C 914.597656 462.664062 914.359375 465.847656 914.042969 469.023438 C 913.726562 472.199219 913.332031 475.367188 912.859375 478.523438 C 912.390625 481.679688 911.839844 484.824219 911.214844 487.953125 C 910.589844 491.082031 909.890625 494.195312 909.109375 497.292969 C 908.332031 500.386719 907.480469 503.460938 906.550781 506.515625 C 905.621094 509.570312 904.621094 512.597656 903.542969 515.605469 C 902.464844 518.609375 901.316406 521.585938 900.089844 524.53125 C 898.867188 527.480469 897.574219 530.398438 896.207031 533.28125 C 894.839844 536.167969 893.40625 539.015625 891.898438 541.832031 C 890.394531 544.644531 888.820312 547.421875 887.179688 550.15625 C 885.535156 552.894531 883.828125 555.589844 882.054688 558.242188 C 880.28125 560.898438 878.441406 563.503906 876.539062 566.070312 C 874.636719 568.632812 872.675781 571.148438 870.648438 573.613281 C 868.625 576.082031 866.539062 578.496094 864.394531 580.863281 C 862.253906 583.226562 860.050781 585.539062 857.796875 587.796875 C 855.539062 590.050781 853.226562 592.253906 850.863281 594.394531 C 848.496094 596.539062 846.082031 598.625 843.613281 600.648438 C 841.148438 602.675781 838.632812 604.636719 836.070312 606.539062 C 833.503906 608.441406 830.898438 610.28125 828.242188 612.054688 C 825.589844 613.828125 822.894531 615.535156 820.15625 617.179688 C 817.421875 618.820312 814.644531 620.394531 811.832031 621.898438 C 809.015625 623.40625 806.167969 624.839844 803.28125 626.207031 C 800.398438 627.574219 797.480469 628.867188 794.53125 630.089844 C 791.585938 631.316406 788.609375 632.464844 785.605469 633.542969 C 782.597656 634.621094 779.570312 635.621094 776.515625 636.550781 C 773.460938 637.480469 770.386719 638.332031 767.292969 639.109375 C 764.195312 639.890625 761.082031 640.589844 757.953125 641.214844 C 754.824219 641.839844 751.679688 642.390625 748.523438 642.859375 C 745.367188 643.332031 742.199219 643.726562 739.023438 644.042969 C 735.847656 644.359375 732.664062 644.597656 729.476562 644.753906 C 726.289062 644.914062 723.101562 644.996094 719.910156 645 Z M 719.910156 264.136719 C 716.867188 264.136719 713.828125 264.210938 710.792969 264.359375 C 707.757812 264.511719 704.726562 264.734375 701.699219 265.03125 C 698.675781 265.328125 695.65625 265.703125 692.648438 266.148438 C 689.644531 266.59375 686.648438 267.113281 683.667969 267.707031 C 680.683594 268.300781 677.71875 268.964844 674.769531 269.703125 C 671.820312 270.445312 668.890625 271.253906 665.980469 272.136719 C 663.074219 273.019531 660.1875 273.972656 657.324219 274.996094 C 654.460938 276.019531 651.625 277.113281 648.816406 278.277344 C 646.007812 279.441406 643.230469 280.671875 640.480469 281.972656 C 637.734375 283.273438 635.019531 284.640625 632.335938 286.074219 C 629.65625 287.507812 627.011719 289.003906 624.402344 290.566406 C 621.796875 292.128906 619.226562 293.757812 616.699219 295.445312 C 614.171875 297.132812 611.6875 298.882812 609.246094 300.695312 C 606.804688 302.507812 604.40625 304.375 602.054688 306.304688 C 599.707031 308.234375 597.40625 310.21875 595.152344 312.261719 C 592.898438 314.304688 590.699219 316.398438 588.546875 318.546875 C 586.398438 320.699219 584.304688 322.898438 582.261719 325.152344 C 580.21875 327.40625 578.234375 329.707031 576.304688 332.054688 C 574.375 334.40625 572.507812 336.804688 570.695312 339.246094 C 568.882812 341.6875 567.132812 344.171875 565.445312 346.699219 C 563.757812 349.226562 562.128906 351.796875 560.566406 354.402344 C 559.003906 357.011719 557.507812 359.65625 556.074219 362.335938 C 554.640625 365.019531 553.273438 367.734375 551.972656 370.480469 C 550.671875 373.230469 549.441406 376.007812 548.277344 378.816406 C 547.113281 381.625 546.019531 384.460938 544.996094 387.324219 C 543.972656 390.1875 543.019531 393.074219 542.136719 395.980469 C 541.253906 398.890625 540.445312 401.820312 539.703125 404.769531 C 538.964844 407.71875 538.300781 410.683594 537.707031 413.667969 C 537.113281 416.648438 536.59375 419.644531 536.148438 422.648438 C 535.703125 425.65625 535.328125 428.675781 535.03125 431.699219 C 534.734375 434.726562 534.511719 437.757812 534.359375 440.792969 C 534.210938 443.828125 534.136719 446.867188 534.136719 449.910156 C 534.136719 452.949219 534.210938 455.988281 534.359375 459.023438 C 534.511719 462.058594 534.734375 465.089844 535.03125 468.117188 C 535.328125 471.144531 535.703125 474.160156 536.148438 477.167969 C 536.59375 480.175781 537.113281 483.167969 537.707031 486.148438 C 538.300781 489.132812 538.964844 492.097656 539.703125 495.046875 C 540.445312 497.996094 541.253906 500.925781 542.136719 503.835938 C 543.019531 506.742188 543.972656 509.628906 544.996094 512.492188 C 546.019531 515.355469 547.113281 518.191406 548.277344 521 C 549.441406 523.808594 550.671875 526.585938 551.972656 529.335938 C 553.273438 532.082031 554.640625 534.796875 556.074219 537.480469 C 557.507812 540.160156 559.003906 542.804688 560.566406 545.414062 C 562.128906 548.019531 563.757812 550.589844 565.445312 553.117188 C 567.132812 555.644531 568.882812 558.128906 570.695312 560.570312 C 572.507812 563.015625 574.375 565.410156 576.304688 567.761719 C 578.234375 570.109375 580.21875 572.410156 582.261719 574.664062 C 584.304688 576.917969 586.398438 579.117188 588.546875 581.269531 C 590.699219 583.417969 592.898438 585.511719 595.152344 587.554688 C 597.40625 589.597656 599.707031 591.582031 602.054688 593.511719 C 604.40625 595.441406 606.804688 597.308594 609.246094 599.121094 C 611.6875 600.933594 614.171875 602.683594 616.699219 604.371094 C 619.226562 606.058594 621.796875 607.6875 624.402344 609.25 C 627.011719 610.8125 629.65625 612.308594 632.335938 613.742188 C 635.019531 615.175781 637.734375 616.542969 640.480469 617.84375 C 643.230469 619.144531 646.007812 620.375 648.816406 621.539062 C 651.625 622.703125 654.460938 623.796875 657.324219 624.820312 C 660.1875 625.84375 663.074219 626.796875 665.980469 627.679688 C 668.890625 628.5625 671.820312 629.371094 674.769531 630.113281 C 677.71875 630.851562 680.683594 631.515625 683.667969 632.109375 C 686.648438 632.703125 689.644531 633.222656 692.648438 633.667969 C 695.65625 634.113281 698.675781 634.488281 701.699219 634.785156 C 704.726562 635.082031 707.757812 635.304688 710.792969 635.457031 C 713.828125 635.605469 716.867188 635.679688 719.910156 635.679688 C 722.949219 635.679688 725.988281 635.605469 729.023438 635.457031 C 732.058594 635.304688 735.089844 635.082031 738.117188 634.785156 C 741.144531 634.488281 744.160156 634.113281 747.167969 633.667969 C 750.175781 633.222656 753.167969 632.703125 756.148438 632.109375 C 759.132812 631.515625 762.097656 630.851562 765.046875 630.113281 C 767.996094 629.375 770.925781 628.5625 773.835938 627.679688 C 776.742188 626.796875 779.628906 625.84375 782.492188 624.820312 C 785.355469 623.796875 788.191406 622.703125 791 621.539062 C 793.808594 620.375 796.585938 619.144531 799.335938 617.84375 C 802.082031 616.542969 804.796875 615.175781 807.480469 613.742188 C 810.160156 612.308594 812.804688 610.8125 815.414062 609.25 C 818.019531 607.6875 820.589844 606.058594 823.117188 604.371094 C 825.644531 602.683594 828.128906 600.933594 830.570312 599.121094 C 833.015625 597.308594 835.410156 595.441406 837.761719 593.511719 C 840.109375 591.582031 842.410156 589.597656 844.664062 587.554688 C 846.917969 585.511719 849.117188 583.417969 851.269531 581.269531 C 853.417969 579.117188 855.511719 576.917969 857.554688 574.664062 C 859.597656 572.410156 861.582031 570.109375 863.511719 567.761719 C 865.441406 565.410156 867.308594 563.015625 869.121094 560.570312 C 870.933594 558.128906 872.683594 555.644531 874.371094 553.117188 C 876.058594 550.589844 877.6875 548.019531 879.25 545.414062 C 880.8125 542.804688 882.308594 540.160156 883.742188 537.480469 C 885.175781 534.796875 886.542969 532.082031 887.84375 529.335938 C 889.144531 526.585938 890.375 523.808594 891.539062 521 C 892.703125 518.191406 893.796875 515.355469 894.820312 512.492188 C 895.84375 509.628906 896.796875 506.742188 897.679688 503.835938 C 898.5625 500.925781 899.371094 497.996094 900.113281 495.046875 C 900.851562 492.097656 901.515625 489.132812 902.109375 486.148438 C 902.703125 483.167969 903.222656 480.175781 903.667969 477.167969 C 904.113281 474.160156 904.488281 471.144531 904.785156 468.117188 C 905.082031 465.089844 905.304688 462.058594 905.457031 459.023438 C 905.605469 455.988281 905.679688 452.949219 905.679688 449.910156 C 905.675781 446.867188 905.597656 443.832031 905.445312 440.796875 C 905.292969 437.761719 905.066406 434.730469 904.765625 431.707031 C 904.464844 428.679688 904.089844 425.667969 903.640625 422.660156 C 903.191406 419.652344 902.671875 416.660156 902.074219 413.679688 C 901.480469 410.699219 900.8125 407.734375 900.070312 404.789062 C 899.332031 401.839844 898.519531 398.914062 897.632812 396.003906 C 896.75 393.097656 895.792969 390.210938 894.769531 387.351562 C 893.742188 384.492188 892.648438 381.65625 891.484375 378.847656 C 890.320312 376.042969 889.085938 373.265625 887.785156 370.515625 C 886.484375 367.769531 885.117188 365.058594 883.683594 362.378906 C 882.25 359.695312 880.75 357.054688 879.1875 354.449219 C 877.625 351.839844 875.996094 349.273438 874.308594 346.746094 C 872.617188 344.222656 870.867188 341.738281 869.058594 339.296875 C 867.246094 336.855469 865.375 334.460938 863.449219 332.113281 C 861.519531 329.761719 859.535156 327.460938 857.492188 325.210938 C 855.453125 322.957031 853.355469 320.757812 851.207031 318.609375 C 849.058594 316.460938 846.859375 314.363281 844.605469 312.324219 C 842.355469 310.28125 840.054688 308.296875 837.703125 306.367188 C 835.355469 304.441406 832.960938 302.570312 830.519531 300.757812 C 828.078125 298.949219 825.59375 297.199219 823.070312 295.507812 C 820.542969 293.820312 817.976562 292.191406 815.367188 290.628906 C 812.761719 289.066406 810.121094 287.566406 807.441406 286.132812 C 804.757812 284.699219 802.046875 283.332031 799.300781 282.03125 C 796.550781 280.730469 793.773438 279.496094 790.96875 278.332031 C 788.160156 277.167969 785.328125 276.074219 782.464844 275.046875 C 779.605469 274.023438 776.71875 273.066406 773.8125 272.183594 C 770.902344 271.296875 767.976562 270.484375 765.027344 269.746094 C 762.082031 269.003906 759.117188 268.335938 756.136719 267.742188 C 753.15625 267.144531 750.164062 266.625 747.15625 266.175781 C 744.148438 265.726562 741.136719 265.351562 738.109375 265.050781 C 735.085938 264.75 732.054688 264.523438 729.019531 264.371094 C 725.984375 264.21875 722.949219 264.140625 719.910156 264.136719 Z M 719.910156 264.136719 " fill-opacity="1" fill-rule="nonzero"/><path fill="#231f20" d="M 513.992188 579.484375 C 513.25 580.308594 512.667969 581.234375 512.253906 582.261719 C 511.890625 583.34375 511.996094 583.835938 512.953125 585.292969 L 514.585938 587.757812 C 515.199219 588.6875 515.335938 588.738281 516.257812 588.128906 L 522.621094 583.902344 L 520.476562 580.671875 C 519.269531 578.855469 518.738281 578.921875 516.449219 579.820312 L 515.792969 578.832031 L 522.011719 574.707031 L 522.6875 575.71875 C 520.945312 577.351562 520.699219 578.027344 521.851562 579.757812 L 523.996094 582.984375 L 528.6875 579.871094 C 531.269531 578.15625 531.296875 577.835938 529.773438 575.121094 L 530.738281 574.480469 L 536.539062 583.210938 L 535.570312 583.851562 C 533.902344 581.753906 533.550781 581.621094 530.980469 583.328125 L 520.179688 590.5 C 517.652344 592.175781 517.640625 592.570312 518.921875 594.910156 L 517.953125 595.550781 L 511.660156 586.082031 C 510.003906 583.582031 509.132812 582.332031 508.789062 581.886719 C 509.449219 581.417969 511.660156 579.746094 513.140625 578.554688 Z M 513.992188 579.484375 " fill-opacity="1" fill-rule="nonzero"/><path fill="#231f20" d="M 493.640625 554.007812 C 493.316406 553.328125 493.058594 552.625 492.875 551.894531 C 492.691406 551.167969 492.582031 550.425781 492.546875 549.675781 C 492.515625 548.925781 492.554688 548.175781 492.671875 547.433594 C 492.789062 546.691406 492.980469 545.96875 493.246094 545.261719 C 493.507812 544.558594 493.839844 543.886719 494.238281 543.25 C 494.640625 542.613281 495.097656 542.023438 495.617188 541.480469 C 496.136719 540.9375 496.707031 540.449219 497.324219 540.019531 C 497.941406 539.59375 498.597656 539.230469 499.289062 538.933594 C 499.980469 538.59375 500.699219 538.320312 501.449219 538.121094 C 502.195312 537.921875 502.953125 537.800781 503.722656 537.75 C 504.496094 537.703125 505.261719 537.730469 506.027344 537.835938 C 506.792969 537.941406 507.542969 538.121094 508.269531 538.375 C 509 538.628906 509.699219 538.953125 510.363281 539.347656 C 511.027344 539.738281 511.648438 540.195312 512.222656 540.710938 C 512.796875 541.226562 513.316406 541.796875 513.777344 542.414062 C 514.238281 543.035156 514.632812 543.691406 514.964844 544.390625 C 515.292969 545.089844 515.550781 545.8125 515.738281 546.5625 C 515.921875 547.3125 516.035156 548.074219 516.066406 548.847656 C 516.101562 549.617188 516.058594 550.386719 515.941406 551.148438 C 515.824219 551.914062 515.628906 552.65625 515.363281 553.382812 C 515.097656 554.105469 514.761719 554.796875 514.355469 555.457031 C 513.953125 556.113281 513.484375 556.726562 512.960938 557.292969 C 512.433594 557.855469 511.855469 558.363281 511.230469 558.816406 C 510.601562 559.265625 509.933594 559.648438 509.230469 559.96875 C 508.527344 560.308594 507.796875 560.574219 507.039062 560.765625 C 506.28125 560.957031 505.511719 561.070312 504.730469 561.101562 C 503.949219 561.136719 503.171875 561.089844 502.402344 560.964844 C 501.628906 560.839844 500.878906 560.636719 500.148438 560.359375 C 499.417969 560.078125 498.722656 559.726562 498.066406 559.304688 C 497.40625 558.886719 496.796875 558.402344 496.238281 557.855469 C 495.679688 557.308594 495.179688 556.710938 494.742188 556.0625 C 494.304688 555.414062 493.9375 554.730469 493.640625 554.007812 Z M 495.179688 553.941406 C 496.675781 557.238281 500.933594 558.488281 506.574219 555.925781 C 512.042969 553.445312 515.363281 548.949219 513.414062 544.652344 C 511.9375 541.390625 507.949219 540.195312 502.117188 542.84375 C 495.796875 545.710938 493.457031 550.152344 495.179688 553.941406 Z M 495.179688 553.941406 " fill-opacity="1" fill-rule="nonzero"/><path fill="#231f20" d="M 479.191406 512.640625 C 478.988281 511.917969 478.863281 511.179688 478.808594 510.429688 C 478.757812 509.675781 478.78125 508.929688 478.882812 508.183594 C 478.980469 507.4375 479.15625 506.710938 479.402344 506 C 479.648438 505.289062 479.964844 504.609375 480.347656 503.964844 C 480.734375 503.316406 481.179688 502.714844 481.6875 502.160156 C 482.191406 501.601562 482.75 501.101562 483.359375 500.660156 C 483.964844 500.214844 484.613281 499.835938 485.296875 499.523438 C 485.980469 499.210938 486.6875 498.972656 487.421875 498.804688 C 488.164062 498.59375 488.917969 498.460938 489.683594 498.402344 C 490.449219 498.34375 491.214844 498.359375 491.980469 498.453125 C 492.742188 498.546875 493.492188 498.714844 494.222656 498.953125 C 494.953125 499.195312 495.652344 499.507812 496.320312 499.886719 C 496.988281 500.265625 497.613281 500.707031 498.195312 501.210938 C 498.777344 501.714844 499.304688 502.273438 499.773438 502.882812 C 500.246094 503.488281 500.652344 504.136719 500.992188 504.828125 C 501.335938 505.515625 501.609375 506.230469 501.808594 506.976562 C 502.007812 507.71875 502.132812 508.472656 502.183594 509.242188 C 502.234375 510.007812 502.210938 510.773438 502.109375 511.535156 C 502.007812 512.296875 501.832031 513.042969 501.582031 513.769531 C 501.332031 514.5 501.015625 515.195312 500.628906 515.859375 C 500.242188 516.523438 499.792969 517.144531 499.28125 517.722656 C 498.773438 518.296875 498.210938 518.816406 497.597656 519.28125 C 496.984375 519.746094 496.332031 520.144531 495.636719 520.480469 C 494.945312 520.816406 494.226562 521.078125 493.480469 521.269531 C 492.726562 521.480469 491.960938 521.613281 491.179688 521.667969 C 490.402344 521.722656 489.625 521.695312 488.847656 521.589844 C 488.074219 521.488281 487.316406 521.304688 486.582031 521.042969 C 485.84375 520.785156 485.140625 520.453125 484.46875 520.046875 C 483.800781 519.644531 483.179688 519.175781 482.605469 518.644531 C 482.03125 518.113281 481.519531 517.527344 481.0625 516.890625 C 480.609375 516.253906 480.226562 515.578125 479.910156 514.863281 C 479.59375 514.144531 479.355469 513.40625 479.191406 512.640625 Z M 480.714844 512.847656 C 481.605469 516.359375 485.574219 518.34375 491.582031 516.824219 C 497.410156 515.347656 501.46875 511.515625 500.3125 506.9375 C 499.4375 503.472656 495.722656 501.578125 489.515625 503.152344 C 482.785156 504.859375 479.695312 508.8125 480.714844 512.847656 Z M 480.714844 512.847656 " fill-opacity="1" fill-rule="nonzero"/><path fill="#231f20" d="M 472.933594 471.660156 C 472.636719 469.898438 472.679688 468.140625 473.066406 466.390625 C 473.449219 464.644531 474.148438 463.03125 475.160156 461.554688 C 476.058594 460.476562 477.136719 459.628906 478.394531 459.011719 C 479.652344 458.394531 480.984375 458.058594 482.386719 458.007812 C 483.253906 457.914062 484.121094 457.925781 484.984375 458.039062 C 485.851562 458.152344 486.691406 458.367188 487.503906 458.679688 C 488.320312 458.992188 489.085938 459.398438 489.800781 459.894531 C 490.519531 460.394531 491.167969 460.96875 491.746094 461.621094 C 492.875 463.0625 493.746094 464.644531 494.359375 466.371094 C 494.96875 468.097656 495.289062 469.875 495.324219 471.707031 L 495.945312 480.1875 L 494.78125 480.269531 C 494.351562 477.566406 494.046875 477.339844 491.21875 477.546875 L 477.976562 478.523438 C 475.078125 478.738281 474.878906 479.140625 474.839844 481.742188 L 473.675781 481.828125 Z M 490.664062 473.429688 C 493.144531 473.25 493.871094 472.402344 493.695312 469.882812 C 493.3125 464.714844 489.539062 462.140625 483.234375 462.605469 C 481.765625 462.597656 480.367188 462.902344 479.039062 463.527344 C 477.710938 464.152344 476.585938 465.035156 475.65625 466.171875 C 475.089844 467.019531 474.691406 467.9375 474.464844 468.929688 C 474.238281 469.925781 474.199219 470.925781 474.347656 471.933594 C 474.3125 472.757812 474.527344 473.507812 474.996094 474.183594 C 475.289062 474.46875 475.808594 474.523438 476.921875 474.441406 Z M 490.664062 473.429688 " fill-opacity="1" fill-rule="nonzero"/><path fill="#231f20" d="M 482.097656 405.226562 C 479.800781 405.488281 477.242188 406.070312 476.714844 409.136719 C 476.664062 409.359375 476.636719 409.589844 476.632812 409.816406 C 476.628906 410.046875 476.648438 410.277344 476.695312 410.503906 C 476.738281 410.730469 476.808594 410.949219 476.898438 411.160156 C 476.988281 411.371094 477.101562 411.570312 477.234375 411.757812 C 477.371094 411.945312 477.519531 412.117188 477.691406 412.273438 C 477.859375 412.429688 478.046875 412.566406 478.246094 412.683594 C 478.441406 412.800781 478.652344 412.894531 478.871094 412.964844 C 479.089844 413.039062 479.3125 413.085938 479.542969 413.113281 C 481.601562 413.464844 482.980469 412.28125 484.917969 409.660156 C 487.121094 406.65625 489.257812 404.351562 492.769531 404.960938 C 496.617188 405.621094 498.949219 409.339844 498.132812 414.011719 C 497.734375 415.890625 497.070312 417.667969 496.132812 419.347656 C 495.292969 419.421875 491.9375 419.386719 490.304688 419.347656 L 490.222656 418.070312 C 492.453125 417.796875 496.261719 416.648438 496.84375 413.273438 C 496.90625 413.035156 496.9375 412.792969 496.945312 412.546875 C 496.953125 412.300781 496.933594 412.054688 496.886719 411.8125 C 496.839844 411.570312 496.765625 411.335938 496.667969 411.113281 C 496.570312 410.886719 496.449219 410.671875 496.304688 410.472656 C 496.160156 410.273438 495.996094 410.089844 495.8125 409.925781 C 495.628906 409.761719 495.429688 409.621094 495.214844 409.5 C 495 409.378906 494.773438 409.285156 494.539062 409.214844 C 494.300781 409.144531 494.0625 409.097656 493.816406 409.078125 C 491.652344 408.707031 490.261719 409.917969 488.308594 412.417969 C 486.136719 415.191406 483.996094 417.578125 480.359375 416.953125 C 476.828125 416.34375 474.609375 413.238281 475.449219 408.378906 C 475.78125 406.785156 476.253906 405.230469 476.871094 403.71875 C 478.132812 403.796875 479.820312 403.878906 482.019531 403.980469 Z M 482.097656 405.226562 " fill-opacity="1" fill-rule="nonzero"/><path fill="#231f20" d="M 506.53125 378.828125 L 505.425781 378.460938 C 505.832031 376.292969 505.515625 376.085938 504.03125 376.097656 C 502.828125 376.097656 501.117188 376.160156 499.367188 376.199219 L 497.183594 382.789062 C 498.210938 383.59375 499.308594 384.472656 500.308594 385.21875 C 502.152344 386.601562 502.636719 386.023438 503.761719 383.503906 L 504.863281 383.867188 L 502.253906 391.730469 L 501.152344 391.367188 C 501.574219 389.226562 501.476562 388.613281 499.042969 386.566406 L 484.359375 374.183594 L 484.558594 372.714844 C 490.878906 372.511719 497.542969 372.25 503.746094 371.984375 C 507.085938 371.816406 507.425781 371.605469 508.40625 369.503906 L 509.507812 369.871094 Z M 489.335938 376.457031 C 491.515625 378.265625 493.648438 380.058594 495.800781 381.746094 L 497.628906 376.246094 Z M 489.335938 376.457031 " fill-opacity="1" fill-rule="nonzero"/><path fill="#231f20" d="M 507.433594 335.265625 C 506.347656 335.019531 505.257812 334.96875 504.15625 335.113281 C 503.035156 335.324219 502.660156 335.660156 501.863281 337.207031 L 500.519531 339.84375 C 500.015625 340.832031 500.03125 340.980469 501.019531 341.472656 L 507.824219 344.945312 L 509.585938 341.492188 C 510.578125 339.546875 510.261719 339.121094 508.355469 337.566406 L 508.894531 336.511719 L 515.542969 339.90625 L 514.988281 340.992188 C 512.707031 340.277344 512.007812 340.390625 511.0625 342.246094 L 509.296875 345.699219 L 514.3125 348.261719 C 517.074219 349.660156 517.371094 349.539062 518.976562 346.878906 L 520.011719 347.40625 L 515.242188 356.742188 L 514.210938 356.214844 C 515.21875 353.730469 515.164062 353.359375 512.417969 351.957031 L 500.863281 346.058594 C 498.160156 344.679688 497.8125 344.863281 496.402344 347.125 L 495.363281 346.597656 L 500.535156 336.464844 C 501.902344 333.792969 502.5625 332.417969 502.789062 331.902344 C 503.527344 332.242188 506.050781 333.355469 507.824219 334.0625 Z M 507.433594 335.265625 " fill-opacity="1" fill-rule="nonzero"/><path fill="#231f20" d="M 537.128906 309.960938 C 537.765625 310.640625 540.3125 313.621094 540.929688 314.453125 L 530.824219 328.636719 L 529.890625 327.976562 C 531.484375 325.25 531.433594 324.949219 529.105469 323.285156 L 518.300781 315.59375 C 515.886719 313.875 515.503906 314.085938 513.914062 315.929688 L 512.96875 315.253906 L 519.308594 306.355469 C 521.324219 303.53125 522.019531 302.492188 522.257812 302.097656 C 522.847656 302.476562 525.164062 303.929688 526.890625 304.992188 L 526.3125 306.09375 C 525.289062 305.675781 524.222656 305.457031 523.117188 305.4375 C 522.085938 305.4375 521.578125 305.761719 520.5 307.28125 L 518.996094 309.390625 C 518.296875 310.382812 518.296875 310.523438 519.191406 311.164062 L 525.152344 315.410156 L 527.191406 312.542969 C 528.4375 310.792969 528.183594 310.261719 526.507812 308.480469 L 527.226562 307.46875 L 533.285156 311.789062 L 532.566406 312.804688 C 530.21875 311.761719 529.746094 311.757812 528.492188 313.519531 L 526.476562 316.347656 L 531.546875 319.960938 C 533.484375 321.34375 534.109375 321.40625 535.273438 319.808594 L 536.839844 317.609375 C 537.992188 315.996094 538.042969 315.472656 537.734375 314.324219 C 537.371094 313.066406 536.855469 311.878906 536.179688 310.753906 Z M 537.128906 309.960938 " fill-opacity="1" fill-rule="nonzero"/><path fill="#231f20" d="M 552.328125 276.984375 C 551.320312 276.398438 550.246094 275.980469 549.105469 275.730469 C 548.125 275.605469 547.730469 275.640625 546.351562 277.058594 L 544.523438 278.945312 L 556.25 290.320312 C 558.269531 292.277344 558.683594 292.230469 561.023438 290.144531 L 561.855469 290.953125 L 554.265625 298.78125 L 553.433594 297.972656 C 555.367188 295.644531 555.390625 295.261719 553.363281 293.296875 L 541.632812 281.921875 L 539.925781 283.683594 C 538.597656 285.054688 538.410156 285.640625 538.613281 286.714844 C 538.921875 287.800781 539.359375 288.832031 539.925781 289.808594 L 539.082031 290.675781 C 537.542969 288.867188 535.910156 286.964844 534.714844 285.691406 L 535.375 285.011719 C 536.308594 285.199219 536.609375 284.9375 537.308594 284.214844 L 546.835938 274.394531 C 547.125 274.15625 547.332031 273.867188 547.464844 273.515625 C 547.59375 273.167969 547.625 272.808594 547.5625 272.445312 L 548.214844 271.773438 C 549.308594 272.800781 551.433594 274.671875 553.097656 276.042969 Z M 552.328125 276.984375 " fill-opacity="1" fill-rule="nonzero"/><path fill="#231f20" d="M 581.152344 247.597656 C 580.785156 247.863281 580.46875 248.179688 580.199219 248.542969 C 579.925781 248.90625 579.71875 249.304688 579.566406 249.730469 C 579.417969 250.160156 579.335938 250.597656 579.320312 251.050781 C 579.304688 251.503906 579.359375 251.949219 579.476562 252.386719 C 579.757812 255 580.078125 257.328125 580.714844 260.984375 C 580.808594 261.648438 581.074219 262.238281 581.507812 262.753906 L 584.050781 266.152344 C 585.816406 268.503906 586.109375 268.457031 588.8125 266.851562 L 589.511719 267.78125 L 580.835938 274.28125 L 580.136719 273.347656 C 582.296875 271.277344 582.488281 271.015625 580.714844 268.65625 L 578.246094 265.359375 C 577.882812 264.851562 577.410156 264.488281 576.824219 264.269531 C 574.710938 263.230469 572.371094 262.171875 568.699219 260.582031 C 566.304688 259.539062 565.667969 259.464844 563.855469 260.558594 L 563.15625 259.625 L 570.753906 253.929688 L 571.453125 254.863281 C 569.757812 256.53125 570.101562 256.832031 571.289062 257.425781 C 573.707031 258.589844 576.648438 259.964844 579.25 261.179688 C 578.898438 258.871094 578.234375 255.058594 577.789062 252.859375 C 577.453125 251.246094 577.039062 251.042969 574.816406 252.339844 L 574.117188 251.410156 L 580.453125 246.660156 Z M 581.152344 247.597656 " fill-opacity="1" fill-rule="nonzero"/><path fill="#231f20" d="M 640.054688 240.859375 L 639.625 239.78125 C 642.011719 238.53125 642.0625 238.265625 640.828125 235.207031 L 635.757812 222.585938 C 635.597656 229.152344 635.34375 237.523438 635.265625 242.777344 L 634.292969 243.167969 C 630.796875 239.46875 625.304688 233.644531 620.703125 228.953125 C 624.414062 239.539062 625.273438 241.707031 625.65625 242.667969 C 626.386719 244.394531 627.230469 244.5 629.632812 243.796875 L 630.0625 244.875 L 622.285156 247.988281 L 621.855469 246.914062 C 623.609375 246.011719 624.273438 245.324219 623.789062 243.378906 C 623.492188 242.214844 622.953125 240.582031 619.359375 229.375 C 618.835938 227.757812 618.277344 227.109375 615.414062 227.976562 L 614.984375 226.898438 L 621.398438 224.335938 L 633.785156 236.53125 L 634.519531 219.074219 L 640.839844 216.542969 L 641.273438 217.621094 C 638.769531 218.949219 638.566406 219.335938 639.605469 221.75 L 644.644531 233.714844 C 645.933594 236.746094 646.105469 236.835938 648.894531 236.097656 L 649.328125 237.179688 Z M 640.054688 240.859375 " fill-opacity="1" fill-rule="nonzero"/><path fill="#231f20" d="M 676.351562 230.546875 L 676.121094 229.410156 C 678.203125 228.679688 678.21875 228.300781 677.46875 227.011719 C 676.871094 225.96875 675.960938 224.519531 675.054688 223.023438 L 668.246094 224.421875 C 668.066406 225.714844 667.847656 227.105469 667.703125 228.34375 C 667.425781 230.632812 668.167969 230.765625 670.917969 230.484375 L 671.152344 231.621094 L 663.03125 233.285156 L 662.796875 232.148438 C 664.859375 231.449219 665.339844 231.054688 665.902344 227.917969 L 669.304688 209.003906 L 670.671875 208.441406 C 674.007812 213.820312 677.5625 219.464844 680.894531 224.710938 C 682.707031 227.523438 683.058594 227.710938 685.371094 227.507812 L 685.601562 228.648438 Z M 669.828125 214.46875 C 669.347656 217.265625 668.851562 220.003906 668.472656 222.714844 L 674.152344 221.550781 Z M 669.828125 214.46875 " fill-opacity="1" fill-rule="nonzero"/><path fill="#231f20" d="M 722.835938 204.914062 C 720.71875 205.257812 720.054688 205.691406 720.011719 207.246094 C 719.976562 208.503906 719.933594 209.769531 720.046875 212.824219 L 720.558594 226.519531 L 718.851562 226.582031 L 703.761719 209.691406 L 704.0625 217.730469 C 704.175781 220.761719 704.308594 222.160156 704.4375 223.152344 C 704.609375 224.742188 705.402344 225.40625 707.933594 225.484375 L 707.972656 226.648438 L 699.523438 226.964844 L 699.480469 225.800781 C 701.488281 225.554688 702.316406 225.007812 702.4375 223.363281 C 702.539062 221.507812 702.539062 219.648438 702.4375 217.792969 L 702.125 209.441406 C 702.191406 208.484375 701.921875 207.628906 701.320312 206.878906 C 700.65625 206.042969 699.867188 205.933594 698.332031 205.84375 L 698.289062 204.675781 L 704.441406 204.445312 L 718.625 219.859375 L 718.367188 212.902344 C 718.253906 209.84375 718.160156 208.59375 718.011719 207.410156 C 717.851562 205.917969 717.199219 205.300781 714.378906 205.234375 L 714.335938 204.070312 L 722.808594 203.753906 Z M 722.835938 204.914062 " fill-opacity="1" fill-rule="nonzero"/><path fill="#231f20" d="M 750.390625 228.390625 L 750.535156 227.222656 C 752.742188 227.203125 752.878906 226.855469 752.582031 225.386719 C 752.347656 224.222656 751.957031 222.542969 751.582031 220.832031 L 744.6875 219.960938 C 744.097656 221.128906 743.445312 222.375 742.910156 223.5 C 741.90625 225.578125 742.570312 225.9375 745.261719 226.558594 L 745.117188 227.722656 L 736.894531 226.6875 L 737.039062 225.53125 C 739.222656 225.53125 739.800781 225.316406 741.34375 222.53125 L 750.664062 205.714844 L 752.140625 205.628906 C 753.566406 211.792969 755.113281 218.28125 756.570312 224.320312 C 757.378906 227.570312 757.652344 227.859375 759.90625 228.421875 L 759.761719 229.570312 Z M 749.386719 211.054688 C 748.03125 213.542969 746.679688 215.980469 745.445312 218.425781 L 751.199219 219.152344 Z M 749.386719 211.054688 " fill-opacity="1" fill-rule="nonzero"/><path fill="#231f20" d="M 797.996094 229.945312 C 795.972656 229.675781 795.730469 229.773438 795.097656 231.910156 L 794.320312 234.523438 C 793.976562 235.578125 793.730469 236.65625 793.578125 237.753906 C 790.945312 237.625 788.347656 237.257812 785.78125 236.660156 C 778.179688 234.402344 774.660156 228.445312 776.660156 221.71875 C 778.84375 214.359375 785.839844 212.34375 792.703125 214.382812 C 794.933594 215.148438 797.097656 216.074219 799.191406 217.160156 C 798.851562 218.558594 798.40625 220.964844 798.082031 222.9375 L 796.835938 222.808594 C 796.917969 222.238281 796.921875 221.667969 796.847656 221.09375 C 796.777344 220.523438 796.632812 219.96875 796.414062 219.4375 C 796.195312 218.902344 795.914062 218.40625 795.5625 217.949219 C 795.214844 217.492188 794.8125 217.085938 794.355469 216.734375 C 793.523438 216.210938 792.632812 215.824219 791.6875 215.570312 C 787.332031 214.277344 783.128906 216.554688 781.34375 222.5625 C 779.742188 227.960938 780.558594 233.640625 786.332031 235.351562 C 787.125 235.625 787.9375 235.703125 788.769531 235.597656 C 789.429688 235.433594 789.890625 235.011719 790.230469 233.878906 L 791.078125 231.015625 C 791.777344 228.6875 791.453125 228.320312 788.636719 227.160156 L 788.972656 226.035156 L 798.332031 228.816406 Z M 797.996094 229.945312 " fill-opacity="1" fill-rule="nonzero"/><path fill="#231f20" d="M 828.851562 247.640625 C 828.285156 248.382812 825.78125 251.402344 825.0625 252.152344 L 809.367188 244.585938 L 809.859375 243.5625 C 812.820312 244.671875 813.121094 244.566406 814.351562 241.992188 L 820.121094 230.03125 C 821.40625 227.359375 821.128906 227 819.046875 225.761719 L 819.550781 224.714844 L 829.402344 229.460938 C 832.527344 230.96875 833.671875 231.476562 834.097656 231.644531 C 833.820312 232.292969 832.78125 234.824219 832.027344 236.703125 L 830.84375 236.324219 C 831.078125 235.242188 831.113281 234.15625 830.953125 233.0625 C 830.78125 232.046875 830.367188 231.601562 828.691406 230.792969 L 826.359375 229.671875 C 825.257812 229.140625 825.125 229.164062 824.640625 230.164062 L 821.464844 236.757812 L 824.640625 238.289062 C 826.578125 239.21875 827.054688 238.878906 828.53125 236.921875 L 829.648438 237.460938 L 826.414062 244.179688 L 825.292969 243.636719 C 825.925781 241.148438 825.847656 240.679688 823.894531 239.742188 L 820.753906 238.230469 L 818.050781 243.84375 C 817.015625 245.988281 817.0625 246.609375 818.835938 247.5 L 821.265625 248.664062 C 823.054688 249.527344 823.578125 249.484375 824.65625 248.988281 C 825.835938 248.417969 826.925781 247.707031 827.917969 246.851562 Z M 828.851562 247.640625 " fill-opacity="1" fill-rule="nonzero"/><path fill="#231f20" d="M 854.78125 271.082031 L 855.457031 270.136719 C 857.789062 271.480469 858.050781 271.378906 859.960938 268.695312 L 867.886719 257.640625 C 862.257812 261.03125 855.066406 265.3125 850.585938 268.070312 L 849.734375 267.457031 C 850.988281 262.535156 852.941406 254.765625 854.441406 248.347656 C 847.503906 257.164062 846.132812 259.050781 845.53125 259.890625 C 844.464844 261.433594 844.832031 262.199219 846.714844 263.851562 L 846.035156 264.792969 L 839.230469 259.902344 L 839.90625 258.953125 C 841.613281 259.953125 842.546875 260.144531 843.925781 258.691406 C 844.757812 257.8125 845.832031 256.488281 853.355469 247.425781 C 854.441406 246.117188 854.683594 245.300781 852.425781 243.339844 L 853.101562 242.40625 L 858.710938 246.4375 L 855.078125 263.441406 L 870.199219 254.6875 L 875.730469 258.648438 L 875.054688 259.582031 C 872.589844 258.183594 872.15625 258.21875 870.675781 260.390625 L 863.289062 271.070312 C 861.425781 273.785156 861.441406 273.980469 863.5625 275.933594 L 862.882812 276.878906 Z M 854.78125 271.082031 " fill-opacity="1" fill-rule="nonzero"/><path fill="#231f20" d="M 891.421875 296.542969 C 890.640625 297.054688 887.261719 299.042969 886.335938 299.503906 L 874.117188 287.089844 L 874.933594 286.292969 C 877.34375 288.335938 877.652344 288.335938 879.6875 286.332031 L 889.144531 277.023438 C 891.261719 274.945312 891.117188 274.523438 889.578125 272.644531 L 890.40625 271.832031 L 898.070312 279.621094 C 900.503906 282.097656 901.40625 282.960938 901.75 283.265625 C 901.285156 283.78125 899.441406 285.808594 898.09375 287.324219 L 897.113281 286.566406 C 897.699219 285.628906 898.097656 284.621094 898.316406 283.535156 C 898.5 282.523438 898.257812 281.96875 896.953125 280.640625 L 895.136719 278.792969 C 894.28125 277.925781 894.144531 277.898438 893.355469 278.675781 L 888.140625 283.804688 L 890.609375 286.3125 C 892.117188 287.847656 892.683594 287.6875 894.726562 286.34375 L 895.597656 287.226562 L 890.289062 292.453125 L 889.417969 291.570312 C 890.851562 289.441406 890.9375 288.96875 889.417969 287.429688 L 886.972656 284.945312 L 882.53125 289.316406 C 880.835938 290.984375 880.667969 291.585938 882.035156 293.023438 L 883.929688 294.949219 C 885.328125 296.359375 885.824219 296.5 887.007812 296.398438 C 888.3125 296.257812 889.574219 295.957031 890.796875 295.488281 Z M 891.421875 296.542969 " fill-opacity="1" fill-rule="nonzero"/><path fill="#231f20" d="M 928.242188 319.238281 C 926.796875 317.652344 926.070312 317.339844 924.746094 318.15625 C 923.679688 318.820312 922.597656 319.476562 920.101562 321.246094 L 908.933594 329.171875 L 907.945312 327.773438 L 913.796875 305.894531 L 907.238281 310.558594 C 904.773438 312.308594 903.671875 313.191406 902.914062 313.839844 C 901.675781 314.855469 901.558594 315.882812 902.886719 318.035156 L 901.9375 318.710938 L 897.027344 311.824219 L 897.972656 311.152344 C 899.28125 312.695312 900.191406 313.085938 901.632812 312.289062 C 903.242188 311.351562 904.796875 310.328125 906.292969 309.222656 L 913.105469 304.386719 C 913.949219 303.914062 914.515625 303.214844 914.8125 302.289062 C 915.148438 301.277344 914.8125 300.558594 914.042969 299.226562 L 914.992188 298.554688 L 918.554688 303.574219 L 913.441406 323.878906 L 919.117188 319.847656 C 921.609375 318.078125 922.613281 317.3125 923.511719 316.542969 C 924.675781 315.589844 924.828125 314.707031 923.335938 312.3125 L 924.285156 311.640625 L 929.195312 318.554688 Z M 928.242188 319.238281 " fill-opacity="1" fill-rule="nonzero"/><path fill="#231f20" d="M 941.800781 354.652344 C 942.695312 353.902344 943.453125 353.039062 944.078125 352.054688 C 944.546875 351.175781 944.644531 350.792969 943.78125 349.011719 L 942.640625 346.644531 L 927.929688 353.753906 C 925.398438 354.976562 925.296875 355.382812 926.453125 358.292969 L 925.40625 358.796875 L 920.664062 348.984375 L 921.707031 348.480469 C 923.226562 351.09375 923.585938 351.25 926.136719 350.023438 L 940.84375 342.910156 L 939.777344 340.703125 C 938.949219 338.980469 938.460938 338.605469 937.382812 338.433594 C 936.257812 338.347656 935.140625 338.402344 934.027344 338.59375 L 933.503906 337.507812 C 935.726562 336.6875 938.074219 335.804688 939.679688 335.117188 L 940.089844 335.972656 C 939.59375 336.78125 939.738281 337.15625 940.175781 338.070312 L 946.128906 350.386719 C 946.25 350.738281 946.453125 351.035156 946.738281 351.277344 C 947.019531 351.519531 947.34375 351.671875 947.710938 351.738281 L 948.117188 352.582031 C 946.773438 353.253906 944.285156 354.609375 942.429688 355.695312 Z M 941.800781 354.652344 " fill-opacity="1" fill-rule="nonzero"/><path fill="#231f20" d="M 957.890625 406.074219 C 959.925781 404.972656 962.085938 403.480469 961.433594 400.4375 C 961.398438 400.210938 961.339844 399.988281 961.257812 399.773438 C 961.175781 399.558594 961.070312 399.355469 960.945312 399.160156 C 960.820312 398.96875 960.675781 398.789062 960.511719 398.628906 C 960.347656 398.464844 960.167969 398.320312 959.976562 398.195312 C 959.78125 398.074219 959.578125 397.96875 959.359375 397.886719 C 959.144531 397.808594 958.921875 397.75 958.695312 397.714844 C 958.46875 397.679688 958.238281 397.671875 958.007812 397.683594 C 957.777344 397.699219 957.550781 397.738281 957.332031 397.800781 C 955.285156 398.234375 954.445312 399.851562 953.625 403.003906 C 952.691406 406.617188 951.570312 409.550781 948.085938 410.296875 C 944.265625 411.113281 940.714844 408.53125 939.726562 403.898438 C 939.390625 402.003906 939.347656 400.105469 939.59375 398.199219 C 940.34375 397.8125 943.464844 396.601562 944.992188 396.027344 L 945.542969 397.191406 C 943.574219 398.277344 940.464844 400.761719 941.183594 404.109375 C 941.214844 404.355469 941.273438 404.59375 941.359375 404.828125 C 941.445312 405.058594 941.554688 405.277344 941.6875 405.488281 C 941.820312 405.695312 941.972656 405.886719 942.148438 406.0625 C 942.324219 406.234375 942.515625 406.386719 942.726562 406.519531 C 942.933594 406.652344 943.15625 406.761719 943.386719 406.84375 C 943.621094 406.925781 943.859375 406.984375 944.105469 407.015625 C 944.351562 407.046875 944.59375 407.050781 944.839844 407.027344 C 945.085938 407.007812 945.328125 406.957031 945.5625 406.882812 C 947.710938 406.414062 948.554688 404.785156 949.433594 401.730469 C 950.414062 398.351562 951.511719 395.335938 955.121094 394.5625 C 958.617188 393.8125 961.84375 395.867188 962.875 400.691406 C 963.160156 402.296875 963.300781 403.917969 963.292969 405.550781 C 962.09375 405.945312 960.496094 406.496094 958.414062 407.222656 Z M 957.890625 406.074219 " fill-opacity="1" fill-rule="nonzero"/><path fill="#231f20" d="M 966.679688 446.292969 C 966.652344 445.839844 966.5625 445.402344 966.40625 444.980469 C 966.246094 444.554688 966.03125 444.164062 965.753906 443.804688 C 965.476562 443.445312 965.152344 443.136719 964.78125 442.878906 C 964.410156 442.617188 964.011719 442.421875 963.578125 442.28125 C 961.234375 441.09375 959.109375 440.09375 955.703125 438.632812 C 955.09375 438.351562 954.453125 438.253906 953.789062 438.335938 L 949.554688 438.613281 C 946.621094 438.808594 946.503906 439.082031 946.378906 442.222656 L 945.214844 442.300781 L 944.496094 431.496094 L 945.660156 431.414062 C 946.226562 434.351562 946.335938 434.652344 949.277344 434.457031 L 953.386719 434.183594 C 954.007812 434.15625 954.570312 433.957031 955.074219 433.585938 C 957.09375 432.378906 959.265625 431 962.589844 428.789062 C 964.765625 427.347656 965.171875 426.863281 965.246094 424.742188 L 966.414062 424.667969 L 967.042969 434.136719 L 965.875 434.214844 C 965.410156 431.882812 964.957031 432.003906 963.8125 432.675781 C 961.527344 434.074219 958.765625 435.78125 956.332031 437.300781 C 958.453125 438.261719 962.015625 439.785156 964.097656 440.609375 C 965.632812 441.210938 966.027344 440.96875 966.152344 438.398438 L 967.320312 438.320312 L 967.84375 446.214844 Z M 966.679688 446.292969 " fill-opacity="1" fill-rule="nonzero"/><path fill="#231f20" d="M 961.023438 475.839844 C 963.292969 475.375 965.785156 474.539062 966.023438 471.4375 C 966.054688 471.210938 966.058594 470.980469 966.042969 470.75 C 966.023438 470.519531 965.984375 470.292969 965.917969 470.074219 C 965.851562 469.851562 965.761719 469.640625 965.652344 469.4375 C 965.539062 469.234375 965.410156 469.046875 965.257812 468.871094 C 965.109375 468.699219 964.941406 468.539062 964.757812 468.402344 C 964.574219 468.261719 964.375 468.144531 964.167969 468.046875 C 963.957031 467.949219 963.742188 467.875 963.515625 467.824219 C 963.292969 467.773438 963.0625 467.746094 962.832031 467.742188 C 960.746094 467.582031 959.484375 468.894531 957.804688 471.683594 C 955.886719 474.886719 953.976562 477.382812 950.417969 477.109375 C 946.523438 476.808594 943.851562 473.324219 944.214844 468.597656 C 944.433594 466.6875 944.929688 464.851562 945.707031 463.09375 C 946.535156 462.9375 949.871094 462.660156 951.5 462.542969 L 951.699219 463.804688 C 949.507812 464.289062 945.816406 465.785156 945.554688 469.203125 C 945.515625 469.445312 945.503906 469.691406 945.519531 469.941406 C 945.535156 470.1875 945.578125 470.429688 945.648438 470.667969 C 945.714844 470.90625 945.808594 471.132812 945.929688 471.347656 C 946.046875 471.566406 946.1875 471.769531 946.351562 471.953125 C 946.515625 472.140625 946.695312 472.308594 946.894531 472.453125 C 947.09375 472.601562 947.308594 472.722656 947.535156 472.824219 C 947.761719 472.921875 947.996094 472.996094 948.238281 473.042969 C 948.480469 473.09375 948.726562 473.113281 948.972656 473.109375 C 951.164062 473.277344 952.4375 471.945312 954.144531 469.261719 C 956.046875 466.296875 957.957031 463.714844 961.636719 464 C 965.214844 464.273438 967.714844 467.15625 967.335938 472.078125 C 967.15625 473.699219 966.832031 475.292969 966.363281 476.855469 C 965.097656 476.898438 963.40625 476.972656 961.203125 477.089844 Z M 961.023438 475.839844 " fill-opacity="1" fill-rule="nonzero"/><path fill="#231f20" d="M 954.042969 513.90625 C 955.207031 513.878906 956.34375 513.671875 957.445312 513.292969 C 958.347656 512.886719 958.671875 512.65625 959.105469 510.730469 L 959.683594 508.167969 L 943.738281 504.578125 C 940.996094 503.960938 940.664062 504.214844 939.757812 507.214844 L 938.621094 506.960938 L 941.015625 496.316406 L 942.148438 496.574219 C 941.710938 499.566406 941.894531 499.910156 944.648438 500.535156 L 960.59375 504.125 L 961.132812 501.726562 C 961.550781 499.863281 961.40625 499.269531 960.664062 498.464844 C 959.835938 497.699219 958.925781 497.046875 957.933594 496.503906 L 958.199219 495.324219 C 960.453125 496.070312 962.84375 496.839844 964.523438 497.300781 L 964.316406 498.230469 C 963.421875 498.554688 963.300781 498.929688 963.082031 499.921875 L 960.074219 513.273438 C 959.953125 513.625 959.925781 513.984375 959.996094 514.351562 C 960.070312 514.714844 960.226562 515.039062 960.472656 515.320312 L 960.265625 516.230469 C 958.796875 515.921875 956.007812 515.433594 953.871094 515.132812 Z M 954.042969 513.90625 " fill-opacity="1" fill-rule="nonzero"/><path fill="#231f20" d="M 931.394531 545.691406 C 930.609375 545.183594 927.433594 542.894531 926.625 542.242188 L 933.03125 526.039062 L 934.089844 526.457031 C 933.199219 529.488281 933.320312 529.773438 935.980469 530.828125 L 948.332031 535.703125 C 951.089844 536.796875 951.417969 536.496094 952.511719 534.328125 L 953.59375 534.753906 L 949.570312 544.917969 C 948.296875 548.148438 947.867188 549.324219 947.734375 549.761719 C 947.066406 549.527344 944.46875 548.679688 942.539062 548.0625 L 942.828125 546.859375 C 943.925781 547.011719 945.011719 546.96875 946.09375 546.726562 C 947.09375 546.484375 947.503906 546.027344 948.191406 544.308594 L 949.140625 541.898438 C 949.589844 540.761719 949.558594 540.628906 948.527344 540.222656 L 941.71875 537.527344 L 940.425781 540.792969 C 939.632812 542.792969 940.007812 543.246094 942.054688 544.574219 L 941.589844 545.738281 L 934.660156 543 L 935.125 541.832031 C 937.65625 542.285156 938.117188 542.167969 938.914062 540.160156 L 940.191406 536.917969 L 934.398438 534.625 C 932.183594 533.75 931.566406 533.839844 930.808594 535.675781 L 929.8125 538.1875 C 929.082031 540.03125 929.164062 540.550781 929.734375 541.589844 C 930.390625 542.726562 931.175781 543.757812 932.101562 544.6875 Z M 931.394531 545.691406 " fill-opacity="1" fill-rule="nonzero"/><path fill="#231f20" d="M 909.898438 573.257812 L 910.890625 573.863281 C 909.726562 576.292969 909.839844 576.539062 912.65625 578.253906 L 924.257812 585.359375 C 920.46875 580 915.675781 573.125 912.605469 568.855469 L 913.152344 567.960938 C 918.160156 568.851562 926.050781 570.246094 932.554688 571.273438 C 923.253906 564.984375 921.273438 563.757812 920.390625 563.21875 C 918.773438 562.269531 918.035156 562.691406 916.527344 564.6875 L 915.535156 564.078125 L 919.921875 556.933594 L 920.910156 557.542969 C 920.039062 559.316406 919.917969 560.261719 921.464844 561.535156 C 922.398438 562.300781 923.796875 563.277344 933.390625 570.125 C 934.773438 571.113281 935.609375 571.292969 937.398438 568.90625 L 938.386719 569.511719 L 934.773438 575.40625 L 917.546875 573.003906 L 927.378906 587.453125 L 923.816406 593.257812 L 922.824219 592.652344 C 924.042969 590.085938 923.972656 589.660156 921.699219 588.339844 L 910.511719 581.742188 C 907.667969 580.082031 907.484375 580.113281 905.675781 582.367188 L 904.683594 581.761719 Z M 909.898438 573.257812 " fill-opacity="1" fill-rule="nonzero"/><path fill="#231f20" d="M 721.808594 674.421875 L 724.570312 682.945312 C 724.703125 683.355469 724.945312 683.6875 725.296875 683.941406 C 725.644531 684.195312 726.035156 684.324219 726.46875 684.324219 L 735.429688 684.324219 C 735.859375 684.328125 736.25 684.453125 736.597656 684.710938 C 736.949219 684.964844 737.1875 685.296875 737.320312 685.707031 C 737.453125 686.117188 737.453125 686.53125 737.320312 686.941406 C 737.183594 687.351562 736.945312 687.683594 736.59375 687.9375 L 729.347656 693.203125 C 728.996094 693.457031 728.753906 693.789062 728.621094 694.203125 C 728.488281 694.613281 728.488281 695.023438 728.621094 695.4375 L 731.390625 703.957031 C 731.523438 704.371094 731.523438 704.78125 731.390625 705.195312 C 731.257812 705.605469 731.015625 705.9375 730.664062 706.191406 C 730.316406 706.445312 729.921875 706.574219 729.492188 706.574219 C 729.058594 706.574219 728.667969 706.445312 728.316406 706.191406 L 721.070312 700.925781 C 720.71875 700.671875 720.328125 700.542969 719.894531 700.542969 C 719.460938 700.542969 719.070312 700.671875 718.71875 700.925781 L 711.472656 706.191406 C 711.121094 706.445312 710.730469 706.574219 710.296875 706.574219 C 709.863281 706.574219 709.472656 706.445312 709.125 706.191406 C 708.773438 705.9375 708.53125 705.605469 708.398438 705.195312 C 708.265625 704.78125 708.265625 704.371094 708.398438 703.957031 L 711.167969 695.4375 C 711.300781 695.023438 711.300781 694.613281 711.167969 694.203125 C 711.03125 693.789062 710.792969 693.457031 710.441406 693.203125 L 703.195312 687.9375 C 702.84375 687.683594 702.601562 687.351562 702.46875 686.941406 C 702.335938 686.53125 702.335938 686.117188 702.46875 685.707031 C 702.601562 685.296875 702.839844 684.964844 703.1875 684.710938 C 703.539062 684.453125 703.925781 684.328125 704.359375 684.324219 L 713.320312 684.324219 C 713.753906 684.324219 714.144531 684.195312 714.492188 683.941406 C 714.84375 683.6875 715.085938 683.355469 715.21875 682.945312 L 717.988281 674.421875 C 718.117188 674.003906 718.355469 673.660156 718.710938 673.402344 C 719.0625 673.140625 719.457031 673.007812 719.898438 673.007812 C 720.335938 673.007812 720.734375 673.140625 721.085938 673.402344 C 721.4375 673.660156 721.679688 674.003906 721.808594 674.421875 Z M 721.808594 674.421875 " fill-opacity="1" fill-rule="nonzero"/><path fill="#231f20" d="M 671.898438 666.792969 L 673.214844 675.648438 C 673.277344 676.078125 673.460938 676.445312 673.765625 676.753906 C 674.066406 677.0625 674.433594 677.253906 674.859375 677.324219 L 683.695312 678.816406 C 684.121094 678.886719 684.484375 679.078125 684.789062 679.386719 C 685.089844 679.695312 685.273438 680.0625 685.335938 680.492188 C 685.398438 680.917969 685.332031 681.324219 685.132812 681.707031 C 684.929688 682.089844 684.636719 682.378906 684.25 682.570312 L 676.230469 686.5625 C 675.84375 686.753906 675.546875 687.042969 675.347656 687.425781 C 675.148438 687.8125 675.078125 688.214844 675.144531 688.644531 L 676.457031 697.5 C 676.519531 697.929688 676.453125 698.335938 676.253906 698.71875 C 676.050781 699.101562 675.757812 699.386719 675.371094 699.582031 C 674.984375 699.773438 674.578125 699.835938 674.152344 699.761719 C 673.726562 699.691406 673.359375 699.5 673.058594 699.191406 L 666.785156 692.796875 C 666.480469 692.488281 666.117188 692.296875 665.6875 692.226562 C 665.261719 692.152344 664.855469 692.214844 664.46875 692.40625 L 656.445312 696.394531 C 656.058594 696.589844 655.652344 696.652344 655.222656 696.578125 C 654.796875 696.507812 654.433594 696.316406 654.128906 696.007812 C 653.824219 695.699219 653.640625 695.332031 653.578125 694.902344 C 653.515625 694.472656 653.582031 694.066406 653.785156 693.683594 L 657.929688 685.742188 C 658.132812 685.355469 658.203125 684.949219 658.136719 684.519531 C 658.074219 684.089844 657.890625 683.71875 657.585938 683.410156 L 651.3125 677.015625 C 651.007812 676.707031 650.828125 676.339844 650.765625 675.910156 C 650.699219 675.484375 650.769531 675.078125 650.96875 674.695312 C 651.167969 674.3125 651.460938 674.023438 651.847656 673.828125 C 652.234375 673.636719 652.640625 673.574219 653.070312 673.644531 L 661.902344 675.136719 C 662.328125 675.203125 662.734375 675.144531 663.121094 674.949219 C 663.507812 674.757812 663.800781 674.472656 664 674.089844 L 668.144531 666.144531 C 668.34375 665.757812 668.640625 665.46875 669.03125 665.273438 C 669.421875 665.078125 669.832031 665.019531 670.257812 665.09375 C 670.6875 665.167969 671.054688 665.359375 671.359375 665.675781 C 671.660156 665.988281 671.839844 666.363281 671.898438 666.792969 Z M 671.898438 666.792969 " fill-opacity="1" fill-rule="nonzero"/><path fill="#231f20" d="M 767.917969 666.792969 L 766.601562 675.648438 C 766.539062 676.078125 766.355469 676.445312 766.050781 676.753906 C 765.75 677.0625 765.382812 677.253906 764.957031 677.324219 L 756.121094 678.816406 C 755.695312 678.886719 755.332031 679.078125 755.03125 679.386719 C 754.726562 679.695312 754.542969 680.0625 754.480469 680.492188 C 754.417969 680.917969 754.484375 681.324219 754.683594 681.707031 C 754.886719 682.089844 755.179688 682.378906 755.566406 682.570312 L 763.585938 686.5625 C 763.972656 686.753906 764.269531 687.042969 764.46875 687.425781 C 764.667969 687.8125 764.738281 688.21875 764.671875 688.644531 L 763.359375 697.5 C 763.296875 697.929688 763.363281 698.335938 763.5625 698.71875 C 763.765625 699.101562 764.058594 699.386719 764.445312 699.582031 C 764.832031 699.773438 765.238281 699.835938 765.664062 699.761719 C 766.089844 699.691406 766.457031 699.5 766.757812 699.191406 L 773.03125 692.796875 C 773.335938 692.488281 773.699219 692.296875 774.128906 692.226562 C 774.554688 692.152344 774.960938 692.214844 775.347656 692.40625 L 783.371094 696.394531 C 783.757812 696.589844 784.164062 696.652344 784.59375 696.578125 C 785.019531 696.507812 785.382812 696.316406 785.6875 696.007812 C 785.992188 695.699219 786.175781 695.332031 786.238281 694.902344 C 786.300781 694.472656 786.234375 694.066406 786.03125 693.683594 L 781.886719 685.742188 C 781.683594 685.355469 781.613281 684.949219 781.679688 684.519531 C 781.742188 684.089844 781.925781 683.71875 782.230469 683.410156 L 788.503906 677.015625 C 788.808594 676.707031 788.988281 676.339844 789.054688 675.910156 C 789.117188 675.484375 789.046875 675.078125 788.847656 674.695312 C 788.648438 674.3125 788.355469 674.023438 787.96875 673.828125 C 787.582031 673.636719 787.175781 673.574219 786.746094 673.644531 L 777.914062 675.136719 C 777.488281 675.203125 777.082031 675.144531 776.695312 674.949219 C 776.308594 674.757812 776.015625 674.472656 775.816406 674.089844 L 771.671875 666.144531 C 771.472656 665.757812 771.175781 665.46875 770.785156 665.273438 C 770.394531 665.078125 769.988281 665.019531 769.558594 665.09375 C 769.128906 665.167969 768.761719 665.363281 768.457031 665.675781 C 768.15625 665.988281 767.976562 666.363281 767.917969 666.792969 Z M 767.917969 666.792969 " fill-opacity="1" fill-rule="nonzero"/><path fill="#231f20" d="M 640.28125 675.296875 C 640.011719 675.296875 639.75 675.253906 639.5 675.160156 C 629.46875 671.570312 619.722656 667.332031 610.257812 662.441406 C 600.792969 657.550781 591.699219 652.054688 582.96875 645.949219 C 574.238281 639.847656 565.949219 633.191406 558.109375 625.980469 C 550.265625 618.769531 542.9375 611.074219 536.121094 602.886719 C 535.921875 602.648438 535.777344 602.382812 535.683594 602.085938 C 535.589844 601.792969 535.558594 601.488281 535.585938 601.183594 C 535.613281 600.875 535.699219 600.582031 535.839844 600.308594 C 535.984375 600.035156 536.175781 599.796875 536.414062 599.597656 C 536.652344 599.398438 536.917969 599.253906 537.214844 599.164062 C 537.507812 599.070312 537.8125 599.039062 538.117188 599.066406 C 538.425781 599.09375 538.71875 599.179688 538.992188 599.324219 C 539.265625 599.46875 539.503906 599.660156 539.699219 599.898438 C 546.382812 607.925781 553.570312 615.476562 561.257812 622.546875 C 568.949219 629.613281 577.074219 636.144531 585.632812 642.128906 C 594.195312 648.113281 603.117188 653.503906 612.394531 658.300781 C 621.675781 663.09375 631.230469 667.253906 641.066406 670.773438 C 641.324219 670.867188 641.558594 671 641.769531 671.175781 C 641.980469 671.351562 642.15625 671.558594 642.292969 671.796875 C 642.429688 672.03125 642.523438 672.285156 642.570312 672.554688 C 642.621094 672.824219 642.621094 673.097656 642.574219 673.367188 C 642.527344 673.636719 642.433594 673.890625 642.300781 674.128906 C 642.164062 674.367188 641.988281 674.574219 641.78125 674.75 C 641.570312 674.925781 641.335938 675.0625 641.078125 675.15625 C 640.820312 675.25 640.554688 675.296875 640.28125 675.296875 Z M 640.28125 675.296875 " fill-opacity="1" fill-rule="nonzero"/><path fill="#231f20" d="M 799.535156 675.296875 C 799.261719 675.296875 798.996094 675.25 798.738281 675.15625 C 798.480469 675.0625 798.246094 674.925781 798.035156 674.75 C 797.828125 674.574219 797.652344 674.367188 797.515625 674.128906 C 797.382812 673.890625 797.289062 673.636719 797.242188 673.367188 C 797.195312 673.097656 797.195312 672.824219 797.246094 672.554688 C 797.292969 672.285156 797.386719 672.03125 797.523438 671.796875 C 797.660156 671.558594 797.835938 671.351562 798.046875 671.175781 C 798.257812 671 798.492188 670.867188 798.75 670.773438 C 808.585938 667.253906 818.144531 663.097656 827.425781 658.300781 C 836.707031 653.503906 845.625 648.113281 854.1875 642.128906 C 862.75 636.144531 870.875 629.617188 878.566406 622.546875 C 886.257812 615.476562 893.445312 607.925781 900.128906 599.898438 C 900.324219 599.660156 900.5625 599.472656 900.835938 599.328125 C 901.109375 599.183594 901.398438 599.097656 901.707031 599.070312 C 902.015625 599.042969 902.316406 599.074219 902.613281 599.167969 C 902.90625 599.257812 903.175781 599.40625 903.410156 599.601562 C 903.648438 599.800781 903.839844 600.035156 903.984375 600.308594 C 904.125 600.585938 904.210938 600.875 904.238281 601.183594 C 904.265625 601.492188 904.234375 601.792969 904.144531 602.085938 C 904.050781 602.382812 903.90625 602.648438 903.707031 602.886719 C 896.890625 611.074219 889.558594 618.773438 881.714844 625.980469 C 873.871094 633.191406 865.585938 639.847656 856.851562 645.953125 C 848.121094 652.054688 839.023438 657.550781 829.554688 662.441406 C 820.089844 667.332031 810.34375 671.570312 800.3125 675.160156 C 800.0625 675.25 799.800781 675.296875 799.535156 675.296875 Z M 799.535156 675.296875 " fill-opacity="1" fill-rule="nonzero"/></svg>