<?xml version="1.0" encoding="UTF-8" standalone="no"?> <svg xmlns="http://www.w3.org/2000/svg" width="1706.684" height="1685.48" viewBox="0 0 1706.684 1685.48">
  <g id="Layer_x0020_1" transform="translate(-313.328 -323.93)">
    <path id="Path_281" data-name="Path 281" d="M647.15,883.29H1686.19a26.669,26.669,0,0,1,26.67,26.67V1982.74a26.669,26.669,0,0,1-26.67,26.67H647.15a26.669,26.669,0,0,1-26.67-26.67V909.96A26.669,26.669,0,0,1,647.15,883.29Zm1012.37,53.34H673.82V1956.07h985.7V936.63Z" fill="#250e1e"/>
    <path id="Path_282" data-name="Path 282" d="M825.63,1193.75l15.5-.1a65.587,65.587,0,0,1,65.46,65.46V1694.3a65.587,65.587,0,0,1-65.46,65.46l-15.5-.08v223.05a26.669,26.669,0,0,1-26.67,26.67H647.15a26.669,26.669,0,0,1-26.67-26.67V909.95a26.669,26.669,0,0,1,26.67-26.67H798.96a26.669,26.669,0,0,1,26.67,26.67Zm-24.31,53.12c-.78.07-1.56.11-2.36.11a26.669,26.669,0,0,1-26.67-26.67V936.63H673.82V1956.07h98.47V1733.18h0a26.678,26.678,0,0,1,26.62-26.67l42.22-.08a12.224,12.224,0,0,0,12.12-12.12V1259.12A12.224,12.224,0,0,0,841.13,1247l-39.81-.12Z" fill="#250e1e"/>
    <path id="Path_283" data-name="Path 283" d="M1532.02,1246.87l-39.81.01v.11a12.224,12.224,0,0,0-12.12,12.12V1694.3a12.189,12.189,0,0,0,12.12,12.12v.11l42.22-.03a26.665,26.665,0,0,1,26.62,26.67h0v222.89h98.47V936.62h-98.47V1220.3a26.669,26.669,0,0,1-26.67,26.67c-.8,0-1.58-.04-2.36-.11Zm-39.81-53.11h15.5V909.96a26.669,26.669,0,0,1,26.67-26.67h151.81a26.669,26.669,0,0,1,26.67,26.67V1982.74a26.669,26.669,0,0,1-26.67,26.67H1534.38a26.669,26.669,0,0,1-26.67-26.67V1759.69l-15.5-.03v.11a65.669,65.669,0,0,1-65.46-65.46V1259.12a65.587,65.587,0,0,1,65.46-65.46v.11Z" fill="#250e1e"/>
    <path id="Path_284" data-name="Path 284" d="M1731.74,936.63H601.58a56.456,56.456,0,0,1-56.17-56.22V639.81a56.456,56.456,0,0,1,56.18-56.22H1731.75a56.508,56.508,0,0,1,56.18,56.22v240.6a56.508,56.508,0,0,1-56.18,56.22ZM601.58,883.29H1731.74a2.778,2.778,0,0,0,1.98-.78,2.97,2.97,0,0,0,.86-2.1V639.81a2.953,2.953,0,0,0-.86-2.1,2.778,2.778,0,0,0-1.98-.78H601.58a2.78,2.78,0,0,0-1.99.76,3.006,3.006,0,0,0-.85,2.13v240.6a3.024,3.024,0,0,0,.85,2.13,2.8,2.8,0,0,0,1.98.76Z" fill="#250e1e"/>
    <path id="Path_285" data-name="Path 285" d="M746.89,676.09a84.024,84.024,0,1,1-59.4,24.61A83.8,83.8,0,0,1,746.89,676.09Zm21.7,62.32a30.7,30.7,0,1,0,8.98,21.69A30.584,30.584,0,0,0,768.59,738.41Z" fill="#250e1e"/>
    <path id="Path_286" data-name="Path 286" d="M956.07,676.09a84.024,84.024,0,1,1-59.4,24.61A83.8,83.8,0,0,1,956.07,676.09Zm21.7,62.32a30.7,30.7,0,1,0,8.98,21.69A30.584,30.584,0,0,0,977.77,738.41Z" fill="#250e1e"/>
    <path id="Path_287" data-name="Path 287" d="M1165.24,676.09a84.024,84.024,0,1,1-59.4,24.61A83.763,83.763,0,0,1,1165.24,676.09Zm21.69,62.32a30.7,30.7,0,1,0,8.98,21.69A30.578,30.578,0,0,0,1186.93,738.41Z" fill="#250e1e"/>
    <path id="Path_288" data-name="Path 288" d="M1393.2,730.71a26.67,26.67,0,0,0-53.34,0v58.8a26.67,26.67,0,0,0,53.34,0Z" fill="#250e1e"/>
    <path id="Path_289" data-name="Path 289" d="M1470.16,730.71a26.67,26.67,0,0,0-53.34,0v58.8a26.67,26.67,0,0,0,53.34,0Z" fill="#250e1e"/>
    <path id="Path_290" data-name="Path 290" d="M1547.12,730.71a26.67,26.67,0,0,0-53.34,0v58.8a26.67,26.67,0,0,0,53.34,0Z" fill="#250e1e"/>
    <path id="Path_291" data-name="Path 291" d="M1624.07,730.71a26.67,26.67,0,0,0-53.34,0v58.8a26.67,26.67,0,0,0,53.34,0Z" fill="#250e1e"/>
    <path id="Path_292" data-name="Path 292" d="M647.15,1808.8a26.67,26.67,0,0,0,0,53.34H798.96a26.67,26.67,0,0,0,0-53.34Z" fill="#250e1e"/>
    <path id="Path_293" data-name="Path 293" d="M1534.38,1808.8a26.67,26.67,0,0,0,0,53.34h151.81a26.67,26.67,0,0,0,0-53.34H1534.38Z" fill="#250e1e"/>
    <path id="Path_294" data-name="Path 294" d="M647.15,1030.55a26.67,26.67,0,0,0,0,53.34H798.96a26.67,26.67,0,0,0,0-53.34Z" fill="#250e1e"/>
    <path id="Path_295" data-name="Path 295" d="M1534.38,1030.55a26.67,26.67,0,0,0,0,53.34h151.81a26.67,26.67,0,0,0,0-53.34H1534.38Z" fill="#250e1e"/>
    <path id="Path_296" data-name="Path 296" d="M340,1956.06a26.67,26.67,0,0,0,0,53.34H1993.34a26.67,26.67,0,1,0,0-53.34Z" fill="#250e1e"/>
    <path id="Path_297" data-name="Path 297" d="M1011.18,583.59h230V480.42a103.521,103.521,0,0,0-103.16-103.16h-23.67a103.521,103.521,0,0,0-103.16,103.16V583.59Zm256.67,53.34H984.52a26.669,26.669,0,0,1-26.67-26.67V480.43a156.885,156.885,0,0,1,156.5-156.5h23.67a156.885,156.885,0,0,1,156.5,156.5V610.26a26.669,26.669,0,0,1-26.67,26.67Z" fill="#250e1e"/>
    <path id="Path_298" data-name="Path 298" d="M1257.05,421.05a26.564,26.564,0,1,0-33.74-41.04L967.64,589.73a26.564,26.564,0,1,0,33.74,41.04l255.67-209.72Z" fill="#250e1e"/>
  </g>
</svg>
